%TF.GenerationSoftware,KiCad,Pcbnew,7.0.6*%
%TF.CreationDate,2023-07-29T19:13:38+05:30*%
%TF.ProjectId,Final_ESA,46696e61-6c5f-4455-9341-2e6b69636164,rev?*%
%TF.SameCoordinates,Original*%
%TF.FileFunction,Legend,Top*%
%TF.FilePolarity,Positive*%
%FSLAX46Y46*%
G04 Gerber Fmt 4.6, Leading zero omitted, Abs format (unit mm)*
G04 Created by KiCad (PCBNEW 7.0.6) date 2023-07-29 19:13:38*
%MOMM*%
%LPD*%
G01*
G04 APERTURE LIST*
%ADD10C,0.150000*%
G04 APERTURE END LIST*
D10*
X157480000Y-111760000D02*
X162560000Y-104140000D01*
X160020000Y-111760000D02*
X162560000Y-124460000D01*
X129540000Y-109220000D02*
X137160000Y-99060000D01*
X122256779Y-121789819D02*
X122256779Y-120789819D01*
X122256779Y-120789819D02*
X122637731Y-120789819D01*
X122637731Y-120789819D02*
X122732969Y-120837438D01*
X122732969Y-120837438D02*
X122780588Y-120885057D01*
X122780588Y-120885057D02*
X122828207Y-120980295D01*
X122828207Y-120980295D02*
X122828207Y-121123152D01*
X122828207Y-121123152D02*
X122780588Y-121218390D01*
X122780588Y-121218390D02*
X122732969Y-121266009D01*
X122732969Y-121266009D02*
X122637731Y-121313628D01*
X122637731Y-121313628D02*
X122256779Y-121313628D01*
X123256779Y-121266009D02*
X123590112Y-121266009D01*
X123732969Y-121789819D02*
X123256779Y-121789819D01*
X123256779Y-121789819D02*
X123256779Y-120789819D01*
X123256779Y-120789819D02*
X123732969Y-120789819D01*
X124113922Y-121742200D02*
X124256779Y-121789819D01*
X124256779Y-121789819D02*
X124494874Y-121789819D01*
X124494874Y-121789819D02*
X124590112Y-121742200D01*
X124590112Y-121742200D02*
X124637731Y-121694580D01*
X124637731Y-121694580D02*
X124685350Y-121599342D01*
X124685350Y-121599342D02*
X124685350Y-121504104D01*
X124685350Y-121504104D02*
X124637731Y-121408866D01*
X124637731Y-121408866D02*
X124590112Y-121361247D01*
X124590112Y-121361247D02*
X124494874Y-121313628D01*
X124494874Y-121313628D02*
X124304398Y-121266009D01*
X124304398Y-121266009D02*
X124209160Y-121218390D01*
X124209160Y-121218390D02*
X124161541Y-121170771D01*
X124161541Y-121170771D02*
X124113922Y-121075533D01*
X124113922Y-121075533D02*
X124113922Y-120980295D01*
X124113922Y-120980295D02*
X124161541Y-120885057D01*
X124161541Y-120885057D02*
X124209160Y-120837438D01*
X124209160Y-120837438D02*
X124304398Y-120789819D01*
X124304398Y-120789819D02*
X124542493Y-120789819D01*
X124542493Y-120789819D02*
X124685350Y-120837438D01*
X125637731Y-121789819D02*
X125066303Y-121789819D01*
X125352017Y-121789819D02*
X125352017Y-120789819D01*
X125352017Y-120789819D02*
X125256779Y-120932676D01*
X125256779Y-120932676D02*
X125161541Y-121027914D01*
X125161541Y-121027914D02*
X125066303Y-121075533D01*
X126066303Y-120789819D02*
X126066303Y-121599342D01*
X126066303Y-121599342D02*
X126113922Y-121694580D01*
X126113922Y-121694580D02*
X126161541Y-121742200D01*
X126161541Y-121742200D02*
X126256779Y-121789819D01*
X126256779Y-121789819D02*
X126447255Y-121789819D01*
X126447255Y-121789819D02*
X126542493Y-121742200D01*
X126542493Y-121742200D02*
X126590112Y-121694580D01*
X126590112Y-121694580D02*
X126637731Y-121599342D01*
X126637731Y-121599342D02*
X126637731Y-120789819D01*
X127637731Y-120837438D02*
X127542493Y-120789819D01*
X127542493Y-120789819D02*
X127399636Y-120789819D01*
X127399636Y-120789819D02*
X127256779Y-120837438D01*
X127256779Y-120837438D02*
X127161541Y-120932676D01*
X127161541Y-120932676D02*
X127113922Y-121027914D01*
X127113922Y-121027914D02*
X127066303Y-121218390D01*
X127066303Y-121218390D02*
X127066303Y-121361247D01*
X127066303Y-121361247D02*
X127113922Y-121551723D01*
X127113922Y-121551723D02*
X127161541Y-121646961D01*
X127161541Y-121646961D02*
X127256779Y-121742200D01*
X127256779Y-121742200D02*
X127399636Y-121789819D01*
X127399636Y-121789819D02*
X127494874Y-121789819D01*
X127494874Y-121789819D02*
X127637731Y-121742200D01*
X127637731Y-121742200D02*
X127685350Y-121694580D01*
X127685350Y-121694580D02*
X127685350Y-121361247D01*
X127685350Y-121361247D02*
X127494874Y-121361247D01*
X128066303Y-120885057D02*
X128113922Y-120837438D01*
X128113922Y-120837438D02*
X128209160Y-120789819D01*
X128209160Y-120789819D02*
X128447255Y-120789819D01*
X128447255Y-120789819D02*
X128542493Y-120837438D01*
X128542493Y-120837438D02*
X128590112Y-120885057D01*
X128590112Y-120885057D02*
X128637731Y-120980295D01*
X128637731Y-120980295D02*
X128637731Y-121075533D01*
X128637731Y-121075533D02*
X128590112Y-121218390D01*
X128590112Y-121218390D02*
X128018684Y-121789819D01*
X128018684Y-121789819D02*
X128637731Y-121789819D01*
X129590112Y-121789819D02*
X129018684Y-121789819D01*
X129304398Y-121789819D02*
X129304398Y-120789819D01*
X129304398Y-120789819D02*
X129209160Y-120932676D01*
X129209160Y-120932676D02*
X129113922Y-121027914D01*
X129113922Y-121027914D02*
X129018684Y-121075533D01*
X130018684Y-121266009D02*
X130352017Y-121266009D01*
X130494874Y-121789819D02*
X130018684Y-121789819D01*
X130018684Y-121789819D02*
X130018684Y-120789819D01*
X130018684Y-120789819D02*
X130494874Y-120789819D01*
X131494874Y-121694580D02*
X131447255Y-121742200D01*
X131447255Y-121742200D02*
X131304398Y-121789819D01*
X131304398Y-121789819D02*
X131209160Y-121789819D01*
X131209160Y-121789819D02*
X131066303Y-121742200D01*
X131066303Y-121742200D02*
X130971065Y-121646961D01*
X130971065Y-121646961D02*
X130923446Y-121551723D01*
X130923446Y-121551723D02*
X130875827Y-121361247D01*
X130875827Y-121361247D02*
X130875827Y-121218390D01*
X130875827Y-121218390D02*
X130923446Y-121027914D01*
X130923446Y-121027914D02*
X130971065Y-120932676D01*
X130971065Y-120932676D02*
X131066303Y-120837438D01*
X131066303Y-120837438D02*
X131209160Y-120789819D01*
X131209160Y-120789819D02*
X131304398Y-120789819D01*
X131304398Y-120789819D02*
X131447255Y-120837438D01*
X131447255Y-120837438D02*
X131494874Y-120885057D01*
X131875827Y-120885057D02*
X131923446Y-120837438D01*
X131923446Y-120837438D02*
X132018684Y-120789819D01*
X132018684Y-120789819D02*
X132256779Y-120789819D01*
X132256779Y-120789819D02*
X132352017Y-120837438D01*
X132352017Y-120837438D02*
X132399636Y-120885057D01*
X132399636Y-120885057D02*
X132447255Y-120980295D01*
X132447255Y-120980295D02*
X132447255Y-121075533D01*
X132447255Y-121075533D02*
X132399636Y-121218390D01*
X132399636Y-121218390D02*
X131828208Y-121789819D01*
X131828208Y-121789819D02*
X132447255Y-121789819D01*
X133018684Y-121218390D02*
X132923446Y-121170771D01*
X132923446Y-121170771D02*
X132875827Y-121123152D01*
X132875827Y-121123152D02*
X132828208Y-121027914D01*
X132828208Y-121027914D02*
X132828208Y-120980295D01*
X132828208Y-120980295D02*
X132875827Y-120885057D01*
X132875827Y-120885057D02*
X132923446Y-120837438D01*
X132923446Y-120837438D02*
X133018684Y-120789819D01*
X133018684Y-120789819D02*
X133209160Y-120789819D01*
X133209160Y-120789819D02*
X133304398Y-120837438D01*
X133304398Y-120837438D02*
X133352017Y-120885057D01*
X133352017Y-120885057D02*
X133399636Y-120980295D01*
X133399636Y-120980295D02*
X133399636Y-121027914D01*
X133399636Y-121027914D02*
X133352017Y-121123152D01*
X133352017Y-121123152D02*
X133304398Y-121170771D01*
X133304398Y-121170771D02*
X133209160Y-121218390D01*
X133209160Y-121218390D02*
X133018684Y-121218390D01*
X133018684Y-121218390D02*
X132923446Y-121266009D01*
X132923446Y-121266009D02*
X132875827Y-121313628D01*
X132875827Y-121313628D02*
X132828208Y-121408866D01*
X132828208Y-121408866D02*
X132828208Y-121599342D01*
X132828208Y-121599342D02*
X132875827Y-121694580D01*
X132875827Y-121694580D02*
X132923446Y-121742200D01*
X132923446Y-121742200D02*
X133018684Y-121789819D01*
X133018684Y-121789819D02*
X133209160Y-121789819D01*
X133209160Y-121789819D02*
X133304398Y-121742200D01*
X133304398Y-121742200D02*
X133352017Y-121694580D01*
X133352017Y-121694580D02*
X133399636Y-121599342D01*
X133399636Y-121599342D02*
X133399636Y-121408866D01*
X133399636Y-121408866D02*
X133352017Y-121313628D01*
X133352017Y-121313628D02*
X133304398Y-121266009D01*
X133304398Y-121266009D02*
X133209160Y-121218390D01*
X133732970Y-120789819D02*
X134352017Y-120789819D01*
X134352017Y-120789819D02*
X134018684Y-121170771D01*
X134018684Y-121170771D02*
X134161541Y-121170771D01*
X134161541Y-121170771D02*
X134256779Y-121218390D01*
X134256779Y-121218390D02*
X134304398Y-121266009D01*
X134304398Y-121266009D02*
X134352017Y-121361247D01*
X134352017Y-121361247D02*
X134352017Y-121599342D01*
X134352017Y-121599342D02*
X134304398Y-121694580D01*
X134304398Y-121694580D02*
X134256779Y-121742200D01*
X134256779Y-121742200D02*
X134161541Y-121789819D01*
X134161541Y-121789819D02*
X133875827Y-121789819D01*
X133875827Y-121789819D02*
X133780589Y-121742200D01*
X133780589Y-121742200D02*
X133732970Y-121694580D01*
X162801541Y-103009819D02*
X163420588Y-103009819D01*
X163420588Y-103009819D02*
X163087255Y-103390771D01*
X163087255Y-103390771D02*
X163230112Y-103390771D01*
X163230112Y-103390771D02*
X163325350Y-103438390D01*
X163325350Y-103438390D02*
X163372969Y-103486009D01*
X163372969Y-103486009D02*
X163420588Y-103581247D01*
X163420588Y-103581247D02*
X163420588Y-103819342D01*
X163420588Y-103819342D02*
X163372969Y-103914580D01*
X163372969Y-103914580D02*
X163325350Y-103962200D01*
X163325350Y-103962200D02*
X163230112Y-104009819D01*
X163230112Y-104009819D02*
X162944398Y-104009819D01*
X162944398Y-104009819D02*
X162849160Y-103962200D01*
X162849160Y-103962200D02*
X162801541Y-103914580D01*
X164611065Y-104009819D02*
X164611065Y-103343152D01*
X164611065Y-103438390D02*
X164658684Y-103390771D01*
X164658684Y-103390771D02*
X164753922Y-103343152D01*
X164753922Y-103343152D02*
X164896779Y-103343152D01*
X164896779Y-103343152D02*
X164992017Y-103390771D01*
X164992017Y-103390771D02*
X165039636Y-103486009D01*
X165039636Y-103486009D02*
X165039636Y-104009819D01*
X165039636Y-103486009D02*
X165087255Y-103390771D01*
X165087255Y-103390771D02*
X165182493Y-103343152D01*
X165182493Y-103343152D02*
X165325350Y-103343152D01*
X165325350Y-103343152D02*
X165420589Y-103390771D01*
X165420589Y-103390771D02*
X165468208Y-103486009D01*
X165468208Y-103486009D02*
X165468208Y-104009819D01*
X165944398Y-104009819D02*
X165944398Y-103343152D01*
X165944398Y-103438390D02*
X165992017Y-103390771D01*
X165992017Y-103390771D02*
X166087255Y-103343152D01*
X166087255Y-103343152D02*
X166230112Y-103343152D01*
X166230112Y-103343152D02*
X166325350Y-103390771D01*
X166325350Y-103390771D02*
X166372969Y-103486009D01*
X166372969Y-103486009D02*
X166372969Y-104009819D01*
X166372969Y-103486009D02*
X166420588Y-103390771D01*
X166420588Y-103390771D02*
X166515826Y-103343152D01*
X166515826Y-103343152D02*
X166658683Y-103343152D01*
X166658683Y-103343152D02*
X166753922Y-103390771D01*
X166753922Y-103390771D02*
X166801541Y-103486009D01*
X166801541Y-103486009D02*
X166801541Y-104009819D01*
X168468207Y-104009819D02*
X168468207Y-103009819D01*
X168468207Y-103962200D02*
X168372969Y-104009819D01*
X168372969Y-104009819D02*
X168182493Y-104009819D01*
X168182493Y-104009819D02*
X168087255Y-103962200D01*
X168087255Y-103962200D02*
X168039636Y-103914580D01*
X168039636Y-103914580D02*
X167992017Y-103819342D01*
X167992017Y-103819342D02*
X167992017Y-103533628D01*
X167992017Y-103533628D02*
X168039636Y-103438390D01*
X168039636Y-103438390D02*
X168087255Y-103390771D01*
X168087255Y-103390771D02*
X168182493Y-103343152D01*
X168182493Y-103343152D02*
X168372969Y-103343152D01*
X168372969Y-103343152D02*
X168468207Y-103390771D01*
X168944398Y-104009819D02*
X168944398Y-103343152D01*
X168944398Y-103009819D02*
X168896779Y-103057438D01*
X168896779Y-103057438D02*
X168944398Y-103105057D01*
X168944398Y-103105057D02*
X168992017Y-103057438D01*
X168992017Y-103057438D02*
X168944398Y-103009819D01*
X168944398Y-103009819D02*
X168944398Y-103105057D01*
X169849159Y-104009819D02*
X169849159Y-103486009D01*
X169849159Y-103486009D02*
X169801540Y-103390771D01*
X169801540Y-103390771D02*
X169706302Y-103343152D01*
X169706302Y-103343152D02*
X169515826Y-103343152D01*
X169515826Y-103343152D02*
X169420588Y-103390771D01*
X169849159Y-103962200D02*
X169753921Y-104009819D01*
X169753921Y-104009819D02*
X169515826Y-104009819D01*
X169515826Y-104009819D02*
X169420588Y-103962200D01*
X169420588Y-103962200D02*
X169372969Y-103866961D01*
X169372969Y-103866961D02*
X169372969Y-103771723D01*
X169372969Y-103771723D02*
X169420588Y-103676485D01*
X169420588Y-103676485D02*
X169515826Y-103628866D01*
X169515826Y-103628866D02*
X169753921Y-103628866D01*
X169753921Y-103628866D02*
X169849159Y-103581247D01*
X163325350Y-123329819D02*
X163134874Y-123329819D01*
X163134874Y-123329819D02*
X163039636Y-123377438D01*
X163039636Y-123377438D02*
X162992017Y-123425057D01*
X162992017Y-123425057D02*
X162896779Y-123567914D01*
X162896779Y-123567914D02*
X162849160Y-123758390D01*
X162849160Y-123758390D02*
X162849160Y-124139342D01*
X162849160Y-124139342D02*
X162896779Y-124234580D01*
X162896779Y-124234580D02*
X162944398Y-124282200D01*
X162944398Y-124282200D02*
X163039636Y-124329819D01*
X163039636Y-124329819D02*
X163230112Y-124329819D01*
X163230112Y-124329819D02*
X163325350Y-124282200D01*
X163325350Y-124282200D02*
X163372969Y-124234580D01*
X163372969Y-124234580D02*
X163420588Y-124139342D01*
X163420588Y-124139342D02*
X163420588Y-123901247D01*
X163420588Y-123901247D02*
X163372969Y-123806009D01*
X163372969Y-123806009D02*
X163325350Y-123758390D01*
X163325350Y-123758390D02*
X163230112Y-123710771D01*
X163230112Y-123710771D02*
X163039636Y-123710771D01*
X163039636Y-123710771D02*
X162944398Y-123758390D01*
X162944398Y-123758390D02*
X162896779Y-123806009D01*
X162896779Y-123806009D02*
X162849160Y-123901247D01*
X164611065Y-124329819D02*
X164611065Y-123663152D01*
X164611065Y-123758390D02*
X164658684Y-123710771D01*
X164658684Y-123710771D02*
X164753922Y-123663152D01*
X164753922Y-123663152D02*
X164896779Y-123663152D01*
X164896779Y-123663152D02*
X164992017Y-123710771D01*
X164992017Y-123710771D02*
X165039636Y-123806009D01*
X165039636Y-123806009D02*
X165039636Y-124329819D01*
X165039636Y-123806009D02*
X165087255Y-123710771D01*
X165087255Y-123710771D02*
X165182493Y-123663152D01*
X165182493Y-123663152D02*
X165325350Y-123663152D01*
X165325350Y-123663152D02*
X165420589Y-123710771D01*
X165420589Y-123710771D02*
X165468208Y-123806009D01*
X165468208Y-123806009D02*
X165468208Y-124329819D01*
X165944398Y-124329819D02*
X165944398Y-123663152D01*
X165944398Y-123758390D02*
X165992017Y-123710771D01*
X165992017Y-123710771D02*
X166087255Y-123663152D01*
X166087255Y-123663152D02*
X166230112Y-123663152D01*
X166230112Y-123663152D02*
X166325350Y-123710771D01*
X166325350Y-123710771D02*
X166372969Y-123806009D01*
X166372969Y-123806009D02*
X166372969Y-124329819D01*
X166372969Y-123806009D02*
X166420588Y-123710771D01*
X166420588Y-123710771D02*
X166515826Y-123663152D01*
X166515826Y-123663152D02*
X166658683Y-123663152D01*
X166658683Y-123663152D02*
X166753922Y-123710771D01*
X166753922Y-123710771D02*
X166801541Y-123806009D01*
X166801541Y-123806009D02*
X166801541Y-124329819D01*
X167992017Y-124282200D02*
X168087255Y-124329819D01*
X168087255Y-124329819D02*
X168277731Y-124329819D01*
X168277731Y-124329819D02*
X168372969Y-124282200D01*
X168372969Y-124282200D02*
X168420588Y-124186961D01*
X168420588Y-124186961D02*
X168420588Y-124139342D01*
X168420588Y-124139342D02*
X168372969Y-124044104D01*
X168372969Y-124044104D02*
X168277731Y-123996485D01*
X168277731Y-123996485D02*
X168134874Y-123996485D01*
X168134874Y-123996485D02*
X168039636Y-123948866D01*
X168039636Y-123948866D02*
X167992017Y-123853628D01*
X167992017Y-123853628D02*
X167992017Y-123806009D01*
X167992017Y-123806009D02*
X168039636Y-123710771D01*
X168039636Y-123710771D02*
X168134874Y-123663152D01*
X168134874Y-123663152D02*
X168277731Y-123663152D01*
X168277731Y-123663152D02*
X168372969Y-123710771D01*
X168849160Y-123663152D02*
X168849160Y-124663152D01*
X168849160Y-123710771D02*
X168944398Y-123663152D01*
X168944398Y-123663152D02*
X169134874Y-123663152D01*
X169134874Y-123663152D02*
X169230112Y-123710771D01*
X169230112Y-123710771D02*
X169277731Y-123758390D01*
X169277731Y-123758390D02*
X169325350Y-123853628D01*
X169325350Y-123853628D02*
X169325350Y-124139342D01*
X169325350Y-124139342D02*
X169277731Y-124234580D01*
X169277731Y-124234580D02*
X169230112Y-124282200D01*
X169230112Y-124282200D02*
X169134874Y-124329819D01*
X169134874Y-124329819D02*
X168944398Y-124329819D01*
X168944398Y-124329819D02*
X168849160Y-124282200D01*
X170182493Y-124329819D02*
X170182493Y-123806009D01*
X170182493Y-123806009D02*
X170134874Y-123710771D01*
X170134874Y-123710771D02*
X170039636Y-123663152D01*
X170039636Y-123663152D02*
X169849160Y-123663152D01*
X169849160Y-123663152D02*
X169753922Y-123710771D01*
X170182493Y-124282200D02*
X170087255Y-124329819D01*
X170087255Y-124329819D02*
X169849160Y-124329819D01*
X169849160Y-124329819D02*
X169753922Y-124282200D01*
X169753922Y-124282200D02*
X169706303Y-124186961D01*
X169706303Y-124186961D02*
X169706303Y-124091723D01*
X169706303Y-124091723D02*
X169753922Y-123996485D01*
X169753922Y-123996485D02*
X169849160Y-123948866D01*
X169849160Y-123948866D02*
X170087255Y-123948866D01*
X170087255Y-123948866D02*
X170182493Y-123901247D01*
X171087255Y-124282200D02*
X170992017Y-124329819D01*
X170992017Y-124329819D02*
X170801541Y-124329819D01*
X170801541Y-124329819D02*
X170706303Y-124282200D01*
X170706303Y-124282200D02*
X170658684Y-124234580D01*
X170658684Y-124234580D02*
X170611065Y-124139342D01*
X170611065Y-124139342D02*
X170611065Y-123853628D01*
X170611065Y-123853628D02*
X170658684Y-123758390D01*
X170658684Y-123758390D02*
X170706303Y-123710771D01*
X170706303Y-123710771D02*
X170801541Y-123663152D01*
X170801541Y-123663152D02*
X170992017Y-123663152D01*
X170992017Y-123663152D02*
X171087255Y-123710771D01*
X171515827Y-124329819D02*
X171515827Y-123663152D01*
X171515827Y-123329819D02*
X171468208Y-123377438D01*
X171468208Y-123377438D02*
X171515827Y-123425057D01*
X171515827Y-123425057D02*
X171563446Y-123377438D01*
X171563446Y-123377438D02*
X171515827Y-123329819D01*
X171515827Y-123329819D02*
X171515827Y-123425057D01*
X171992017Y-123663152D02*
X171992017Y-124329819D01*
X171992017Y-123758390D02*
X172039636Y-123710771D01*
X172039636Y-123710771D02*
X172134874Y-123663152D01*
X172134874Y-123663152D02*
X172277731Y-123663152D01*
X172277731Y-123663152D02*
X172372969Y-123710771D01*
X172372969Y-123710771D02*
X172420588Y-123806009D01*
X172420588Y-123806009D02*
X172420588Y-124329819D01*
X173325350Y-123663152D02*
X173325350Y-124472676D01*
X173325350Y-124472676D02*
X173277731Y-124567914D01*
X173277731Y-124567914D02*
X173230112Y-124615533D01*
X173230112Y-124615533D02*
X173134874Y-124663152D01*
X173134874Y-124663152D02*
X172992017Y-124663152D01*
X172992017Y-124663152D02*
X172896779Y-124615533D01*
X173325350Y-124282200D02*
X173230112Y-124329819D01*
X173230112Y-124329819D02*
X173039636Y-124329819D01*
X173039636Y-124329819D02*
X172944398Y-124282200D01*
X172944398Y-124282200D02*
X172896779Y-124234580D01*
X172896779Y-124234580D02*
X172849160Y-124139342D01*
X172849160Y-124139342D02*
X172849160Y-123853628D01*
X172849160Y-123853628D02*
X172896779Y-123758390D01*
X172896779Y-123758390D02*
X172944398Y-123710771D01*
X172944398Y-123710771D02*
X173039636Y-123663152D01*
X173039636Y-123663152D02*
X173230112Y-123663152D01*
X173230112Y-123663152D02*
X173325350Y-123710771D01*
X138020588Y-96389819D02*
X137449160Y-96389819D01*
X137734874Y-96389819D02*
X137734874Y-95389819D01*
X137734874Y-95389819D02*
X137639636Y-95532676D01*
X137639636Y-95532676D02*
X137544398Y-95627914D01*
X137544398Y-95627914D02*
X137449160Y-95675533D01*
X138925350Y-95389819D02*
X138449160Y-95389819D01*
X138449160Y-95389819D02*
X138401541Y-95866009D01*
X138401541Y-95866009D02*
X138449160Y-95818390D01*
X138449160Y-95818390D02*
X138544398Y-95770771D01*
X138544398Y-95770771D02*
X138782493Y-95770771D01*
X138782493Y-95770771D02*
X138877731Y-95818390D01*
X138877731Y-95818390D02*
X138925350Y-95866009D01*
X138925350Y-95866009D02*
X138972969Y-95961247D01*
X138972969Y-95961247D02*
X138972969Y-96199342D01*
X138972969Y-96199342D02*
X138925350Y-96294580D01*
X138925350Y-96294580D02*
X138877731Y-96342200D01*
X138877731Y-96342200D02*
X138782493Y-96389819D01*
X138782493Y-96389819D02*
X138544398Y-96389819D01*
X138544398Y-96389819D02*
X138449160Y-96342200D01*
X138449160Y-96342200D02*
X138401541Y-96294580D01*
X140163446Y-96389819D02*
X140163446Y-95723152D01*
X140163446Y-95818390D02*
X140211065Y-95770771D01*
X140211065Y-95770771D02*
X140306303Y-95723152D01*
X140306303Y-95723152D02*
X140449160Y-95723152D01*
X140449160Y-95723152D02*
X140544398Y-95770771D01*
X140544398Y-95770771D02*
X140592017Y-95866009D01*
X140592017Y-95866009D02*
X140592017Y-96389819D01*
X140592017Y-95866009D02*
X140639636Y-95770771D01*
X140639636Y-95770771D02*
X140734874Y-95723152D01*
X140734874Y-95723152D02*
X140877731Y-95723152D01*
X140877731Y-95723152D02*
X140972970Y-95770771D01*
X140972970Y-95770771D02*
X141020589Y-95866009D01*
X141020589Y-95866009D02*
X141020589Y-96389819D01*
X141496779Y-96389819D02*
X141496779Y-95723152D01*
X141496779Y-95818390D02*
X141544398Y-95770771D01*
X141544398Y-95770771D02*
X141639636Y-95723152D01*
X141639636Y-95723152D02*
X141782493Y-95723152D01*
X141782493Y-95723152D02*
X141877731Y-95770771D01*
X141877731Y-95770771D02*
X141925350Y-95866009D01*
X141925350Y-95866009D02*
X141925350Y-96389819D01*
X141925350Y-95866009D02*
X141972969Y-95770771D01*
X141972969Y-95770771D02*
X142068207Y-95723152D01*
X142068207Y-95723152D02*
X142211064Y-95723152D01*
X142211064Y-95723152D02*
X142306303Y-95770771D01*
X142306303Y-95770771D02*
X142353922Y-95866009D01*
X142353922Y-95866009D02*
X142353922Y-96389819D01*
X144020588Y-96389819D02*
X144020588Y-95389819D01*
X144020588Y-96342200D02*
X143925350Y-96389819D01*
X143925350Y-96389819D02*
X143734874Y-96389819D01*
X143734874Y-96389819D02*
X143639636Y-96342200D01*
X143639636Y-96342200D02*
X143592017Y-96294580D01*
X143592017Y-96294580D02*
X143544398Y-96199342D01*
X143544398Y-96199342D02*
X143544398Y-95913628D01*
X143544398Y-95913628D02*
X143592017Y-95818390D01*
X143592017Y-95818390D02*
X143639636Y-95770771D01*
X143639636Y-95770771D02*
X143734874Y-95723152D01*
X143734874Y-95723152D02*
X143925350Y-95723152D01*
X143925350Y-95723152D02*
X144020588Y-95770771D01*
X144496779Y-96389819D02*
X144496779Y-95723152D01*
X144496779Y-95389819D02*
X144449160Y-95437438D01*
X144449160Y-95437438D02*
X144496779Y-95485057D01*
X144496779Y-95485057D02*
X144544398Y-95437438D01*
X144544398Y-95437438D02*
X144496779Y-95389819D01*
X144496779Y-95389819D02*
X144496779Y-95485057D01*
X145401540Y-96389819D02*
X145401540Y-95866009D01*
X145401540Y-95866009D02*
X145353921Y-95770771D01*
X145353921Y-95770771D02*
X145258683Y-95723152D01*
X145258683Y-95723152D02*
X145068207Y-95723152D01*
X145068207Y-95723152D02*
X144972969Y-95770771D01*
X145401540Y-96342200D02*
X145306302Y-96389819D01*
X145306302Y-96389819D02*
X145068207Y-96389819D01*
X145068207Y-96389819D02*
X144972969Y-96342200D01*
X144972969Y-96342200D02*
X144925350Y-96246961D01*
X144925350Y-96246961D02*
X144925350Y-96151723D01*
X144925350Y-96151723D02*
X144972969Y-96056485D01*
X144972969Y-96056485D02*
X145068207Y-96008866D01*
X145068207Y-96008866D02*
X145306302Y-96008866D01*
X145306302Y-96008866D02*
X145401540Y-95961247D01*
M02*
