%TF.GenerationSoftware,KiCad,Pcbnew,7.0.6*%
%TF.CreationDate,2023-07-29T19:28:03+05:30*%
%TF.ProjectId,Final_ESA_q5,46696e61-6c5f-4455-9341-5f71352e6b69,rev?*%
%TF.SameCoordinates,Original*%
%TF.FileFunction,Copper,L2,Bot*%
%TF.FilePolarity,Positive*%
%FSLAX46Y46*%
G04 Gerber Fmt 4.6, Leading zero omitted, Abs format (unit mm)*
G04 Created by KiCad (PCBNEW 7.0.6) date 2023-07-29 19:28:03*
%MOMM*%
%LPD*%
G01*
G04 APERTURE LIST*
%TA.AperFunction,ComponentPad*%
%ADD10C,0.758000*%
%TD*%
%TA.AperFunction,ComponentPad*%
%ADD11C,1.200000*%
%TD*%
%TA.AperFunction,ComponentPad*%
%ADD12R,1.700000X1.700000*%
%TD*%
%TA.AperFunction,ComponentPad*%
%ADD13O,1.700000X1.700000*%
%TD*%
%TA.AperFunction,ViaPad*%
%ADD14C,0.800000*%
%TD*%
%TA.AperFunction,Conductor*%
%ADD15C,0.250000*%
%TD*%
G04 APERTURE END LIST*
D10*
%TO.P,R2,1*%
%TO.N,GND*%
X83819985Y-81280013D03*
%TO.P,R2,2*%
%TO.N,Net-(R2-Pad2)*%
X89155294Y-81292194D03*
%TD*%
%TO.P,R1,1*%
%TO.N,Net-(Q1-E)*%
X88899985Y-68580013D03*
%TO.P,R1,2*%
%TO.N,GND*%
X94235294Y-68592194D03*
%TD*%
D11*
%TO.P,Q1,1,C*%
%TO.N,Net-(J2-Pin_1)*%
X154907212Y-86353420D03*
%TO.P,Q1,2,B*%
%TO.N,Net-(Q1-B)*%
X156183740Y-85096632D03*
%TO.P,Q1,3,E*%
%TO.N,Net-(Q1-E)*%
X157480008Y-86360000D03*
%TD*%
D12*
%TO.P,J1,1,Pin_1*%
%TO.N,GND*%
X106680000Y-93980000D03*
D13*
%TO.P,J1,2,Pin_2*%
%TO.N,Net-(J1-Pin_2)*%
X106680000Y-96520000D03*
%TD*%
D10*
%TO.P,C1,1*%
%TO.N,Net-(Q1-B)*%
X98713385Y-58316513D03*
%TO.P,C1,2*%
%TO.N,Net-(Q1-E)*%
X104048694Y-58328694D03*
%TD*%
D12*
%TO.P,J2,1,Pin_1*%
%TO.N,Net-(J2-Pin_1)*%
X134620000Y-96520000D03*
D13*
%TO.P,J2,2,Pin_2*%
%TO.N,GND*%
X134620000Y-99060000D03*
%TD*%
D14*
%TO.N,Net-(Q1-E)*%
X109220000Y-71120000D03*
%TO.N,Net-(R2-Pad2)*%
X114300000Y-78740000D03*
X114300000Y-78740000D03*
%TD*%
D15*
%TO.N,Net-(Q1-E)*%
X92918400Y-64561600D02*
X88900000Y-68580000D01*
X104048700Y-58328700D02*
X97815800Y-64561600D01*
X157480000Y-85075400D02*
X130733300Y-58328700D01*
X157480000Y-86360000D02*
X157480000Y-85075400D01*
X130733300Y-58328700D02*
X104048700Y-58328700D01*
X114300000Y-66040000D02*
X119380000Y-66040000D01*
X97815800Y-64561600D02*
X92918400Y-64561600D01*
X109220000Y-71120000D02*
X114300000Y-66040000D01*
%TO.N,GND*%
X106680000Y-93980000D02*
X106680000Y-92803100D01*
X94235300Y-80358400D02*
X84741600Y-80358400D01*
X94235300Y-80358400D02*
X94235300Y-68592200D01*
X106680000Y-92803100D02*
X94235300Y-80358400D01*
X84741600Y-80358400D02*
X83820000Y-81280000D01*
%TO.N,Net-(J2-Pin_1)*%
X145963500Y-86353400D02*
X154907200Y-86353400D01*
X134620000Y-96520000D02*
X135796900Y-96520000D01*
X135796900Y-96520000D02*
X145963500Y-86353400D01*
%TO.N,Net-(R2-Pad2)*%
X119380000Y-73660000D02*
X119380000Y-71120000D01*
X114300000Y-78740000D02*
X119380000Y-73660000D01*
%TD*%
M02*
