%TF.GenerationSoftware,KiCad,Pcbnew,7.0.6*%
%TF.CreationDate,2023-07-29T19:28:03+05:30*%
%TF.ProjectId,Final_ESA_q5,46696e61-6c5f-4455-9341-5f71352e6b69,rev?*%
%TF.SameCoordinates,Original*%
%TF.FileFunction,Legend,Top*%
%TF.FilePolarity,Positive*%
%FSLAX46Y46*%
G04 Gerber Fmt 4.6, Leading zero omitted, Abs format (unit mm)*
G04 Created by KiCad (PCBNEW 7.0.6) date 2023-07-29 19:28:03*
%MOMM*%
%LPD*%
G01*
G04 APERTURE LIST*
%ADD10C,0.150000*%
%ADD11C,0.500000*%
%ADD12C,1.000000*%
%ADD13C,0.100000*%
%ADD14C,0.120000*%
G04 APERTURE END LIST*
D10*
X71120000Y-48260000D02*
X71120000Y-60960000D01*
X68580000Y-109220000D02*
X68580000Y-99060000D01*
D11*
X70337518Y-94249238D02*
X69385137Y-94249238D01*
X69385137Y-94249238D02*
X69289899Y-95201619D01*
X69289899Y-95201619D02*
X69385137Y-95106380D01*
X69385137Y-95106380D02*
X69575613Y-95011142D01*
X69575613Y-95011142D02*
X70051804Y-95011142D01*
X70051804Y-95011142D02*
X70242280Y-95106380D01*
X70242280Y-95106380D02*
X70337518Y-95201619D01*
X70337518Y-95201619D02*
X70432756Y-95392095D01*
X70432756Y-95392095D02*
X70432756Y-95868285D01*
X70432756Y-95868285D02*
X70337518Y-96058761D01*
X70337518Y-96058761D02*
X70242280Y-96154000D01*
X70242280Y-96154000D02*
X70051804Y-96249238D01*
X70051804Y-96249238D02*
X69575613Y-96249238D01*
X69575613Y-96249238D02*
X69385137Y-96154000D01*
X69385137Y-96154000D02*
X69289899Y-96058761D01*
X72813709Y-96249238D02*
X72813709Y-94915904D01*
X72813709Y-95106380D02*
X72908947Y-95011142D01*
X72908947Y-95011142D02*
X73099423Y-94915904D01*
X73099423Y-94915904D02*
X73385138Y-94915904D01*
X73385138Y-94915904D02*
X73575614Y-95011142D01*
X73575614Y-95011142D02*
X73670852Y-95201619D01*
X73670852Y-95201619D02*
X73670852Y-96249238D01*
X73670852Y-95201619D02*
X73766090Y-95011142D01*
X73766090Y-95011142D02*
X73956566Y-94915904D01*
X73956566Y-94915904D02*
X74242280Y-94915904D01*
X74242280Y-94915904D02*
X74432757Y-95011142D01*
X74432757Y-95011142D02*
X74527995Y-95201619D01*
X74527995Y-95201619D02*
X74527995Y-96249238D01*
X75480376Y-96249238D02*
X75480376Y-94915904D01*
X75480376Y-95106380D02*
X75575614Y-95011142D01*
X75575614Y-95011142D02*
X75766090Y-94915904D01*
X75766090Y-94915904D02*
X76051805Y-94915904D01*
X76051805Y-94915904D02*
X76242281Y-95011142D01*
X76242281Y-95011142D02*
X76337519Y-95201619D01*
X76337519Y-95201619D02*
X76337519Y-96249238D01*
X76337519Y-95201619D02*
X76432757Y-95011142D01*
X76432757Y-95011142D02*
X76623233Y-94915904D01*
X76623233Y-94915904D02*
X76908947Y-94915904D01*
X76908947Y-94915904D02*
X77099424Y-95011142D01*
X77099424Y-95011142D02*
X77194662Y-95201619D01*
X77194662Y-95201619D02*
X77194662Y-96249238D01*
X79575615Y-96154000D02*
X79766091Y-96249238D01*
X79766091Y-96249238D02*
X80147043Y-96249238D01*
X80147043Y-96249238D02*
X80337520Y-96154000D01*
X80337520Y-96154000D02*
X80432758Y-95963523D01*
X80432758Y-95963523D02*
X80432758Y-95868285D01*
X80432758Y-95868285D02*
X80337520Y-95677809D01*
X80337520Y-95677809D02*
X80147043Y-95582571D01*
X80147043Y-95582571D02*
X79861329Y-95582571D01*
X79861329Y-95582571D02*
X79670853Y-95487333D01*
X79670853Y-95487333D02*
X79575615Y-95296857D01*
X79575615Y-95296857D02*
X79575615Y-95201619D01*
X79575615Y-95201619D02*
X79670853Y-95011142D01*
X79670853Y-95011142D02*
X79861329Y-94915904D01*
X79861329Y-94915904D02*
X80147043Y-94915904D01*
X80147043Y-94915904D02*
X80337520Y-95011142D01*
X81289901Y-94915904D02*
X81289901Y-96915904D01*
X81289901Y-95011142D02*
X81480377Y-94915904D01*
X81480377Y-94915904D02*
X81861330Y-94915904D01*
X81861330Y-94915904D02*
X82051806Y-95011142D01*
X82051806Y-95011142D02*
X82147044Y-95106380D01*
X82147044Y-95106380D02*
X82242282Y-95296857D01*
X82242282Y-95296857D02*
X82242282Y-95868285D01*
X82242282Y-95868285D02*
X82147044Y-96058761D01*
X82147044Y-96058761D02*
X82051806Y-96154000D01*
X82051806Y-96154000D02*
X81861330Y-96249238D01*
X81861330Y-96249238D02*
X81480377Y-96249238D01*
X81480377Y-96249238D02*
X81289901Y-96154000D01*
X83956568Y-96249238D02*
X83956568Y-95201619D01*
X83956568Y-95201619D02*
X83861330Y-95011142D01*
X83861330Y-95011142D02*
X83670854Y-94915904D01*
X83670854Y-94915904D02*
X83289901Y-94915904D01*
X83289901Y-94915904D02*
X83099425Y-95011142D01*
X83956568Y-96154000D02*
X83766092Y-96249238D01*
X83766092Y-96249238D02*
X83289901Y-96249238D01*
X83289901Y-96249238D02*
X83099425Y-96154000D01*
X83099425Y-96154000D02*
X83004187Y-95963523D01*
X83004187Y-95963523D02*
X83004187Y-95773047D01*
X83004187Y-95773047D02*
X83099425Y-95582571D01*
X83099425Y-95582571D02*
X83289901Y-95487333D01*
X83289901Y-95487333D02*
X83766092Y-95487333D01*
X83766092Y-95487333D02*
X83956568Y-95392095D01*
X85766092Y-96154000D02*
X85575616Y-96249238D01*
X85575616Y-96249238D02*
X85194663Y-96249238D01*
X85194663Y-96249238D02*
X85004187Y-96154000D01*
X85004187Y-96154000D02*
X84908949Y-96058761D01*
X84908949Y-96058761D02*
X84813711Y-95868285D01*
X84813711Y-95868285D02*
X84813711Y-95296857D01*
X84813711Y-95296857D02*
X84908949Y-95106380D01*
X84908949Y-95106380D02*
X85004187Y-95011142D01*
X85004187Y-95011142D02*
X85194663Y-94915904D01*
X85194663Y-94915904D02*
X85575616Y-94915904D01*
X85575616Y-94915904D02*
X85766092Y-95011142D01*
X86623235Y-96249238D02*
X86623235Y-94915904D01*
X86623235Y-94249238D02*
X86527997Y-94344476D01*
X86527997Y-94344476D02*
X86623235Y-94439714D01*
X86623235Y-94439714D02*
X86718473Y-94344476D01*
X86718473Y-94344476D02*
X86623235Y-94249238D01*
X86623235Y-94249238D02*
X86623235Y-94439714D01*
X87575616Y-94915904D02*
X87575616Y-96249238D01*
X87575616Y-95106380D02*
X87670854Y-95011142D01*
X87670854Y-95011142D02*
X87861330Y-94915904D01*
X87861330Y-94915904D02*
X88147045Y-94915904D01*
X88147045Y-94915904D02*
X88337521Y-95011142D01*
X88337521Y-95011142D02*
X88432759Y-95201619D01*
X88432759Y-95201619D02*
X88432759Y-96249238D01*
X90242283Y-94915904D02*
X90242283Y-96534952D01*
X90242283Y-96534952D02*
X90147045Y-96725428D01*
X90147045Y-96725428D02*
X90051807Y-96820666D01*
X90051807Y-96820666D02*
X89861330Y-96915904D01*
X89861330Y-96915904D02*
X89575616Y-96915904D01*
X89575616Y-96915904D02*
X89385140Y-96820666D01*
X90242283Y-96154000D02*
X90051807Y-96249238D01*
X90051807Y-96249238D02*
X89670854Y-96249238D01*
X89670854Y-96249238D02*
X89480378Y-96154000D01*
X89480378Y-96154000D02*
X89385140Y-96058761D01*
X89385140Y-96058761D02*
X89289902Y-95868285D01*
X89289902Y-95868285D02*
X89289902Y-95296857D01*
X89289902Y-95296857D02*
X89385140Y-95106380D01*
X89385140Y-95106380D02*
X89480378Y-95011142D01*
X89480378Y-95011142D02*
X89670854Y-94915904D01*
X89670854Y-94915904D02*
X90051807Y-94915904D01*
X90051807Y-94915904D02*
X90242283Y-95011142D01*
X69194661Y-61229238D02*
X70432756Y-61229238D01*
X70432756Y-61229238D02*
X69766089Y-61991142D01*
X69766089Y-61991142D02*
X70051804Y-61991142D01*
X70051804Y-61991142D02*
X70242280Y-62086380D01*
X70242280Y-62086380D02*
X70337518Y-62181619D01*
X70337518Y-62181619D02*
X70432756Y-62372095D01*
X70432756Y-62372095D02*
X70432756Y-62848285D01*
X70432756Y-62848285D02*
X70337518Y-63038761D01*
X70337518Y-63038761D02*
X70242280Y-63134000D01*
X70242280Y-63134000D02*
X70051804Y-63229238D01*
X70051804Y-63229238D02*
X69480375Y-63229238D01*
X69480375Y-63229238D02*
X69289899Y-63134000D01*
X69289899Y-63134000D02*
X69194661Y-63038761D01*
X71289899Y-63038761D02*
X71385137Y-63134000D01*
X71385137Y-63134000D02*
X71289899Y-63229238D01*
X71289899Y-63229238D02*
X71194661Y-63134000D01*
X71194661Y-63134000D02*
X71289899Y-63038761D01*
X71289899Y-63038761D02*
X71289899Y-63229238D01*
X73194661Y-61229238D02*
X72242280Y-61229238D01*
X72242280Y-61229238D02*
X72147042Y-62181619D01*
X72147042Y-62181619D02*
X72242280Y-62086380D01*
X72242280Y-62086380D02*
X72432756Y-61991142D01*
X72432756Y-61991142D02*
X72908947Y-61991142D01*
X72908947Y-61991142D02*
X73099423Y-62086380D01*
X73099423Y-62086380D02*
X73194661Y-62181619D01*
X73194661Y-62181619D02*
X73289899Y-62372095D01*
X73289899Y-62372095D02*
X73289899Y-62848285D01*
X73289899Y-62848285D02*
X73194661Y-63038761D01*
X73194661Y-63038761D02*
X73099423Y-63134000D01*
X73099423Y-63134000D02*
X72908947Y-63229238D01*
X72908947Y-63229238D02*
X72432756Y-63229238D01*
X72432756Y-63229238D02*
X72242280Y-63134000D01*
X72242280Y-63134000D02*
X72147042Y-63038761D01*
X75670852Y-63229238D02*
X75670852Y-61895904D01*
X75670852Y-62086380D02*
X75766090Y-61991142D01*
X75766090Y-61991142D02*
X75956566Y-61895904D01*
X75956566Y-61895904D02*
X76242281Y-61895904D01*
X76242281Y-61895904D02*
X76432757Y-61991142D01*
X76432757Y-61991142D02*
X76527995Y-62181619D01*
X76527995Y-62181619D02*
X76527995Y-63229238D01*
X76527995Y-62181619D02*
X76623233Y-61991142D01*
X76623233Y-61991142D02*
X76813709Y-61895904D01*
X76813709Y-61895904D02*
X77099423Y-61895904D01*
X77099423Y-61895904D02*
X77289900Y-61991142D01*
X77289900Y-61991142D02*
X77385138Y-62181619D01*
X77385138Y-62181619D02*
X77385138Y-63229238D01*
X78337519Y-63229238D02*
X78337519Y-61895904D01*
X78337519Y-62086380D02*
X78432757Y-61991142D01*
X78432757Y-61991142D02*
X78623233Y-61895904D01*
X78623233Y-61895904D02*
X78908948Y-61895904D01*
X78908948Y-61895904D02*
X79099424Y-61991142D01*
X79099424Y-61991142D02*
X79194662Y-62181619D01*
X79194662Y-62181619D02*
X79194662Y-63229238D01*
X79194662Y-62181619D02*
X79289900Y-61991142D01*
X79289900Y-61991142D02*
X79480376Y-61895904D01*
X79480376Y-61895904D02*
X79766090Y-61895904D01*
X79766090Y-61895904D02*
X79956567Y-61991142D01*
X79956567Y-61991142D02*
X80051805Y-62181619D01*
X80051805Y-62181619D02*
X80051805Y-63229238D01*
X83385139Y-63229238D02*
X83385139Y-61229238D01*
X83385139Y-63134000D02*
X83194663Y-63229238D01*
X83194663Y-63229238D02*
X82813710Y-63229238D01*
X82813710Y-63229238D02*
X82623234Y-63134000D01*
X82623234Y-63134000D02*
X82527996Y-63038761D01*
X82527996Y-63038761D02*
X82432758Y-62848285D01*
X82432758Y-62848285D02*
X82432758Y-62276857D01*
X82432758Y-62276857D02*
X82527996Y-62086380D01*
X82527996Y-62086380D02*
X82623234Y-61991142D01*
X82623234Y-61991142D02*
X82813710Y-61895904D01*
X82813710Y-61895904D02*
X83194663Y-61895904D01*
X83194663Y-61895904D02*
X83385139Y-61991142D01*
X84337520Y-63229238D02*
X84337520Y-61895904D01*
X84337520Y-61229238D02*
X84242282Y-61324476D01*
X84242282Y-61324476D02*
X84337520Y-61419714D01*
X84337520Y-61419714D02*
X84432758Y-61324476D01*
X84432758Y-61324476D02*
X84337520Y-61229238D01*
X84337520Y-61229238D02*
X84337520Y-61419714D01*
X86147044Y-63229238D02*
X86147044Y-62181619D01*
X86147044Y-62181619D02*
X86051806Y-61991142D01*
X86051806Y-61991142D02*
X85861330Y-61895904D01*
X85861330Y-61895904D02*
X85480377Y-61895904D01*
X85480377Y-61895904D02*
X85289901Y-61991142D01*
X86147044Y-63134000D02*
X85956568Y-63229238D01*
X85956568Y-63229238D02*
X85480377Y-63229238D01*
X85480377Y-63229238D02*
X85289901Y-63134000D01*
X85289901Y-63134000D02*
X85194663Y-62943523D01*
X85194663Y-62943523D02*
X85194663Y-62753047D01*
X85194663Y-62753047D02*
X85289901Y-62562571D01*
X85289901Y-62562571D02*
X85480377Y-62467333D01*
X85480377Y-62467333D02*
X85956568Y-62467333D01*
X85956568Y-62467333D02*
X86147044Y-62372095D01*
D12*
X95828370Y-52676095D02*
X95828370Y-47676095D01*
X95828370Y-47676095D02*
X97733132Y-47676095D01*
X97733132Y-47676095D02*
X98209322Y-47914190D01*
X98209322Y-47914190D02*
X98447417Y-48152285D01*
X98447417Y-48152285D02*
X98685513Y-48628476D01*
X98685513Y-48628476D02*
X98685513Y-49342761D01*
X98685513Y-49342761D02*
X98447417Y-49818952D01*
X98447417Y-49818952D02*
X98209322Y-50057047D01*
X98209322Y-50057047D02*
X97733132Y-50295142D01*
X97733132Y-50295142D02*
X95828370Y-50295142D01*
X100828370Y-50057047D02*
X102495036Y-50057047D01*
X103209322Y-52676095D02*
X100828370Y-52676095D01*
X100828370Y-52676095D02*
X100828370Y-47676095D01*
X100828370Y-47676095D02*
X103209322Y-47676095D01*
X105114084Y-52438000D02*
X105828370Y-52676095D01*
X105828370Y-52676095D02*
X107018846Y-52676095D01*
X107018846Y-52676095D02*
X107495037Y-52438000D01*
X107495037Y-52438000D02*
X107733132Y-52199904D01*
X107733132Y-52199904D02*
X107971227Y-51723714D01*
X107971227Y-51723714D02*
X107971227Y-51247523D01*
X107971227Y-51247523D02*
X107733132Y-50771333D01*
X107733132Y-50771333D02*
X107495037Y-50533238D01*
X107495037Y-50533238D02*
X107018846Y-50295142D01*
X107018846Y-50295142D02*
X106066465Y-50057047D01*
X106066465Y-50057047D02*
X105590275Y-49818952D01*
X105590275Y-49818952D02*
X105352180Y-49580857D01*
X105352180Y-49580857D02*
X105114084Y-49104666D01*
X105114084Y-49104666D02*
X105114084Y-48628476D01*
X105114084Y-48628476D02*
X105352180Y-48152285D01*
X105352180Y-48152285D02*
X105590275Y-47914190D01*
X105590275Y-47914190D02*
X106066465Y-47676095D01*
X106066465Y-47676095D02*
X107256942Y-47676095D01*
X107256942Y-47676095D02*
X107971227Y-47914190D01*
X112733132Y-52676095D02*
X109875989Y-52676095D01*
X111304561Y-52676095D02*
X111304561Y-47676095D01*
X111304561Y-47676095D02*
X110828370Y-48390380D01*
X110828370Y-48390380D02*
X110352180Y-48866571D01*
X110352180Y-48866571D02*
X109875989Y-49104666D01*
X114875990Y-47676095D02*
X114875990Y-51723714D01*
X114875990Y-51723714D02*
X115114085Y-52199904D01*
X115114085Y-52199904D02*
X115352180Y-52438000D01*
X115352180Y-52438000D02*
X115828371Y-52676095D01*
X115828371Y-52676095D02*
X116780752Y-52676095D01*
X116780752Y-52676095D02*
X117256942Y-52438000D01*
X117256942Y-52438000D02*
X117495037Y-52199904D01*
X117495037Y-52199904D02*
X117733133Y-51723714D01*
X117733133Y-51723714D02*
X117733133Y-47676095D01*
X122733132Y-47914190D02*
X122256942Y-47676095D01*
X122256942Y-47676095D02*
X121542656Y-47676095D01*
X121542656Y-47676095D02*
X120828370Y-47914190D01*
X120828370Y-47914190D02*
X120352180Y-48390380D01*
X120352180Y-48390380D02*
X120114085Y-48866571D01*
X120114085Y-48866571D02*
X119875989Y-49818952D01*
X119875989Y-49818952D02*
X119875989Y-50533238D01*
X119875989Y-50533238D02*
X120114085Y-51485619D01*
X120114085Y-51485619D02*
X120352180Y-51961809D01*
X120352180Y-51961809D02*
X120828370Y-52438000D01*
X120828370Y-52438000D02*
X121542656Y-52676095D01*
X121542656Y-52676095D02*
X122018847Y-52676095D01*
X122018847Y-52676095D02*
X122733132Y-52438000D01*
X122733132Y-52438000D02*
X122971228Y-52199904D01*
X122971228Y-52199904D02*
X122971228Y-50533238D01*
X122971228Y-50533238D02*
X122018847Y-50533238D01*
X124875989Y-48152285D02*
X125114085Y-47914190D01*
X125114085Y-47914190D02*
X125590275Y-47676095D01*
X125590275Y-47676095D02*
X126780751Y-47676095D01*
X126780751Y-47676095D02*
X127256942Y-47914190D01*
X127256942Y-47914190D02*
X127495037Y-48152285D01*
X127495037Y-48152285D02*
X127733132Y-48628476D01*
X127733132Y-48628476D02*
X127733132Y-49104666D01*
X127733132Y-49104666D02*
X127495037Y-49818952D01*
X127495037Y-49818952D02*
X124637894Y-52676095D01*
X124637894Y-52676095D02*
X127733132Y-52676095D01*
X132495037Y-52676095D02*
X129637894Y-52676095D01*
X131066466Y-52676095D02*
X131066466Y-47676095D01*
X131066466Y-47676095D02*
X130590275Y-48390380D01*
X130590275Y-48390380D02*
X130114085Y-48866571D01*
X130114085Y-48866571D02*
X129637894Y-49104666D01*
X134637895Y-50057047D02*
X136304561Y-50057047D01*
X137018847Y-52676095D02*
X134637895Y-52676095D01*
X134637895Y-52676095D02*
X134637895Y-47676095D01*
X134637895Y-47676095D02*
X137018847Y-47676095D01*
X142018848Y-52199904D02*
X141780752Y-52438000D01*
X141780752Y-52438000D02*
X141066467Y-52676095D01*
X141066467Y-52676095D02*
X140590276Y-52676095D01*
X140590276Y-52676095D02*
X139875990Y-52438000D01*
X139875990Y-52438000D02*
X139399800Y-51961809D01*
X139399800Y-51961809D02*
X139161705Y-51485619D01*
X139161705Y-51485619D02*
X138923609Y-50533238D01*
X138923609Y-50533238D02*
X138923609Y-49818952D01*
X138923609Y-49818952D02*
X139161705Y-48866571D01*
X139161705Y-48866571D02*
X139399800Y-48390380D01*
X139399800Y-48390380D02*
X139875990Y-47914190D01*
X139875990Y-47914190D02*
X140590276Y-47676095D01*
X140590276Y-47676095D02*
X141066467Y-47676095D01*
X141066467Y-47676095D02*
X141780752Y-47914190D01*
X141780752Y-47914190D02*
X142018848Y-48152285D01*
X143923609Y-48152285D02*
X144161705Y-47914190D01*
X144161705Y-47914190D02*
X144637895Y-47676095D01*
X144637895Y-47676095D02*
X145828371Y-47676095D01*
X145828371Y-47676095D02*
X146304562Y-47914190D01*
X146304562Y-47914190D02*
X146542657Y-48152285D01*
X146542657Y-48152285D02*
X146780752Y-48628476D01*
X146780752Y-48628476D02*
X146780752Y-49104666D01*
X146780752Y-49104666D02*
X146542657Y-49818952D01*
X146542657Y-49818952D02*
X143685514Y-52676095D01*
X143685514Y-52676095D02*
X146780752Y-52676095D01*
X149637895Y-49818952D02*
X149161705Y-49580857D01*
X149161705Y-49580857D02*
X148923610Y-49342761D01*
X148923610Y-49342761D02*
X148685514Y-48866571D01*
X148685514Y-48866571D02*
X148685514Y-48628476D01*
X148685514Y-48628476D02*
X148923610Y-48152285D01*
X148923610Y-48152285D02*
X149161705Y-47914190D01*
X149161705Y-47914190D02*
X149637895Y-47676095D01*
X149637895Y-47676095D02*
X150590276Y-47676095D01*
X150590276Y-47676095D02*
X151066467Y-47914190D01*
X151066467Y-47914190D02*
X151304562Y-48152285D01*
X151304562Y-48152285D02*
X151542657Y-48628476D01*
X151542657Y-48628476D02*
X151542657Y-48866571D01*
X151542657Y-48866571D02*
X151304562Y-49342761D01*
X151304562Y-49342761D02*
X151066467Y-49580857D01*
X151066467Y-49580857D02*
X150590276Y-49818952D01*
X150590276Y-49818952D02*
X149637895Y-49818952D01*
X149637895Y-49818952D02*
X149161705Y-50057047D01*
X149161705Y-50057047D02*
X148923610Y-50295142D01*
X148923610Y-50295142D02*
X148685514Y-50771333D01*
X148685514Y-50771333D02*
X148685514Y-51723714D01*
X148685514Y-51723714D02*
X148923610Y-52199904D01*
X148923610Y-52199904D02*
X149161705Y-52438000D01*
X149161705Y-52438000D02*
X149637895Y-52676095D01*
X149637895Y-52676095D02*
X150590276Y-52676095D01*
X150590276Y-52676095D02*
X151066467Y-52438000D01*
X151066467Y-52438000D02*
X151304562Y-52199904D01*
X151304562Y-52199904D02*
X151542657Y-51723714D01*
X151542657Y-51723714D02*
X151542657Y-50771333D01*
X151542657Y-50771333D02*
X151304562Y-50295142D01*
X151304562Y-50295142D02*
X151066467Y-50057047D01*
X151066467Y-50057047D02*
X150590276Y-49818952D01*
X153209324Y-47676095D02*
X156304562Y-47676095D01*
X156304562Y-47676095D02*
X154637896Y-49580857D01*
X154637896Y-49580857D02*
X155352181Y-49580857D01*
X155352181Y-49580857D02*
X155828372Y-49818952D01*
X155828372Y-49818952D02*
X156066467Y-50057047D01*
X156066467Y-50057047D02*
X156304562Y-50533238D01*
X156304562Y-50533238D02*
X156304562Y-51723714D01*
X156304562Y-51723714D02*
X156066467Y-52199904D01*
X156066467Y-52199904D02*
X155828372Y-52438000D01*
X155828372Y-52438000D02*
X155352181Y-52676095D01*
X155352181Y-52676095D02*
X153923610Y-52676095D01*
X153923610Y-52676095D02*
X153447419Y-52438000D01*
X153447419Y-52438000D02*
X153209324Y-52199904D01*
D13*
X90237433Y-82498419D02*
X89904100Y-82022228D01*
X89666005Y-82498419D02*
X89666005Y-81498419D01*
X89666005Y-81498419D02*
X90046957Y-81498419D01*
X90046957Y-81498419D02*
X90142195Y-81546038D01*
X90142195Y-81546038D02*
X90189814Y-81593657D01*
X90189814Y-81593657D02*
X90237433Y-81688895D01*
X90237433Y-81688895D02*
X90237433Y-81831752D01*
X90237433Y-81831752D02*
X90189814Y-81926990D01*
X90189814Y-81926990D02*
X90142195Y-81974609D01*
X90142195Y-81974609D02*
X90046957Y-82022228D01*
X90046957Y-82022228D02*
X89666005Y-82022228D01*
X90618386Y-81593657D02*
X90666005Y-81546038D01*
X90666005Y-81546038D02*
X90761243Y-81498419D01*
X90761243Y-81498419D02*
X90999338Y-81498419D01*
X90999338Y-81498419D02*
X91094576Y-81546038D01*
X91094576Y-81546038D02*
X91142195Y-81593657D01*
X91142195Y-81593657D02*
X91189814Y-81688895D01*
X91189814Y-81688895D02*
X91189814Y-81784133D01*
X91189814Y-81784133D02*
X91142195Y-81926990D01*
X91142195Y-81926990D02*
X90570767Y-82498419D01*
X90570767Y-82498419D02*
X91189814Y-82498419D01*
D10*
X161863095Y-61484819D02*
X161863095Y-62294342D01*
X161863095Y-62294342D02*
X161910714Y-62389580D01*
X161910714Y-62389580D02*
X161958333Y-62437200D01*
X161958333Y-62437200D02*
X162053571Y-62484819D01*
X162053571Y-62484819D02*
X162244047Y-62484819D01*
X162244047Y-62484819D02*
X162339285Y-62437200D01*
X162339285Y-62437200D02*
X162386904Y-62389580D01*
X162386904Y-62389580D02*
X162434523Y-62294342D01*
X162434523Y-62294342D02*
X162434523Y-61484819D01*
X162863095Y-61580057D02*
X162910714Y-61532438D01*
X162910714Y-61532438D02*
X163005952Y-61484819D01*
X163005952Y-61484819D02*
X163244047Y-61484819D01*
X163244047Y-61484819D02*
X163339285Y-61532438D01*
X163339285Y-61532438D02*
X163386904Y-61580057D01*
X163386904Y-61580057D02*
X163434523Y-61675295D01*
X163434523Y-61675295D02*
X163434523Y-61770533D01*
X163434523Y-61770533D02*
X163386904Y-61913390D01*
X163386904Y-61913390D02*
X162815476Y-62484819D01*
X162815476Y-62484819D02*
X163434523Y-62484819D01*
X121158095Y-70574819D02*
X121158095Y-71384342D01*
X121158095Y-71384342D02*
X121205714Y-71479580D01*
X121205714Y-71479580D02*
X121253333Y-71527200D01*
X121253333Y-71527200D02*
X121348571Y-71574819D01*
X121348571Y-71574819D02*
X121539047Y-71574819D01*
X121539047Y-71574819D02*
X121634285Y-71527200D01*
X121634285Y-71527200D02*
X121681904Y-71479580D01*
X121681904Y-71479580D02*
X121729523Y-71384342D01*
X121729523Y-71384342D02*
X121729523Y-70574819D01*
X122729523Y-71574819D02*
X122158095Y-71574819D01*
X122443809Y-71574819D02*
X122443809Y-70574819D01*
X122443809Y-70574819D02*
X122348571Y-70717676D01*
X122348571Y-70717676D02*
X122253333Y-70812914D01*
X122253333Y-70812914D02*
X122158095Y-70860533D01*
D13*
X95317433Y-69798419D02*
X94984100Y-69322228D01*
X94746005Y-69798419D02*
X94746005Y-68798419D01*
X94746005Y-68798419D02*
X95126957Y-68798419D01*
X95126957Y-68798419D02*
X95222195Y-68846038D01*
X95222195Y-68846038D02*
X95269814Y-68893657D01*
X95269814Y-68893657D02*
X95317433Y-68988895D01*
X95317433Y-68988895D02*
X95317433Y-69131752D01*
X95317433Y-69131752D02*
X95269814Y-69226990D01*
X95269814Y-69226990D02*
X95222195Y-69274609D01*
X95222195Y-69274609D02*
X95126957Y-69322228D01*
X95126957Y-69322228D02*
X94746005Y-69322228D01*
X96269814Y-69798419D02*
X95698386Y-69798419D01*
X95984100Y-69798419D02*
X95984100Y-68798419D01*
X95984100Y-68798419D02*
X95888862Y-68941276D01*
X95888862Y-68941276D02*
X95793624Y-69036514D01*
X95793624Y-69036514D02*
X95698386Y-69084133D01*
X156101661Y-86412657D02*
X156006423Y-86365038D01*
X156006423Y-86365038D02*
X155911185Y-86269800D01*
X155911185Y-86269800D02*
X155768328Y-86126942D01*
X155768328Y-86126942D02*
X155673090Y-86079323D01*
X155673090Y-86079323D02*
X155577852Y-86079323D01*
X155625471Y-86317419D02*
X155530233Y-86269800D01*
X155530233Y-86269800D02*
X155434995Y-86174561D01*
X155434995Y-86174561D02*
X155387376Y-85984085D01*
X155387376Y-85984085D02*
X155387376Y-85650752D01*
X155387376Y-85650752D02*
X155434995Y-85460276D01*
X155434995Y-85460276D02*
X155530233Y-85365038D01*
X155530233Y-85365038D02*
X155625471Y-85317419D01*
X155625471Y-85317419D02*
X155815947Y-85317419D01*
X155815947Y-85317419D02*
X155911185Y-85365038D01*
X155911185Y-85365038D02*
X156006423Y-85460276D01*
X156006423Y-85460276D02*
X156054042Y-85650752D01*
X156054042Y-85650752D02*
X156054042Y-85984085D01*
X156054042Y-85984085D02*
X156006423Y-86174561D01*
X156006423Y-86174561D02*
X155911185Y-86269800D01*
X155911185Y-86269800D02*
X155815947Y-86317419D01*
X155815947Y-86317419D02*
X155625471Y-86317419D01*
X157006423Y-86317419D02*
X156434995Y-86317419D01*
X156720709Y-86317419D02*
X156720709Y-85317419D01*
X156720709Y-85317419D02*
X156625471Y-85460276D01*
X156625471Y-85460276D02*
X156530233Y-85555514D01*
X156530233Y-85555514D02*
X156434995Y-85603133D01*
D10*
X106346666Y-90664819D02*
X106346666Y-91379104D01*
X106346666Y-91379104D02*
X106299047Y-91521961D01*
X106299047Y-91521961D02*
X106203809Y-91617200D01*
X106203809Y-91617200D02*
X106060952Y-91664819D01*
X106060952Y-91664819D02*
X105965714Y-91664819D01*
X107346666Y-91664819D02*
X106775238Y-91664819D01*
X107060952Y-91664819D02*
X107060952Y-90664819D01*
X107060952Y-90664819D02*
X106965714Y-90807676D01*
X106965714Y-90807676D02*
X106870476Y-90902914D01*
X106870476Y-90902914D02*
X106775238Y-90950533D01*
D13*
X105130833Y-59439680D02*
X105083214Y-59487300D01*
X105083214Y-59487300D02*
X104940357Y-59534919D01*
X104940357Y-59534919D02*
X104845119Y-59534919D01*
X104845119Y-59534919D02*
X104702262Y-59487300D01*
X104702262Y-59487300D02*
X104607024Y-59392061D01*
X104607024Y-59392061D02*
X104559405Y-59296823D01*
X104559405Y-59296823D02*
X104511786Y-59106347D01*
X104511786Y-59106347D02*
X104511786Y-58963490D01*
X104511786Y-58963490D02*
X104559405Y-58773014D01*
X104559405Y-58773014D02*
X104607024Y-58677776D01*
X104607024Y-58677776D02*
X104702262Y-58582538D01*
X104702262Y-58582538D02*
X104845119Y-58534919D01*
X104845119Y-58534919D02*
X104940357Y-58534919D01*
X104940357Y-58534919D02*
X105083214Y-58582538D01*
X105083214Y-58582538D02*
X105130833Y-58630157D01*
X106083214Y-59534919D02*
X105511786Y-59534919D01*
X105797500Y-59534919D02*
X105797500Y-58534919D01*
X105797500Y-58534919D02*
X105702262Y-58677776D01*
X105702262Y-58677776D02*
X105607024Y-58773014D01*
X105607024Y-58773014D02*
X105511786Y-58820633D01*
D10*
X134286666Y-93204819D02*
X134286666Y-93919104D01*
X134286666Y-93919104D02*
X134239047Y-94061961D01*
X134239047Y-94061961D02*
X134143809Y-94157200D01*
X134143809Y-94157200D02*
X134000952Y-94204819D01*
X134000952Y-94204819D02*
X133905714Y-94204819D01*
X134715238Y-93300057D02*
X134762857Y-93252438D01*
X134762857Y-93252438D02*
X134858095Y-93204819D01*
X134858095Y-93204819D02*
X135096190Y-93204819D01*
X135096190Y-93204819D02*
X135191428Y-93252438D01*
X135191428Y-93252438D02*
X135239047Y-93300057D01*
X135239047Y-93300057D02*
X135286666Y-93395295D01*
X135286666Y-93395295D02*
X135286666Y-93490533D01*
X135286666Y-93490533D02*
X135239047Y-93633390D01*
X135239047Y-93633390D02*
X134667619Y-94204819D01*
X134667619Y-94204819D02*
X135286666Y-94204819D01*
D14*
%TO.C,U2*%
X162625000Y-62875000D02*
X159175000Y-62875000D01*
X162625000Y-62875000D02*
X164575000Y-62875000D01*
X162625000Y-71745000D02*
X160675000Y-71745000D01*
X162625000Y-71745000D02*
X164575000Y-71745000D01*
%TO.C,U1*%
X121985000Y-65415000D02*
X118535000Y-65415000D01*
X121985000Y-65415000D02*
X123935000Y-65415000D01*
X121985000Y-74285000D02*
X120035000Y-74285000D01*
X121985000Y-74285000D02*
X123935000Y-74285000D01*
D13*
%TO.C,Q1*%
X153075378Y-88318015D02*
X154238423Y-89481984D01*
X153930760Y-87446392D02*
X153075378Y-88318015D01*
X155093805Y-88610361D02*
X154238423Y-89481984D01*
X155399658Y-86360000D02*
G75*
G03*
X155399658Y-86360000I-480000J0D01*
G01*
X156676900Y-85090000D02*
G75*
G03*
X156676900Y-85090000I-480000J0D01*
G01*
X158736900Y-86360000D02*
G75*
G03*
X158736900Y-86360000I-2540000J0D01*
G01*
X157946900Y-86360000D02*
G75*
G03*
X157946900Y-86360000I-480000J0D01*
G01*
D14*
%TO.C,J1*%
X105350000Y-95250000D02*
X105350000Y-97850000D01*
X105350000Y-95250000D02*
X108010000Y-95250000D01*
X105350000Y-97850000D02*
X108010000Y-97850000D01*
X106680000Y-92650000D02*
X108010000Y-92650000D01*
X108010000Y-92650000D02*
X108010000Y-93980000D01*
X108010000Y-95250000D02*
X108010000Y-97850000D01*
%TO.C,J2*%
X133290000Y-97790000D02*
X133290000Y-100390000D01*
X133290000Y-97790000D02*
X135950000Y-97790000D01*
X133290000Y-100390000D02*
X135950000Y-100390000D01*
X134620000Y-95190000D02*
X135950000Y-95190000D01*
X135950000Y-95190000D02*
X135950000Y-96520000D01*
X135950000Y-97790000D02*
X135950000Y-100390000D01*
%TD*%
M02*
