%TF.GenerationSoftware,KiCad,Pcbnew,7.0.6*%
%TF.CreationDate,2023-07-24T14:12:11+05:30*%
%TF.ProjectId,Class1,436c6173-7331-42e6-9b69-6361645f7063,rev?*%
%TF.SameCoordinates,Original*%
%TF.FileFunction,Legend,Top*%
%TF.FilePolarity,Positive*%
%FSLAX46Y46*%
G04 Gerber Fmt 4.6, Leading zero omitted, Abs format (unit mm)*
G04 Created by KiCad (PCBNEW 7.0.6) date 2023-07-24 14:12:11*
%MOMM*%
%LPD*%
G01*
G04 APERTURE LIST*
%ADD10C,0.150000*%
%ADD11C,0.120000*%
G04 APERTURE END LIST*
D10*
X152233333Y-81564819D02*
X151900000Y-81088628D01*
X151661905Y-81564819D02*
X151661905Y-80564819D01*
X151661905Y-80564819D02*
X152042857Y-80564819D01*
X152042857Y-80564819D02*
X152138095Y-80612438D01*
X152138095Y-80612438D02*
X152185714Y-80660057D01*
X152185714Y-80660057D02*
X152233333Y-80755295D01*
X152233333Y-80755295D02*
X152233333Y-80898152D01*
X152233333Y-80898152D02*
X152185714Y-80993390D01*
X152185714Y-80993390D02*
X152138095Y-81041009D01*
X152138095Y-81041009D02*
X152042857Y-81088628D01*
X152042857Y-81088628D02*
X151661905Y-81088628D01*
X153185714Y-81564819D02*
X152614286Y-81564819D01*
X152900000Y-81564819D02*
X152900000Y-80564819D01*
X152900000Y-80564819D02*
X152804762Y-80707676D01*
X152804762Y-80707676D02*
X152709524Y-80802914D01*
X152709524Y-80802914D02*
X152614286Y-80850533D01*
X159686666Y-60184819D02*
X159686666Y-60899104D01*
X159686666Y-60899104D02*
X159639047Y-61041961D01*
X159639047Y-61041961D02*
X159543809Y-61137200D01*
X159543809Y-61137200D02*
X159400952Y-61184819D01*
X159400952Y-61184819D02*
X159305714Y-61184819D01*
X160686666Y-61184819D02*
X160115238Y-61184819D01*
X160400952Y-61184819D02*
X160400952Y-60184819D01*
X160400952Y-60184819D02*
X160305714Y-60327676D01*
X160305714Y-60327676D02*
X160210476Y-60422914D01*
X160210476Y-60422914D02*
X160115238Y-60470533D01*
X121158095Y-92474819D02*
X121158095Y-91474819D01*
X121158095Y-91951009D02*
X121729523Y-91951009D01*
X121729523Y-92474819D02*
X121729523Y-91474819D01*
X122634285Y-91808152D02*
X122634285Y-92474819D01*
X122396190Y-91427200D02*
X122158095Y-92141485D01*
X122158095Y-92141485D02*
X122777142Y-92141485D01*
X121158095Y-83924819D02*
X121158095Y-82924819D01*
X121158095Y-83401009D02*
X121729523Y-83401009D01*
X121729523Y-83924819D02*
X121729523Y-82924819D01*
X122110476Y-82924819D02*
X122729523Y-82924819D01*
X122729523Y-82924819D02*
X122396190Y-83305771D01*
X122396190Y-83305771D02*
X122539047Y-83305771D01*
X122539047Y-83305771D02*
X122634285Y-83353390D01*
X122634285Y-83353390D02*
X122681904Y-83401009D01*
X122681904Y-83401009D02*
X122729523Y-83496247D01*
X122729523Y-83496247D02*
X122729523Y-83734342D01*
X122729523Y-83734342D02*
X122681904Y-83829580D01*
X122681904Y-83829580D02*
X122634285Y-83877200D01*
X122634285Y-83877200D02*
X122539047Y-83924819D01*
X122539047Y-83924819D02*
X122253333Y-83924819D01*
X122253333Y-83924819D02*
X122158095Y-83877200D01*
X122158095Y-83877200D02*
X122110476Y-83829580D01*
X121158095Y-75374819D02*
X121158095Y-74374819D01*
X121158095Y-74851009D02*
X121729523Y-74851009D01*
X121729523Y-75374819D02*
X121729523Y-74374819D01*
X122158095Y-74470057D02*
X122205714Y-74422438D01*
X122205714Y-74422438D02*
X122300952Y-74374819D01*
X122300952Y-74374819D02*
X122539047Y-74374819D01*
X122539047Y-74374819D02*
X122634285Y-74422438D01*
X122634285Y-74422438D02*
X122681904Y-74470057D01*
X122681904Y-74470057D02*
X122729523Y-74565295D01*
X122729523Y-74565295D02*
X122729523Y-74660533D01*
X122729523Y-74660533D02*
X122681904Y-74803390D01*
X122681904Y-74803390D02*
X122110476Y-75374819D01*
X122110476Y-75374819D02*
X122729523Y-75374819D01*
X121158095Y-66824819D02*
X121158095Y-65824819D01*
X121158095Y-66301009D02*
X121729523Y-66301009D01*
X121729523Y-66824819D02*
X121729523Y-65824819D01*
X122729523Y-66824819D02*
X122158095Y-66824819D01*
X122443809Y-66824819D02*
X122443809Y-65824819D01*
X122443809Y-65824819D02*
X122348571Y-65967676D01*
X122348571Y-65967676D02*
X122253333Y-66062914D01*
X122253333Y-66062914D02*
X122158095Y-66110533D01*
X145311905Y-67914819D02*
X145311905Y-66914819D01*
X145311905Y-66914819D02*
X145550000Y-66914819D01*
X145550000Y-66914819D02*
X145692857Y-66962438D01*
X145692857Y-66962438D02*
X145788095Y-67057676D01*
X145788095Y-67057676D02*
X145835714Y-67152914D01*
X145835714Y-67152914D02*
X145883333Y-67343390D01*
X145883333Y-67343390D02*
X145883333Y-67486247D01*
X145883333Y-67486247D02*
X145835714Y-67676723D01*
X145835714Y-67676723D02*
X145788095Y-67771961D01*
X145788095Y-67771961D02*
X145692857Y-67867200D01*
X145692857Y-67867200D02*
X145550000Y-67914819D01*
X145550000Y-67914819D02*
X145311905Y-67914819D01*
X146835714Y-67914819D02*
X146264286Y-67914819D01*
X146550000Y-67914819D02*
X146550000Y-66914819D01*
X146550000Y-66914819D02*
X146454762Y-67057676D01*
X146454762Y-67057676D02*
X146359524Y-67152914D01*
X146359524Y-67152914D02*
X146264286Y-67200533D01*
D11*
%TO.C,R1*%
X158980000Y-78740000D02*
X155670000Y-78740000D01*
X155670000Y-80110000D02*
X155670000Y-77370000D01*
X155670000Y-77370000D02*
X149130000Y-77370000D01*
X149130000Y-80110000D02*
X155670000Y-80110000D01*
X145820000Y-78740000D02*
X149130000Y-78740000D01*
X149130000Y-77370000D02*
X149130000Y-80110000D01*
%TO.C,J1*%
X158690000Y-64770000D02*
X158690000Y-67370000D01*
X161350000Y-64770000D02*
X161350000Y-67370000D01*
X158690000Y-64770000D02*
X161350000Y-64770000D01*
X160020000Y-62170000D02*
X161350000Y-62170000D01*
X161350000Y-62170000D02*
X161350000Y-63500000D01*
X158690000Y-67370000D02*
X161350000Y-67370000D01*
%TO.C,D1*%
X148610000Y-65045000D02*
X148610000Y-61955000D01*
X148610000Y-61955170D02*
G75*
G03*
X143060000Y-63500462I-2560000J-1544830D01*
G01*
X143060001Y-63499538D02*
G75*
G03*
X148609999Y-65044830I2989999J-462D01*
G01*
X148550000Y-63500000D02*
G75*
G03*
X148550000Y-63500000I-2500000J0D01*
G01*
%TD*%
M02*
