%TF.GenerationSoftware,KiCad,Pcbnew,7.0.6*%
%TF.CreationDate,2023-07-25T22:23:12+05:30*%
%TF.ProjectId,class2_assignment,636c6173-7332-45f6-9173-7369676e6d65,rev?*%
%TF.SameCoordinates,Original*%
%TF.FileFunction,Paste,Top*%
%TF.FilePolarity,Positive*%
%FSLAX46Y46*%
G04 Gerber Fmt 4.6, Leading zero omitted, Abs format (unit mm)*
G04 Created by KiCad (PCBNEW 7.0.6) date 2023-07-25 22:23:12*
%MOMM*%
%LPD*%
G01*
G04 APERTURE LIST*
G04 Aperture macros list*
%AMRoundRect*
0 Rectangle with rounded corners*
0 $1 Rounding radius*
0 $2 $3 $4 $5 $6 $7 $8 $9 X,Y pos of 4 corners*
0 Add a 4 corners polygon primitive as box body*
4,1,4,$2,$3,$4,$5,$6,$7,$8,$9,$2,$3,0*
0 Add four circle primitives for the rounded corners*
1,1,$1+$1,$2,$3*
1,1,$1+$1,$4,$5*
1,1,$1+$1,$6,$7*
1,1,$1+$1,$8,$9*
0 Add four rect primitives between the rounded corners*
20,1,$1+$1,$2,$3,$4,$5,0*
20,1,$1+$1,$4,$5,$6,$7,0*
20,1,$1+$1,$6,$7,$8,$9,0*
20,1,$1+$1,$8,$9,$2,$3,0*%
G04 Aperture macros list end*
%ADD10RoundRect,0.150000X-0.825000X-0.150000X0.825000X-0.150000X0.825000X0.150000X-0.825000X0.150000X0*%
%ADD11R,2.800000X2.200000*%
%ADD12R,2.800000X2.800000*%
%ADD13RoundRect,0.250000X-0.650000X0.325000X-0.650000X-0.325000X0.650000X-0.325000X0.650000X0.325000X0*%
%ADD14RoundRect,0.250000X-0.312500X-0.625000X0.312500X-0.625000X0.312500X0.625000X-0.312500X0.625000X0*%
%ADD15RoundRect,0.250000X-0.325000X-0.650000X0.325000X-0.650000X0.325000X0.650000X-0.325000X0.650000X0*%
%ADD16RoundRect,0.250000X-0.625000X0.312500X-0.625000X-0.312500X0.625000X-0.312500X0.625000X0.312500X0*%
%ADD17RoundRect,0.250000X0.325000X0.650000X-0.325000X0.650000X-0.325000X-0.650000X0.325000X-0.650000X0*%
G04 APERTURE END LIST*
D10*
%TO.C,U3*%
X271780000Y-55880000D03*
X271780000Y-57150000D03*
X271780000Y-58420000D03*
X271780000Y-59690000D03*
X271780000Y-60960000D03*
X271780000Y-62230000D03*
X271780000Y-63500000D03*
X276730000Y-63500000D03*
X276730000Y-62230000D03*
X276730000Y-60960000D03*
X276730000Y-59690000D03*
X276730000Y-58420000D03*
X276730000Y-57150000D03*
X276730000Y-55880000D03*
%TD*%
%TO.C,U1*%
X259080000Y-22860000D03*
X259080000Y-24130000D03*
X259080000Y-25400000D03*
X259080000Y-26670000D03*
X259080000Y-27940000D03*
X259080000Y-29210000D03*
X259080000Y-30480000D03*
X264030000Y-30480000D03*
X264030000Y-29210000D03*
X264030000Y-27940000D03*
X264030000Y-26670000D03*
X264030000Y-25400000D03*
X264030000Y-24130000D03*
X264030000Y-22860000D03*
%TD*%
D11*
%TO.C,J2*%
X267860000Y-122820000D03*
X260460000Y-120820000D03*
D12*
X260460000Y-130220000D03*
%TD*%
D10*
%TO.C,U2*%
X266765000Y-40300000D03*
X266765000Y-41570000D03*
X266765000Y-42840000D03*
X266765000Y-44110000D03*
X266765000Y-45380000D03*
X266765000Y-46650000D03*
X266765000Y-47920000D03*
X271715000Y-47920000D03*
X271715000Y-46650000D03*
X271715000Y-45380000D03*
X271715000Y-44110000D03*
X271715000Y-42840000D03*
X271715000Y-41570000D03*
X271715000Y-40300000D03*
%TD*%
D13*
%TO.C,C4*%
X211898800Y-81280000D03*
X211898800Y-84230000D03*
%TD*%
D14*
%TO.C,R26*%
X213439300Y-72620000D03*
X216364300Y-72620000D03*
%TD*%
D15*
%TO.C,C20*%
X227978800Y-85550000D03*
X230928800Y-85550000D03*
%TD*%
%TO.C,C9*%
X233963800Y-43180000D03*
X236913800Y-43180000D03*
%TD*%
%TO.C,C25*%
X233628800Y-78850000D03*
X236578800Y-78850000D03*
%TD*%
D14*
%TO.C,R17*%
X239749200Y-56630000D03*
X242674200Y-56630000D03*
%TD*%
D16*
%TO.C,R5*%
X251750000Y-83435000D03*
X251750000Y-86360000D03*
%TD*%
D13*
%TO.C,C6*%
X205198800Y-81280000D03*
X205198800Y-84230000D03*
%TD*%
D14*
%TO.C,R22*%
X195652500Y-135400000D03*
X198577500Y-135400000D03*
%TD*%
D15*
%TO.C,C2*%
X228313800Y-43180000D03*
X231263800Y-43180000D03*
%TD*%
D16*
%TO.C,R4*%
X255040000Y-83435000D03*
X255040000Y-86360000D03*
%TD*%
D15*
%TO.C,C14*%
X184480000Y-132080000D03*
X187430000Y-132080000D03*
%TD*%
%TO.C,C1*%
X228313800Y-39830000D03*
X231263800Y-39830000D03*
%TD*%
D14*
%TO.C,R7*%
X219958900Y-139700000D03*
X222883900Y-139700000D03*
%TD*%
%TO.C,R1*%
X208408800Y-104140000D03*
X211333800Y-104140000D03*
%TD*%
%TO.C,R18*%
X247224200Y-69330000D03*
X250149200Y-69330000D03*
%TD*%
%TO.C,R25*%
X213439300Y-69330000D03*
X216364300Y-69330000D03*
%TD*%
D15*
%TO.C,C19*%
X227978800Y-82200000D03*
X230928800Y-82200000D03*
%TD*%
D14*
%TO.C,R13*%
X225568900Y-136410000D03*
X228493900Y-136410000D03*
%TD*%
%TO.C,R8*%
X184432500Y-135400000D03*
X187357500Y-135400000D03*
%TD*%
D15*
%TO.C,C7*%
X208416300Y-100820000D03*
X211366300Y-100820000D03*
%TD*%
D17*
%TO.C,C11*%
X222168800Y-113380000D03*
X219218800Y-113380000D03*
%TD*%
D14*
%TO.C,R27*%
X239183900Y-149110000D03*
X242108900Y-149110000D03*
%TD*%
D17*
%TO.C,C13*%
X222168800Y-106680000D03*
X219218800Y-106680000D03*
%TD*%
D15*
%TO.C,C8*%
X233963800Y-39830000D03*
X236913800Y-39830000D03*
%TD*%
D16*
%TO.C,R10*%
X258040000Y-100137500D03*
X258040000Y-103062500D03*
%TD*%
D15*
%TO.C,C23*%
X233628800Y-30480000D03*
X236578800Y-30480000D03*
%TD*%
D14*
%TO.C,R6*%
X219958900Y-136410000D03*
X222883900Y-136410000D03*
%TD*%
D16*
%TO.C,R12*%
X251460000Y-100137500D03*
X251460000Y-103062500D03*
%TD*%
D14*
%TO.C,R20*%
X233573900Y-149110000D03*
X236498900Y-149110000D03*
%TD*%
D15*
%TO.C,C21*%
X190130000Y-132080000D03*
X193080000Y-132080000D03*
%TD*%
D14*
%TO.C,R23*%
X245359200Y-53340000D03*
X248284200Y-53340000D03*
%TD*%
D16*
%TO.C,R9*%
X261330000Y-100137500D03*
X261330000Y-103062500D03*
%TD*%
D14*
%TO.C,R14*%
X225568900Y-139700000D03*
X228493900Y-139700000D03*
%TD*%
D15*
%TO.C,C17*%
X227978800Y-56690000D03*
X230928800Y-56690000D03*
%TD*%
D14*
%TO.C,R15*%
X190042500Y-135400000D03*
X192967500Y-135400000D03*
%TD*%
%TO.C,R16*%
X239749200Y-53340000D03*
X242674200Y-53340000D03*
%TD*%
D15*
%TO.C,C15*%
X227978800Y-27130000D03*
X230928800Y-27130000D03*
%TD*%
D16*
%TO.C,R11*%
X254750000Y-100137500D03*
X254750000Y-103062500D03*
%TD*%
D13*
%TO.C,C5*%
X208548800Y-81280000D03*
X208548800Y-84230000D03*
%TD*%
D14*
%TO.C,R21*%
X233573900Y-152400000D03*
X236498900Y-152400000D03*
%TD*%
D16*
%TO.C,R2*%
X261620000Y-83435000D03*
X261620000Y-86360000D03*
%TD*%
D14*
%TO.C,R24*%
X245359200Y-56630000D03*
X248284200Y-56630000D03*
%TD*%
D15*
%TO.C,C22*%
X233628800Y-27130000D03*
X236578800Y-27130000D03*
%TD*%
%TO.C,C16*%
X227978800Y-30480000D03*
X230928800Y-30480000D03*
%TD*%
D17*
%TO.C,C12*%
X222168800Y-110030000D03*
X219218800Y-110030000D03*
%TD*%
D14*
%TO.C,R19*%
X247224200Y-72620000D03*
X250149200Y-72620000D03*
%TD*%
D15*
%TO.C,C18*%
X227978800Y-78850000D03*
X230928800Y-78850000D03*
%TD*%
%TO.C,C10*%
X222328800Y-56690000D03*
X225278800Y-56690000D03*
%TD*%
%TO.C,C24*%
X233628800Y-56690000D03*
X236578800Y-56690000D03*
%TD*%
%TO.C,C3*%
X216678800Y-56690000D03*
X219628800Y-56690000D03*
%TD*%
D16*
%TO.C,R3*%
X258330000Y-83435000D03*
X258330000Y-86360000D03*
%TD*%
M02*
