M48
; DRILL file {KiCad 7.0.6} date Tue Jul 25 22:23:10 2023
; FORMAT={-:-/ absolute / inch / decimal}
; #@! TF.CreationDate,2023-07-25T22:23:10+05:30
; #@! TF.GenerationSoftware,Kicad,Pcbnew,7.0.6
; #@! TF.FileFunction,Plated,1,2,PTH
FMAT,2
INCH
; #@! TA.AperFunction,Plated,PTH,ViaDrill
T1C0.0157
; #@! TA.AperFunction,Plated,PTH,ComponentDrill
T2C0.0394
; #@! TA.AperFunction,Plated,PTH,ComponentDrill
T3C0.0472
; #@! TA.AperFunction,Plated,PTH,ComponentDrill
T4C0.0669
%
G90
G05
T1
X5.7183Y-3.1152
X7.431Y-3.1464
X7.5274Y-5.2482
X7.53Y-5.3195
X7.8757Y-5.7068
X8.2518Y-4.1
X8.3667Y-4.1
X8.4916Y-3.3839
X8.5972Y-3.1689
X8.6468Y-2.2921
X8.6672Y-4.282
X8.6961Y-4.2129
X8.7057Y-5.5
X8.8183Y-2.2029
X8.8227Y-2.2622
X8.8299Y-1.7151
X8.831Y-5.4437
X8.8367Y-5.3087
X8.8369Y-4.2801
X8.8601Y-4.2181
X8.8658Y-5.1722
X8.8808Y-3.8199
X8.9423Y-2.1485
X9.0229Y-1.2
X9.0294Y-3.1267
X9.0485Y-2.275
X9.1448Y-1.2371
X9.1485Y-1.901
X9.189Y-1.903
X9.2015Y-1.1341
X9.2213Y-1.8041
X9.2433Y-3.4405
X9.2451Y-3.2848
X9.2474Y-1.6178
X9.2484Y-5.8215
X9.258Y-1.5701
X9.2669Y-2.2319
X9.2838Y-3.3207
X9.3354Y-2.1701
X9.3647Y-2.2287
X9.3757Y-2.1599
X9.3764Y-3.6362
X9.3783Y-3.1426
X9.5005Y-2.2911
X9.6131Y-2.1
X9.7035Y-3.0703
X9.7048Y-1.8645
X9.7781Y-1.9739
X9.7861Y-2.3812
X9.7937Y-1.6358
X9.8039Y-3.7036
X9.8067Y-1.7366
X9.8217Y-3.022
X9.8369Y-2.8007
X9.837Y-2.2713
X9.8656Y-3.7691
X9.8667Y-1.438
X9.8768Y-3.9938
X9.9011Y-3.3527
X9.9705Y-3.3775
X10.0287Y-1.3604
X10.0582Y-1.1173
X10.0997Y-3.3769
X10.1712Y-2.0437
X10.2623Y-1.0953
X10.2935Y-1.9381
X10.3081Y-3.3507
X10.3104Y-4.0102
X10.3129Y-1.0
X10.3327Y-0.951
X10.3391Y-1.0755
X10.3629Y-3.3327
X10.43Y-1.6261
X10.8585Y-2.5364
T2
X7.0Y-5.8
X7.0Y-5.9
X7.8Y-5.8
X7.8Y-5.9
X9.6Y-0.9
X10.0Y-5.8
X10.1Y-5.8
T3
X1.1622Y-1.2311
X1.1622Y-1.3689
X1.1894Y-1.8965
X1.1894Y-2.0343
X1.2169Y-2.6965
X1.2169Y-2.8343
X1.2169Y-3.3965
X1.2169Y-3.5343
X1.2169Y-4.1965
X1.2169Y-4.3343
X2.9622Y-5.1311
X2.9622Y-5.2689
X4.0559Y-1.2311
X4.0831Y-1.8965
X4.1106Y-2.6965
X4.1106Y-3.3965
X4.1106Y-4.1965
X4.6169Y-3.3965
X4.6169Y-3.5343
X4.6169Y-4.1965
X4.6169Y-4.3343
X4.6622Y-2.6311
X4.6622Y-2.7689
X4.6894Y-1.1965
X4.6894Y-1.3343
X4.6894Y-1.8965
X4.6894Y-2.0343
X5.8559Y-5.1311
X7.5106Y-3.3965
X7.5106Y-4.1965
X7.5559Y-2.6311
X7.5831Y-1.1965
X7.5831Y-1.8965
T4
X1.3256Y-1.4654
X1.3528Y-2.1307
X1.3728Y-1.1346
X1.3803Y-2.9307
X1.3803Y-3.6307
X1.3803Y-4.4307
X1.4Y-1.8
X1.4276Y-2.6
X1.4276Y-3.3
X1.4276Y-4.1
X3.1256Y-5.3654
X3.1728Y-5.0346
X3.8453Y-1.1346
X3.8724Y-1.8
X3.8925Y-1.4654
X3.9Y-2.6
X3.9Y-3.3
X3.9Y-4.1
X3.9197Y-2.1307
X3.9472Y-2.9307
X3.9472Y-3.6307
X3.9472Y-4.4307
X4.7803Y-3.6307
X4.7803Y-4.4307
X4.8256Y-2.8654
X4.8276Y-3.3
X4.8276Y-4.1
X4.8528Y-1.4307
X4.8528Y-2.1307
X4.8728Y-2.5346
X4.9Y-1.1
X4.9Y-1.8
X5.6453Y-5.0346
X5.6925Y-5.3654
X7.3Y-3.3
X7.3Y-4.1
X7.3453Y-2.5346
X7.3472Y-3.6307
X7.3472Y-4.4307
X7.3724Y-1.1
X7.3724Y-1.8
X7.3925Y-2.8654
X7.4197Y-1.4307
X7.4197Y-2.1307
T0
M30
