%TF.GenerationSoftware,KiCad,Pcbnew,7.0.6*%
%TF.CreationDate,2023-07-25T22:23:12+05:30*%
%TF.ProjectId,class2_assignment,636c6173-7332-45f6-9173-7369676e6d65,rev?*%
%TF.SameCoordinates,Original*%
%TF.FileFunction,Copper,L1,Top*%
%TF.FilePolarity,Positive*%
%FSLAX46Y46*%
G04 Gerber Fmt 4.6, Leading zero omitted, Abs format (unit mm)*
G04 Created by KiCad (PCBNEW 7.0.6) date 2023-07-25 22:23:12*
%MOMM*%
%LPD*%
G01*
G04 APERTURE LIST*
G04 Aperture macros list*
%AMRoundRect*
0 Rectangle with rounded corners*
0 $1 Rounding radius*
0 $2 $3 $4 $5 $6 $7 $8 $9 X,Y pos of 4 corners*
0 Add a 4 corners polygon primitive as box body*
4,1,4,$2,$3,$4,$5,$6,$7,$8,$9,$2,$3,0*
0 Add four circle primitives for the rounded corners*
1,1,$1+$1,$2,$3*
1,1,$1+$1,$4,$5*
1,1,$1+$1,$6,$7*
1,1,$1+$1,$8,$9*
0 Add four rect primitives between the rounded corners*
20,1,$1+$1,$2,$3,$4,$5,0*
20,1,$1+$1,$4,$5,$6,$7,0*
20,1,$1+$1,$6,$7,$8,$9,0*
20,1,$1+$1,$8,$9,$2,$3,0*%
G04 Aperture macros list end*
%TA.AperFunction,ComponentPad*%
%ADD10R,1.700000X1.700000*%
%TD*%
%TA.AperFunction,ComponentPad*%
%ADD11O,1.700000X1.700000*%
%TD*%
%TA.AperFunction,ComponentPad*%
%ADD12R,1.750000X1.750000*%
%TD*%
%TA.AperFunction,ComponentPad*%
%ADD13C,1.750000*%
%TD*%
%TA.AperFunction,ComponentPad*%
%ADD14C,2.700000*%
%TD*%
%TA.AperFunction,SMDPad,CuDef*%
%ADD15RoundRect,0.150000X-0.825000X-0.150000X0.825000X-0.150000X0.825000X0.150000X-0.825000X0.150000X0*%
%TD*%
%TA.AperFunction,SMDPad,CuDef*%
%ADD16R,2.800000X2.200000*%
%TD*%
%TA.AperFunction,SMDPad,CuDef*%
%ADD17R,2.800000X2.800000*%
%TD*%
%TA.AperFunction,SMDPad,CuDef*%
%ADD18RoundRect,0.250000X-0.650000X0.325000X-0.650000X-0.325000X0.650000X-0.325000X0.650000X0.325000X0*%
%TD*%
%TA.AperFunction,SMDPad,CuDef*%
%ADD19RoundRect,0.250000X-0.312500X-0.625000X0.312500X-0.625000X0.312500X0.625000X-0.312500X0.625000X0*%
%TD*%
%TA.AperFunction,SMDPad,CuDef*%
%ADD20RoundRect,0.250000X-0.325000X-0.650000X0.325000X-0.650000X0.325000X0.650000X-0.325000X0.650000X0*%
%TD*%
%TA.AperFunction,SMDPad,CuDef*%
%ADD21RoundRect,0.250000X-0.625000X0.312500X-0.625000X-0.312500X0.625000X-0.312500X0.625000X0.312500X0*%
%TD*%
%TA.AperFunction,SMDPad,CuDef*%
%ADD22RoundRect,0.250000X0.325000X0.650000X-0.325000X0.650000X-0.325000X-0.650000X0.325000X-0.650000X0*%
%TD*%
%TA.AperFunction,ViaPad*%
%ADD23C,0.800000*%
%TD*%
%TA.AperFunction,Conductor*%
%ADD24C,0.250000*%
%TD*%
G04 APERTURE END LIST*
D10*
%TO.P,J4,1,Pin_1*%
%TO.N,Net-(J4-Pin_1)*%
X177800000Y-147320000D03*
D11*
%TO.P,J4,2,Pin_2*%
%TO.N,Net-(J4-Pin_2)*%
X177800000Y-149860000D03*
%TD*%
D10*
%TO.P,J3,1,Pin_1*%
%TO.N,Net-(J3-Pin_1)*%
X254000000Y-147320000D03*
D11*
%TO.P,J3,2,Pin_2*%
%TO.N,Net-(J3-Pin_2)*%
X256540000Y-147320000D03*
%TD*%
D12*
%TO.P,RV10,1,1*%
%TO.N,Net-(U1B--)*%
X117270000Y-106590000D03*
D13*
%TO.P,RV10,2,2*%
%TO.N,Net-(C19-Pad1)*%
X117270000Y-110090000D03*
%TO.P,RV10,3,3*%
%TO.N,Net-(U1B-+)*%
X190770000Y-106590000D03*
D14*
%TO.P,RV10,MP*%
%TO.N,N/C*%
X121420000Y-112540000D03*
X122620000Y-104140000D03*
X185420000Y-104140000D03*
X186620000Y-112540000D03*
%TD*%
D12*
%TO.P,RV6,1,1*%
%TO.N,Net-(U1B--)*%
X30910000Y-68490000D03*
D13*
%TO.P,RV6,2,2*%
%TO.N,Net-(C11-Pad1)*%
X30910000Y-71990000D03*
%TO.P,RV6,3,3*%
%TO.N,Net-(U1B-+)*%
X104410000Y-68490000D03*
D14*
%TO.P,RV6,MP*%
%TO.N,N/C*%
X35060000Y-74440000D03*
X36260000Y-66040000D03*
X99060000Y-66040000D03*
X100260000Y-74440000D03*
%TD*%
D12*
%TO.P,RV3,1,1*%
%TO.N,Net-(U1B--)*%
X119110000Y-48170000D03*
D13*
%TO.P,RV3,2,2*%
%TO.N,Net-(C5-Pad1)*%
X119110000Y-51670000D03*
%TO.P,RV3,3,3*%
%TO.N,Net-(U1B-+)*%
X192610000Y-48170000D03*
D14*
%TO.P,RV3,MP*%
%TO.N,N/C*%
X123260000Y-54120000D03*
X124460000Y-45720000D03*
X187260000Y-45720000D03*
X188460000Y-54120000D03*
%TD*%
D15*
%TO.P,U3,1*%
%TO.N,Net-(U3A--)*%
X271780000Y-55880000D03*
%TO.P,U3,2,-*%
X271780000Y-57150000D03*
%TO.P,U3,3,+*%
%TO.N,Net-(U3A-+)*%
X271780000Y-58420000D03*
%TO.P,U3,4,V+*%
%TO.N,Net-(J5-Pin_1)*%
X271780000Y-59690000D03*
%TO.P,U3,5,+*%
%TO.N,Net-(U3B-+)*%
X271780000Y-60960000D03*
%TO.P,U3,6,-*%
%TO.N,Net-(U3B--)*%
X271780000Y-62230000D03*
%TO.P,U3,7*%
X271780000Y-63500000D03*
%TO.P,U3,8*%
%TO.N,Net-(U3C--)*%
X276730000Y-63500000D03*
%TO.P,U3,9,-*%
X276730000Y-62230000D03*
%TO.P,U3,10,+*%
%TO.N,Net-(U3C-+)*%
X276730000Y-60960000D03*
%TO.P,U3,11,V-*%
%TO.N,Net-(J5-Pin_2)*%
X276730000Y-59690000D03*
%TO.P,U3,12,+*%
%TO.N,Net-(U3D-+)*%
X276730000Y-58420000D03*
%TO.P,U3,13,-*%
%TO.N,Net-(U3D--)*%
X276730000Y-57150000D03*
%TO.P,U3,14*%
X276730000Y-55880000D03*
%TD*%
D12*
%TO.P,RV4,1,1*%
%TO.N,Net-(U1B--)*%
X118420000Y-66830000D03*
D13*
%TO.P,RV4,2,2*%
%TO.N,Net-(C7-Pad1)*%
X118420000Y-70330000D03*
%TO.P,RV4,3,3*%
%TO.N,Net-(U1B-+)*%
X191920000Y-66830000D03*
D14*
%TO.P,RV4,MP*%
%TO.N,N/C*%
X122570000Y-72780000D03*
X123770000Y-64380000D03*
X186570000Y-64380000D03*
X187770000Y-72780000D03*
%TD*%
D12*
%TO.P,RV9,1,1*%
%TO.N,Net-(U1B--)*%
X117270000Y-86270000D03*
D13*
%TO.P,RV9,2,2*%
%TO.N,Net-(C17-Pad1)*%
X117270000Y-89770000D03*
%TO.P,RV9,3,3*%
%TO.N,Net-(U1B-+)*%
X190770000Y-86270000D03*
D14*
%TO.P,RV9,MP*%
%TO.N,N/C*%
X121420000Y-92220000D03*
X122620000Y-83820000D03*
X185420000Y-83820000D03*
X186620000Y-92220000D03*
%TD*%
D12*
%TO.P,RV5,1,1*%
%TO.N,Net-(U1B--)*%
X119110000Y-30390000D03*
D13*
%TO.P,RV5,2,2*%
%TO.N,Net-(C9-Pad1)*%
X119110000Y-33890000D03*
%TO.P,RV5,3,3*%
%TO.N,Net-(U1B-+)*%
X192610000Y-30390000D03*
D14*
%TO.P,RV5,MP*%
%TO.N,N/C*%
X123260000Y-36340000D03*
X124460000Y-27940000D03*
X187260000Y-27940000D03*
X188460000Y-36340000D03*
%TD*%
D12*
%TO.P,RV7,1,1*%
%TO.N,Net-(U1B--)*%
X30910000Y-86270000D03*
D13*
%TO.P,RV7,2,2*%
%TO.N,Net-(C13-Pad1)*%
X30910000Y-89770000D03*
%TO.P,RV7,3,3*%
%TO.N,Net-(U1B-+)*%
X104410000Y-86270000D03*
D14*
%TO.P,RV7,MP*%
%TO.N,N/C*%
X35060000Y-92220000D03*
X36260000Y-83820000D03*
X99060000Y-83820000D03*
X100260000Y-92220000D03*
%TD*%
D12*
%TO.P,RV2,1,1*%
%TO.N,Net-(U1B--)*%
X30210000Y-48170000D03*
D13*
%TO.P,RV2,2,2*%
%TO.N,Net-(C3-Pad1)*%
X30210000Y-51670000D03*
%TO.P,RV2,3,3*%
%TO.N,Net-(U1B-+)*%
X103710000Y-48170000D03*
D14*
%TO.P,RV2,MP*%
%TO.N,N/C*%
X34360000Y-54120000D03*
X35560000Y-45720000D03*
X98360000Y-45720000D03*
X99560000Y-54120000D03*
%TD*%
D15*
%TO.P,U1,1*%
%TO.N,Net-(R21-Pad1)*%
X259080000Y-22860000D03*
%TO.P,U1,2,-*%
%TO.N,GND*%
X259080000Y-24130000D03*
%TO.P,U1,3,+*%
%TO.N,Net-(U1A-+)*%
X259080000Y-25400000D03*
%TO.P,U1,4,V+*%
%TO.N,Net-(J3-Pin_1)*%
X259080000Y-26670000D03*
%TO.P,U1,5,+*%
%TO.N,Net-(U1B-+)*%
X259080000Y-27940000D03*
%TO.P,U1,6,-*%
%TO.N,Net-(U1B--)*%
X259080000Y-29210000D03*
%TO.P,U1,7*%
%TO.N,Net-(C24-Pad2)*%
X259080000Y-30480000D03*
%TO.P,U1,8*%
%TO.N,Net-(U1C--)*%
X264030000Y-30480000D03*
%TO.P,U1,9,-*%
X264030000Y-29210000D03*
%TO.P,U1,10,+*%
%TO.N,Net-(U1C-+)*%
X264030000Y-27940000D03*
%TO.P,U1,11,V-*%
%TO.N,Net-(J3-Pin_2)*%
X264030000Y-26670000D03*
%TO.P,U1,12,+*%
%TO.N,Net-(U1D-+)*%
X264030000Y-25400000D03*
%TO.P,U1,13,-*%
%TO.N,Net-(U1D--)*%
X264030000Y-24130000D03*
%TO.P,U1,14*%
X264030000Y-22860000D03*
%TD*%
D10*
%TO.P,J1,1,Pin_1*%
%TO.N,Net-(J1-Pin_1)*%
X243840000Y-22860000D03*
%TD*%
D12*
%TO.P,RV8,1,1*%
%TO.N,Net-(U1B--)*%
X30910000Y-106590000D03*
D13*
%TO.P,RV8,2,2*%
%TO.N,Net-(C15-Pad1)*%
X30910000Y-110090000D03*
%TO.P,RV8,3,3*%
%TO.N,Net-(U1B-+)*%
X104410000Y-106590000D03*
D14*
%TO.P,RV8,MP*%
%TO.N,N/C*%
X35060000Y-112540000D03*
X36260000Y-104140000D03*
X99060000Y-104140000D03*
X100260000Y-112540000D03*
%TD*%
D10*
%TO.P,J5,1,Pin_1*%
%TO.N,Net-(J5-Pin_1)*%
X198120000Y-147320000D03*
D11*
%TO.P,J5,2,Pin_2*%
%TO.N,Net-(J5-Pin_2)*%
X198120000Y-149860000D03*
%TD*%
D12*
%TO.P,RV11,1,1*%
%TO.N,Net-(C21-Pad2)*%
X75240000Y-130330000D03*
D13*
%TO.P,RV11,2,2*%
%TO.N,Net-(R21-Pad1)*%
X75240000Y-133830000D03*
%TO.P,RV11,3,3*%
X148740000Y-130330000D03*
D14*
%TO.P,RV11,MP*%
%TO.N,N/C*%
X79390000Y-136280000D03*
X80590000Y-127880000D03*
X143390000Y-127880000D03*
X144590000Y-136280000D03*
%TD*%
D16*
%TO.P,J2,R*%
%TO.N,N/C*%
X267860000Y-122820000D03*
%TO.P,J2,S*%
%TO.N,GND*%
X260460000Y-120820000D03*
D17*
%TO.P,J2,T*%
%TO.N,Net-(C25-Pad1)*%
X260460000Y-130220000D03*
%TD*%
D12*
%TO.P,RV1,1,1*%
%TO.N,Net-(U1B--)*%
X29520000Y-31270000D03*
D13*
%TO.P,RV1,2,2*%
%TO.N,Net-(C1-Pad1)*%
X29520000Y-34770000D03*
%TO.P,RV1,3,3*%
%TO.N,Net-(U1B-+)*%
X103020000Y-31270000D03*
D14*
%TO.P,RV1,MP*%
%TO.N,N/C*%
X33670000Y-37220000D03*
X34870000Y-28820000D03*
X97670000Y-28820000D03*
X98870000Y-37220000D03*
%TD*%
D15*
%TO.P,U2,1*%
%TO.N,Net-(U2A--)*%
X266765000Y-40300000D03*
%TO.P,U2,2,-*%
X266765000Y-41570000D03*
%TO.P,U2,3,+*%
%TO.N,Net-(U2A-+)*%
X266765000Y-42840000D03*
%TO.P,U2,4,V+*%
%TO.N,Net-(J4-Pin_1)*%
X266765000Y-44110000D03*
%TO.P,U2,5,+*%
%TO.N,Net-(U2B-+)*%
X266765000Y-45380000D03*
%TO.P,U2,6,-*%
%TO.N,Net-(U2B--)*%
X266765000Y-46650000D03*
%TO.P,U2,7*%
X266765000Y-47920000D03*
%TO.P,U2,8*%
%TO.N,Net-(U2C--)*%
X271715000Y-47920000D03*
%TO.P,U2,9,-*%
X271715000Y-46650000D03*
%TO.P,U2,10,+*%
%TO.N,Net-(U2C-+)*%
X271715000Y-45380000D03*
%TO.P,U2,11,V-*%
%TO.N,Net-(J4-Pin_2)*%
X271715000Y-44110000D03*
%TO.P,U2,12,+*%
%TO.N,Net-(U2D-+)*%
X271715000Y-42840000D03*
%TO.P,U2,13,-*%
%TO.N,Net-(U2D--)*%
X271715000Y-41570000D03*
%TO.P,U2,14*%
X271715000Y-40300000D03*
%TD*%
D18*
%TO.P,C4,1*%
%TO.N,Net-(C3-Pad2)*%
X211898800Y-81280000D03*
%TO.P,C4,2*%
%TO.N,Net-(U1D-+)*%
X211898800Y-84230000D03*
%TD*%
D19*
%TO.P,R26,1*%
%TO.N,Net-(C24-Pad2)*%
X213439300Y-72620000D03*
%TO.P,R26,2*%
%TO.N,Net-(C25-Pad2)*%
X216364300Y-72620000D03*
%TD*%
D20*
%TO.P,C20,1*%
%TO.N,Net-(C19-Pad2)*%
X227978800Y-85550000D03*
%TO.P,C20,2*%
%TO.N,Net-(U3D-+)*%
X230928800Y-85550000D03*
%TD*%
%TO.P,C9,1*%
%TO.N,Net-(C9-Pad1)*%
X233963800Y-43180000D03*
%TO.P,C9,2*%
%TO.N,Net-(C10-Pad1)*%
X236913800Y-43180000D03*
%TD*%
%TO.P,C25,1*%
%TO.N,Net-(C25-Pad1)*%
X233628800Y-78850000D03*
%TO.P,C25,2*%
%TO.N,Net-(C25-Pad2)*%
X236578800Y-78850000D03*
%TD*%
D19*
%TO.P,R17,1*%
%TO.N,Net-(U3A-+)*%
X239749200Y-56630000D03*
%TO.P,R17,2*%
%TO.N,GND*%
X242674200Y-56630000D03*
%TD*%
D21*
%TO.P,R5,1*%
%TO.N,Net-(C10-Pad1)*%
X251750000Y-83435000D03*
%TO.P,R5,2*%
%TO.N,Net-(U2C--)*%
X251750000Y-86360000D03*
%TD*%
D18*
%TO.P,C6,1*%
%TO.N,Net-(C5-Pad2)*%
X205198800Y-81280000D03*
%TO.P,C6,2*%
%TO.N,Net-(U2A-+)*%
X205198800Y-84230000D03*
%TD*%
D19*
%TO.P,R22,1*%
%TO.N,Net-(U1A-+)*%
X195652500Y-135400000D03*
%TO.P,R22,2*%
%TO.N,Net-(C21-Pad1)*%
X198577500Y-135400000D03*
%TD*%
D20*
%TO.P,C2,1*%
%TO.N,Net-(C1-Pad2)*%
X228313800Y-43180000D03*
%TO.P,C2,2*%
%TO.N,Net-(U1C-+)*%
X231263800Y-43180000D03*
%TD*%
D21*
%TO.P,R4,1*%
%TO.N,Net-(C7-Pad2)*%
X255040000Y-83435000D03*
%TO.P,R4,2*%
%TO.N,Net-(U2B--)*%
X255040000Y-86360000D03*
%TD*%
D20*
%TO.P,C14,1*%
%TO.N,Net-(C13-Pad2)*%
X184480000Y-132080000D03*
%TO.P,C14,2*%
%TO.N,Net-(U3A-+)*%
X187430000Y-132080000D03*
%TD*%
%TO.P,C1,1*%
%TO.N,Net-(C1-Pad1)*%
X228313800Y-39830000D03*
%TO.P,C1,2*%
%TO.N,Net-(C1-Pad2)*%
X231263800Y-39830000D03*
%TD*%
D19*
%TO.P,R7,1*%
%TO.N,Net-(C13-Pad2)*%
X219958900Y-139700000D03*
%TO.P,R7,2*%
%TO.N,Net-(U3A--)*%
X222883900Y-139700000D03*
%TD*%
%TO.P,R1,1*%
%TO.N,Net-(C1-Pad2)*%
X208408800Y-104140000D03*
%TO.P,R1,2*%
%TO.N,Net-(U1C--)*%
X211333800Y-104140000D03*
%TD*%
%TO.P,R18,1*%
%TO.N,Net-(U3B-+)*%
X247224200Y-69330000D03*
%TO.P,R18,2*%
%TO.N,GND*%
X250149200Y-69330000D03*
%TD*%
%TO.P,R25,1*%
%TO.N,Net-(U1B--)*%
X213439300Y-69330000D03*
%TO.P,R25,2*%
%TO.N,Net-(C24-Pad2)*%
X216364300Y-69330000D03*
%TD*%
D20*
%TO.P,C19,1*%
%TO.N,Net-(C19-Pad1)*%
X227978800Y-82200000D03*
%TO.P,C19,2*%
%TO.N,Net-(C19-Pad2)*%
X230928800Y-82200000D03*
%TD*%
D19*
%TO.P,R13,1*%
%TO.N,Net-(U2A-+)*%
X225568900Y-136410000D03*
%TO.P,R13,2*%
%TO.N,GND*%
X228493900Y-136410000D03*
%TD*%
%TO.P,R8,1*%
%TO.N,Net-(C15-Pad2)*%
X184432500Y-135400000D03*
%TO.P,R8,2*%
%TO.N,Net-(U3B--)*%
X187357500Y-135400000D03*
%TD*%
D20*
%TO.P,C7,1*%
%TO.N,Net-(C7-Pad1)*%
X208416300Y-100820000D03*
%TO.P,C7,2*%
%TO.N,Net-(C7-Pad2)*%
X211366300Y-100820000D03*
%TD*%
D22*
%TO.P,C11,1*%
%TO.N,Net-(C11-Pad1)*%
X222168800Y-113380000D03*
%TO.P,C11,2*%
%TO.N,Net-(C11-Pad2)*%
X219218800Y-113380000D03*
%TD*%
D19*
%TO.P,R27,1*%
%TO.N,GND*%
X239183900Y-149110000D03*
%TO.P,R27,2*%
%TO.N,Net-(C25-Pad1)*%
X242108900Y-149110000D03*
%TD*%
D22*
%TO.P,C13,1*%
%TO.N,Net-(C13-Pad1)*%
X222168800Y-106680000D03*
%TO.P,C13,2*%
%TO.N,Net-(C13-Pad2)*%
X219218800Y-106680000D03*
%TD*%
D20*
%TO.P,C8,1*%
%TO.N,Net-(C7-Pad2)*%
X233963800Y-39830000D03*
%TO.P,C8,2*%
%TO.N,Net-(U2B-+)*%
X236913800Y-39830000D03*
%TD*%
D21*
%TO.P,R10,1*%
%TO.N,Net-(C19-Pad2)*%
X258040000Y-100137500D03*
%TO.P,R10,2*%
%TO.N,Net-(U3D--)*%
X258040000Y-103062500D03*
%TD*%
D20*
%TO.P,C23,1*%
%TO.N,GND*%
X233628800Y-30480000D03*
%TO.P,C23,2*%
%TO.N,Net-(U1B-+)*%
X236578800Y-30480000D03*
%TD*%
D19*
%TO.P,R6,1*%
%TO.N,Net-(C11-Pad2)*%
X219958900Y-136410000D03*
%TO.P,R6,2*%
%TO.N,Net-(U2D--)*%
X222883900Y-136410000D03*
%TD*%
D21*
%TO.P,R12,1*%
%TO.N,Net-(U1D-+)*%
X251460000Y-100137500D03*
%TO.P,R12,2*%
%TO.N,GND*%
X251460000Y-103062500D03*
%TD*%
D19*
%TO.P,R20,1*%
%TO.N,Net-(U3D-+)*%
X233573900Y-149110000D03*
%TO.P,R20,2*%
%TO.N,GND*%
X236498900Y-149110000D03*
%TD*%
D20*
%TO.P,C21,1*%
%TO.N,Net-(C21-Pad1)*%
X190130000Y-132080000D03*
%TO.P,C21,2*%
%TO.N,Net-(C21-Pad2)*%
X193080000Y-132080000D03*
%TD*%
D19*
%TO.P,R23,1*%
%TO.N,Net-(U1A-+)*%
X245359200Y-53340000D03*
%TO.P,R23,2*%
%TO.N,Net-(R21-Pad1)*%
X248284200Y-53340000D03*
%TD*%
D21*
%TO.P,R9,1*%
%TO.N,Net-(C17-Pad2)*%
X261330000Y-100137500D03*
%TO.P,R9,2*%
%TO.N,Net-(U3C--)*%
X261330000Y-103062500D03*
%TD*%
D19*
%TO.P,R14,1*%
%TO.N,Net-(U2B-+)*%
X225568900Y-139700000D03*
%TO.P,R14,2*%
%TO.N,GND*%
X228493900Y-139700000D03*
%TD*%
D20*
%TO.P,C17,1*%
%TO.N,Net-(C17-Pad1)*%
X227978800Y-56690000D03*
%TO.P,C17,2*%
%TO.N,Net-(C17-Pad2)*%
X230928800Y-56690000D03*
%TD*%
D19*
%TO.P,R15,1*%
%TO.N,Net-(U2C-+)*%
X190042500Y-135400000D03*
%TO.P,R15,2*%
%TO.N,GND*%
X192967500Y-135400000D03*
%TD*%
%TO.P,R16,1*%
%TO.N,Net-(U2D-+)*%
X239749200Y-53340000D03*
%TO.P,R16,2*%
%TO.N,GND*%
X242674200Y-53340000D03*
%TD*%
D20*
%TO.P,C15,1*%
%TO.N,Net-(C15-Pad1)*%
X227978800Y-27130000D03*
%TO.P,C15,2*%
%TO.N,Net-(C15-Pad2)*%
X230928800Y-27130000D03*
%TD*%
D21*
%TO.P,R11,1*%
%TO.N,Net-(U1C-+)*%
X254750000Y-100137500D03*
%TO.P,R11,2*%
%TO.N,GND*%
X254750000Y-103062500D03*
%TD*%
D18*
%TO.P,C5,1*%
%TO.N,Net-(C5-Pad1)*%
X208548800Y-81280000D03*
%TO.P,C5,2*%
%TO.N,Net-(C5-Pad2)*%
X208548800Y-84230000D03*
%TD*%
D19*
%TO.P,R21,1*%
%TO.N,Net-(R21-Pad1)*%
X233573900Y-152400000D03*
%TO.P,R21,2*%
%TO.N,Net-(U1B-+)*%
X236498900Y-152400000D03*
%TD*%
D21*
%TO.P,R2,1*%
%TO.N,Net-(C3-Pad2)*%
X261620000Y-83435000D03*
%TO.P,R2,2*%
%TO.N,Net-(U1D--)*%
X261620000Y-86360000D03*
%TD*%
D19*
%TO.P,R24,1*%
%TO.N,Net-(C22-Pad1)*%
X245359200Y-56630000D03*
%TO.P,R24,2*%
%TO.N,Net-(U1A-+)*%
X248284200Y-56630000D03*
%TD*%
D20*
%TO.P,C22,1*%
%TO.N,Net-(C22-Pad1)*%
X233628800Y-27130000D03*
%TO.P,C22,2*%
%TO.N,Net-(J1-Pin_1)*%
X236578800Y-27130000D03*
%TD*%
%TO.P,C16,1*%
%TO.N,Net-(C15-Pad2)*%
X227978800Y-30480000D03*
%TO.P,C16,2*%
%TO.N,Net-(U3B-+)*%
X230928800Y-30480000D03*
%TD*%
D22*
%TO.P,C12,1*%
%TO.N,Net-(C11-Pad2)*%
X222168800Y-110030000D03*
%TO.P,C12,2*%
%TO.N,Net-(U2D-+)*%
X219218800Y-110030000D03*
%TD*%
D19*
%TO.P,R19,1*%
%TO.N,Net-(U3C-+)*%
X247224200Y-72620000D03*
%TO.P,R19,2*%
%TO.N,GND*%
X250149200Y-72620000D03*
%TD*%
D20*
%TO.P,C18,1*%
%TO.N,Net-(C17-Pad2)*%
X227978800Y-78850000D03*
%TO.P,C18,2*%
%TO.N,Net-(U3C-+)*%
X230928800Y-78850000D03*
%TD*%
%TO.P,C10,1*%
%TO.N,Net-(C10-Pad1)*%
X222328800Y-56690000D03*
%TO.P,C10,2*%
%TO.N,Net-(U2C-+)*%
X225278800Y-56690000D03*
%TD*%
%TO.P,C24,1*%
%TO.N,Net-(U1B--)*%
X233628800Y-56690000D03*
%TO.P,C24,2*%
%TO.N,Net-(C24-Pad2)*%
X236578800Y-56690000D03*
%TD*%
%TO.P,C3,1*%
%TO.N,Net-(C3-Pad1)*%
X216678800Y-56690000D03*
%TO.P,C3,2*%
%TO.N,Net-(C3-Pad2)*%
X219628800Y-56690000D03*
%TD*%
D21*
%TO.P,R3,1*%
%TO.N,Net-(C5-Pad2)*%
X258330000Y-83435000D03*
%TO.P,R3,2*%
%TO.N,Net-(U2A--)*%
X258330000Y-86360000D03*
%TD*%
D23*
%TO.N,Net-(U1A-+)*%
X244173000Y-53340000D03*
X224456400Y-108714800D03*
%TO.N,Net-(U3C--)*%
X261884800Y-101857900D03*
X275806000Y-64424000D03*
%TO.N,Net-(U3B--)*%
X225191900Y-131374800D03*
X246468500Y-77985500D03*
%TO.N,Net-(U2D--)*%
X224452400Y-134841500D03*
X246500700Y-47357700D03*
%TO.N,Net-(U2C--)*%
X253250500Y-85789500D03*
X258349000Y-51908800D03*
%TO.N,Net-(U2B--)*%
X256532200Y-85773500D03*
X261455700Y-49227600D03*
%TO.N,Net-(U2A--)*%
X261824900Y-85108900D03*
X264921800Y-41302500D03*
%TO.N,Net-(U1D--)*%
X263218500Y-84651700D03*
X262449800Y-24154500D03*
%TO.N,Net-(U1C--)*%
X212514600Y-104140000D03*
X223984300Y-55952800D03*
%TO.N,Net-(J5-Pin_2)*%
X249470700Y-76758100D03*
%TO.N,Net-(J5-Pin_1)*%
X248566900Y-60482200D03*
%TO.N,Net-(J4-Pin_2)*%
X248364400Y-50136500D03*
%TO.N,Net-(J4-Pin_1)*%
X249091300Y-44110000D03*
%TO.N,Net-(J3-Pin_2)*%
X262612900Y-27317600D03*
%TO.N,Net-(J3-Pin_1)*%
X260663100Y-27821500D03*
%TO.N,Net-(C25-Pad1)*%
X238160000Y-92358300D03*
X238208300Y-79821700D03*
%TO.N,Net-(C24-Pad2)*%
X237862400Y-56608100D03*
X254727900Y-34553000D03*
%TO.N,Net-(U1B--)*%
X235378700Y-56690000D03*
X250613200Y-36524400D03*
%TO.N,Net-(U1B-+)*%
X200041800Y-144952100D03*
%TO.N,GND*%
X250870100Y-101443600D03*
X249857500Y-71138300D03*
X249859100Y-57691800D03*
X255477900Y-28380400D03*
%TO.N,Net-(C22-Pad1)*%
X238142200Y-54860500D03*
X233719000Y-28805000D03*
%TO.N,Net-(U3D-+)*%
X234908700Y-147866200D03*
X251488300Y-85158900D03*
%TO.N,Net-(C19-Pad1)*%
X145243700Y-79125500D03*
%TO.N,Net-(C17-Pad2)*%
X229346500Y-79419200D03*
X229832700Y-57786100D03*
X234780000Y-87388600D03*
%TO.N,Net-(U3B-+)*%
X237120300Y-55120600D03*
X232278800Y-31422000D03*
%TO.N,Net-(C15-Pad2)*%
X229182600Y-30480000D03*
X191195900Y-133303500D03*
%TO.N,Net-(U3A-+)*%
X241313300Y-58194100D03*
X225045700Y-107139900D03*
%TO.N,Net-(C13-Pad2)*%
X221125800Y-139700000D03*
X220881100Y-107007500D03*
%TO.N,Net-(U2D-+)*%
X227133900Y-54571500D03*
X220146800Y-108762100D03*
%TO.N,Net-(U2C-+)*%
X191262900Y-135114600D03*
X224095400Y-57460700D03*
%TO.N,Net-(C10-Pad1)*%
X234825700Y-83435000D03*
X234220300Y-45824100D03*
%TO.N,Net-(U2B-+)*%
X224308400Y-138269500D03*
X235154100Y-39880400D03*
X233399500Y-48335400D03*
%TO.N,Net-(C7-Pad2)*%
X235808300Y-84346600D03*
X225572800Y-97026100D03*
X234884900Y-41092500D03*
%TO.N,Net-(U2A-+)*%
X232371200Y-48285200D03*
X215685700Y-85951500D03*
%TO.N,Net-(C5-Pad1)*%
X188747100Y-79917600D03*
%TO.N,Net-(U1D-+)*%
X250587300Y-95735400D03*
X261948200Y-25400000D03*
%TO.N,Net-(C3-Pad2)*%
X219628800Y-58220100D03*
X218368800Y-80488800D03*
%TO.N,Net-(U1C-+)*%
X249018800Y-94070500D03*
X248760600Y-41550000D03*
%TO.N,Net-(C1-Pad2)*%
X209594800Y-104140000D03*
X224279000Y-43562600D03*
%TD*%
D24*
%TO.N,Net-(U1A-+)*%
X260592000Y-25400000D02*
X259080000Y-25400000D01*
X261407600Y-26215600D02*
X260592000Y-25400000D01*
X262433400Y-26215600D02*
X261407600Y-26215600D01*
X262614000Y-26035000D02*
X262433400Y-26215600D01*
X265084400Y-26035000D02*
X262614000Y-26035000D01*
X273018700Y-33969300D02*
X265084400Y-26035000D01*
X273018700Y-48268700D02*
X273018700Y-33969300D01*
X268601900Y-52685500D02*
X273018700Y-48268700D01*
X258035200Y-52685500D02*
X268601900Y-52685500D01*
X257486800Y-52137100D02*
X258035200Y-52685500D01*
X246562100Y-52137100D02*
X257486800Y-52137100D01*
X245359200Y-53340000D02*
X246562100Y-52137100D01*
X245359200Y-53705000D02*
X245359200Y-53340000D01*
X248284200Y-56630000D02*
X245359200Y-53705000D01*
X221622700Y-108714800D02*
X224456400Y-108714800D01*
X221172100Y-109165400D02*
X221622700Y-108714800D01*
X221172100Y-109905500D02*
X221172100Y-109165400D01*
X219372600Y-111705000D02*
X221172100Y-109905500D01*
X219075800Y-111705000D02*
X219372600Y-111705000D01*
X201461600Y-129319200D02*
X219075800Y-111705000D01*
X201461600Y-134285500D02*
X201461600Y-129319200D01*
X199126700Y-136620400D02*
X201461600Y-134285500D01*
X196872900Y-136620400D02*
X199126700Y-136620400D01*
X195652500Y-135400000D02*
X196872900Y-136620400D01*
X245359200Y-53340000D02*
X244173000Y-53340000D01*
%TO.N,Net-(R21-Pad1)*%
X273514000Y-53340000D02*
X248284200Y-53340000D01*
X259729200Y-22210800D02*
X259080000Y-22860000D01*
X265040900Y-22210800D02*
X259729200Y-22210800D01*
X273514000Y-30683900D02*
X265040900Y-22210800D01*
X273514000Y-53340000D02*
X273514000Y-30683900D01*
X234776800Y-153602900D02*
X233573900Y-152400000D01*
X241508600Y-153602900D02*
X234776800Y-153602900D01*
X279908200Y-115203300D02*
X241508600Y-153602900D01*
X279908200Y-56712100D02*
X279908200Y-115203300D01*
X276536100Y-53340000D02*
X279908200Y-56712100D01*
X273514000Y-53340000D02*
X276536100Y-53340000D01*
X170810000Y-152400000D02*
X148740000Y-130330000D01*
X233573900Y-152400000D02*
X170810000Y-152400000D01*
%TO.N,Net-(U3D--)*%
X276730000Y-55880000D02*
X276730000Y-57150000D01*
X277166700Y-57150000D02*
X276730000Y-57150000D01*
X279004300Y-58987600D02*
X277166700Y-57150000D01*
X279004300Y-84257500D02*
X279004300Y-58987600D01*
X262199800Y-101062000D02*
X279004300Y-84257500D01*
X260040500Y-101062000D02*
X262199800Y-101062000D01*
X258040000Y-103062500D02*
X260040500Y-101062000D01*
%TO.N,Net-(U3C--)*%
X261884800Y-102507700D02*
X261884800Y-101857900D01*
X261330000Y-103062500D02*
X261884800Y-102507700D01*
X275806000Y-64424000D02*
X276730000Y-63500000D01*
X276730000Y-63500000D02*
X276730000Y-62230000D01*
%TO.N,Net-(U3B--)*%
X271780000Y-63500000D02*
X271780000Y-62230000D01*
X187969300Y-135400000D02*
X187357500Y-135400000D01*
X189199100Y-134170200D02*
X187969300Y-135400000D01*
X193518200Y-134170200D02*
X189199100Y-134170200D01*
X194728300Y-135380300D02*
X193518200Y-134170200D01*
X194728300Y-136230400D02*
X194728300Y-135380300D01*
X196138600Y-137640700D02*
X194728300Y-136230400D01*
X220492600Y-137640700D02*
X196138600Y-137640700D01*
X221421400Y-136711900D02*
X220492600Y-137640700D01*
X221421400Y-135145300D02*
X221421400Y-136711900D01*
X225191900Y-131374800D02*
X221421400Y-135145300D01*
X259824500Y-75455500D02*
X271780000Y-63500000D01*
X248998500Y-75455500D02*
X259824500Y-75455500D01*
X246468500Y-77985500D02*
X248998500Y-75455500D01*
%TO.N,Net-(U3A--)*%
X271780000Y-57150000D02*
X271780000Y-55880000D01*
X222883900Y-140220900D02*
X222883900Y-139700000D01*
X232982100Y-150319100D02*
X222883900Y-140220900D01*
X243623900Y-150319100D02*
X232982100Y-150319100D01*
X262733100Y-131209900D02*
X243623900Y-150319100D01*
X262733100Y-121329000D02*
X262733100Y-131209900D01*
X279456200Y-104605900D02*
X262733100Y-121329000D01*
X279456200Y-56934300D02*
X279456200Y-104605900D01*
X277712800Y-55190900D02*
X279456200Y-56934300D01*
X272469100Y-55190900D02*
X277712800Y-55190900D01*
X271780000Y-55880000D02*
X272469100Y-55190900D01*
%TO.N,Net-(U2D--)*%
X271715000Y-41570000D02*
X271715000Y-40300000D01*
X222883900Y-136410000D02*
X224452400Y-134841500D01*
X249947000Y-47357700D02*
X246500700Y-47357700D01*
X252559700Y-44745000D02*
X249947000Y-47357700D01*
X267802600Y-44745000D02*
X252559700Y-44745000D01*
X270977600Y-41570000D02*
X267802600Y-44745000D01*
X271715000Y-41570000D02*
X270977600Y-41570000D01*
%TO.N,Net-(U2C--)*%
X271715000Y-46650000D02*
X271715000Y-47920000D01*
X252320500Y-85789500D02*
X253250500Y-85789500D01*
X251750000Y-86360000D02*
X252320500Y-85789500D01*
X267726200Y-51908800D02*
X271715000Y-47920000D01*
X258349000Y-51908800D02*
X267726200Y-51908800D01*
%TO.N,Net-(U2B--)*%
X266765000Y-47920000D02*
X266765000Y-46650000D01*
X255945700Y-86360000D02*
X256532200Y-85773500D01*
X255040000Y-86360000D02*
X255945700Y-86360000D01*
X265457400Y-49227600D02*
X261455700Y-49227600D01*
X266765000Y-47920000D02*
X265457400Y-49227600D01*
%TO.N,Net-(U2A--)*%
X266497500Y-40567500D02*
X266765000Y-40300000D01*
X266497500Y-41302500D02*
X266497500Y-40567500D01*
X264921800Y-41302500D02*
X266497500Y-41302500D01*
X266497500Y-41302500D02*
X266765000Y-41570000D01*
X259581100Y-85108900D02*
X261824900Y-85108900D01*
X258330000Y-86360000D02*
X259581100Y-85108900D01*
%TO.N,Net-(U1D--)*%
X264030000Y-22860000D02*
X264030000Y-24130000D01*
X263218500Y-84761500D02*
X263218500Y-84651700D01*
X261620000Y-86360000D02*
X263218500Y-84761500D01*
X264005500Y-24154500D02*
X262449800Y-24154500D01*
X264030000Y-24130000D02*
X264005500Y-24154500D01*
%TO.N,Net-(U1C--)*%
X264030000Y-29210000D02*
X264030000Y-30480000D01*
X211333800Y-104140000D02*
X212514600Y-104140000D01*
X252118900Y-42391100D02*
X264030000Y-30480000D01*
X242363400Y-42391100D02*
X252118900Y-42391100D01*
X237815200Y-46939300D02*
X242363400Y-42391100D01*
X232632200Y-46939300D02*
X237815200Y-46939300D01*
X223984300Y-55587200D02*
X232632200Y-46939300D01*
X223984300Y-55952800D02*
X223984300Y-55587200D01*
%TO.N,Net-(J5-Pin_2)*%
X265131500Y-76758100D02*
X249470700Y-76758100D01*
X278038900Y-63850700D02*
X265131500Y-76758100D01*
X278038900Y-60522200D02*
X278038900Y-63850700D01*
X277206700Y-59690000D02*
X278038900Y-60522200D01*
X276730000Y-59690000D02*
X277206700Y-59690000D01*
%TO.N,Net-(J5-Pin_1)*%
X249359100Y-59690000D02*
X248566900Y-60482200D01*
X271780000Y-59690000D02*
X249359100Y-59690000D01*
%TO.N,Net-(J4-Pin_2)*%
X266203300Y-50136500D02*
X248364400Y-50136500D01*
X268067500Y-48272300D02*
X266203300Y-50136500D01*
X268067500Y-47366700D02*
X268067500Y-48272300D01*
X271324200Y-44110000D02*
X268067500Y-47366700D01*
X271715000Y-44110000D02*
X271324200Y-44110000D01*
%TO.N,Net-(J4-Pin_1)*%
X266765000Y-44110000D02*
X249091300Y-44110000D01*
%TO.N,Net-(J3-Pin_2)*%
X263260500Y-26670000D02*
X262612900Y-27317600D01*
X264030000Y-26670000D02*
X263260500Y-26670000D01*
%TO.N,Net-(J3-Pin_1)*%
X259511600Y-26670000D02*
X260663100Y-27821500D01*
X259080000Y-26670000D02*
X259511600Y-26670000D01*
%TO.N,Net-(C25-Pad2)*%
X230348800Y-72620000D02*
X236578800Y-78850000D01*
X216364300Y-72620000D02*
X230348800Y-72620000D01*
%TO.N,Net-(C25-Pad1)*%
X259272000Y-131946900D02*
X260460000Y-131946900D01*
X242108900Y-149110000D02*
X259272000Y-131946900D01*
X260460000Y-130220000D02*
X260460000Y-131946900D01*
X260460000Y-130220000D02*
X260460000Y-128493100D01*
X237942200Y-80087800D02*
X238208300Y-79821700D01*
X234866600Y-80087800D02*
X237942200Y-80087800D01*
X233628800Y-78850000D02*
X234866600Y-80087800D01*
X248901800Y-92358300D02*
X238160000Y-92358300D01*
X256395000Y-99851500D02*
X248901800Y-92358300D01*
X256395000Y-105253300D02*
X256395000Y-99851500D01*
X262187500Y-111045800D02*
X256395000Y-105253300D01*
X262187500Y-126765600D02*
X262187500Y-111045800D01*
X260460000Y-128493100D02*
X262187500Y-126765600D01*
%TO.N,Net-(C24-Pad2)*%
X216364300Y-69695000D02*
X213439300Y-72620000D01*
X216364300Y-69330000D02*
X216364300Y-69695000D01*
X223938800Y-69330000D02*
X236578800Y-56690000D01*
X216364300Y-69330000D02*
X223938800Y-69330000D01*
X236660700Y-56608100D02*
X237862400Y-56608100D01*
X236578800Y-56690000D02*
X236660700Y-56608100D01*
X258800900Y-30480000D02*
X254727900Y-34553000D01*
X259080000Y-30480000D02*
X258800900Y-30480000D01*
%TO.N,Net-(U1B--)*%
X118420000Y-66830000D02*
X119621900Y-66830000D01*
X29708100Y-70893800D02*
X30910000Y-69691900D01*
X29708100Y-83866200D02*
X29708100Y-70893800D01*
X30910000Y-85068100D02*
X29708100Y-83866200D01*
X30910000Y-86270000D02*
X30910000Y-85068100D01*
X30910000Y-68490000D02*
X30910000Y-69691900D01*
X122121900Y-69330000D02*
X119621900Y-66830000D01*
X213439300Y-69330000D02*
X122121900Y-69330000D01*
X257927600Y-29210000D02*
X259080000Y-29210000D01*
X250613200Y-36524400D02*
X257927600Y-29210000D01*
X33313800Y-107791900D02*
X32111900Y-106590000D01*
X114866200Y-107791900D02*
X33313800Y-107791900D01*
X116068100Y-106590000D02*
X114866200Y-107791900D01*
X117270000Y-106590000D02*
X116068100Y-106590000D01*
X30910000Y-106590000D02*
X32111900Y-106590000D01*
X233628800Y-56690000D02*
X235378700Y-56690000D01*
X229896100Y-60422700D02*
X233628800Y-56690000D01*
X222389300Y-60422700D02*
X229896100Y-60422700D01*
X213482000Y-69330000D02*
X222389300Y-60422700D01*
X213439300Y-69330000D02*
X213482000Y-69330000D01*
%TO.N,Net-(U1B-+)*%
X105611900Y-105388100D02*
X104410000Y-106590000D01*
X120943100Y-105388100D02*
X105611900Y-105388100D01*
X122145000Y-106590000D02*
X120943100Y-105388100D01*
X190770000Y-106590000D02*
X122145000Y-106590000D01*
X206176600Y-151086900D02*
X200041800Y-144952100D01*
X235185800Y-151086900D02*
X206176600Y-151086900D01*
X236498900Y-152400000D02*
X235185800Y-151086900D01*
X234904800Y-32154000D02*
X236578800Y-30480000D01*
X194374000Y-32154000D02*
X234904800Y-32154000D01*
X192610000Y-30390000D02*
X194374000Y-32154000D01*
X257680800Y-27940000D02*
X259080000Y-27940000D01*
X255140800Y-30480000D02*
X257680800Y-27940000D01*
X236578800Y-30480000D02*
X255140800Y-30480000D01*
%TO.N,GND*%
X236498900Y-149110000D02*
X239183900Y-149110000D01*
X251460000Y-102033500D02*
X251460000Y-103062500D01*
X250870100Y-101443600D02*
X251460000Y-102033500D01*
X250149200Y-72620000D02*
X250149200Y-71138300D01*
X250149200Y-71138300D02*
X250149200Y-69330000D01*
X249857500Y-71138300D02*
X250149200Y-71138300D01*
X246274800Y-57849000D02*
X246292400Y-57831400D01*
X243893200Y-57849000D02*
X246274800Y-57849000D01*
X242674200Y-56630000D02*
X243893200Y-57849000D01*
X243984700Y-54650500D02*
X242674200Y-53340000D01*
X245139100Y-54650500D02*
X243984700Y-54650500D01*
X246292400Y-55803800D02*
X245139100Y-54650500D01*
X246292400Y-57831400D02*
X246292400Y-55803800D01*
X235728400Y-28380400D02*
X255477900Y-28380400D01*
X233628800Y-30480000D02*
X235728400Y-28380400D01*
X258667100Y-24130000D02*
X259080000Y-24130000D01*
X255477900Y-27319200D02*
X258667100Y-24130000D01*
X255477900Y-28380400D02*
X255477900Y-27319200D01*
X249718000Y-57832900D02*
X249859100Y-57691800D01*
X246293900Y-57832900D02*
X249718000Y-57832900D01*
X246292400Y-57831400D02*
X246293900Y-57832900D01*
X254750000Y-103062500D02*
X251460000Y-103062500D01*
X260460000Y-120820000D02*
X260460000Y-119393100D01*
X254750000Y-103062500D02*
X254750000Y-113683100D01*
X254750000Y-113683100D02*
X260460000Y-119393100D01*
X232023100Y-136410000D02*
X254750000Y-113683100D01*
X228493900Y-136410000D02*
X232023100Y-136410000D01*
X236498900Y-147705000D02*
X236498900Y-149110000D01*
X228493900Y-139700000D02*
X236498900Y-147705000D01*
X195687900Y-138120400D02*
X192967500Y-135400000D01*
X223206400Y-138120400D02*
X195687900Y-138120400D01*
X223787300Y-137539500D02*
X223206400Y-138120400D01*
X224943200Y-137539500D02*
X223787300Y-137539500D01*
X225035500Y-137631800D02*
X224943200Y-137539500D01*
X228234500Y-137631800D02*
X225035500Y-137631800D01*
X228234500Y-136669400D02*
X228234500Y-137631800D01*
X228493900Y-136410000D02*
X228234500Y-136669400D01*
X228234500Y-139440600D02*
X228493900Y-139700000D01*
X228234500Y-137631800D02*
X228234500Y-139440600D01*
%TO.N,Net-(J1-Pin_1)*%
X238393100Y-27130000D02*
X242663100Y-22860000D01*
X236578800Y-27130000D02*
X238393100Y-27130000D01*
X243840000Y-22860000D02*
X242663100Y-22860000D01*
%TO.N,Net-(C22-Pad1)*%
X233628800Y-28714800D02*
X233628800Y-27130000D01*
X233719000Y-28805000D02*
X233628800Y-28714800D01*
X238708800Y-55427100D02*
X238142200Y-54860500D01*
X244156300Y-55427100D02*
X238708800Y-55427100D01*
X245359200Y-56630000D02*
X244156300Y-55427100D01*
%TO.N,Net-(C21-Pad2)*%
X143311500Y-130330000D02*
X75240000Y-130330000D01*
X144528000Y-129113500D02*
X143311500Y-130330000D01*
X151137300Y-129113500D02*
X144528000Y-129113500D01*
X155331700Y-133307900D02*
X151137300Y-129113500D01*
X188022500Y-133307900D02*
X155331700Y-133307900D01*
X188456700Y-132873700D02*
X188022500Y-133307900D01*
X188456700Y-131906400D02*
X188456700Y-132873700D01*
X189532200Y-130830900D02*
X188456700Y-131906400D01*
X191830900Y-130830900D02*
X189532200Y-130830900D01*
X193080000Y-132080000D02*
X191830900Y-130830900D01*
%TO.N,Net-(C21-Pad1)*%
X191000400Y-132080000D02*
X190130000Y-132080000D01*
X192245600Y-133325200D02*
X191000400Y-132080000D01*
X196502700Y-133325200D02*
X192245600Y-133325200D01*
X198577500Y-135400000D02*
X196502700Y-133325200D01*
%TO.N,Net-(U3D-+)*%
X234817700Y-147866200D02*
X234908700Y-147866200D01*
X233573900Y-149110000D02*
X234817700Y-147866200D01*
X231319900Y-85158900D02*
X251488300Y-85158900D01*
X230928800Y-85550000D02*
X231319900Y-85158900D01*
X251584600Y-85062600D02*
X251488300Y-85158900D01*
X256215200Y-85062600D02*
X251584600Y-85062600D01*
X256952400Y-84325400D02*
X256215200Y-85062600D01*
X262516900Y-84325400D02*
X256952400Y-84325400D01*
X278517600Y-68324700D02*
X262516900Y-84325400D01*
X278517600Y-59765500D02*
X278517600Y-68324700D01*
X277172100Y-58420000D02*
X278517600Y-59765500D01*
X276730000Y-58420000D02*
X277172100Y-58420000D01*
%TO.N,Net-(C19-Pad2)*%
X230928800Y-82600000D02*
X230928800Y-82200000D01*
X227978800Y-85550000D02*
X230928800Y-82600000D01*
X249209600Y-91307100D02*
X258040000Y-100137500D01*
X233735900Y-91307100D02*
X249209600Y-91307100D01*
X227978800Y-85550000D02*
X233735900Y-91307100D01*
%TO.N,Net-(C19-Pad1)*%
X208186400Y-79125500D02*
X145243700Y-79125500D01*
X210223800Y-81162900D02*
X208186400Y-79125500D01*
X210223800Y-81418000D02*
X210223800Y-81162900D01*
X211005800Y-82200000D02*
X210223800Y-81418000D01*
X227978800Y-82200000D02*
X211005800Y-82200000D01*
%TO.N,Net-(U3C-+)*%
X231833400Y-78850000D02*
X230928800Y-78850000D01*
X233533400Y-80550000D02*
X231833400Y-78850000D01*
X239294200Y-80550000D02*
X233533400Y-80550000D01*
X247224200Y-72620000D02*
X239294200Y-80550000D01*
X248438500Y-73834300D02*
X247224200Y-72620000D01*
X252310300Y-73834300D02*
X248438500Y-73834300D01*
X264549600Y-61595000D02*
X252310300Y-73834300D01*
X276095000Y-61595000D02*
X264549600Y-61595000D01*
X276730000Y-60960000D02*
X276095000Y-61595000D01*
%TO.N,Net-(C17-Pad2)*%
X228548000Y-79419200D02*
X227978800Y-78850000D01*
X229346500Y-79419200D02*
X228548000Y-79419200D01*
X230928800Y-56690000D02*
X229832700Y-57786100D01*
X248581100Y-87388600D02*
X234780000Y-87388600D01*
X261330000Y-100137500D02*
X248581100Y-87388600D01*
%TO.N,Net-(C17-Pad1)*%
X225827400Y-58841400D02*
X227978800Y-56690000D01*
X223331500Y-58841400D02*
X225827400Y-58841400D01*
X222200600Y-59972300D02*
X223331500Y-58841400D01*
X186961500Y-59972300D02*
X222200600Y-59972300D01*
X180876900Y-66056900D02*
X186961500Y-59972300D01*
X123075500Y-66056900D02*
X180876900Y-66056900D01*
X122646700Y-65628100D02*
X123075500Y-66056900D01*
X117341300Y-65628100D02*
X122646700Y-65628100D01*
X116068100Y-66901300D02*
X117341300Y-65628100D01*
X116068100Y-88568100D02*
X116068100Y-66901300D01*
X117270000Y-89770000D02*
X116068100Y-88568100D01*
%TO.N,Net-(U3B-+)*%
X231870800Y-31422000D02*
X230928800Y-30480000D01*
X232278800Y-31422000D02*
X231870800Y-31422000D01*
X238858800Y-57576000D02*
X247390800Y-66107900D01*
X238858800Y-56576500D02*
X238858800Y-57576000D01*
X238163500Y-55881200D02*
X238858800Y-56576500D01*
X237880900Y-55881200D02*
X238163500Y-55881200D01*
X237120300Y-55120600D02*
X237880900Y-55881200D01*
X247224200Y-66274500D02*
X247390800Y-66107900D01*
X247224200Y-69330000D02*
X247224200Y-66274500D01*
X252538700Y-60960000D02*
X271780000Y-60960000D01*
X247390800Y-66107900D02*
X252538700Y-60960000D01*
%TO.N,Net-(C15-Pad2)*%
X227978800Y-30480000D02*
X229182600Y-30480000D01*
X229182600Y-28876200D02*
X230928800Y-27130000D01*
X229182600Y-30480000D02*
X229182600Y-28876200D01*
X185881800Y-133950700D02*
X184432500Y-135400000D01*
X188779500Y-133950700D02*
X185881800Y-133950700D01*
X189011900Y-133718300D02*
X188779500Y-133950700D01*
X190781100Y-133718300D02*
X189011900Y-133718300D01*
X191195900Y-133303500D02*
X190781100Y-133718300D01*
%TO.N,Net-(C15-Pad1)*%
X28265300Y-107445300D02*
X30910000Y-110090000D01*
X28265300Y-34277800D02*
X28265300Y-107445300D01*
X29395400Y-33147700D02*
X28265300Y-34277800D01*
X103756100Y-33147700D02*
X29395400Y-33147700D01*
X105311900Y-31591900D02*
X103756100Y-33147700D01*
X188452100Y-31591900D02*
X105311900Y-31591900D01*
X192914000Y-27130000D02*
X188452100Y-31591900D01*
X227978800Y-27130000D02*
X192914000Y-27130000D01*
%TO.N,Net-(U3A-+)*%
X241539200Y-58420000D02*
X241313300Y-58194100D01*
X271780000Y-58420000D02*
X241539200Y-58420000D01*
X241313300Y-58194100D02*
X239749200Y-56630000D01*
X224214900Y-107970700D02*
X225045700Y-107139900D01*
X211539300Y-107970700D02*
X224214900Y-107970700D01*
X187430000Y-132080000D02*
X211539300Y-107970700D01*
%TO.N,Net-(C13-Pad2)*%
X209880000Y-106680000D02*
X184480000Y-132080000D01*
X219218800Y-106680000D02*
X209880000Y-106680000D01*
X219546300Y-107007500D02*
X220881100Y-107007500D01*
X219218800Y-106680000D02*
X219546300Y-107007500D01*
X219958900Y-139700000D02*
X221125800Y-139700000D01*
%TO.N,Net-(C13-Pad1)*%
X37068500Y-89770000D02*
X30910000Y-89770000D01*
X49761600Y-102463100D02*
X37068500Y-89770000D01*
X188363500Y-102463100D02*
X49761600Y-102463100D01*
X191290000Y-105389600D02*
X188363500Y-102463100D01*
X220878400Y-105389600D02*
X191290000Y-105389600D01*
X222168800Y-106680000D02*
X220878400Y-105389600D01*
%TO.N,Net-(U2D-+)*%
X219218800Y-109690100D02*
X220146800Y-108762100D01*
X219218800Y-110030000D02*
X219218800Y-109690100D01*
X228365400Y-53340000D02*
X239749200Y-53340000D01*
X227133900Y-54571500D02*
X228365400Y-53340000D01*
X271040800Y-42840000D02*
X271715000Y-42840000D01*
X267865800Y-46015000D02*
X271040800Y-42840000D01*
X257278200Y-46015000D02*
X267865800Y-46015000D01*
X254354100Y-48939100D02*
X257278200Y-46015000D01*
X244150100Y-48939100D02*
X254354100Y-48939100D01*
X239749200Y-53340000D02*
X244150100Y-48939100D01*
%TO.N,Net-(C11-Pad2)*%
X219958900Y-114120100D02*
X219958900Y-136410000D01*
X219218800Y-113380000D02*
X219958900Y-114120100D01*
X219218800Y-112980000D02*
X219218800Y-113380000D01*
X222168800Y-110030000D02*
X219218800Y-112980000D01*
%TO.N,Net-(C11-Pad1)*%
X35263400Y-71990000D02*
X30910000Y-71990000D01*
X58527500Y-95254100D02*
X35263400Y-71990000D01*
X200756300Y-95254100D02*
X58527500Y-95254100D01*
X208154000Y-102651800D02*
X200756300Y-95254100D01*
X221626000Y-102651800D02*
X208154000Y-102651800D01*
X225806400Y-106832200D02*
X221626000Y-102651800D01*
X225806400Y-109742400D02*
X225806400Y-106832200D01*
X222168800Y-113380000D02*
X225806400Y-109742400D01*
%TO.N,Net-(U2C-+)*%
X224866100Y-56690000D02*
X225278800Y-56690000D01*
X224095400Y-57460700D02*
X224866100Y-56690000D01*
X190977500Y-135400000D02*
X191262900Y-135114600D01*
X190042500Y-135400000D02*
X190977500Y-135400000D01*
X271331200Y-45380000D02*
X271715000Y-45380000D01*
X268877900Y-47833300D02*
X271331200Y-45380000D01*
X268877900Y-48107500D02*
X268877900Y-47833300D01*
X266113200Y-50872200D02*
X268877900Y-48107500D01*
X243383400Y-50872200D02*
X266113200Y-50872200D01*
X241668700Y-52586900D02*
X243383400Y-50872200D01*
X241668700Y-53175100D02*
X241668700Y-52586900D01*
X240300900Y-54542900D02*
X241668700Y-53175100D01*
X238934700Y-54542900D02*
X240300900Y-54542900D01*
X238481800Y-54090000D02*
X238934700Y-54542900D01*
X228643400Y-54090000D02*
X238481800Y-54090000D01*
X226043400Y-56690000D02*
X228643400Y-54090000D01*
X225278800Y-56690000D02*
X226043400Y-56690000D01*
%TO.N,Net-(C10-Pad1)*%
X251750000Y-83435000D02*
X234825700Y-83435000D01*
X234269700Y-45824100D02*
X234220300Y-45824100D01*
X236913800Y-43180000D02*
X234269700Y-45824100D01*
X222328800Y-56546900D02*
X222328800Y-56690000D01*
X233051600Y-45824100D02*
X222328800Y-56546900D01*
X234220300Y-45824100D02*
X233051600Y-45824100D01*
%TO.N,Net-(C9-Pad1)*%
X177821500Y-33890000D02*
X119110000Y-33890000D01*
X188341700Y-44410200D02*
X177821500Y-33890000D01*
X232733600Y-44410200D02*
X188341700Y-44410200D01*
X233963800Y-43180000D02*
X232733600Y-44410200D01*
%TO.N,Net-(U2B-+)*%
X224308400Y-138439500D02*
X224308400Y-138269500D01*
X225568900Y-139700000D02*
X224308400Y-138439500D01*
X236863400Y-39880400D02*
X235154100Y-39880400D01*
X236913800Y-39830000D02*
X236863400Y-39880400D01*
X250315900Y-48335400D02*
X233399500Y-48335400D01*
X253271300Y-45380000D02*
X250315900Y-48335400D01*
X266765000Y-45380000D02*
X253271300Y-45380000D01*
%TO.N,Net-(C7-Pad2)*%
X254128400Y-84346600D02*
X235808300Y-84346600D01*
X255040000Y-83435000D02*
X254128400Y-84346600D01*
X215160200Y-97026100D02*
X225572800Y-97026100D01*
X211366300Y-100820000D02*
X215160200Y-97026100D01*
X233963800Y-40171400D02*
X234884900Y-41092500D01*
X233963800Y-39830000D02*
X233963800Y-40171400D01*
%TO.N,Net-(C7-Pad1)*%
X124362200Y-70330000D02*
X118420000Y-70330000D01*
X148731400Y-94699200D02*
X124362200Y-70330000D01*
X202295500Y-94699200D02*
X148731400Y-94699200D01*
X208416300Y-100820000D02*
X202295500Y-94699200D01*
%TO.N,Net-(U2A-+)*%
X206920300Y-85951500D02*
X215685700Y-85951500D01*
X205198800Y-84230000D02*
X206920300Y-85951500D01*
X226318700Y-96584500D02*
X215685700Y-85951500D01*
X226318700Y-135660200D02*
X226318700Y-96584500D01*
X225568900Y-136410000D02*
X226318700Y-135660200D01*
X233195400Y-47461000D02*
X232371200Y-48285200D01*
X244464600Y-47461000D02*
X233195400Y-47461000D01*
X249082500Y-42843100D02*
X244464600Y-47461000D01*
X266762000Y-42843100D02*
X249082500Y-42843100D01*
X266762000Y-42843000D02*
X266762000Y-42843100D01*
X266765000Y-42840000D02*
X266762000Y-42843000D01*
%TO.N,Net-(C5-Pad2)*%
X209474600Y-83304200D02*
X208548800Y-84230000D01*
X227053000Y-83304200D02*
X209474600Y-83304200D01*
X227210900Y-83462100D02*
X227053000Y-83304200D01*
X228508800Y-83462100D02*
X227210900Y-83462100D01*
X229465500Y-82505400D02*
X228508800Y-83462100D01*
X229465500Y-81871200D02*
X229465500Y-82505400D01*
X230366000Y-80970700D02*
X229465500Y-81871200D01*
X232307400Y-80970700D02*
X230366000Y-80970700D01*
X233881300Y-82544600D02*
X232307400Y-80970700D01*
X257439600Y-82544600D02*
X233881300Y-82544600D01*
X258330000Y-83435000D02*
X257439600Y-82544600D01*
X205598800Y-81280000D02*
X205198800Y-81280000D01*
X208548800Y-84230000D02*
X205598800Y-81280000D01*
%TO.N,Net-(C5-Pad1)*%
X207186400Y-79917600D02*
X208548800Y-81280000D01*
X188747100Y-79917600D02*
X207186400Y-79917600D01*
%TO.N,Net-(U1D-+)*%
X264030000Y-25400000D02*
X261948200Y-25400000D01*
X250587300Y-99264800D02*
X250587300Y-95735400D01*
X251460000Y-100137500D02*
X250587300Y-99264800D01*
X215035700Y-84230000D02*
X211898800Y-84230000D01*
X226541100Y-95735400D02*
X215035700Y-84230000D01*
X250587300Y-95735400D02*
X226541100Y-95735400D01*
%TO.N,Net-(C3-Pad2)*%
X232742100Y-80488800D02*
X218368800Y-80488800D01*
X233959900Y-81706600D02*
X232742100Y-80488800D01*
X259891600Y-81706600D02*
X233959900Y-81706600D01*
X261620000Y-83435000D02*
X259891600Y-81706600D01*
X212690000Y-80488800D02*
X218368800Y-80488800D01*
X211898800Y-81280000D02*
X212690000Y-80488800D01*
X219628800Y-56690000D02*
X219628800Y-58220100D01*
%TO.N,Net-(C3-Pad1)*%
X34809200Y-51670000D02*
X30210000Y-51670000D01*
X39829200Y-56690000D02*
X34809200Y-51670000D01*
X216678800Y-56690000D02*
X39829200Y-56690000D01*
%TO.N,Net-(U1C-+)*%
X248415900Y-41894700D02*
X248760600Y-41550000D01*
X232549100Y-41894700D02*
X248415900Y-41894700D01*
X231263800Y-43180000D02*
X232549100Y-41894700D01*
X263018500Y-27940000D02*
X264030000Y-27940000D01*
X261112000Y-29846500D02*
X263018500Y-27940000D01*
X257995000Y-29846500D02*
X261112000Y-29846500D01*
X251340100Y-36501400D02*
X257995000Y-29846500D01*
X251340100Y-38970500D02*
X251340100Y-36501400D01*
X248760600Y-41550000D02*
X251340100Y-38970500D01*
X249957900Y-94070500D02*
X249018800Y-94070500D01*
X254750000Y-98862600D02*
X249957900Y-94070500D01*
X254750000Y-100137500D02*
X254750000Y-98862600D01*
%TO.N,Net-(C1-Pad2)*%
X208408800Y-104140000D02*
X209594800Y-104140000D01*
X227931200Y-43562600D02*
X228313800Y-43180000D01*
X224279000Y-43562600D02*
X227931200Y-43562600D01*
X228313800Y-42780000D02*
X231263800Y-39830000D01*
X228313800Y-43180000D02*
X228313800Y-42780000D01*
%TO.N,Net-(C1-Pad1)*%
X116530300Y-34770000D02*
X29520000Y-34770000D01*
X118612200Y-32688100D02*
X116530300Y-34770000D01*
X221171900Y-32688100D02*
X118612200Y-32688100D01*
X228313800Y-39830000D02*
X221171900Y-32688100D01*
%TD*%
M02*
