%TF.GenerationSoftware,KiCad,Pcbnew,7.0.6*%
%TF.CreationDate,2023-07-25T22:23:12+05:30*%
%TF.ProjectId,class2_assignment,636c6173-7332-45f6-9173-7369676e6d65,rev?*%
%TF.SameCoordinates,Original*%
%TF.FileFunction,Soldermask,Bot*%
%TF.FilePolarity,Negative*%
%FSLAX46Y46*%
G04 Gerber Fmt 4.6, Leading zero omitted, Abs format (unit mm)*
G04 Created by KiCad (PCBNEW 7.0.6) date 2023-07-25 22:23:12*
%MOMM*%
%LPD*%
G01*
G04 APERTURE LIST*
%ADD10R,1.700000X1.700000*%
%ADD11O,1.700000X1.700000*%
%ADD12R,1.750000X1.750000*%
%ADD13C,1.750000*%
%ADD14C,2.700000*%
%ADD15C,3.500000*%
%ADD16C,1.700000*%
G04 APERTURE END LIST*
D10*
%TO.C,J4*%
X177800000Y-147320000D03*
D11*
X177800000Y-149860000D03*
%TD*%
D10*
%TO.C,J3*%
X254000000Y-147320000D03*
D11*
X256540000Y-147320000D03*
%TD*%
D12*
%TO.C,RV10*%
X117270000Y-106590000D03*
D13*
X117270000Y-110090000D03*
X190770000Y-106590000D03*
D14*
X121420000Y-112540000D03*
X122620000Y-104140000D03*
X185420000Y-104140000D03*
X186620000Y-112540000D03*
%TD*%
D12*
%TO.C,RV6*%
X30910000Y-68490000D03*
D13*
X30910000Y-71990000D03*
X104410000Y-68490000D03*
D14*
X35060000Y-74440000D03*
X36260000Y-66040000D03*
X99060000Y-66040000D03*
X100260000Y-74440000D03*
%TD*%
D15*
%TO.C,H1*%
X111760000Y-22860000D03*
%TD*%
D12*
%TO.C,RV3*%
X119110000Y-48170000D03*
D13*
X119110000Y-51670000D03*
X192610000Y-48170000D03*
D14*
X123260000Y-54120000D03*
X124460000Y-45720000D03*
X187260000Y-45720000D03*
X188460000Y-54120000D03*
%TD*%
D12*
%TO.C,RV4*%
X118420000Y-66830000D03*
D13*
X118420000Y-70330000D03*
X191920000Y-66830000D03*
D14*
X122570000Y-72780000D03*
X123770000Y-64380000D03*
X186570000Y-64380000D03*
X187770000Y-72780000D03*
%TD*%
D15*
%TO.C,H3*%
X22860000Y-149860000D03*
%TD*%
D12*
%TO.C,RV9*%
X117270000Y-86270000D03*
D13*
X117270000Y-89770000D03*
X190770000Y-86270000D03*
D14*
X121420000Y-92220000D03*
X122620000Y-83820000D03*
X185420000Y-83820000D03*
X186620000Y-92220000D03*
%TD*%
D12*
%TO.C,RV5*%
X119110000Y-30390000D03*
D13*
X119110000Y-33890000D03*
X192610000Y-30390000D03*
D14*
X123260000Y-36340000D03*
X124460000Y-27940000D03*
X187260000Y-27940000D03*
X188460000Y-36340000D03*
%TD*%
D12*
%TO.C,RV7*%
X30910000Y-86270000D03*
D13*
X30910000Y-89770000D03*
X104410000Y-86270000D03*
D14*
X35060000Y-92220000D03*
X36260000Y-83820000D03*
X99060000Y-83820000D03*
X100260000Y-92220000D03*
%TD*%
D12*
%TO.C,RV2*%
X30210000Y-48170000D03*
D13*
X30210000Y-51670000D03*
X103710000Y-48170000D03*
D14*
X34360000Y-54120000D03*
X35560000Y-45720000D03*
X98360000Y-45720000D03*
X99560000Y-54120000D03*
%TD*%
D10*
%TO.C,J1*%
X243840000Y-22860000D03*
%TD*%
D12*
%TO.C,RV8*%
X30910000Y-106590000D03*
D13*
X30910000Y-110090000D03*
X104410000Y-106590000D03*
D14*
X35060000Y-112540000D03*
X36260000Y-104140000D03*
X99060000Y-104140000D03*
X100260000Y-112540000D03*
%TD*%
D10*
%TO.C,J5*%
X198120000Y-147320000D03*
D11*
X198120000Y-149860000D03*
%TD*%
D15*
%TO.C,H6*%
X271780000Y-149860000D03*
%TD*%
D12*
%TO.C,RV11*%
X75240000Y-130330000D03*
D13*
X75240000Y-133830000D03*
X148740000Y-130330000D03*
D14*
X79390000Y-136280000D03*
X80590000Y-127880000D03*
X143390000Y-127880000D03*
X144590000Y-136280000D03*
%TD*%
D15*
%TO.C,H2*%
X114300000Y-149860000D03*
%TD*%
D16*
%TO.C,J2*%
X264160000Y-121920000D03*
X264160000Y-128920000D03*
%TD*%
D15*
%TO.C,H4*%
X22860000Y-22860000D03*
%TD*%
D12*
%TO.C,RV1*%
X29520000Y-31270000D03*
D13*
X29520000Y-34770000D03*
X103020000Y-31270000D03*
D14*
X33670000Y-37220000D03*
X34870000Y-28820000D03*
X97670000Y-28820000D03*
X98870000Y-37220000D03*
%TD*%
D15*
%TO.C,H5*%
X274320000Y-22860000D03*
%TD*%
M02*
