%TF.GenerationSoftware,KiCad,Pcbnew,7.0.6*%
%TF.CreationDate,2023-07-25T22:23:12+05:30*%
%TF.ProjectId,class2_assignment,636c6173-7332-45f6-9173-7369676e6d65,rev?*%
%TF.SameCoordinates,Original*%
%TF.FileFunction,Legend,Top*%
%TF.FilePolarity,Positive*%
%FSLAX46Y46*%
G04 Gerber Fmt 4.6, Leading zero omitted, Abs format (unit mm)*
G04 Created by KiCad (PCBNEW 7.0.6) date 2023-07-25 22:23:12*
%MOMM*%
%LPD*%
G01*
G04 APERTURE LIST*
%ADD10C,0.150000*%
%ADD11C,0.120000*%
G04 APERTURE END LIST*
D10*
X177466666Y-144004819D02*
X177466666Y-144719104D01*
X177466666Y-144719104D02*
X177419047Y-144861961D01*
X177419047Y-144861961D02*
X177323809Y-144957200D01*
X177323809Y-144957200D02*
X177180952Y-145004819D01*
X177180952Y-145004819D02*
X177085714Y-145004819D01*
X178371428Y-144338152D02*
X178371428Y-145004819D01*
X178133333Y-143957200D02*
X177895238Y-144671485D01*
X177895238Y-144671485D02*
X178514285Y-144671485D01*
X250684819Y-147653333D02*
X251399104Y-147653333D01*
X251399104Y-147653333D02*
X251541961Y-147700952D01*
X251541961Y-147700952D02*
X251637200Y-147796190D01*
X251637200Y-147796190D02*
X251684819Y-147939047D01*
X251684819Y-147939047D02*
X251684819Y-148034285D01*
X250684819Y-147272380D02*
X250684819Y-146653333D01*
X250684819Y-146653333D02*
X251065771Y-146986666D01*
X251065771Y-146986666D02*
X251065771Y-146843809D01*
X251065771Y-146843809D02*
X251113390Y-146748571D01*
X251113390Y-146748571D02*
X251161009Y-146700952D01*
X251161009Y-146700952D02*
X251256247Y-146653333D01*
X251256247Y-146653333D02*
X251494342Y-146653333D01*
X251494342Y-146653333D02*
X251589580Y-146700952D01*
X251589580Y-146700952D02*
X251637200Y-146748571D01*
X251637200Y-146748571D02*
X251684819Y-146843809D01*
X251684819Y-146843809D02*
X251684819Y-147129523D01*
X251684819Y-147129523D02*
X251637200Y-147224761D01*
X251637200Y-147224761D02*
X251589580Y-147272380D01*
X115768571Y-107134819D02*
X115435238Y-106658628D01*
X115197143Y-107134819D02*
X115197143Y-106134819D01*
X115197143Y-106134819D02*
X115578095Y-106134819D01*
X115578095Y-106134819D02*
X115673333Y-106182438D01*
X115673333Y-106182438D02*
X115720952Y-106230057D01*
X115720952Y-106230057D02*
X115768571Y-106325295D01*
X115768571Y-106325295D02*
X115768571Y-106468152D01*
X115768571Y-106468152D02*
X115720952Y-106563390D01*
X115720952Y-106563390D02*
X115673333Y-106611009D01*
X115673333Y-106611009D02*
X115578095Y-106658628D01*
X115578095Y-106658628D02*
X115197143Y-106658628D01*
X116054286Y-106134819D02*
X116387619Y-107134819D01*
X116387619Y-107134819D02*
X116720952Y-106134819D01*
X117578095Y-107134819D02*
X117006667Y-107134819D01*
X117292381Y-107134819D02*
X117292381Y-106134819D01*
X117292381Y-106134819D02*
X117197143Y-106277676D01*
X117197143Y-106277676D02*
X117101905Y-106372914D01*
X117101905Y-106372914D02*
X117006667Y-106420533D01*
X118197143Y-106134819D02*
X118292381Y-106134819D01*
X118292381Y-106134819D02*
X118387619Y-106182438D01*
X118387619Y-106182438D02*
X118435238Y-106230057D01*
X118435238Y-106230057D02*
X118482857Y-106325295D01*
X118482857Y-106325295D02*
X118530476Y-106515771D01*
X118530476Y-106515771D02*
X118530476Y-106753866D01*
X118530476Y-106753866D02*
X118482857Y-106944342D01*
X118482857Y-106944342D02*
X118435238Y-107039580D01*
X118435238Y-107039580D02*
X118387619Y-107087200D01*
X118387619Y-107087200D02*
X118292381Y-107134819D01*
X118292381Y-107134819D02*
X118197143Y-107134819D01*
X118197143Y-107134819D02*
X118101905Y-107087200D01*
X118101905Y-107087200D02*
X118054286Y-107039580D01*
X118054286Y-107039580D02*
X118006667Y-106944342D01*
X118006667Y-106944342D02*
X117959048Y-106753866D01*
X117959048Y-106753866D02*
X117959048Y-106515771D01*
X117959048Y-106515771D02*
X118006667Y-106325295D01*
X118006667Y-106325295D02*
X118054286Y-106230057D01*
X118054286Y-106230057D02*
X118101905Y-106182438D01*
X118101905Y-106182438D02*
X118197143Y-106134819D01*
X67064761Y-64944819D02*
X66731428Y-64468628D01*
X66493333Y-64944819D02*
X66493333Y-63944819D01*
X66493333Y-63944819D02*
X66874285Y-63944819D01*
X66874285Y-63944819D02*
X66969523Y-63992438D01*
X66969523Y-63992438D02*
X67017142Y-64040057D01*
X67017142Y-64040057D02*
X67064761Y-64135295D01*
X67064761Y-64135295D02*
X67064761Y-64278152D01*
X67064761Y-64278152D02*
X67017142Y-64373390D01*
X67017142Y-64373390D02*
X66969523Y-64421009D01*
X66969523Y-64421009D02*
X66874285Y-64468628D01*
X66874285Y-64468628D02*
X66493333Y-64468628D01*
X67350476Y-63944819D02*
X67683809Y-64944819D01*
X67683809Y-64944819D02*
X68017142Y-63944819D01*
X68779047Y-63944819D02*
X68588571Y-63944819D01*
X68588571Y-63944819D02*
X68493333Y-63992438D01*
X68493333Y-63992438D02*
X68445714Y-64040057D01*
X68445714Y-64040057D02*
X68350476Y-64182914D01*
X68350476Y-64182914D02*
X68302857Y-64373390D01*
X68302857Y-64373390D02*
X68302857Y-64754342D01*
X68302857Y-64754342D02*
X68350476Y-64849580D01*
X68350476Y-64849580D02*
X68398095Y-64897200D01*
X68398095Y-64897200D02*
X68493333Y-64944819D01*
X68493333Y-64944819D02*
X68683809Y-64944819D01*
X68683809Y-64944819D02*
X68779047Y-64897200D01*
X68779047Y-64897200D02*
X68826666Y-64849580D01*
X68826666Y-64849580D02*
X68874285Y-64754342D01*
X68874285Y-64754342D02*
X68874285Y-64516247D01*
X68874285Y-64516247D02*
X68826666Y-64421009D01*
X68826666Y-64421009D02*
X68779047Y-64373390D01*
X68779047Y-64373390D02*
X68683809Y-64325771D01*
X68683809Y-64325771D02*
X68493333Y-64325771D01*
X68493333Y-64325771D02*
X68398095Y-64373390D01*
X68398095Y-64373390D02*
X68350476Y-64421009D01*
X68350476Y-64421009D02*
X68302857Y-64516247D01*
X110998095Y-18814819D02*
X110998095Y-17814819D01*
X110998095Y-18291009D02*
X111569523Y-18291009D01*
X111569523Y-18814819D02*
X111569523Y-17814819D01*
X112569523Y-18814819D02*
X111998095Y-18814819D01*
X112283809Y-18814819D02*
X112283809Y-17814819D01*
X112283809Y-17814819D02*
X112188571Y-17957676D01*
X112188571Y-17957676D02*
X112093333Y-18052914D01*
X112093333Y-18052914D02*
X111998095Y-18100533D01*
X155264761Y-44624819D02*
X154931428Y-44148628D01*
X154693333Y-44624819D02*
X154693333Y-43624819D01*
X154693333Y-43624819D02*
X155074285Y-43624819D01*
X155074285Y-43624819D02*
X155169523Y-43672438D01*
X155169523Y-43672438D02*
X155217142Y-43720057D01*
X155217142Y-43720057D02*
X155264761Y-43815295D01*
X155264761Y-43815295D02*
X155264761Y-43958152D01*
X155264761Y-43958152D02*
X155217142Y-44053390D01*
X155217142Y-44053390D02*
X155169523Y-44101009D01*
X155169523Y-44101009D02*
X155074285Y-44148628D01*
X155074285Y-44148628D02*
X154693333Y-44148628D01*
X155550476Y-43624819D02*
X155883809Y-44624819D01*
X155883809Y-44624819D02*
X156217142Y-43624819D01*
X156455238Y-43624819D02*
X157074285Y-43624819D01*
X157074285Y-43624819D02*
X156740952Y-44005771D01*
X156740952Y-44005771D02*
X156883809Y-44005771D01*
X156883809Y-44005771D02*
X156979047Y-44053390D01*
X156979047Y-44053390D02*
X157026666Y-44101009D01*
X157026666Y-44101009D02*
X157074285Y-44196247D01*
X157074285Y-44196247D02*
X157074285Y-44434342D01*
X157074285Y-44434342D02*
X157026666Y-44529580D01*
X157026666Y-44529580D02*
X156979047Y-44577200D01*
X156979047Y-44577200D02*
X156883809Y-44624819D01*
X156883809Y-44624819D02*
X156598095Y-44624819D01*
X156598095Y-44624819D02*
X156502857Y-44577200D01*
X156502857Y-44577200D02*
X156455238Y-44529580D01*
X273493095Y-53864819D02*
X273493095Y-54674342D01*
X273493095Y-54674342D02*
X273540714Y-54769580D01*
X273540714Y-54769580D02*
X273588333Y-54817200D01*
X273588333Y-54817200D02*
X273683571Y-54864819D01*
X273683571Y-54864819D02*
X273874047Y-54864819D01*
X273874047Y-54864819D02*
X273969285Y-54817200D01*
X273969285Y-54817200D02*
X274016904Y-54769580D01*
X274016904Y-54769580D02*
X274064523Y-54674342D01*
X274064523Y-54674342D02*
X274064523Y-53864819D01*
X274445476Y-53864819D02*
X275064523Y-53864819D01*
X275064523Y-53864819D02*
X274731190Y-54245771D01*
X274731190Y-54245771D02*
X274874047Y-54245771D01*
X274874047Y-54245771D02*
X274969285Y-54293390D01*
X274969285Y-54293390D02*
X275016904Y-54341009D01*
X275016904Y-54341009D02*
X275064523Y-54436247D01*
X275064523Y-54436247D02*
X275064523Y-54674342D01*
X275064523Y-54674342D02*
X275016904Y-54769580D01*
X275016904Y-54769580D02*
X274969285Y-54817200D01*
X274969285Y-54817200D02*
X274874047Y-54864819D01*
X274874047Y-54864819D02*
X274588333Y-54864819D01*
X274588333Y-54864819D02*
X274493095Y-54817200D01*
X274493095Y-54817200D02*
X274445476Y-54769580D01*
X22098095Y-145814819D02*
X22098095Y-144814819D01*
X22098095Y-145291009D02*
X22669523Y-145291009D01*
X22669523Y-145814819D02*
X22669523Y-144814819D01*
X23050476Y-144814819D02*
X23669523Y-144814819D01*
X23669523Y-144814819D02*
X23336190Y-145195771D01*
X23336190Y-145195771D02*
X23479047Y-145195771D01*
X23479047Y-145195771D02*
X23574285Y-145243390D01*
X23574285Y-145243390D02*
X23621904Y-145291009D01*
X23621904Y-145291009D02*
X23669523Y-145386247D01*
X23669523Y-145386247D02*
X23669523Y-145624342D01*
X23669523Y-145624342D02*
X23621904Y-145719580D01*
X23621904Y-145719580D02*
X23574285Y-145767200D01*
X23574285Y-145767200D02*
X23479047Y-145814819D01*
X23479047Y-145814819D02*
X23193333Y-145814819D01*
X23193333Y-145814819D02*
X23098095Y-145767200D01*
X23098095Y-145767200D02*
X23050476Y-145719580D01*
X155264761Y-26844819D02*
X154931428Y-26368628D01*
X154693333Y-26844819D02*
X154693333Y-25844819D01*
X154693333Y-25844819D02*
X155074285Y-25844819D01*
X155074285Y-25844819D02*
X155169523Y-25892438D01*
X155169523Y-25892438D02*
X155217142Y-25940057D01*
X155217142Y-25940057D02*
X155264761Y-26035295D01*
X155264761Y-26035295D02*
X155264761Y-26178152D01*
X155264761Y-26178152D02*
X155217142Y-26273390D01*
X155217142Y-26273390D02*
X155169523Y-26321009D01*
X155169523Y-26321009D02*
X155074285Y-26368628D01*
X155074285Y-26368628D02*
X154693333Y-26368628D01*
X155550476Y-25844819D02*
X155883809Y-26844819D01*
X155883809Y-26844819D02*
X156217142Y-25844819D01*
X157026666Y-25844819D02*
X156550476Y-25844819D01*
X156550476Y-25844819D02*
X156502857Y-26321009D01*
X156502857Y-26321009D02*
X156550476Y-26273390D01*
X156550476Y-26273390D02*
X156645714Y-26225771D01*
X156645714Y-26225771D02*
X156883809Y-26225771D01*
X156883809Y-26225771D02*
X156979047Y-26273390D01*
X156979047Y-26273390D02*
X157026666Y-26321009D01*
X157026666Y-26321009D02*
X157074285Y-26416247D01*
X157074285Y-26416247D02*
X157074285Y-26654342D01*
X157074285Y-26654342D02*
X157026666Y-26749580D01*
X157026666Y-26749580D02*
X156979047Y-26797200D01*
X156979047Y-26797200D02*
X156883809Y-26844819D01*
X156883809Y-26844819D02*
X156645714Y-26844819D01*
X156645714Y-26844819D02*
X156550476Y-26797200D01*
X156550476Y-26797200D02*
X156502857Y-26749580D01*
X67064761Y-82724819D02*
X66731428Y-82248628D01*
X66493333Y-82724819D02*
X66493333Y-81724819D01*
X66493333Y-81724819D02*
X66874285Y-81724819D01*
X66874285Y-81724819D02*
X66969523Y-81772438D01*
X66969523Y-81772438D02*
X67017142Y-81820057D01*
X67017142Y-81820057D02*
X67064761Y-81915295D01*
X67064761Y-81915295D02*
X67064761Y-82058152D01*
X67064761Y-82058152D02*
X67017142Y-82153390D01*
X67017142Y-82153390D02*
X66969523Y-82201009D01*
X66969523Y-82201009D02*
X66874285Y-82248628D01*
X66874285Y-82248628D02*
X66493333Y-82248628D01*
X67350476Y-81724819D02*
X67683809Y-82724819D01*
X67683809Y-82724819D02*
X68017142Y-81724819D01*
X68255238Y-81724819D02*
X68921904Y-81724819D01*
X68921904Y-81724819D02*
X68493333Y-82724819D01*
X66364761Y-44624819D02*
X66031428Y-44148628D01*
X65793333Y-44624819D02*
X65793333Y-43624819D01*
X65793333Y-43624819D02*
X66174285Y-43624819D01*
X66174285Y-43624819D02*
X66269523Y-43672438D01*
X66269523Y-43672438D02*
X66317142Y-43720057D01*
X66317142Y-43720057D02*
X66364761Y-43815295D01*
X66364761Y-43815295D02*
X66364761Y-43958152D01*
X66364761Y-43958152D02*
X66317142Y-44053390D01*
X66317142Y-44053390D02*
X66269523Y-44101009D01*
X66269523Y-44101009D02*
X66174285Y-44148628D01*
X66174285Y-44148628D02*
X65793333Y-44148628D01*
X66650476Y-43624819D02*
X66983809Y-44624819D01*
X66983809Y-44624819D02*
X67317142Y-43624819D01*
X67602857Y-43720057D02*
X67650476Y-43672438D01*
X67650476Y-43672438D02*
X67745714Y-43624819D01*
X67745714Y-43624819D02*
X67983809Y-43624819D01*
X67983809Y-43624819D02*
X68079047Y-43672438D01*
X68079047Y-43672438D02*
X68126666Y-43720057D01*
X68126666Y-43720057D02*
X68174285Y-43815295D01*
X68174285Y-43815295D02*
X68174285Y-43910533D01*
X68174285Y-43910533D02*
X68126666Y-44053390D01*
X68126666Y-44053390D02*
X67555238Y-44624819D01*
X67555238Y-44624819D02*
X68174285Y-44624819D01*
X260793095Y-20844819D02*
X260793095Y-21654342D01*
X260793095Y-21654342D02*
X260840714Y-21749580D01*
X260840714Y-21749580D02*
X260888333Y-21797200D01*
X260888333Y-21797200D02*
X260983571Y-21844819D01*
X260983571Y-21844819D02*
X261174047Y-21844819D01*
X261174047Y-21844819D02*
X261269285Y-21797200D01*
X261269285Y-21797200D02*
X261316904Y-21749580D01*
X261316904Y-21749580D02*
X261364523Y-21654342D01*
X261364523Y-21654342D02*
X261364523Y-20844819D01*
X262364523Y-21844819D02*
X261793095Y-21844819D01*
X262078809Y-21844819D02*
X262078809Y-20844819D01*
X262078809Y-20844819D02*
X261983571Y-20987676D01*
X261983571Y-20987676D02*
X261888333Y-21082914D01*
X261888333Y-21082914D02*
X261793095Y-21130533D01*
X243506666Y-19544819D02*
X243506666Y-20259104D01*
X243506666Y-20259104D02*
X243459047Y-20401961D01*
X243459047Y-20401961D02*
X243363809Y-20497200D01*
X243363809Y-20497200D02*
X243220952Y-20544819D01*
X243220952Y-20544819D02*
X243125714Y-20544819D01*
X244506666Y-20544819D02*
X243935238Y-20544819D01*
X244220952Y-20544819D02*
X244220952Y-19544819D01*
X244220952Y-19544819D02*
X244125714Y-19687676D01*
X244125714Y-19687676D02*
X244030476Y-19782914D01*
X244030476Y-19782914D02*
X243935238Y-19830533D01*
X67064761Y-103044819D02*
X66731428Y-102568628D01*
X66493333Y-103044819D02*
X66493333Y-102044819D01*
X66493333Y-102044819D02*
X66874285Y-102044819D01*
X66874285Y-102044819D02*
X66969523Y-102092438D01*
X66969523Y-102092438D02*
X67017142Y-102140057D01*
X67017142Y-102140057D02*
X67064761Y-102235295D01*
X67064761Y-102235295D02*
X67064761Y-102378152D01*
X67064761Y-102378152D02*
X67017142Y-102473390D01*
X67017142Y-102473390D02*
X66969523Y-102521009D01*
X66969523Y-102521009D02*
X66874285Y-102568628D01*
X66874285Y-102568628D02*
X66493333Y-102568628D01*
X67350476Y-102044819D02*
X67683809Y-103044819D01*
X67683809Y-103044819D02*
X68017142Y-102044819D01*
X68493333Y-102473390D02*
X68398095Y-102425771D01*
X68398095Y-102425771D02*
X68350476Y-102378152D01*
X68350476Y-102378152D02*
X68302857Y-102282914D01*
X68302857Y-102282914D02*
X68302857Y-102235295D01*
X68302857Y-102235295D02*
X68350476Y-102140057D01*
X68350476Y-102140057D02*
X68398095Y-102092438D01*
X68398095Y-102092438D02*
X68493333Y-102044819D01*
X68493333Y-102044819D02*
X68683809Y-102044819D01*
X68683809Y-102044819D02*
X68779047Y-102092438D01*
X68779047Y-102092438D02*
X68826666Y-102140057D01*
X68826666Y-102140057D02*
X68874285Y-102235295D01*
X68874285Y-102235295D02*
X68874285Y-102282914D01*
X68874285Y-102282914D02*
X68826666Y-102378152D01*
X68826666Y-102378152D02*
X68779047Y-102425771D01*
X68779047Y-102425771D02*
X68683809Y-102473390D01*
X68683809Y-102473390D02*
X68493333Y-102473390D01*
X68493333Y-102473390D02*
X68398095Y-102521009D01*
X68398095Y-102521009D02*
X68350476Y-102568628D01*
X68350476Y-102568628D02*
X68302857Y-102663866D01*
X68302857Y-102663866D02*
X68302857Y-102854342D01*
X68302857Y-102854342D02*
X68350476Y-102949580D01*
X68350476Y-102949580D02*
X68398095Y-102997200D01*
X68398095Y-102997200D02*
X68493333Y-103044819D01*
X68493333Y-103044819D02*
X68683809Y-103044819D01*
X68683809Y-103044819D02*
X68779047Y-102997200D01*
X68779047Y-102997200D02*
X68826666Y-102949580D01*
X68826666Y-102949580D02*
X68874285Y-102854342D01*
X68874285Y-102854342D02*
X68874285Y-102663866D01*
X68874285Y-102663866D02*
X68826666Y-102568628D01*
X68826666Y-102568628D02*
X68779047Y-102521009D01*
X68779047Y-102521009D02*
X68683809Y-102473390D01*
X197786666Y-144004819D02*
X197786666Y-144719104D01*
X197786666Y-144719104D02*
X197739047Y-144861961D01*
X197739047Y-144861961D02*
X197643809Y-144957200D01*
X197643809Y-144957200D02*
X197500952Y-145004819D01*
X197500952Y-145004819D02*
X197405714Y-145004819D01*
X198739047Y-144004819D02*
X198262857Y-144004819D01*
X198262857Y-144004819D02*
X198215238Y-144481009D01*
X198215238Y-144481009D02*
X198262857Y-144433390D01*
X198262857Y-144433390D02*
X198358095Y-144385771D01*
X198358095Y-144385771D02*
X198596190Y-144385771D01*
X198596190Y-144385771D02*
X198691428Y-144433390D01*
X198691428Y-144433390D02*
X198739047Y-144481009D01*
X198739047Y-144481009D02*
X198786666Y-144576247D01*
X198786666Y-144576247D02*
X198786666Y-144814342D01*
X198786666Y-144814342D02*
X198739047Y-144909580D01*
X198739047Y-144909580D02*
X198691428Y-144957200D01*
X198691428Y-144957200D02*
X198596190Y-145004819D01*
X198596190Y-145004819D02*
X198358095Y-145004819D01*
X198358095Y-145004819D02*
X198262857Y-144957200D01*
X198262857Y-144957200D02*
X198215238Y-144909580D01*
X271018095Y-145814819D02*
X271018095Y-144814819D01*
X271018095Y-145291009D02*
X271589523Y-145291009D01*
X271589523Y-145814819D02*
X271589523Y-144814819D01*
X272494285Y-144814819D02*
X272303809Y-144814819D01*
X272303809Y-144814819D02*
X272208571Y-144862438D01*
X272208571Y-144862438D02*
X272160952Y-144910057D01*
X272160952Y-144910057D02*
X272065714Y-145052914D01*
X272065714Y-145052914D02*
X272018095Y-145243390D01*
X272018095Y-145243390D02*
X272018095Y-145624342D01*
X272018095Y-145624342D02*
X272065714Y-145719580D01*
X272065714Y-145719580D02*
X272113333Y-145767200D01*
X272113333Y-145767200D02*
X272208571Y-145814819D01*
X272208571Y-145814819D02*
X272399047Y-145814819D01*
X272399047Y-145814819D02*
X272494285Y-145767200D01*
X272494285Y-145767200D02*
X272541904Y-145719580D01*
X272541904Y-145719580D02*
X272589523Y-145624342D01*
X272589523Y-145624342D02*
X272589523Y-145386247D01*
X272589523Y-145386247D02*
X272541904Y-145291009D01*
X272541904Y-145291009D02*
X272494285Y-145243390D01*
X272494285Y-145243390D02*
X272399047Y-145195771D01*
X272399047Y-145195771D02*
X272208571Y-145195771D01*
X272208571Y-145195771D02*
X272113333Y-145243390D01*
X272113333Y-145243390D02*
X272065714Y-145291009D01*
X272065714Y-145291009D02*
X272018095Y-145386247D01*
X110918571Y-126784819D02*
X110585238Y-126308628D01*
X110347143Y-126784819D02*
X110347143Y-125784819D01*
X110347143Y-125784819D02*
X110728095Y-125784819D01*
X110728095Y-125784819D02*
X110823333Y-125832438D01*
X110823333Y-125832438D02*
X110870952Y-125880057D01*
X110870952Y-125880057D02*
X110918571Y-125975295D01*
X110918571Y-125975295D02*
X110918571Y-126118152D01*
X110918571Y-126118152D02*
X110870952Y-126213390D01*
X110870952Y-126213390D02*
X110823333Y-126261009D01*
X110823333Y-126261009D02*
X110728095Y-126308628D01*
X110728095Y-126308628D02*
X110347143Y-126308628D01*
X111204286Y-125784819D02*
X111537619Y-126784819D01*
X111537619Y-126784819D02*
X111870952Y-125784819D01*
X112728095Y-126784819D02*
X112156667Y-126784819D01*
X112442381Y-126784819D02*
X112442381Y-125784819D01*
X112442381Y-125784819D02*
X112347143Y-125927676D01*
X112347143Y-125927676D02*
X112251905Y-126022914D01*
X112251905Y-126022914D02*
X112156667Y-126070533D01*
X113680476Y-126784819D02*
X113109048Y-126784819D01*
X113394762Y-126784819D02*
X113394762Y-125784819D01*
X113394762Y-125784819D02*
X113299524Y-125927676D01*
X113299524Y-125927676D02*
X113204286Y-126022914D01*
X113204286Y-126022914D02*
X113109048Y-126070533D01*
X113538095Y-145814819D02*
X113538095Y-144814819D01*
X113538095Y-145291009D02*
X114109523Y-145291009D01*
X114109523Y-145814819D02*
X114109523Y-144814819D01*
X114538095Y-144910057D02*
X114585714Y-144862438D01*
X114585714Y-144862438D02*
X114680952Y-144814819D01*
X114680952Y-144814819D02*
X114919047Y-144814819D01*
X114919047Y-144814819D02*
X115014285Y-144862438D01*
X115014285Y-144862438D02*
X115061904Y-144910057D01*
X115061904Y-144910057D02*
X115109523Y-145005295D01*
X115109523Y-145005295D02*
X115109523Y-145100533D01*
X115109523Y-145100533D02*
X115061904Y-145243390D01*
X115061904Y-145243390D02*
X114490476Y-145814819D01*
X114490476Y-145814819D02*
X115109523Y-145814819D01*
X263826666Y-113974819D02*
X263826666Y-114689104D01*
X263826666Y-114689104D02*
X263779047Y-114831961D01*
X263779047Y-114831961D02*
X263683809Y-114927200D01*
X263683809Y-114927200D02*
X263540952Y-114974819D01*
X263540952Y-114974819D02*
X263445714Y-114974819D01*
X264255238Y-114070057D02*
X264302857Y-114022438D01*
X264302857Y-114022438D02*
X264398095Y-113974819D01*
X264398095Y-113974819D02*
X264636190Y-113974819D01*
X264636190Y-113974819D02*
X264731428Y-114022438D01*
X264731428Y-114022438D02*
X264779047Y-114070057D01*
X264779047Y-114070057D02*
X264826666Y-114165295D01*
X264826666Y-114165295D02*
X264826666Y-114260533D01*
X264826666Y-114260533D02*
X264779047Y-114403390D01*
X264779047Y-114403390D02*
X264207619Y-114974819D01*
X264207619Y-114974819D02*
X264826666Y-114974819D01*
X22098095Y-18814819D02*
X22098095Y-17814819D01*
X22098095Y-18291009D02*
X22669523Y-18291009D01*
X22669523Y-18814819D02*
X22669523Y-17814819D01*
X23574285Y-18148152D02*
X23574285Y-18814819D01*
X23336190Y-17767200D02*
X23098095Y-18481485D01*
X23098095Y-18481485D02*
X23717142Y-18481485D01*
X65674761Y-27724819D02*
X65341428Y-27248628D01*
X65103333Y-27724819D02*
X65103333Y-26724819D01*
X65103333Y-26724819D02*
X65484285Y-26724819D01*
X65484285Y-26724819D02*
X65579523Y-26772438D01*
X65579523Y-26772438D02*
X65627142Y-26820057D01*
X65627142Y-26820057D02*
X65674761Y-26915295D01*
X65674761Y-26915295D02*
X65674761Y-27058152D01*
X65674761Y-27058152D02*
X65627142Y-27153390D01*
X65627142Y-27153390D02*
X65579523Y-27201009D01*
X65579523Y-27201009D02*
X65484285Y-27248628D01*
X65484285Y-27248628D02*
X65103333Y-27248628D01*
X65960476Y-26724819D02*
X66293809Y-27724819D01*
X66293809Y-27724819D02*
X66627142Y-26724819D01*
X67484285Y-27724819D02*
X66912857Y-27724819D01*
X67198571Y-27724819D02*
X67198571Y-26724819D01*
X67198571Y-26724819D02*
X67103333Y-26867676D01*
X67103333Y-26867676D02*
X67008095Y-26962914D01*
X67008095Y-26962914D02*
X66912857Y-27010533D01*
X268478095Y-38284819D02*
X268478095Y-39094342D01*
X268478095Y-39094342D02*
X268525714Y-39189580D01*
X268525714Y-39189580D02*
X268573333Y-39237200D01*
X268573333Y-39237200D02*
X268668571Y-39284819D01*
X268668571Y-39284819D02*
X268859047Y-39284819D01*
X268859047Y-39284819D02*
X268954285Y-39237200D01*
X268954285Y-39237200D02*
X269001904Y-39189580D01*
X269001904Y-39189580D02*
X269049523Y-39094342D01*
X269049523Y-39094342D02*
X269049523Y-38284819D01*
X269478095Y-38380057D02*
X269525714Y-38332438D01*
X269525714Y-38332438D02*
X269620952Y-38284819D01*
X269620952Y-38284819D02*
X269859047Y-38284819D01*
X269859047Y-38284819D02*
X269954285Y-38332438D01*
X269954285Y-38332438D02*
X270001904Y-38380057D01*
X270001904Y-38380057D02*
X270049523Y-38475295D01*
X270049523Y-38475295D02*
X270049523Y-38570533D01*
X270049523Y-38570533D02*
X270001904Y-38713390D01*
X270001904Y-38713390D02*
X269430476Y-39284819D01*
X269430476Y-39284819D02*
X270049523Y-39284819D01*
X273558095Y-18814819D02*
X273558095Y-17814819D01*
X273558095Y-18291009D02*
X274129523Y-18291009D01*
X274129523Y-18814819D02*
X274129523Y-17814819D01*
X275081904Y-17814819D02*
X274605714Y-17814819D01*
X274605714Y-17814819D02*
X274558095Y-18291009D01*
X274558095Y-18291009D02*
X274605714Y-18243390D01*
X274605714Y-18243390D02*
X274700952Y-18195771D01*
X274700952Y-18195771D02*
X274939047Y-18195771D01*
X274939047Y-18195771D02*
X275034285Y-18243390D01*
X275034285Y-18243390D02*
X275081904Y-18291009D01*
X275081904Y-18291009D02*
X275129523Y-18386247D01*
X275129523Y-18386247D02*
X275129523Y-18624342D01*
X275129523Y-18624342D02*
X275081904Y-18719580D01*
X275081904Y-18719580D02*
X275034285Y-18767200D01*
X275034285Y-18767200D02*
X274939047Y-18814819D01*
X274939047Y-18814819D02*
X274700952Y-18814819D01*
X274700952Y-18814819D02*
X274605714Y-18767200D01*
X274605714Y-18767200D02*
X274558095Y-18719580D01*
X232918380Y-82921666D02*
X232966000Y-82969285D01*
X232966000Y-82969285D02*
X233013619Y-83112142D01*
X233013619Y-83112142D02*
X233013619Y-83207380D01*
X233013619Y-83207380D02*
X232966000Y-83350237D01*
X232966000Y-83350237D02*
X232870761Y-83445475D01*
X232870761Y-83445475D02*
X232775523Y-83493094D01*
X232775523Y-83493094D02*
X232585047Y-83540713D01*
X232585047Y-83540713D02*
X232442190Y-83540713D01*
X232442190Y-83540713D02*
X232251714Y-83493094D01*
X232251714Y-83493094D02*
X232156476Y-83445475D01*
X232156476Y-83445475D02*
X232061238Y-83350237D01*
X232061238Y-83350237D02*
X232013619Y-83207380D01*
X232013619Y-83207380D02*
X232013619Y-83112142D01*
X232013619Y-83112142D02*
X232061238Y-82969285D01*
X232061238Y-82969285D02*
X232108857Y-82921666D01*
X232346952Y-82064523D02*
X233013619Y-82064523D01*
X231966000Y-82302618D02*
X232680285Y-82540713D01*
X232680285Y-82540713D02*
X232680285Y-81921666D01*
X214258942Y-71254819D02*
X213925609Y-70778628D01*
X213687514Y-71254819D02*
X213687514Y-70254819D01*
X213687514Y-70254819D02*
X214068466Y-70254819D01*
X214068466Y-70254819D02*
X214163704Y-70302438D01*
X214163704Y-70302438D02*
X214211323Y-70350057D01*
X214211323Y-70350057D02*
X214258942Y-70445295D01*
X214258942Y-70445295D02*
X214258942Y-70588152D01*
X214258942Y-70588152D02*
X214211323Y-70683390D01*
X214211323Y-70683390D02*
X214163704Y-70731009D01*
X214163704Y-70731009D02*
X214068466Y-70778628D01*
X214068466Y-70778628D02*
X213687514Y-70778628D01*
X214639895Y-70350057D02*
X214687514Y-70302438D01*
X214687514Y-70302438D02*
X214782752Y-70254819D01*
X214782752Y-70254819D02*
X215020847Y-70254819D01*
X215020847Y-70254819D02*
X215116085Y-70302438D01*
X215116085Y-70302438D02*
X215163704Y-70350057D01*
X215163704Y-70350057D02*
X215211323Y-70445295D01*
X215211323Y-70445295D02*
X215211323Y-70540533D01*
X215211323Y-70540533D02*
X215163704Y-70683390D01*
X215163704Y-70683390D02*
X214592276Y-71254819D01*
X214592276Y-71254819D02*
X215211323Y-71254819D01*
X216068466Y-70254819D02*
X215877990Y-70254819D01*
X215877990Y-70254819D02*
X215782752Y-70302438D01*
X215782752Y-70302438D02*
X215735133Y-70350057D01*
X215735133Y-70350057D02*
X215639895Y-70492914D01*
X215639895Y-70492914D02*
X215592276Y-70683390D01*
X215592276Y-70683390D02*
X215592276Y-71064342D01*
X215592276Y-71064342D02*
X215639895Y-71159580D01*
X215639895Y-71159580D02*
X215687514Y-71207200D01*
X215687514Y-71207200D02*
X215782752Y-71254819D01*
X215782752Y-71254819D02*
X215973228Y-71254819D01*
X215973228Y-71254819D02*
X216068466Y-71207200D01*
X216068466Y-71207200D02*
X216116085Y-71159580D01*
X216116085Y-71159580D02*
X216163704Y-71064342D01*
X216163704Y-71064342D02*
X216163704Y-70826247D01*
X216163704Y-70826247D02*
X216116085Y-70731009D01*
X216116085Y-70731009D02*
X216068466Y-70683390D01*
X216068466Y-70683390D02*
X215973228Y-70635771D01*
X215973228Y-70635771D02*
X215782752Y-70635771D01*
X215782752Y-70635771D02*
X215687514Y-70683390D01*
X215687514Y-70683390D02*
X215639895Y-70731009D01*
X215639895Y-70731009D02*
X215592276Y-70826247D01*
X214400942Y-108889580D02*
X214353323Y-108937200D01*
X214353323Y-108937200D02*
X214210466Y-108984819D01*
X214210466Y-108984819D02*
X214115228Y-108984819D01*
X214115228Y-108984819D02*
X213972371Y-108937200D01*
X213972371Y-108937200D02*
X213877133Y-108841961D01*
X213877133Y-108841961D02*
X213829514Y-108746723D01*
X213829514Y-108746723D02*
X213781895Y-108556247D01*
X213781895Y-108556247D02*
X213781895Y-108413390D01*
X213781895Y-108413390D02*
X213829514Y-108222914D01*
X213829514Y-108222914D02*
X213877133Y-108127676D01*
X213877133Y-108127676D02*
X213972371Y-108032438D01*
X213972371Y-108032438D02*
X214115228Y-107984819D01*
X214115228Y-107984819D02*
X214210466Y-107984819D01*
X214210466Y-107984819D02*
X214353323Y-108032438D01*
X214353323Y-108032438D02*
X214400942Y-108080057D01*
X214781895Y-108080057D02*
X214829514Y-108032438D01*
X214829514Y-108032438D02*
X214924752Y-107984819D01*
X214924752Y-107984819D02*
X215162847Y-107984819D01*
X215162847Y-107984819D02*
X215258085Y-108032438D01*
X215258085Y-108032438D02*
X215305704Y-108080057D01*
X215305704Y-108080057D02*
X215353323Y-108175295D01*
X215353323Y-108175295D02*
X215353323Y-108270533D01*
X215353323Y-108270533D02*
X215305704Y-108413390D01*
X215305704Y-108413390D02*
X214734276Y-108984819D01*
X214734276Y-108984819D02*
X215353323Y-108984819D01*
X215972371Y-107984819D02*
X216067609Y-107984819D01*
X216067609Y-107984819D02*
X216162847Y-108032438D01*
X216162847Y-108032438D02*
X216210466Y-108080057D01*
X216210466Y-108080057D02*
X216258085Y-108175295D01*
X216258085Y-108175295D02*
X216305704Y-108365771D01*
X216305704Y-108365771D02*
X216305704Y-108603866D01*
X216305704Y-108603866D02*
X216258085Y-108794342D01*
X216258085Y-108794342D02*
X216210466Y-108889580D01*
X216210466Y-108889580D02*
X216162847Y-108937200D01*
X216162847Y-108937200D02*
X216067609Y-108984819D01*
X216067609Y-108984819D02*
X215972371Y-108984819D01*
X215972371Y-108984819D02*
X215877133Y-108937200D01*
X215877133Y-108937200D02*
X215829514Y-108889580D01*
X215829514Y-108889580D02*
X215781895Y-108794342D01*
X215781895Y-108794342D02*
X215734276Y-108603866D01*
X215734276Y-108603866D02*
X215734276Y-108365771D01*
X215734276Y-108365771D02*
X215781895Y-108175295D01*
X215781895Y-108175295D02*
X215829514Y-108080057D01*
X215829514Y-108080057D02*
X215877133Y-108032438D01*
X215877133Y-108032438D02*
X215972371Y-107984819D01*
X235272133Y-41689580D02*
X235224514Y-41737200D01*
X235224514Y-41737200D02*
X235081657Y-41784819D01*
X235081657Y-41784819D02*
X234986419Y-41784819D01*
X234986419Y-41784819D02*
X234843562Y-41737200D01*
X234843562Y-41737200D02*
X234748324Y-41641961D01*
X234748324Y-41641961D02*
X234700705Y-41546723D01*
X234700705Y-41546723D02*
X234653086Y-41356247D01*
X234653086Y-41356247D02*
X234653086Y-41213390D01*
X234653086Y-41213390D02*
X234700705Y-41022914D01*
X234700705Y-41022914D02*
X234748324Y-40927676D01*
X234748324Y-40927676D02*
X234843562Y-40832438D01*
X234843562Y-40832438D02*
X234986419Y-40784819D01*
X234986419Y-40784819D02*
X235081657Y-40784819D01*
X235081657Y-40784819D02*
X235224514Y-40832438D01*
X235224514Y-40832438D02*
X235272133Y-40880057D01*
X235748324Y-41784819D02*
X235938800Y-41784819D01*
X235938800Y-41784819D02*
X236034038Y-41737200D01*
X236034038Y-41737200D02*
X236081657Y-41689580D01*
X236081657Y-41689580D02*
X236176895Y-41546723D01*
X236176895Y-41546723D02*
X236224514Y-41356247D01*
X236224514Y-41356247D02*
X236224514Y-40975295D01*
X236224514Y-40975295D02*
X236176895Y-40880057D01*
X236176895Y-40880057D02*
X236129276Y-40832438D01*
X236129276Y-40832438D02*
X236034038Y-40784819D01*
X236034038Y-40784819D02*
X235843562Y-40784819D01*
X235843562Y-40784819D02*
X235748324Y-40832438D01*
X235748324Y-40832438D02*
X235700705Y-40880057D01*
X235700705Y-40880057D02*
X235653086Y-40975295D01*
X235653086Y-40975295D02*
X235653086Y-41213390D01*
X235653086Y-41213390D02*
X235700705Y-41308628D01*
X235700705Y-41308628D02*
X235748324Y-41356247D01*
X235748324Y-41356247D02*
X235843562Y-41403866D01*
X235843562Y-41403866D02*
X236034038Y-41403866D01*
X236034038Y-41403866D02*
X236129276Y-41356247D01*
X236129276Y-41356247D02*
X236176895Y-41308628D01*
X236176895Y-41308628D02*
X236224514Y-41213390D01*
X234460942Y-58549580D02*
X234413323Y-58597200D01*
X234413323Y-58597200D02*
X234270466Y-58644819D01*
X234270466Y-58644819D02*
X234175228Y-58644819D01*
X234175228Y-58644819D02*
X234032371Y-58597200D01*
X234032371Y-58597200D02*
X233937133Y-58501961D01*
X233937133Y-58501961D02*
X233889514Y-58406723D01*
X233889514Y-58406723D02*
X233841895Y-58216247D01*
X233841895Y-58216247D02*
X233841895Y-58073390D01*
X233841895Y-58073390D02*
X233889514Y-57882914D01*
X233889514Y-57882914D02*
X233937133Y-57787676D01*
X233937133Y-57787676D02*
X234032371Y-57692438D01*
X234032371Y-57692438D02*
X234175228Y-57644819D01*
X234175228Y-57644819D02*
X234270466Y-57644819D01*
X234270466Y-57644819D02*
X234413323Y-57692438D01*
X234413323Y-57692438D02*
X234460942Y-57740057D01*
X234841895Y-57740057D02*
X234889514Y-57692438D01*
X234889514Y-57692438D02*
X234984752Y-57644819D01*
X234984752Y-57644819D02*
X235222847Y-57644819D01*
X235222847Y-57644819D02*
X235318085Y-57692438D01*
X235318085Y-57692438D02*
X235365704Y-57740057D01*
X235365704Y-57740057D02*
X235413323Y-57835295D01*
X235413323Y-57835295D02*
X235413323Y-57930533D01*
X235413323Y-57930533D02*
X235365704Y-58073390D01*
X235365704Y-58073390D02*
X234794276Y-58644819D01*
X234794276Y-58644819D02*
X235413323Y-58644819D01*
X236318085Y-57644819D02*
X235841895Y-57644819D01*
X235841895Y-57644819D02*
X235794276Y-58121009D01*
X235794276Y-58121009D02*
X235841895Y-58073390D01*
X235841895Y-58073390D02*
X235937133Y-58025771D01*
X235937133Y-58025771D02*
X236175228Y-58025771D01*
X236175228Y-58025771D02*
X236270466Y-58073390D01*
X236270466Y-58073390D02*
X236318085Y-58121009D01*
X236318085Y-58121009D02*
X236365704Y-58216247D01*
X236365704Y-58216247D02*
X236365704Y-58454342D01*
X236365704Y-58454342D02*
X236318085Y-58549580D01*
X236318085Y-58549580D02*
X236270466Y-58597200D01*
X236270466Y-58597200D02*
X236175228Y-58644819D01*
X236175228Y-58644819D02*
X235937133Y-58644819D01*
X235937133Y-58644819D02*
X235841895Y-58597200D01*
X235841895Y-58597200D02*
X235794276Y-58549580D01*
X240568842Y-55264819D02*
X240235509Y-54788628D01*
X239997414Y-55264819D02*
X239997414Y-54264819D01*
X239997414Y-54264819D02*
X240378366Y-54264819D01*
X240378366Y-54264819D02*
X240473604Y-54312438D01*
X240473604Y-54312438D02*
X240521223Y-54360057D01*
X240521223Y-54360057D02*
X240568842Y-54455295D01*
X240568842Y-54455295D02*
X240568842Y-54598152D01*
X240568842Y-54598152D02*
X240521223Y-54693390D01*
X240521223Y-54693390D02*
X240473604Y-54741009D01*
X240473604Y-54741009D02*
X240378366Y-54788628D01*
X240378366Y-54788628D02*
X239997414Y-54788628D01*
X241521223Y-55264819D02*
X240949795Y-55264819D01*
X241235509Y-55264819D02*
X241235509Y-54264819D01*
X241235509Y-54264819D02*
X241140271Y-54407676D01*
X241140271Y-54407676D02*
X241045033Y-54502914D01*
X241045033Y-54502914D02*
X240949795Y-54550533D01*
X241854557Y-54264819D02*
X242521223Y-54264819D01*
X242521223Y-54264819D02*
X242092652Y-55264819D01*
X254024819Y-85064166D02*
X253548628Y-85397499D01*
X254024819Y-85635594D02*
X253024819Y-85635594D01*
X253024819Y-85635594D02*
X253024819Y-85254642D01*
X253024819Y-85254642D02*
X253072438Y-85159404D01*
X253072438Y-85159404D02*
X253120057Y-85111785D01*
X253120057Y-85111785D02*
X253215295Y-85064166D01*
X253215295Y-85064166D02*
X253358152Y-85064166D01*
X253358152Y-85064166D02*
X253453390Y-85111785D01*
X253453390Y-85111785D02*
X253501009Y-85159404D01*
X253501009Y-85159404D02*
X253548628Y-85254642D01*
X253548628Y-85254642D02*
X253548628Y-85635594D01*
X253024819Y-84159404D02*
X253024819Y-84635594D01*
X253024819Y-84635594D02*
X253501009Y-84683213D01*
X253501009Y-84683213D02*
X253453390Y-84635594D01*
X253453390Y-84635594D02*
X253405771Y-84540356D01*
X253405771Y-84540356D02*
X253405771Y-84302261D01*
X253405771Y-84302261D02*
X253453390Y-84207023D01*
X253453390Y-84207023D02*
X253501009Y-84159404D01*
X253501009Y-84159404D02*
X253596247Y-84111785D01*
X253596247Y-84111785D02*
X253834342Y-84111785D01*
X253834342Y-84111785D02*
X253929580Y-84159404D01*
X253929580Y-84159404D02*
X253977200Y-84207023D01*
X253977200Y-84207023D02*
X254024819Y-84302261D01*
X254024819Y-84302261D02*
X254024819Y-84540356D01*
X254024819Y-84540356D02*
X253977200Y-84635594D01*
X253977200Y-84635594D02*
X253929580Y-84683213D01*
X207408380Y-82921666D02*
X207456000Y-82969285D01*
X207456000Y-82969285D02*
X207503619Y-83112142D01*
X207503619Y-83112142D02*
X207503619Y-83207380D01*
X207503619Y-83207380D02*
X207456000Y-83350237D01*
X207456000Y-83350237D02*
X207360761Y-83445475D01*
X207360761Y-83445475D02*
X207265523Y-83493094D01*
X207265523Y-83493094D02*
X207075047Y-83540713D01*
X207075047Y-83540713D02*
X206932190Y-83540713D01*
X206932190Y-83540713D02*
X206741714Y-83493094D01*
X206741714Y-83493094D02*
X206646476Y-83445475D01*
X206646476Y-83445475D02*
X206551238Y-83350237D01*
X206551238Y-83350237D02*
X206503619Y-83207380D01*
X206503619Y-83207380D02*
X206503619Y-83112142D01*
X206503619Y-83112142D02*
X206551238Y-82969285D01*
X206551238Y-82969285D02*
X206598857Y-82921666D01*
X206503619Y-82064523D02*
X206503619Y-82254999D01*
X206503619Y-82254999D02*
X206551238Y-82350237D01*
X206551238Y-82350237D02*
X206598857Y-82397856D01*
X206598857Y-82397856D02*
X206741714Y-82493094D01*
X206741714Y-82493094D02*
X206932190Y-82540713D01*
X206932190Y-82540713D02*
X207313142Y-82540713D01*
X207313142Y-82540713D02*
X207408380Y-82493094D01*
X207408380Y-82493094D02*
X207456000Y-82445475D01*
X207456000Y-82445475D02*
X207503619Y-82350237D01*
X207503619Y-82350237D02*
X207503619Y-82159761D01*
X207503619Y-82159761D02*
X207456000Y-82064523D01*
X207456000Y-82064523D02*
X207408380Y-82016904D01*
X207408380Y-82016904D02*
X207313142Y-81969285D01*
X207313142Y-81969285D02*
X207075047Y-81969285D01*
X207075047Y-81969285D02*
X206979809Y-82016904D01*
X206979809Y-82016904D02*
X206932190Y-82064523D01*
X206932190Y-82064523D02*
X206884571Y-82159761D01*
X206884571Y-82159761D02*
X206884571Y-82350237D01*
X206884571Y-82350237D02*
X206932190Y-82445475D01*
X206932190Y-82445475D02*
X206979809Y-82493094D01*
X206979809Y-82493094D02*
X207075047Y-82540713D01*
X196472142Y-134034819D02*
X196138809Y-133558628D01*
X195900714Y-134034819D02*
X195900714Y-133034819D01*
X195900714Y-133034819D02*
X196281666Y-133034819D01*
X196281666Y-133034819D02*
X196376904Y-133082438D01*
X196376904Y-133082438D02*
X196424523Y-133130057D01*
X196424523Y-133130057D02*
X196472142Y-133225295D01*
X196472142Y-133225295D02*
X196472142Y-133368152D01*
X196472142Y-133368152D02*
X196424523Y-133463390D01*
X196424523Y-133463390D02*
X196376904Y-133511009D01*
X196376904Y-133511009D02*
X196281666Y-133558628D01*
X196281666Y-133558628D02*
X195900714Y-133558628D01*
X196853095Y-133130057D02*
X196900714Y-133082438D01*
X196900714Y-133082438D02*
X196995952Y-133034819D01*
X196995952Y-133034819D02*
X197234047Y-133034819D01*
X197234047Y-133034819D02*
X197329285Y-133082438D01*
X197329285Y-133082438D02*
X197376904Y-133130057D01*
X197376904Y-133130057D02*
X197424523Y-133225295D01*
X197424523Y-133225295D02*
X197424523Y-133320533D01*
X197424523Y-133320533D02*
X197376904Y-133463390D01*
X197376904Y-133463390D02*
X196805476Y-134034819D01*
X196805476Y-134034819D02*
X197424523Y-134034819D01*
X197805476Y-133130057D02*
X197853095Y-133082438D01*
X197853095Y-133082438D02*
X197948333Y-133034819D01*
X197948333Y-133034819D02*
X198186428Y-133034819D01*
X198186428Y-133034819D02*
X198281666Y-133082438D01*
X198281666Y-133082438D02*
X198329285Y-133130057D01*
X198329285Y-133130057D02*
X198376904Y-133225295D01*
X198376904Y-133225295D02*
X198376904Y-133320533D01*
X198376904Y-133320533D02*
X198329285Y-133463390D01*
X198329285Y-133463390D02*
X197757857Y-134034819D01*
X197757857Y-134034819D02*
X198376904Y-134034819D01*
X229622133Y-41689580D02*
X229574514Y-41737200D01*
X229574514Y-41737200D02*
X229431657Y-41784819D01*
X229431657Y-41784819D02*
X229336419Y-41784819D01*
X229336419Y-41784819D02*
X229193562Y-41737200D01*
X229193562Y-41737200D02*
X229098324Y-41641961D01*
X229098324Y-41641961D02*
X229050705Y-41546723D01*
X229050705Y-41546723D02*
X229003086Y-41356247D01*
X229003086Y-41356247D02*
X229003086Y-41213390D01*
X229003086Y-41213390D02*
X229050705Y-41022914D01*
X229050705Y-41022914D02*
X229098324Y-40927676D01*
X229098324Y-40927676D02*
X229193562Y-40832438D01*
X229193562Y-40832438D02*
X229336419Y-40784819D01*
X229336419Y-40784819D02*
X229431657Y-40784819D01*
X229431657Y-40784819D02*
X229574514Y-40832438D01*
X229574514Y-40832438D02*
X229622133Y-40880057D01*
X230003086Y-40880057D02*
X230050705Y-40832438D01*
X230050705Y-40832438D02*
X230145943Y-40784819D01*
X230145943Y-40784819D02*
X230384038Y-40784819D01*
X230384038Y-40784819D02*
X230479276Y-40832438D01*
X230479276Y-40832438D02*
X230526895Y-40880057D01*
X230526895Y-40880057D02*
X230574514Y-40975295D01*
X230574514Y-40975295D02*
X230574514Y-41070533D01*
X230574514Y-41070533D02*
X230526895Y-41213390D01*
X230526895Y-41213390D02*
X229955467Y-41784819D01*
X229955467Y-41784819D02*
X230574514Y-41784819D01*
X257314819Y-85064166D02*
X256838628Y-85397499D01*
X257314819Y-85635594D02*
X256314819Y-85635594D01*
X256314819Y-85635594D02*
X256314819Y-85254642D01*
X256314819Y-85254642D02*
X256362438Y-85159404D01*
X256362438Y-85159404D02*
X256410057Y-85111785D01*
X256410057Y-85111785D02*
X256505295Y-85064166D01*
X256505295Y-85064166D02*
X256648152Y-85064166D01*
X256648152Y-85064166D02*
X256743390Y-85111785D01*
X256743390Y-85111785D02*
X256791009Y-85159404D01*
X256791009Y-85159404D02*
X256838628Y-85254642D01*
X256838628Y-85254642D02*
X256838628Y-85635594D01*
X256648152Y-84207023D02*
X257314819Y-84207023D01*
X256267200Y-84445118D02*
X256981485Y-84683213D01*
X256981485Y-84683213D02*
X256981485Y-84064166D01*
X185312142Y-130589580D02*
X185264523Y-130637200D01*
X185264523Y-130637200D02*
X185121666Y-130684819D01*
X185121666Y-130684819D02*
X185026428Y-130684819D01*
X185026428Y-130684819D02*
X184883571Y-130637200D01*
X184883571Y-130637200D02*
X184788333Y-130541961D01*
X184788333Y-130541961D02*
X184740714Y-130446723D01*
X184740714Y-130446723D02*
X184693095Y-130256247D01*
X184693095Y-130256247D02*
X184693095Y-130113390D01*
X184693095Y-130113390D02*
X184740714Y-129922914D01*
X184740714Y-129922914D02*
X184788333Y-129827676D01*
X184788333Y-129827676D02*
X184883571Y-129732438D01*
X184883571Y-129732438D02*
X185026428Y-129684819D01*
X185026428Y-129684819D02*
X185121666Y-129684819D01*
X185121666Y-129684819D02*
X185264523Y-129732438D01*
X185264523Y-129732438D02*
X185312142Y-129780057D01*
X186264523Y-130684819D02*
X185693095Y-130684819D01*
X185978809Y-130684819D02*
X185978809Y-129684819D01*
X185978809Y-129684819D02*
X185883571Y-129827676D01*
X185883571Y-129827676D02*
X185788333Y-129922914D01*
X185788333Y-129922914D02*
X185693095Y-129970533D01*
X187121666Y-130018152D02*
X187121666Y-130684819D01*
X186883571Y-129637200D02*
X186645476Y-130351485D01*
X186645476Y-130351485D02*
X187264523Y-130351485D01*
X229622133Y-38339580D02*
X229574514Y-38387200D01*
X229574514Y-38387200D02*
X229431657Y-38434819D01*
X229431657Y-38434819D02*
X229336419Y-38434819D01*
X229336419Y-38434819D02*
X229193562Y-38387200D01*
X229193562Y-38387200D02*
X229098324Y-38291961D01*
X229098324Y-38291961D02*
X229050705Y-38196723D01*
X229050705Y-38196723D02*
X229003086Y-38006247D01*
X229003086Y-38006247D02*
X229003086Y-37863390D01*
X229003086Y-37863390D02*
X229050705Y-37672914D01*
X229050705Y-37672914D02*
X229098324Y-37577676D01*
X229098324Y-37577676D02*
X229193562Y-37482438D01*
X229193562Y-37482438D02*
X229336419Y-37434819D01*
X229336419Y-37434819D02*
X229431657Y-37434819D01*
X229431657Y-37434819D02*
X229574514Y-37482438D01*
X229574514Y-37482438D02*
X229622133Y-37530057D01*
X230574514Y-38434819D02*
X230003086Y-38434819D01*
X230288800Y-38434819D02*
X230288800Y-37434819D01*
X230288800Y-37434819D02*
X230193562Y-37577676D01*
X230193562Y-37577676D02*
X230098324Y-37672914D01*
X230098324Y-37672914D02*
X230003086Y-37720533D01*
X221254733Y-138334819D02*
X220921400Y-137858628D01*
X220683305Y-138334819D02*
X220683305Y-137334819D01*
X220683305Y-137334819D02*
X221064257Y-137334819D01*
X221064257Y-137334819D02*
X221159495Y-137382438D01*
X221159495Y-137382438D02*
X221207114Y-137430057D01*
X221207114Y-137430057D02*
X221254733Y-137525295D01*
X221254733Y-137525295D02*
X221254733Y-137668152D01*
X221254733Y-137668152D02*
X221207114Y-137763390D01*
X221207114Y-137763390D02*
X221159495Y-137811009D01*
X221159495Y-137811009D02*
X221064257Y-137858628D01*
X221064257Y-137858628D02*
X220683305Y-137858628D01*
X221588067Y-137334819D02*
X222254733Y-137334819D01*
X222254733Y-137334819D02*
X221826162Y-138334819D01*
X209704633Y-102774819D02*
X209371300Y-102298628D01*
X209133205Y-102774819D02*
X209133205Y-101774819D01*
X209133205Y-101774819D02*
X209514157Y-101774819D01*
X209514157Y-101774819D02*
X209609395Y-101822438D01*
X209609395Y-101822438D02*
X209657014Y-101870057D01*
X209657014Y-101870057D02*
X209704633Y-101965295D01*
X209704633Y-101965295D02*
X209704633Y-102108152D01*
X209704633Y-102108152D02*
X209657014Y-102203390D01*
X209657014Y-102203390D02*
X209609395Y-102251009D01*
X209609395Y-102251009D02*
X209514157Y-102298628D01*
X209514157Y-102298628D02*
X209133205Y-102298628D01*
X210657014Y-102774819D02*
X210085586Y-102774819D01*
X210371300Y-102774819D02*
X210371300Y-101774819D01*
X210371300Y-101774819D02*
X210276062Y-101917676D01*
X210276062Y-101917676D02*
X210180824Y-102012914D01*
X210180824Y-102012914D02*
X210085586Y-102060533D01*
X240568842Y-58554819D02*
X240235509Y-58078628D01*
X239997414Y-58554819D02*
X239997414Y-57554819D01*
X239997414Y-57554819D02*
X240378366Y-57554819D01*
X240378366Y-57554819D02*
X240473604Y-57602438D01*
X240473604Y-57602438D02*
X240521223Y-57650057D01*
X240521223Y-57650057D02*
X240568842Y-57745295D01*
X240568842Y-57745295D02*
X240568842Y-57888152D01*
X240568842Y-57888152D02*
X240521223Y-57983390D01*
X240521223Y-57983390D02*
X240473604Y-58031009D01*
X240473604Y-58031009D02*
X240378366Y-58078628D01*
X240378366Y-58078628D02*
X239997414Y-58078628D01*
X241521223Y-58554819D02*
X240949795Y-58554819D01*
X241235509Y-58554819D02*
X241235509Y-57554819D01*
X241235509Y-57554819D02*
X241140271Y-57697676D01*
X241140271Y-57697676D02*
X241045033Y-57792914D01*
X241045033Y-57792914D02*
X240949795Y-57840533D01*
X242092652Y-57983390D02*
X241997414Y-57935771D01*
X241997414Y-57935771D02*
X241949795Y-57888152D01*
X241949795Y-57888152D02*
X241902176Y-57792914D01*
X241902176Y-57792914D02*
X241902176Y-57745295D01*
X241902176Y-57745295D02*
X241949795Y-57650057D01*
X241949795Y-57650057D02*
X241997414Y-57602438D01*
X241997414Y-57602438D02*
X242092652Y-57554819D01*
X242092652Y-57554819D02*
X242283128Y-57554819D01*
X242283128Y-57554819D02*
X242378366Y-57602438D01*
X242378366Y-57602438D02*
X242425985Y-57650057D01*
X242425985Y-57650057D02*
X242473604Y-57745295D01*
X242473604Y-57745295D02*
X242473604Y-57792914D01*
X242473604Y-57792914D02*
X242425985Y-57888152D01*
X242425985Y-57888152D02*
X242378366Y-57935771D01*
X242378366Y-57935771D02*
X242283128Y-57983390D01*
X242283128Y-57983390D02*
X242092652Y-57983390D01*
X242092652Y-57983390D02*
X241997414Y-58031009D01*
X241997414Y-58031009D02*
X241949795Y-58078628D01*
X241949795Y-58078628D02*
X241902176Y-58173866D01*
X241902176Y-58173866D02*
X241902176Y-58364342D01*
X241902176Y-58364342D02*
X241949795Y-58459580D01*
X241949795Y-58459580D02*
X241997414Y-58507200D01*
X241997414Y-58507200D02*
X242092652Y-58554819D01*
X242092652Y-58554819D02*
X242283128Y-58554819D01*
X242283128Y-58554819D02*
X242378366Y-58507200D01*
X242378366Y-58507200D02*
X242425985Y-58459580D01*
X242425985Y-58459580D02*
X242473604Y-58364342D01*
X242473604Y-58364342D02*
X242473604Y-58173866D01*
X242473604Y-58173866D02*
X242425985Y-58078628D01*
X242425985Y-58078628D02*
X242378366Y-58031009D01*
X242378366Y-58031009D02*
X242283128Y-57983390D01*
X214400942Y-112239580D02*
X214353323Y-112287200D01*
X214353323Y-112287200D02*
X214210466Y-112334819D01*
X214210466Y-112334819D02*
X214115228Y-112334819D01*
X214115228Y-112334819D02*
X213972371Y-112287200D01*
X213972371Y-112287200D02*
X213877133Y-112191961D01*
X213877133Y-112191961D02*
X213829514Y-112096723D01*
X213829514Y-112096723D02*
X213781895Y-111906247D01*
X213781895Y-111906247D02*
X213781895Y-111763390D01*
X213781895Y-111763390D02*
X213829514Y-111572914D01*
X213829514Y-111572914D02*
X213877133Y-111477676D01*
X213877133Y-111477676D02*
X213972371Y-111382438D01*
X213972371Y-111382438D02*
X214115228Y-111334819D01*
X214115228Y-111334819D02*
X214210466Y-111334819D01*
X214210466Y-111334819D02*
X214353323Y-111382438D01*
X214353323Y-111382438D02*
X214400942Y-111430057D01*
X215353323Y-112334819D02*
X214781895Y-112334819D01*
X215067609Y-112334819D02*
X215067609Y-111334819D01*
X215067609Y-111334819D02*
X214972371Y-111477676D01*
X214972371Y-111477676D02*
X214877133Y-111572914D01*
X214877133Y-111572914D02*
X214781895Y-111620533D01*
X215829514Y-112334819D02*
X216019990Y-112334819D01*
X216019990Y-112334819D02*
X216115228Y-112287200D01*
X216115228Y-112287200D02*
X216162847Y-112239580D01*
X216162847Y-112239580D02*
X216258085Y-112096723D01*
X216258085Y-112096723D02*
X216305704Y-111906247D01*
X216305704Y-111906247D02*
X216305704Y-111525295D01*
X216305704Y-111525295D02*
X216258085Y-111430057D01*
X216258085Y-111430057D02*
X216210466Y-111382438D01*
X216210466Y-111382438D02*
X216115228Y-111334819D01*
X216115228Y-111334819D02*
X215924752Y-111334819D01*
X215924752Y-111334819D02*
X215829514Y-111382438D01*
X215829514Y-111382438D02*
X215781895Y-111430057D01*
X215781895Y-111430057D02*
X215734276Y-111525295D01*
X215734276Y-111525295D02*
X215734276Y-111763390D01*
X215734276Y-111763390D02*
X215781895Y-111858628D01*
X215781895Y-111858628D02*
X215829514Y-111906247D01*
X215829514Y-111906247D02*
X215924752Y-111953866D01*
X215924752Y-111953866D02*
X216115228Y-111953866D01*
X216115228Y-111953866D02*
X216210466Y-111906247D01*
X216210466Y-111906247D02*
X216258085Y-111858628D01*
X216258085Y-111858628D02*
X216305704Y-111763390D01*
X226388542Y-135044819D02*
X226055209Y-134568628D01*
X225817114Y-135044819D02*
X225817114Y-134044819D01*
X225817114Y-134044819D02*
X226198066Y-134044819D01*
X226198066Y-134044819D02*
X226293304Y-134092438D01*
X226293304Y-134092438D02*
X226340923Y-134140057D01*
X226340923Y-134140057D02*
X226388542Y-134235295D01*
X226388542Y-134235295D02*
X226388542Y-134378152D01*
X226388542Y-134378152D02*
X226340923Y-134473390D01*
X226340923Y-134473390D02*
X226293304Y-134521009D01*
X226293304Y-134521009D02*
X226198066Y-134568628D01*
X226198066Y-134568628D02*
X225817114Y-134568628D01*
X227340923Y-135044819D02*
X226769495Y-135044819D01*
X227055209Y-135044819D02*
X227055209Y-134044819D01*
X227055209Y-134044819D02*
X226959971Y-134187676D01*
X226959971Y-134187676D02*
X226864733Y-134282914D01*
X226864733Y-134282914D02*
X226769495Y-134330533D01*
X227674257Y-134044819D02*
X228293304Y-134044819D01*
X228293304Y-134044819D02*
X227959971Y-134425771D01*
X227959971Y-134425771D02*
X228102828Y-134425771D01*
X228102828Y-134425771D02*
X228198066Y-134473390D01*
X228198066Y-134473390D02*
X228245685Y-134521009D01*
X228245685Y-134521009D02*
X228293304Y-134616247D01*
X228293304Y-134616247D02*
X228293304Y-134854342D01*
X228293304Y-134854342D02*
X228245685Y-134949580D01*
X228245685Y-134949580D02*
X228198066Y-134997200D01*
X228198066Y-134997200D02*
X228102828Y-135044819D01*
X228102828Y-135044819D02*
X227817114Y-135044819D01*
X227817114Y-135044819D02*
X227721876Y-134997200D01*
X227721876Y-134997200D02*
X227674257Y-134949580D01*
X185728333Y-134034819D02*
X185395000Y-133558628D01*
X185156905Y-134034819D02*
X185156905Y-133034819D01*
X185156905Y-133034819D02*
X185537857Y-133034819D01*
X185537857Y-133034819D02*
X185633095Y-133082438D01*
X185633095Y-133082438D02*
X185680714Y-133130057D01*
X185680714Y-133130057D02*
X185728333Y-133225295D01*
X185728333Y-133225295D02*
X185728333Y-133368152D01*
X185728333Y-133368152D02*
X185680714Y-133463390D01*
X185680714Y-133463390D02*
X185633095Y-133511009D01*
X185633095Y-133511009D02*
X185537857Y-133558628D01*
X185537857Y-133558628D02*
X185156905Y-133558628D01*
X186299762Y-133463390D02*
X186204524Y-133415771D01*
X186204524Y-133415771D02*
X186156905Y-133368152D01*
X186156905Y-133368152D02*
X186109286Y-133272914D01*
X186109286Y-133272914D02*
X186109286Y-133225295D01*
X186109286Y-133225295D02*
X186156905Y-133130057D01*
X186156905Y-133130057D02*
X186204524Y-133082438D01*
X186204524Y-133082438D02*
X186299762Y-133034819D01*
X186299762Y-133034819D02*
X186490238Y-133034819D01*
X186490238Y-133034819D02*
X186585476Y-133082438D01*
X186585476Y-133082438D02*
X186633095Y-133130057D01*
X186633095Y-133130057D02*
X186680714Y-133225295D01*
X186680714Y-133225295D02*
X186680714Y-133272914D01*
X186680714Y-133272914D02*
X186633095Y-133368152D01*
X186633095Y-133368152D02*
X186585476Y-133415771D01*
X186585476Y-133415771D02*
X186490238Y-133463390D01*
X186490238Y-133463390D02*
X186299762Y-133463390D01*
X186299762Y-133463390D02*
X186204524Y-133511009D01*
X186204524Y-133511009D02*
X186156905Y-133558628D01*
X186156905Y-133558628D02*
X186109286Y-133653866D01*
X186109286Y-133653866D02*
X186109286Y-133844342D01*
X186109286Y-133844342D02*
X186156905Y-133939580D01*
X186156905Y-133939580D02*
X186204524Y-133987200D01*
X186204524Y-133987200D02*
X186299762Y-134034819D01*
X186299762Y-134034819D02*
X186490238Y-134034819D01*
X186490238Y-134034819D02*
X186585476Y-133987200D01*
X186585476Y-133987200D02*
X186633095Y-133939580D01*
X186633095Y-133939580D02*
X186680714Y-133844342D01*
X186680714Y-133844342D02*
X186680714Y-133653866D01*
X186680714Y-133653866D02*
X186633095Y-133558628D01*
X186633095Y-133558628D02*
X186585476Y-133511009D01*
X186585476Y-133511009D02*
X186490238Y-133463390D01*
X209724633Y-99329580D02*
X209677014Y-99377200D01*
X209677014Y-99377200D02*
X209534157Y-99424819D01*
X209534157Y-99424819D02*
X209438919Y-99424819D01*
X209438919Y-99424819D02*
X209296062Y-99377200D01*
X209296062Y-99377200D02*
X209200824Y-99281961D01*
X209200824Y-99281961D02*
X209153205Y-99186723D01*
X209153205Y-99186723D02*
X209105586Y-98996247D01*
X209105586Y-98996247D02*
X209105586Y-98853390D01*
X209105586Y-98853390D02*
X209153205Y-98662914D01*
X209153205Y-98662914D02*
X209200824Y-98567676D01*
X209200824Y-98567676D02*
X209296062Y-98472438D01*
X209296062Y-98472438D02*
X209438919Y-98424819D01*
X209438919Y-98424819D02*
X209534157Y-98424819D01*
X209534157Y-98424819D02*
X209677014Y-98472438D01*
X209677014Y-98472438D02*
X209724633Y-98520057D01*
X210057967Y-98424819D02*
X210724633Y-98424819D01*
X210724633Y-98424819D02*
X210296062Y-99424819D01*
X240003542Y-147744819D02*
X239670209Y-147268628D01*
X239432114Y-147744819D02*
X239432114Y-146744819D01*
X239432114Y-146744819D02*
X239813066Y-146744819D01*
X239813066Y-146744819D02*
X239908304Y-146792438D01*
X239908304Y-146792438D02*
X239955923Y-146840057D01*
X239955923Y-146840057D02*
X240003542Y-146935295D01*
X240003542Y-146935295D02*
X240003542Y-147078152D01*
X240003542Y-147078152D02*
X239955923Y-147173390D01*
X239955923Y-147173390D02*
X239908304Y-147221009D01*
X239908304Y-147221009D02*
X239813066Y-147268628D01*
X239813066Y-147268628D02*
X239432114Y-147268628D01*
X240384495Y-146840057D02*
X240432114Y-146792438D01*
X240432114Y-146792438D02*
X240527352Y-146744819D01*
X240527352Y-146744819D02*
X240765447Y-146744819D01*
X240765447Y-146744819D02*
X240860685Y-146792438D01*
X240860685Y-146792438D02*
X240908304Y-146840057D01*
X240908304Y-146840057D02*
X240955923Y-146935295D01*
X240955923Y-146935295D02*
X240955923Y-147030533D01*
X240955923Y-147030533D02*
X240908304Y-147173390D01*
X240908304Y-147173390D02*
X240336876Y-147744819D01*
X240336876Y-147744819D02*
X240955923Y-147744819D01*
X241289257Y-146744819D02*
X241955923Y-146744819D01*
X241955923Y-146744819D02*
X241527352Y-147744819D01*
X220050942Y-108889580D02*
X220003323Y-108937200D01*
X220003323Y-108937200D02*
X219860466Y-108984819D01*
X219860466Y-108984819D02*
X219765228Y-108984819D01*
X219765228Y-108984819D02*
X219622371Y-108937200D01*
X219622371Y-108937200D02*
X219527133Y-108841961D01*
X219527133Y-108841961D02*
X219479514Y-108746723D01*
X219479514Y-108746723D02*
X219431895Y-108556247D01*
X219431895Y-108556247D02*
X219431895Y-108413390D01*
X219431895Y-108413390D02*
X219479514Y-108222914D01*
X219479514Y-108222914D02*
X219527133Y-108127676D01*
X219527133Y-108127676D02*
X219622371Y-108032438D01*
X219622371Y-108032438D02*
X219765228Y-107984819D01*
X219765228Y-107984819D02*
X219860466Y-107984819D01*
X219860466Y-107984819D02*
X220003323Y-108032438D01*
X220003323Y-108032438D02*
X220050942Y-108080057D01*
X221003323Y-108984819D02*
X220431895Y-108984819D01*
X220717609Y-108984819D02*
X220717609Y-107984819D01*
X220717609Y-107984819D02*
X220622371Y-108127676D01*
X220622371Y-108127676D02*
X220527133Y-108222914D01*
X220527133Y-108222914D02*
X220431895Y-108270533D01*
X221336657Y-107984819D02*
X221955704Y-107984819D01*
X221955704Y-107984819D02*
X221622371Y-108365771D01*
X221622371Y-108365771D02*
X221765228Y-108365771D01*
X221765228Y-108365771D02*
X221860466Y-108413390D01*
X221860466Y-108413390D02*
X221908085Y-108461009D01*
X221908085Y-108461009D02*
X221955704Y-108556247D01*
X221955704Y-108556247D02*
X221955704Y-108794342D01*
X221955704Y-108794342D02*
X221908085Y-108889580D01*
X221908085Y-108889580D02*
X221860466Y-108937200D01*
X221860466Y-108937200D02*
X221765228Y-108984819D01*
X221765228Y-108984819D02*
X221479514Y-108984819D01*
X221479514Y-108984819D02*
X221384276Y-108937200D01*
X221384276Y-108937200D02*
X221336657Y-108889580D01*
X235272133Y-38339580D02*
X235224514Y-38387200D01*
X235224514Y-38387200D02*
X235081657Y-38434819D01*
X235081657Y-38434819D02*
X234986419Y-38434819D01*
X234986419Y-38434819D02*
X234843562Y-38387200D01*
X234843562Y-38387200D02*
X234748324Y-38291961D01*
X234748324Y-38291961D02*
X234700705Y-38196723D01*
X234700705Y-38196723D02*
X234653086Y-38006247D01*
X234653086Y-38006247D02*
X234653086Y-37863390D01*
X234653086Y-37863390D02*
X234700705Y-37672914D01*
X234700705Y-37672914D02*
X234748324Y-37577676D01*
X234748324Y-37577676D02*
X234843562Y-37482438D01*
X234843562Y-37482438D02*
X234986419Y-37434819D01*
X234986419Y-37434819D02*
X235081657Y-37434819D01*
X235081657Y-37434819D02*
X235224514Y-37482438D01*
X235224514Y-37482438D02*
X235272133Y-37530057D01*
X235843562Y-37863390D02*
X235748324Y-37815771D01*
X235748324Y-37815771D02*
X235700705Y-37768152D01*
X235700705Y-37768152D02*
X235653086Y-37672914D01*
X235653086Y-37672914D02*
X235653086Y-37625295D01*
X235653086Y-37625295D02*
X235700705Y-37530057D01*
X235700705Y-37530057D02*
X235748324Y-37482438D01*
X235748324Y-37482438D02*
X235843562Y-37434819D01*
X235843562Y-37434819D02*
X236034038Y-37434819D01*
X236034038Y-37434819D02*
X236129276Y-37482438D01*
X236129276Y-37482438D02*
X236176895Y-37530057D01*
X236176895Y-37530057D02*
X236224514Y-37625295D01*
X236224514Y-37625295D02*
X236224514Y-37672914D01*
X236224514Y-37672914D02*
X236176895Y-37768152D01*
X236176895Y-37768152D02*
X236129276Y-37815771D01*
X236129276Y-37815771D02*
X236034038Y-37863390D01*
X236034038Y-37863390D02*
X235843562Y-37863390D01*
X235843562Y-37863390D02*
X235748324Y-37911009D01*
X235748324Y-37911009D02*
X235700705Y-37958628D01*
X235700705Y-37958628D02*
X235653086Y-38053866D01*
X235653086Y-38053866D02*
X235653086Y-38244342D01*
X235653086Y-38244342D02*
X235700705Y-38339580D01*
X235700705Y-38339580D02*
X235748324Y-38387200D01*
X235748324Y-38387200D02*
X235843562Y-38434819D01*
X235843562Y-38434819D02*
X236034038Y-38434819D01*
X236034038Y-38434819D02*
X236129276Y-38387200D01*
X236129276Y-38387200D02*
X236176895Y-38339580D01*
X236176895Y-38339580D02*
X236224514Y-38244342D01*
X236224514Y-38244342D02*
X236224514Y-38053866D01*
X236224514Y-38053866D02*
X236176895Y-37958628D01*
X236176895Y-37958628D02*
X236129276Y-37911009D01*
X236129276Y-37911009D02*
X236034038Y-37863390D01*
X260314819Y-102242857D02*
X259838628Y-102576190D01*
X260314819Y-102814285D02*
X259314819Y-102814285D01*
X259314819Y-102814285D02*
X259314819Y-102433333D01*
X259314819Y-102433333D02*
X259362438Y-102338095D01*
X259362438Y-102338095D02*
X259410057Y-102290476D01*
X259410057Y-102290476D02*
X259505295Y-102242857D01*
X259505295Y-102242857D02*
X259648152Y-102242857D01*
X259648152Y-102242857D02*
X259743390Y-102290476D01*
X259743390Y-102290476D02*
X259791009Y-102338095D01*
X259791009Y-102338095D02*
X259838628Y-102433333D01*
X259838628Y-102433333D02*
X259838628Y-102814285D01*
X260314819Y-101290476D02*
X260314819Y-101861904D01*
X260314819Y-101576190D02*
X259314819Y-101576190D01*
X259314819Y-101576190D02*
X259457676Y-101671428D01*
X259457676Y-101671428D02*
X259552914Y-101766666D01*
X259552914Y-101766666D02*
X259600533Y-101861904D01*
X259314819Y-100671428D02*
X259314819Y-100576190D01*
X259314819Y-100576190D02*
X259362438Y-100480952D01*
X259362438Y-100480952D02*
X259410057Y-100433333D01*
X259410057Y-100433333D02*
X259505295Y-100385714D01*
X259505295Y-100385714D02*
X259695771Y-100338095D01*
X259695771Y-100338095D02*
X259933866Y-100338095D01*
X259933866Y-100338095D02*
X260124342Y-100385714D01*
X260124342Y-100385714D02*
X260219580Y-100433333D01*
X260219580Y-100433333D02*
X260267200Y-100480952D01*
X260267200Y-100480952D02*
X260314819Y-100576190D01*
X260314819Y-100576190D02*
X260314819Y-100671428D01*
X260314819Y-100671428D02*
X260267200Y-100766666D01*
X260267200Y-100766666D02*
X260219580Y-100814285D01*
X260219580Y-100814285D02*
X260124342Y-100861904D01*
X260124342Y-100861904D02*
X259933866Y-100909523D01*
X259933866Y-100909523D02*
X259695771Y-100909523D01*
X259695771Y-100909523D02*
X259505295Y-100861904D01*
X259505295Y-100861904D02*
X259410057Y-100814285D01*
X259410057Y-100814285D02*
X259362438Y-100766666D01*
X259362438Y-100766666D02*
X259314819Y-100671428D01*
X234460942Y-28989580D02*
X234413323Y-29037200D01*
X234413323Y-29037200D02*
X234270466Y-29084819D01*
X234270466Y-29084819D02*
X234175228Y-29084819D01*
X234175228Y-29084819D02*
X234032371Y-29037200D01*
X234032371Y-29037200D02*
X233937133Y-28941961D01*
X233937133Y-28941961D02*
X233889514Y-28846723D01*
X233889514Y-28846723D02*
X233841895Y-28656247D01*
X233841895Y-28656247D02*
X233841895Y-28513390D01*
X233841895Y-28513390D02*
X233889514Y-28322914D01*
X233889514Y-28322914D02*
X233937133Y-28227676D01*
X233937133Y-28227676D02*
X234032371Y-28132438D01*
X234032371Y-28132438D02*
X234175228Y-28084819D01*
X234175228Y-28084819D02*
X234270466Y-28084819D01*
X234270466Y-28084819D02*
X234413323Y-28132438D01*
X234413323Y-28132438D02*
X234460942Y-28180057D01*
X234841895Y-28180057D02*
X234889514Y-28132438D01*
X234889514Y-28132438D02*
X234984752Y-28084819D01*
X234984752Y-28084819D02*
X235222847Y-28084819D01*
X235222847Y-28084819D02*
X235318085Y-28132438D01*
X235318085Y-28132438D02*
X235365704Y-28180057D01*
X235365704Y-28180057D02*
X235413323Y-28275295D01*
X235413323Y-28275295D02*
X235413323Y-28370533D01*
X235413323Y-28370533D02*
X235365704Y-28513390D01*
X235365704Y-28513390D02*
X234794276Y-29084819D01*
X234794276Y-29084819D02*
X235413323Y-29084819D01*
X235746657Y-28084819D02*
X236365704Y-28084819D01*
X236365704Y-28084819D02*
X236032371Y-28465771D01*
X236032371Y-28465771D02*
X236175228Y-28465771D01*
X236175228Y-28465771D02*
X236270466Y-28513390D01*
X236270466Y-28513390D02*
X236318085Y-28561009D01*
X236318085Y-28561009D02*
X236365704Y-28656247D01*
X236365704Y-28656247D02*
X236365704Y-28894342D01*
X236365704Y-28894342D02*
X236318085Y-28989580D01*
X236318085Y-28989580D02*
X236270466Y-29037200D01*
X236270466Y-29037200D02*
X236175228Y-29084819D01*
X236175228Y-29084819D02*
X235889514Y-29084819D01*
X235889514Y-29084819D02*
X235794276Y-29037200D01*
X235794276Y-29037200D02*
X235746657Y-28989580D01*
X221254733Y-135044819D02*
X220921400Y-134568628D01*
X220683305Y-135044819D02*
X220683305Y-134044819D01*
X220683305Y-134044819D02*
X221064257Y-134044819D01*
X221064257Y-134044819D02*
X221159495Y-134092438D01*
X221159495Y-134092438D02*
X221207114Y-134140057D01*
X221207114Y-134140057D02*
X221254733Y-134235295D01*
X221254733Y-134235295D02*
X221254733Y-134378152D01*
X221254733Y-134378152D02*
X221207114Y-134473390D01*
X221207114Y-134473390D02*
X221159495Y-134521009D01*
X221159495Y-134521009D02*
X221064257Y-134568628D01*
X221064257Y-134568628D02*
X220683305Y-134568628D01*
X222111876Y-134044819D02*
X221921400Y-134044819D01*
X221921400Y-134044819D02*
X221826162Y-134092438D01*
X221826162Y-134092438D02*
X221778543Y-134140057D01*
X221778543Y-134140057D02*
X221683305Y-134282914D01*
X221683305Y-134282914D02*
X221635686Y-134473390D01*
X221635686Y-134473390D02*
X221635686Y-134854342D01*
X221635686Y-134854342D02*
X221683305Y-134949580D01*
X221683305Y-134949580D02*
X221730924Y-134997200D01*
X221730924Y-134997200D02*
X221826162Y-135044819D01*
X221826162Y-135044819D02*
X222016638Y-135044819D01*
X222016638Y-135044819D02*
X222111876Y-134997200D01*
X222111876Y-134997200D02*
X222159495Y-134949580D01*
X222159495Y-134949580D02*
X222207114Y-134854342D01*
X222207114Y-134854342D02*
X222207114Y-134616247D01*
X222207114Y-134616247D02*
X222159495Y-134521009D01*
X222159495Y-134521009D02*
X222111876Y-134473390D01*
X222111876Y-134473390D02*
X222016638Y-134425771D01*
X222016638Y-134425771D02*
X221826162Y-134425771D01*
X221826162Y-134425771D02*
X221730924Y-134473390D01*
X221730924Y-134473390D02*
X221683305Y-134521009D01*
X221683305Y-134521009D02*
X221635686Y-134616247D01*
X253734819Y-102242857D02*
X253258628Y-102576190D01*
X253734819Y-102814285D02*
X252734819Y-102814285D01*
X252734819Y-102814285D02*
X252734819Y-102433333D01*
X252734819Y-102433333D02*
X252782438Y-102338095D01*
X252782438Y-102338095D02*
X252830057Y-102290476D01*
X252830057Y-102290476D02*
X252925295Y-102242857D01*
X252925295Y-102242857D02*
X253068152Y-102242857D01*
X253068152Y-102242857D02*
X253163390Y-102290476D01*
X253163390Y-102290476D02*
X253211009Y-102338095D01*
X253211009Y-102338095D02*
X253258628Y-102433333D01*
X253258628Y-102433333D02*
X253258628Y-102814285D01*
X253734819Y-101290476D02*
X253734819Y-101861904D01*
X253734819Y-101576190D02*
X252734819Y-101576190D01*
X252734819Y-101576190D02*
X252877676Y-101671428D01*
X252877676Y-101671428D02*
X252972914Y-101766666D01*
X252972914Y-101766666D02*
X253020533Y-101861904D01*
X252830057Y-100909523D02*
X252782438Y-100861904D01*
X252782438Y-100861904D02*
X252734819Y-100766666D01*
X252734819Y-100766666D02*
X252734819Y-100528571D01*
X252734819Y-100528571D02*
X252782438Y-100433333D01*
X252782438Y-100433333D02*
X252830057Y-100385714D01*
X252830057Y-100385714D02*
X252925295Y-100338095D01*
X252925295Y-100338095D02*
X253020533Y-100338095D01*
X253020533Y-100338095D02*
X253163390Y-100385714D01*
X253163390Y-100385714D02*
X253734819Y-100957142D01*
X253734819Y-100957142D02*
X253734819Y-100338095D01*
X234393542Y-147744819D02*
X234060209Y-147268628D01*
X233822114Y-147744819D02*
X233822114Y-146744819D01*
X233822114Y-146744819D02*
X234203066Y-146744819D01*
X234203066Y-146744819D02*
X234298304Y-146792438D01*
X234298304Y-146792438D02*
X234345923Y-146840057D01*
X234345923Y-146840057D02*
X234393542Y-146935295D01*
X234393542Y-146935295D02*
X234393542Y-147078152D01*
X234393542Y-147078152D02*
X234345923Y-147173390D01*
X234345923Y-147173390D02*
X234298304Y-147221009D01*
X234298304Y-147221009D02*
X234203066Y-147268628D01*
X234203066Y-147268628D02*
X233822114Y-147268628D01*
X234774495Y-146840057D02*
X234822114Y-146792438D01*
X234822114Y-146792438D02*
X234917352Y-146744819D01*
X234917352Y-146744819D02*
X235155447Y-146744819D01*
X235155447Y-146744819D02*
X235250685Y-146792438D01*
X235250685Y-146792438D02*
X235298304Y-146840057D01*
X235298304Y-146840057D02*
X235345923Y-146935295D01*
X235345923Y-146935295D02*
X235345923Y-147030533D01*
X235345923Y-147030533D02*
X235298304Y-147173390D01*
X235298304Y-147173390D02*
X234726876Y-147744819D01*
X234726876Y-147744819D02*
X235345923Y-147744819D01*
X235964971Y-146744819D02*
X236060209Y-146744819D01*
X236060209Y-146744819D02*
X236155447Y-146792438D01*
X236155447Y-146792438D02*
X236203066Y-146840057D01*
X236203066Y-146840057D02*
X236250685Y-146935295D01*
X236250685Y-146935295D02*
X236298304Y-147125771D01*
X236298304Y-147125771D02*
X236298304Y-147363866D01*
X236298304Y-147363866D02*
X236250685Y-147554342D01*
X236250685Y-147554342D02*
X236203066Y-147649580D01*
X236203066Y-147649580D02*
X236155447Y-147697200D01*
X236155447Y-147697200D02*
X236060209Y-147744819D01*
X236060209Y-147744819D02*
X235964971Y-147744819D01*
X235964971Y-147744819D02*
X235869733Y-147697200D01*
X235869733Y-147697200D02*
X235822114Y-147649580D01*
X235822114Y-147649580D02*
X235774495Y-147554342D01*
X235774495Y-147554342D02*
X235726876Y-147363866D01*
X235726876Y-147363866D02*
X235726876Y-147125771D01*
X235726876Y-147125771D02*
X235774495Y-146935295D01*
X235774495Y-146935295D02*
X235822114Y-146840057D01*
X235822114Y-146840057D02*
X235869733Y-146792438D01*
X235869733Y-146792438D02*
X235964971Y-146744819D01*
X190962142Y-130589580D02*
X190914523Y-130637200D01*
X190914523Y-130637200D02*
X190771666Y-130684819D01*
X190771666Y-130684819D02*
X190676428Y-130684819D01*
X190676428Y-130684819D02*
X190533571Y-130637200D01*
X190533571Y-130637200D02*
X190438333Y-130541961D01*
X190438333Y-130541961D02*
X190390714Y-130446723D01*
X190390714Y-130446723D02*
X190343095Y-130256247D01*
X190343095Y-130256247D02*
X190343095Y-130113390D01*
X190343095Y-130113390D02*
X190390714Y-129922914D01*
X190390714Y-129922914D02*
X190438333Y-129827676D01*
X190438333Y-129827676D02*
X190533571Y-129732438D01*
X190533571Y-129732438D02*
X190676428Y-129684819D01*
X190676428Y-129684819D02*
X190771666Y-129684819D01*
X190771666Y-129684819D02*
X190914523Y-129732438D01*
X190914523Y-129732438D02*
X190962142Y-129780057D01*
X191343095Y-129780057D02*
X191390714Y-129732438D01*
X191390714Y-129732438D02*
X191485952Y-129684819D01*
X191485952Y-129684819D02*
X191724047Y-129684819D01*
X191724047Y-129684819D02*
X191819285Y-129732438D01*
X191819285Y-129732438D02*
X191866904Y-129780057D01*
X191866904Y-129780057D02*
X191914523Y-129875295D01*
X191914523Y-129875295D02*
X191914523Y-129970533D01*
X191914523Y-129970533D02*
X191866904Y-130113390D01*
X191866904Y-130113390D02*
X191295476Y-130684819D01*
X191295476Y-130684819D02*
X191914523Y-130684819D01*
X192866904Y-130684819D02*
X192295476Y-130684819D01*
X192581190Y-130684819D02*
X192581190Y-129684819D01*
X192581190Y-129684819D02*
X192485952Y-129827676D01*
X192485952Y-129827676D02*
X192390714Y-129922914D01*
X192390714Y-129922914D02*
X192295476Y-129970533D01*
X246178842Y-51974819D02*
X245845509Y-51498628D01*
X245607414Y-51974819D02*
X245607414Y-50974819D01*
X245607414Y-50974819D02*
X245988366Y-50974819D01*
X245988366Y-50974819D02*
X246083604Y-51022438D01*
X246083604Y-51022438D02*
X246131223Y-51070057D01*
X246131223Y-51070057D02*
X246178842Y-51165295D01*
X246178842Y-51165295D02*
X246178842Y-51308152D01*
X246178842Y-51308152D02*
X246131223Y-51403390D01*
X246131223Y-51403390D02*
X246083604Y-51451009D01*
X246083604Y-51451009D02*
X245988366Y-51498628D01*
X245988366Y-51498628D02*
X245607414Y-51498628D01*
X246559795Y-51070057D02*
X246607414Y-51022438D01*
X246607414Y-51022438D02*
X246702652Y-50974819D01*
X246702652Y-50974819D02*
X246940747Y-50974819D01*
X246940747Y-50974819D02*
X247035985Y-51022438D01*
X247035985Y-51022438D02*
X247083604Y-51070057D01*
X247083604Y-51070057D02*
X247131223Y-51165295D01*
X247131223Y-51165295D02*
X247131223Y-51260533D01*
X247131223Y-51260533D02*
X247083604Y-51403390D01*
X247083604Y-51403390D02*
X246512176Y-51974819D01*
X246512176Y-51974819D02*
X247131223Y-51974819D01*
X247464557Y-50974819D02*
X248083604Y-50974819D01*
X248083604Y-50974819D02*
X247750271Y-51355771D01*
X247750271Y-51355771D02*
X247893128Y-51355771D01*
X247893128Y-51355771D02*
X247988366Y-51403390D01*
X247988366Y-51403390D02*
X248035985Y-51451009D01*
X248035985Y-51451009D02*
X248083604Y-51546247D01*
X248083604Y-51546247D02*
X248083604Y-51784342D01*
X248083604Y-51784342D02*
X248035985Y-51879580D01*
X248035985Y-51879580D02*
X247988366Y-51927200D01*
X247988366Y-51927200D02*
X247893128Y-51974819D01*
X247893128Y-51974819D02*
X247607414Y-51974819D01*
X247607414Y-51974819D02*
X247512176Y-51927200D01*
X247512176Y-51927200D02*
X247464557Y-51879580D01*
X263604819Y-101766666D02*
X263128628Y-102099999D01*
X263604819Y-102338094D02*
X262604819Y-102338094D01*
X262604819Y-102338094D02*
X262604819Y-101957142D01*
X262604819Y-101957142D02*
X262652438Y-101861904D01*
X262652438Y-101861904D02*
X262700057Y-101814285D01*
X262700057Y-101814285D02*
X262795295Y-101766666D01*
X262795295Y-101766666D02*
X262938152Y-101766666D01*
X262938152Y-101766666D02*
X263033390Y-101814285D01*
X263033390Y-101814285D02*
X263081009Y-101861904D01*
X263081009Y-101861904D02*
X263128628Y-101957142D01*
X263128628Y-101957142D02*
X263128628Y-102338094D01*
X263604819Y-101290475D02*
X263604819Y-101099999D01*
X263604819Y-101099999D02*
X263557200Y-101004761D01*
X263557200Y-101004761D02*
X263509580Y-100957142D01*
X263509580Y-100957142D02*
X263366723Y-100861904D01*
X263366723Y-100861904D02*
X263176247Y-100814285D01*
X263176247Y-100814285D02*
X262795295Y-100814285D01*
X262795295Y-100814285D02*
X262700057Y-100861904D01*
X262700057Y-100861904D02*
X262652438Y-100909523D01*
X262652438Y-100909523D02*
X262604819Y-101004761D01*
X262604819Y-101004761D02*
X262604819Y-101195237D01*
X262604819Y-101195237D02*
X262652438Y-101290475D01*
X262652438Y-101290475D02*
X262700057Y-101338094D01*
X262700057Y-101338094D02*
X262795295Y-101385713D01*
X262795295Y-101385713D02*
X263033390Y-101385713D01*
X263033390Y-101385713D02*
X263128628Y-101338094D01*
X263128628Y-101338094D02*
X263176247Y-101290475D01*
X263176247Y-101290475D02*
X263223866Y-101195237D01*
X263223866Y-101195237D02*
X263223866Y-101004761D01*
X263223866Y-101004761D02*
X263176247Y-100909523D01*
X263176247Y-100909523D02*
X263128628Y-100861904D01*
X263128628Y-100861904D02*
X263033390Y-100814285D01*
X226388542Y-138334819D02*
X226055209Y-137858628D01*
X225817114Y-138334819D02*
X225817114Y-137334819D01*
X225817114Y-137334819D02*
X226198066Y-137334819D01*
X226198066Y-137334819D02*
X226293304Y-137382438D01*
X226293304Y-137382438D02*
X226340923Y-137430057D01*
X226340923Y-137430057D02*
X226388542Y-137525295D01*
X226388542Y-137525295D02*
X226388542Y-137668152D01*
X226388542Y-137668152D02*
X226340923Y-137763390D01*
X226340923Y-137763390D02*
X226293304Y-137811009D01*
X226293304Y-137811009D02*
X226198066Y-137858628D01*
X226198066Y-137858628D02*
X225817114Y-137858628D01*
X227340923Y-138334819D02*
X226769495Y-138334819D01*
X227055209Y-138334819D02*
X227055209Y-137334819D01*
X227055209Y-137334819D02*
X226959971Y-137477676D01*
X226959971Y-137477676D02*
X226864733Y-137572914D01*
X226864733Y-137572914D02*
X226769495Y-137620533D01*
X228198066Y-137668152D02*
X228198066Y-138334819D01*
X227959971Y-137287200D02*
X227721876Y-138001485D01*
X227721876Y-138001485D02*
X228340923Y-138001485D01*
X228810942Y-32339580D02*
X228763323Y-32387200D01*
X228763323Y-32387200D02*
X228620466Y-32434819D01*
X228620466Y-32434819D02*
X228525228Y-32434819D01*
X228525228Y-32434819D02*
X228382371Y-32387200D01*
X228382371Y-32387200D02*
X228287133Y-32291961D01*
X228287133Y-32291961D02*
X228239514Y-32196723D01*
X228239514Y-32196723D02*
X228191895Y-32006247D01*
X228191895Y-32006247D02*
X228191895Y-31863390D01*
X228191895Y-31863390D02*
X228239514Y-31672914D01*
X228239514Y-31672914D02*
X228287133Y-31577676D01*
X228287133Y-31577676D02*
X228382371Y-31482438D01*
X228382371Y-31482438D02*
X228525228Y-31434819D01*
X228525228Y-31434819D02*
X228620466Y-31434819D01*
X228620466Y-31434819D02*
X228763323Y-31482438D01*
X228763323Y-31482438D02*
X228810942Y-31530057D01*
X229763323Y-32434819D02*
X229191895Y-32434819D01*
X229477609Y-32434819D02*
X229477609Y-31434819D01*
X229477609Y-31434819D02*
X229382371Y-31577676D01*
X229382371Y-31577676D02*
X229287133Y-31672914D01*
X229287133Y-31672914D02*
X229191895Y-31720533D01*
X230096657Y-31434819D02*
X230763323Y-31434819D01*
X230763323Y-31434819D02*
X230334752Y-32434819D01*
X190862142Y-134034819D02*
X190528809Y-133558628D01*
X190290714Y-134034819D02*
X190290714Y-133034819D01*
X190290714Y-133034819D02*
X190671666Y-133034819D01*
X190671666Y-133034819D02*
X190766904Y-133082438D01*
X190766904Y-133082438D02*
X190814523Y-133130057D01*
X190814523Y-133130057D02*
X190862142Y-133225295D01*
X190862142Y-133225295D02*
X190862142Y-133368152D01*
X190862142Y-133368152D02*
X190814523Y-133463390D01*
X190814523Y-133463390D02*
X190766904Y-133511009D01*
X190766904Y-133511009D02*
X190671666Y-133558628D01*
X190671666Y-133558628D02*
X190290714Y-133558628D01*
X191814523Y-134034819D02*
X191243095Y-134034819D01*
X191528809Y-134034819D02*
X191528809Y-133034819D01*
X191528809Y-133034819D02*
X191433571Y-133177676D01*
X191433571Y-133177676D02*
X191338333Y-133272914D01*
X191338333Y-133272914D02*
X191243095Y-133320533D01*
X192719285Y-133034819D02*
X192243095Y-133034819D01*
X192243095Y-133034819D02*
X192195476Y-133511009D01*
X192195476Y-133511009D02*
X192243095Y-133463390D01*
X192243095Y-133463390D02*
X192338333Y-133415771D01*
X192338333Y-133415771D02*
X192576428Y-133415771D01*
X192576428Y-133415771D02*
X192671666Y-133463390D01*
X192671666Y-133463390D02*
X192719285Y-133511009D01*
X192719285Y-133511009D02*
X192766904Y-133606247D01*
X192766904Y-133606247D02*
X192766904Y-133844342D01*
X192766904Y-133844342D02*
X192719285Y-133939580D01*
X192719285Y-133939580D02*
X192671666Y-133987200D01*
X192671666Y-133987200D02*
X192576428Y-134034819D01*
X192576428Y-134034819D02*
X192338333Y-134034819D01*
X192338333Y-134034819D02*
X192243095Y-133987200D01*
X192243095Y-133987200D02*
X192195476Y-133939580D01*
X240568842Y-51974819D02*
X240235509Y-51498628D01*
X239997414Y-51974819D02*
X239997414Y-50974819D01*
X239997414Y-50974819D02*
X240378366Y-50974819D01*
X240378366Y-50974819D02*
X240473604Y-51022438D01*
X240473604Y-51022438D02*
X240521223Y-51070057D01*
X240521223Y-51070057D02*
X240568842Y-51165295D01*
X240568842Y-51165295D02*
X240568842Y-51308152D01*
X240568842Y-51308152D02*
X240521223Y-51403390D01*
X240521223Y-51403390D02*
X240473604Y-51451009D01*
X240473604Y-51451009D02*
X240378366Y-51498628D01*
X240378366Y-51498628D02*
X239997414Y-51498628D01*
X241521223Y-51974819D02*
X240949795Y-51974819D01*
X241235509Y-51974819D02*
X241235509Y-50974819D01*
X241235509Y-50974819D02*
X241140271Y-51117676D01*
X241140271Y-51117676D02*
X241045033Y-51212914D01*
X241045033Y-51212914D02*
X240949795Y-51260533D01*
X242378366Y-50974819D02*
X242187890Y-50974819D01*
X242187890Y-50974819D02*
X242092652Y-51022438D01*
X242092652Y-51022438D02*
X242045033Y-51070057D01*
X242045033Y-51070057D02*
X241949795Y-51212914D01*
X241949795Y-51212914D02*
X241902176Y-51403390D01*
X241902176Y-51403390D02*
X241902176Y-51784342D01*
X241902176Y-51784342D02*
X241949795Y-51879580D01*
X241949795Y-51879580D02*
X241997414Y-51927200D01*
X241997414Y-51927200D02*
X242092652Y-51974819D01*
X242092652Y-51974819D02*
X242283128Y-51974819D01*
X242283128Y-51974819D02*
X242378366Y-51927200D01*
X242378366Y-51927200D02*
X242425985Y-51879580D01*
X242425985Y-51879580D02*
X242473604Y-51784342D01*
X242473604Y-51784342D02*
X242473604Y-51546247D01*
X242473604Y-51546247D02*
X242425985Y-51451009D01*
X242425985Y-51451009D02*
X242378366Y-51403390D01*
X242378366Y-51403390D02*
X242283128Y-51355771D01*
X242283128Y-51355771D02*
X242092652Y-51355771D01*
X242092652Y-51355771D02*
X241997414Y-51403390D01*
X241997414Y-51403390D02*
X241949795Y-51451009D01*
X241949795Y-51451009D02*
X241902176Y-51546247D01*
X228810942Y-25639580D02*
X228763323Y-25687200D01*
X228763323Y-25687200D02*
X228620466Y-25734819D01*
X228620466Y-25734819D02*
X228525228Y-25734819D01*
X228525228Y-25734819D02*
X228382371Y-25687200D01*
X228382371Y-25687200D02*
X228287133Y-25591961D01*
X228287133Y-25591961D02*
X228239514Y-25496723D01*
X228239514Y-25496723D02*
X228191895Y-25306247D01*
X228191895Y-25306247D02*
X228191895Y-25163390D01*
X228191895Y-25163390D02*
X228239514Y-24972914D01*
X228239514Y-24972914D02*
X228287133Y-24877676D01*
X228287133Y-24877676D02*
X228382371Y-24782438D01*
X228382371Y-24782438D02*
X228525228Y-24734819D01*
X228525228Y-24734819D02*
X228620466Y-24734819D01*
X228620466Y-24734819D02*
X228763323Y-24782438D01*
X228763323Y-24782438D02*
X228810942Y-24830057D01*
X229763323Y-25734819D02*
X229191895Y-25734819D01*
X229477609Y-25734819D02*
X229477609Y-24734819D01*
X229477609Y-24734819D02*
X229382371Y-24877676D01*
X229382371Y-24877676D02*
X229287133Y-24972914D01*
X229287133Y-24972914D02*
X229191895Y-25020533D01*
X230668085Y-24734819D02*
X230191895Y-24734819D01*
X230191895Y-24734819D02*
X230144276Y-25211009D01*
X230144276Y-25211009D02*
X230191895Y-25163390D01*
X230191895Y-25163390D02*
X230287133Y-25115771D01*
X230287133Y-25115771D02*
X230525228Y-25115771D01*
X230525228Y-25115771D02*
X230620466Y-25163390D01*
X230620466Y-25163390D02*
X230668085Y-25211009D01*
X230668085Y-25211009D02*
X230715704Y-25306247D01*
X230715704Y-25306247D02*
X230715704Y-25544342D01*
X230715704Y-25544342D02*
X230668085Y-25639580D01*
X230668085Y-25639580D02*
X230620466Y-25687200D01*
X230620466Y-25687200D02*
X230525228Y-25734819D01*
X230525228Y-25734819D02*
X230287133Y-25734819D01*
X230287133Y-25734819D02*
X230191895Y-25687200D01*
X230191895Y-25687200D02*
X230144276Y-25639580D01*
X257024819Y-102242857D02*
X256548628Y-102576190D01*
X257024819Y-102814285D02*
X256024819Y-102814285D01*
X256024819Y-102814285D02*
X256024819Y-102433333D01*
X256024819Y-102433333D02*
X256072438Y-102338095D01*
X256072438Y-102338095D02*
X256120057Y-102290476D01*
X256120057Y-102290476D02*
X256215295Y-102242857D01*
X256215295Y-102242857D02*
X256358152Y-102242857D01*
X256358152Y-102242857D02*
X256453390Y-102290476D01*
X256453390Y-102290476D02*
X256501009Y-102338095D01*
X256501009Y-102338095D02*
X256548628Y-102433333D01*
X256548628Y-102433333D02*
X256548628Y-102814285D01*
X257024819Y-101290476D02*
X257024819Y-101861904D01*
X257024819Y-101576190D02*
X256024819Y-101576190D01*
X256024819Y-101576190D02*
X256167676Y-101671428D01*
X256167676Y-101671428D02*
X256262914Y-101766666D01*
X256262914Y-101766666D02*
X256310533Y-101861904D01*
X257024819Y-100338095D02*
X257024819Y-100909523D01*
X257024819Y-100623809D02*
X256024819Y-100623809D01*
X256024819Y-100623809D02*
X256167676Y-100719047D01*
X256167676Y-100719047D02*
X256262914Y-100814285D01*
X256262914Y-100814285D02*
X256310533Y-100909523D01*
X210758380Y-82921666D02*
X210806000Y-82969285D01*
X210806000Y-82969285D02*
X210853619Y-83112142D01*
X210853619Y-83112142D02*
X210853619Y-83207380D01*
X210853619Y-83207380D02*
X210806000Y-83350237D01*
X210806000Y-83350237D02*
X210710761Y-83445475D01*
X210710761Y-83445475D02*
X210615523Y-83493094D01*
X210615523Y-83493094D02*
X210425047Y-83540713D01*
X210425047Y-83540713D02*
X210282190Y-83540713D01*
X210282190Y-83540713D02*
X210091714Y-83493094D01*
X210091714Y-83493094D02*
X209996476Y-83445475D01*
X209996476Y-83445475D02*
X209901238Y-83350237D01*
X209901238Y-83350237D02*
X209853619Y-83207380D01*
X209853619Y-83207380D02*
X209853619Y-83112142D01*
X209853619Y-83112142D02*
X209901238Y-82969285D01*
X209901238Y-82969285D02*
X209948857Y-82921666D01*
X209853619Y-82016904D02*
X209853619Y-82493094D01*
X209853619Y-82493094D02*
X210329809Y-82540713D01*
X210329809Y-82540713D02*
X210282190Y-82493094D01*
X210282190Y-82493094D02*
X210234571Y-82397856D01*
X210234571Y-82397856D02*
X210234571Y-82159761D01*
X210234571Y-82159761D02*
X210282190Y-82064523D01*
X210282190Y-82064523D02*
X210329809Y-82016904D01*
X210329809Y-82016904D02*
X210425047Y-81969285D01*
X210425047Y-81969285D02*
X210663142Y-81969285D01*
X210663142Y-81969285D02*
X210758380Y-82016904D01*
X210758380Y-82016904D02*
X210806000Y-82064523D01*
X210806000Y-82064523D02*
X210853619Y-82159761D01*
X210853619Y-82159761D02*
X210853619Y-82397856D01*
X210853619Y-82397856D02*
X210806000Y-82493094D01*
X210806000Y-82493094D02*
X210758380Y-82540713D01*
X234393542Y-151034819D02*
X234060209Y-150558628D01*
X233822114Y-151034819D02*
X233822114Y-150034819D01*
X233822114Y-150034819D02*
X234203066Y-150034819D01*
X234203066Y-150034819D02*
X234298304Y-150082438D01*
X234298304Y-150082438D02*
X234345923Y-150130057D01*
X234345923Y-150130057D02*
X234393542Y-150225295D01*
X234393542Y-150225295D02*
X234393542Y-150368152D01*
X234393542Y-150368152D02*
X234345923Y-150463390D01*
X234345923Y-150463390D02*
X234298304Y-150511009D01*
X234298304Y-150511009D02*
X234203066Y-150558628D01*
X234203066Y-150558628D02*
X233822114Y-150558628D01*
X234774495Y-150130057D02*
X234822114Y-150082438D01*
X234822114Y-150082438D02*
X234917352Y-150034819D01*
X234917352Y-150034819D02*
X235155447Y-150034819D01*
X235155447Y-150034819D02*
X235250685Y-150082438D01*
X235250685Y-150082438D02*
X235298304Y-150130057D01*
X235298304Y-150130057D02*
X235345923Y-150225295D01*
X235345923Y-150225295D02*
X235345923Y-150320533D01*
X235345923Y-150320533D02*
X235298304Y-150463390D01*
X235298304Y-150463390D02*
X234726876Y-151034819D01*
X234726876Y-151034819D02*
X235345923Y-151034819D01*
X236298304Y-151034819D02*
X235726876Y-151034819D01*
X236012590Y-151034819D02*
X236012590Y-150034819D01*
X236012590Y-150034819D02*
X235917352Y-150177676D01*
X235917352Y-150177676D02*
X235822114Y-150272914D01*
X235822114Y-150272914D02*
X235726876Y-150320533D01*
X263894819Y-85064166D02*
X263418628Y-85397499D01*
X263894819Y-85635594D02*
X262894819Y-85635594D01*
X262894819Y-85635594D02*
X262894819Y-85254642D01*
X262894819Y-85254642D02*
X262942438Y-85159404D01*
X262942438Y-85159404D02*
X262990057Y-85111785D01*
X262990057Y-85111785D02*
X263085295Y-85064166D01*
X263085295Y-85064166D02*
X263228152Y-85064166D01*
X263228152Y-85064166D02*
X263323390Y-85111785D01*
X263323390Y-85111785D02*
X263371009Y-85159404D01*
X263371009Y-85159404D02*
X263418628Y-85254642D01*
X263418628Y-85254642D02*
X263418628Y-85635594D01*
X262990057Y-84683213D02*
X262942438Y-84635594D01*
X262942438Y-84635594D02*
X262894819Y-84540356D01*
X262894819Y-84540356D02*
X262894819Y-84302261D01*
X262894819Y-84302261D02*
X262942438Y-84207023D01*
X262942438Y-84207023D02*
X262990057Y-84159404D01*
X262990057Y-84159404D02*
X263085295Y-84111785D01*
X263085295Y-84111785D02*
X263180533Y-84111785D01*
X263180533Y-84111785D02*
X263323390Y-84159404D01*
X263323390Y-84159404D02*
X263894819Y-84730832D01*
X263894819Y-84730832D02*
X263894819Y-84111785D01*
X246178842Y-55264819D02*
X245845509Y-54788628D01*
X245607414Y-55264819D02*
X245607414Y-54264819D01*
X245607414Y-54264819D02*
X245988366Y-54264819D01*
X245988366Y-54264819D02*
X246083604Y-54312438D01*
X246083604Y-54312438D02*
X246131223Y-54360057D01*
X246131223Y-54360057D02*
X246178842Y-54455295D01*
X246178842Y-54455295D02*
X246178842Y-54598152D01*
X246178842Y-54598152D02*
X246131223Y-54693390D01*
X246131223Y-54693390D02*
X246083604Y-54741009D01*
X246083604Y-54741009D02*
X245988366Y-54788628D01*
X245988366Y-54788628D02*
X245607414Y-54788628D01*
X246559795Y-54360057D02*
X246607414Y-54312438D01*
X246607414Y-54312438D02*
X246702652Y-54264819D01*
X246702652Y-54264819D02*
X246940747Y-54264819D01*
X246940747Y-54264819D02*
X247035985Y-54312438D01*
X247035985Y-54312438D02*
X247083604Y-54360057D01*
X247083604Y-54360057D02*
X247131223Y-54455295D01*
X247131223Y-54455295D02*
X247131223Y-54550533D01*
X247131223Y-54550533D02*
X247083604Y-54693390D01*
X247083604Y-54693390D02*
X246512176Y-55264819D01*
X246512176Y-55264819D02*
X247131223Y-55264819D01*
X247988366Y-54598152D02*
X247988366Y-55264819D01*
X247750271Y-54217200D02*
X247512176Y-54931485D01*
X247512176Y-54931485D02*
X248131223Y-54931485D01*
X234460942Y-25639580D02*
X234413323Y-25687200D01*
X234413323Y-25687200D02*
X234270466Y-25734819D01*
X234270466Y-25734819D02*
X234175228Y-25734819D01*
X234175228Y-25734819D02*
X234032371Y-25687200D01*
X234032371Y-25687200D02*
X233937133Y-25591961D01*
X233937133Y-25591961D02*
X233889514Y-25496723D01*
X233889514Y-25496723D02*
X233841895Y-25306247D01*
X233841895Y-25306247D02*
X233841895Y-25163390D01*
X233841895Y-25163390D02*
X233889514Y-24972914D01*
X233889514Y-24972914D02*
X233937133Y-24877676D01*
X233937133Y-24877676D02*
X234032371Y-24782438D01*
X234032371Y-24782438D02*
X234175228Y-24734819D01*
X234175228Y-24734819D02*
X234270466Y-24734819D01*
X234270466Y-24734819D02*
X234413323Y-24782438D01*
X234413323Y-24782438D02*
X234460942Y-24830057D01*
X234841895Y-24830057D02*
X234889514Y-24782438D01*
X234889514Y-24782438D02*
X234984752Y-24734819D01*
X234984752Y-24734819D02*
X235222847Y-24734819D01*
X235222847Y-24734819D02*
X235318085Y-24782438D01*
X235318085Y-24782438D02*
X235365704Y-24830057D01*
X235365704Y-24830057D02*
X235413323Y-24925295D01*
X235413323Y-24925295D02*
X235413323Y-25020533D01*
X235413323Y-25020533D02*
X235365704Y-25163390D01*
X235365704Y-25163390D02*
X234794276Y-25734819D01*
X234794276Y-25734819D02*
X235413323Y-25734819D01*
X235794276Y-24830057D02*
X235841895Y-24782438D01*
X235841895Y-24782438D02*
X235937133Y-24734819D01*
X235937133Y-24734819D02*
X236175228Y-24734819D01*
X236175228Y-24734819D02*
X236270466Y-24782438D01*
X236270466Y-24782438D02*
X236318085Y-24830057D01*
X236318085Y-24830057D02*
X236365704Y-24925295D01*
X236365704Y-24925295D02*
X236365704Y-25020533D01*
X236365704Y-25020533D02*
X236318085Y-25163390D01*
X236318085Y-25163390D02*
X235746657Y-25734819D01*
X235746657Y-25734819D02*
X236365704Y-25734819D01*
X228810942Y-28989580D02*
X228763323Y-29037200D01*
X228763323Y-29037200D02*
X228620466Y-29084819D01*
X228620466Y-29084819D02*
X228525228Y-29084819D01*
X228525228Y-29084819D02*
X228382371Y-29037200D01*
X228382371Y-29037200D02*
X228287133Y-28941961D01*
X228287133Y-28941961D02*
X228239514Y-28846723D01*
X228239514Y-28846723D02*
X228191895Y-28656247D01*
X228191895Y-28656247D02*
X228191895Y-28513390D01*
X228191895Y-28513390D02*
X228239514Y-28322914D01*
X228239514Y-28322914D02*
X228287133Y-28227676D01*
X228287133Y-28227676D02*
X228382371Y-28132438D01*
X228382371Y-28132438D02*
X228525228Y-28084819D01*
X228525228Y-28084819D02*
X228620466Y-28084819D01*
X228620466Y-28084819D02*
X228763323Y-28132438D01*
X228763323Y-28132438D02*
X228810942Y-28180057D01*
X229763323Y-29084819D02*
X229191895Y-29084819D01*
X229477609Y-29084819D02*
X229477609Y-28084819D01*
X229477609Y-28084819D02*
X229382371Y-28227676D01*
X229382371Y-28227676D02*
X229287133Y-28322914D01*
X229287133Y-28322914D02*
X229191895Y-28370533D01*
X230620466Y-28084819D02*
X230429990Y-28084819D01*
X230429990Y-28084819D02*
X230334752Y-28132438D01*
X230334752Y-28132438D02*
X230287133Y-28180057D01*
X230287133Y-28180057D02*
X230191895Y-28322914D01*
X230191895Y-28322914D02*
X230144276Y-28513390D01*
X230144276Y-28513390D02*
X230144276Y-28894342D01*
X230144276Y-28894342D02*
X230191895Y-28989580D01*
X230191895Y-28989580D02*
X230239514Y-29037200D01*
X230239514Y-29037200D02*
X230334752Y-29084819D01*
X230334752Y-29084819D02*
X230525228Y-29084819D01*
X230525228Y-29084819D02*
X230620466Y-29037200D01*
X230620466Y-29037200D02*
X230668085Y-28989580D01*
X230668085Y-28989580D02*
X230715704Y-28894342D01*
X230715704Y-28894342D02*
X230715704Y-28656247D01*
X230715704Y-28656247D02*
X230668085Y-28561009D01*
X230668085Y-28561009D02*
X230620466Y-28513390D01*
X230620466Y-28513390D02*
X230525228Y-28465771D01*
X230525228Y-28465771D02*
X230334752Y-28465771D01*
X230334752Y-28465771D02*
X230239514Y-28513390D01*
X230239514Y-28513390D02*
X230191895Y-28561009D01*
X230191895Y-28561009D02*
X230144276Y-28656247D01*
X220050942Y-112239580D02*
X220003323Y-112287200D01*
X220003323Y-112287200D02*
X219860466Y-112334819D01*
X219860466Y-112334819D02*
X219765228Y-112334819D01*
X219765228Y-112334819D02*
X219622371Y-112287200D01*
X219622371Y-112287200D02*
X219527133Y-112191961D01*
X219527133Y-112191961D02*
X219479514Y-112096723D01*
X219479514Y-112096723D02*
X219431895Y-111906247D01*
X219431895Y-111906247D02*
X219431895Y-111763390D01*
X219431895Y-111763390D02*
X219479514Y-111572914D01*
X219479514Y-111572914D02*
X219527133Y-111477676D01*
X219527133Y-111477676D02*
X219622371Y-111382438D01*
X219622371Y-111382438D02*
X219765228Y-111334819D01*
X219765228Y-111334819D02*
X219860466Y-111334819D01*
X219860466Y-111334819D02*
X220003323Y-111382438D01*
X220003323Y-111382438D02*
X220050942Y-111430057D01*
X221003323Y-112334819D02*
X220431895Y-112334819D01*
X220717609Y-112334819D02*
X220717609Y-111334819D01*
X220717609Y-111334819D02*
X220622371Y-111477676D01*
X220622371Y-111477676D02*
X220527133Y-111572914D01*
X220527133Y-111572914D02*
X220431895Y-111620533D01*
X221384276Y-111430057D02*
X221431895Y-111382438D01*
X221431895Y-111382438D02*
X221527133Y-111334819D01*
X221527133Y-111334819D02*
X221765228Y-111334819D01*
X221765228Y-111334819D02*
X221860466Y-111382438D01*
X221860466Y-111382438D02*
X221908085Y-111430057D01*
X221908085Y-111430057D02*
X221955704Y-111525295D01*
X221955704Y-111525295D02*
X221955704Y-111620533D01*
X221955704Y-111620533D02*
X221908085Y-111763390D01*
X221908085Y-111763390D02*
X221336657Y-112334819D01*
X221336657Y-112334819D02*
X221955704Y-112334819D01*
X248043842Y-71254819D02*
X247710509Y-70778628D01*
X247472414Y-71254819D02*
X247472414Y-70254819D01*
X247472414Y-70254819D02*
X247853366Y-70254819D01*
X247853366Y-70254819D02*
X247948604Y-70302438D01*
X247948604Y-70302438D02*
X247996223Y-70350057D01*
X247996223Y-70350057D02*
X248043842Y-70445295D01*
X248043842Y-70445295D02*
X248043842Y-70588152D01*
X248043842Y-70588152D02*
X247996223Y-70683390D01*
X247996223Y-70683390D02*
X247948604Y-70731009D01*
X247948604Y-70731009D02*
X247853366Y-70778628D01*
X247853366Y-70778628D02*
X247472414Y-70778628D01*
X248996223Y-71254819D02*
X248424795Y-71254819D01*
X248710509Y-71254819D02*
X248710509Y-70254819D01*
X248710509Y-70254819D02*
X248615271Y-70397676D01*
X248615271Y-70397676D02*
X248520033Y-70492914D01*
X248520033Y-70492914D02*
X248424795Y-70540533D01*
X249472414Y-71254819D02*
X249662890Y-71254819D01*
X249662890Y-71254819D02*
X249758128Y-71207200D01*
X249758128Y-71207200D02*
X249805747Y-71159580D01*
X249805747Y-71159580D02*
X249900985Y-71016723D01*
X249900985Y-71016723D02*
X249948604Y-70826247D01*
X249948604Y-70826247D02*
X249948604Y-70445295D01*
X249948604Y-70445295D02*
X249900985Y-70350057D01*
X249900985Y-70350057D02*
X249853366Y-70302438D01*
X249853366Y-70302438D02*
X249758128Y-70254819D01*
X249758128Y-70254819D02*
X249567652Y-70254819D01*
X249567652Y-70254819D02*
X249472414Y-70302438D01*
X249472414Y-70302438D02*
X249424795Y-70350057D01*
X249424795Y-70350057D02*
X249377176Y-70445295D01*
X249377176Y-70445295D02*
X249377176Y-70683390D01*
X249377176Y-70683390D02*
X249424795Y-70778628D01*
X249424795Y-70778628D02*
X249472414Y-70826247D01*
X249472414Y-70826247D02*
X249567652Y-70873866D01*
X249567652Y-70873866D02*
X249758128Y-70873866D01*
X249758128Y-70873866D02*
X249853366Y-70826247D01*
X249853366Y-70826247D02*
X249900985Y-70778628D01*
X249900985Y-70778628D02*
X249948604Y-70683390D01*
X228810942Y-58549580D02*
X228763323Y-58597200D01*
X228763323Y-58597200D02*
X228620466Y-58644819D01*
X228620466Y-58644819D02*
X228525228Y-58644819D01*
X228525228Y-58644819D02*
X228382371Y-58597200D01*
X228382371Y-58597200D02*
X228287133Y-58501961D01*
X228287133Y-58501961D02*
X228239514Y-58406723D01*
X228239514Y-58406723D02*
X228191895Y-58216247D01*
X228191895Y-58216247D02*
X228191895Y-58073390D01*
X228191895Y-58073390D02*
X228239514Y-57882914D01*
X228239514Y-57882914D02*
X228287133Y-57787676D01*
X228287133Y-57787676D02*
X228382371Y-57692438D01*
X228382371Y-57692438D02*
X228525228Y-57644819D01*
X228525228Y-57644819D02*
X228620466Y-57644819D01*
X228620466Y-57644819D02*
X228763323Y-57692438D01*
X228763323Y-57692438D02*
X228810942Y-57740057D01*
X229763323Y-58644819D02*
X229191895Y-58644819D01*
X229477609Y-58644819D02*
X229477609Y-57644819D01*
X229477609Y-57644819D02*
X229382371Y-57787676D01*
X229382371Y-57787676D02*
X229287133Y-57882914D01*
X229287133Y-57882914D02*
X229191895Y-57930533D01*
X230334752Y-58073390D02*
X230239514Y-58025771D01*
X230239514Y-58025771D02*
X230191895Y-57978152D01*
X230191895Y-57978152D02*
X230144276Y-57882914D01*
X230144276Y-57882914D02*
X230144276Y-57835295D01*
X230144276Y-57835295D02*
X230191895Y-57740057D01*
X230191895Y-57740057D02*
X230239514Y-57692438D01*
X230239514Y-57692438D02*
X230334752Y-57644819D01*
X230334752Y-57644819D02*
X230525228Y-57644819D01*
X230525228Y-57644819D02*
X230620466Y-57692438D01*
X230620466Y-57692438D02*
X230668085Y-57740057D01*
X230668085Y-57740057D02*
X230715704Y-57835295D01*
X230715704Y-57835295D02*
X230715704Y-57882914D01*
X230715704Y-57882914D02*
X230668085Y-57978152D01*
X230668085Y-57978152D02*
X230620466Y-58025771D01*
X230620466Y-58025771D02*
X230525228Y-58073390D01*
X230525228Y-58073390D02*
X230334752Y-58073390D01*
X230334752Y-58073390D02*
X230239514Y-58121009D01*
X230239514Y-58121009D02*
X230191895Y-58168628D01*
X230191895Y-58168628D02*
X230144276Y-58263866D01*
X230144276Y-58263866D02*
X230144276Y-58454342D01*
X230144276Y-58454342D02*
X230191895Y-58549580D01*
X230191895Y-58549580D02*
X230239514Y-58597200D01*
X230239514Y-58597200D02*
X230334752Y-58644819D01*
X230334752Y-58644819D02*
X230525228Y-58644819D01*
X230525228Y-58644819D02*
X230620466Y-58597200D01*
X230620466Y-58597200D02*
X230668085Y-58549580D01*
X230668085Y-58549580D02*
X230715704Y-58454342D01*
X230715704Y-58454342D02*
X230715704Y-58263866D01*
X230715704Y-58263866D02*
X230668085Y-58168628D01*
X230668085Y-58168628D02*
X230620466Y-58121009D01*
X230620466Y-58121009D02*
X230525228Y-58073390D01*
X234795942Y-45039580D02*
X234748323Y-45087200D01*
X234748323Y-45087200D02*
X234605466Y-45134819D01*
X234605466Y-45134819D02*
X234510228Y-45134819D01*
X234510228Y-45134819D02*
X234367371Y-45087200D01*
X234367371Y-45087200D02*
X234272133Y-44991961D01*
X234272133Y-44991961D02*
X234224514Y-44896723D01*
X234224514Y-44896723D02*
X234176895Y-44706247D01*
X234176895Y-44706247D02*
X234176895Y-44563390D01*
X234176895Y-44563390D02*
X234224514Y-44372914D01*
X234224514Y-44372914D02*
X234272133Y-44277676D01*
X234272133Y-44277676D02*
X234367371Y-44182438D01*
X234367371Y-44182438D02*
X234510228Y-44134819D01*
X234510228Y-44134819D02*
X234605466Y-44134819D01*
X234605466Y-44134819D02*
X234748323Y-44182438D01*
X234748323Y-44182438D02*
X234795942Y-44230057D01*
X235748323Y-45134819D02*
X235176895Y-45134819D01*
X235462609Y-45134819D02*
X235462609Y-44134819D01*
X235462609Y-44134819D02*
X235367371Y-44277676D01*
X235367371Y-44277676D02*
X235272133Y-44372914D01*
X235272133Y-44372914D02*
X235176895Y-44420533D01*
X236367371Y-44134819D02*
X236462609Y-44134819D01*
X236462609Y-44134819D02*
X236557847Y-44182438D01*
X236557847Y-44182438D02*
X236605466Y-44230057D01*
X236605466Y-44230057D02*
X236653085Y-44325295D01*
X236653085Y-44325295D02*
X236700704Y-44515771D01*
X236700704Y-44515771D02*
X236700704Y-44753866D01*
X236700704Y-44753866D02*
X236653085Y-44944342D01*
X236653085Y-44944342D02*
X236605466Y-45039580D01*
X236605466Y-45039580D02*
X236557847Y-45087200D01*
X236557847Y-45087200D02*
X236462609Y-45134819D01*
X236462609Y-45134819D02*
X236367371Y-45134819D01*
X236367371Y-45134819D02*
X236272133Y-45087200D01*
X236272133Y-45087200D02*
X236224514Y-45039580D01*
X236224514Y-45039580D02*
X236176895Y-44944342D01*
X236176895Y-44944342D02*
X236129276Y-44753866D01*
X236129276Y-44753866D02*
X236129276Y-44515771D01*
X236129276Y-44515771D02*
X236176895Y-44325295D01*
X236176895Y-44325295D02*
X236224514Y-44230057D01*
X236224514Y-44230057D02*
X236272133Y-44182438D01*
X236272133Y-44182438D02*
X236367371Y-44134819D01*
X234460942Y-32339580D02*
X234413323Y-32387200D01*
X234413323Y-32387200D02*
X234270466Y-32434819D01*
X234270466Y-32434819D02*
X234175228Y-32434819D01*
X234175228Y-32434819D02*
X234032371Y-32387200D01*
X234032371Y-32387200D02*
X233937133Y-32291961D01*
X233937133Y-32291961D02*
X233889514Y-32196723D01*
X233889514Y-32196723D02*
X233841895Y-32006247D01*
X233841895Y-32006247D02*
X233841895Y-31863390D01*
X233841895Y-31863390D02*
X233889514Y-31672914D01*
X233889514Y-31672914D02*
X233937133Y-31577676D01*
X233937133Y-31577676D02*
X234032371Y-31482438D01*
X234032371Y-31482438D02*
X234175228Y-31434819D01*
X234175228Y-31434819D02*
X234270466Y-31434819D01*
X234270466Y-31434819D02*
X234413323Y-31482438D01*
X234413323Y-31482438D02*
X234460942Y-31530057D01*
X234841895Y-31530057D02*
X234889514Y-31482438D01*
X234889514Y-31482438D02*
X234984752Y-31434819D01*
X234984752Y-31434819D02*
X235222847Y-31434819D01*
X235222847Y-31434819D02*
X235318085Y-31482438D01*
X235318085Y-31482438D02*
X235365704Y-31530057D01*
X235365704Y-31530057D02*
X235413323Y-31625295D01*
X235413323Y-31625295D02*
X235413323Y-31720533D01*
X235413323Y-31720533D02*
X235365704Y-31863390D01*
X235365704Y-31863390D02*
X234794276Y-32434819D01*
X234794276Y-32434819D02*
X235413323Y-32434819D01*
X236270466Y-31768152D02*
X236270466Y-32434819D01*
X236032371Y-31387200D02*
X235794276Y-32101485D01*
X235794276Y-32101485D02*
X236413323Y-32101485D01*
X229622133Y-45039580D02*
X229574514Y-45087200D01*
X229574514Y-45087200D02*
X229431657Y-45134819D01*
X229431657Y-45134819D02*
X229336419Y-45134819D01*
X229336419Y-45134819D02*
X229193562Y-45087200D01*
X229193562Y-45087200D02*
X229098324Y-44991961D01*
X229098324Y-44991961D02*
X229050705Y-44896723D01*
X229050705Y-44896723D02*
X229003086Y-44706247D01*
X229003086Y-44706247D02*
X229003086Y-44563390D01*
X229003086Y-44563390D02*
X229050705Y-44372914D01*
X229050705Y-44372914D02*
X229098324Y-44277676D01*
X229098324Y-44277676D02*
X229193562Y-44182438D01*
X229193562Y-44182438D02*
X229336419Y-44134819D01*
X229336419Y-44134819D02*
X229431657Y-44134819D01*
X229431657Y-44134819D02*
X229574514Y-44182438D01*
X229574514Y-44182438D02*
X229622133Y-44230057D01*
X229955467Y-44134819D02*
X230574514Y-44134819D01*
X230574514Y-44134819D02*
X230241181Y-44515771D01*
X230241181Y-44515771D02*
X230384038Y-44515771D01*
X230384038Y-44515771D02*
X230479276Y-44563390D01*
X230479276Y-44563390D02*
X230526895Y-44611009D01*
X230526895Y-44611009D02*
X230574514Y-44706247D01*
X230574514Y-44706247D02*
X230574514Y-44944342D01*
X230574514Y-44944342D02*
X230526895Y-45039580D01*
X230526895Y-45039580D02*
X230479276Y-45087200D01*
X230479276Y-45087200D02*
X230384038Y-45134819D01*
X230384038Y-45134819D02*
X230098324Y-45134819D01*
X230098324Y-45134819D02*
X230003086Y-45087200D01*
X230003086Y-45087200D02*
X229955467Y-45039580D01*
X260604819Y-85064166D02*
X260128628Y-85397499D01*
X260604819Y-85635594D02*
X259604819Y-85635594D01*
X259604819Y-85635594D02*
X259604819Y-85254642D01*
X259604819Y-85254642D02*
X259652438Y-85159404D01*
X259652438Y-85159404D02*
X259700057Y-85111785D01*
X259700057Y-85111785D02*
X259795295Y-85064166D01*
X259795295Y-85064166D02*
X259938152Y-85064166D01*
X259938152Y-85064166D02*
X260033390Y-85111785D01*
X260033390Y-85111785D02*
X260081009Y-85159404D01*
X260081009Y-85159404D02*
X260128628Y-85254642D01*
X260128628Y-85254642D02*
X260128628Y-85635594D01*
X259604819Y-84730832D02*
X259604819Y-84111785D01*
X259604819Y-84111785D02*
X259985771Y-84445118D01*
X259985771Y-84445118D02*
X259985771Y-84302261D01*
X259985771Y-84302261D02*
X260033390Y-84207023D01*
X260033390Y-84207023D02*
X260081009Y-84159404D01*
X260081009Y-84159404D02*
X260176247Y-84111785D01*
X260176247Y-84111785D02*
X260414342Y-84111785D01*
X260414342Y-84111785D02*
X260509580Y-84159404D01*
X260509580Y-84159404D02*
X260557200Y-84207023D01*
X260557200Y-84207023D02*
X260604819Y-84302261D01*
X260604819Y-84302261D02*
X260604819Y-84587975D01*
X260604819Y-84587975D02*
X260557200Y-84683213D01*
X260557200Y-84683213D02*
X260509580Y-84730832D01*
D11*
%TO.C,J4*%
X176470000Y-148590000D02*
X176470000Y-151190000D01*
X176470000Y-148590000D02*
X179130000Y-148590000D01*
X176470000Y-151190000D02*
X179130000Y-151190000D01*
X177800000Y-145990000D02*
X179130000Y-145990000D01*
X179130000Y-145990000D02*
X179130000Y-147320000D01*
X179130000Y-148590000D02*
X179130000Y-151190000D01*
%TO.C,J3*%
X255270000Y-148650000D02*
X257870000Y-148650000D01*
X255270000Y-148650000D02*
X255270000Y-145990000D01*
X257870000Y-148650000D02*
X257870000Y-145990000D01*
X252670000Y-147320000D02*
X252670000Y-145990000D01*
X252670000Y-145990000D02*
X254000000Y-145990000D01*
X255270000Y-145990000D02*
X257870000Y-145990000D01*
%TO.C,RV10*%
X115595000Y-106090000D02*
X115595000Y-107090000D01*
X115595000Y-107090000D02*
X116095000Y-106590000D01*
X116095000Y-106590000D02*
X115595000Y-106090000D01*
X116400000Y-103720000D02*
X116400000Y-105415000D01*
X116400000Y-103720000D02*
X120985000Y-103720000D01*
X116400000Y-107765000D02*
X116400000Y-109268000D01*
X116400000Y-110913000D02*
X116400000Y-112960000D01*
X116400000Y-112960000D02*
X119785000Y-112960000D01*
X123056000Y-112960000D02*
X184985000Y-112960000D01*
X124020000Y-106840000D02*
X124020000Y-109840000D01*
X124020000Y-108340000D02*
X124770000Y-109090000D01*
X124020000Y-108340000D02*
X184020000Y-108340000D01*
X124256000Y-103720000D02*
X183785000Y-103720000D01*
X124770000Y-107590000D02*
X124020000Y-108340000D01*
X183270000Y-107590000D02*
X184020000Y-108340000D01*
X184020000Y-106840000D02*
X184020000Y-109840000D01*
X184020000Y-108340000D02*
X183270000Y-109090000D01*
X187056000Y-103720000D02*
X191640000Y-103720000D01*
X188256000Y-112960000D02*
X191640000Y-112960000D01*
X191640000Y-103720000D02*
X191640000Y-105767000D01*
X191640000Y-107413000D02*
X191640000Y-112960000D01*
%TO.C,RV6*%
X29235000Y-67990000D02*
X29235000Y-68990000D01*
X29235000Y-68990000D02*
X29735000Y-68490000D01*
X29735000Y-68490000D02*
X29235000Y-67990000D01*
X30040000Y-65620000D02*
X30040000Y-67315000D01*
X30040000Y-65620000D02*
X34625000Y-65620000D01*
X30040000Y-69665000D02*
X30040000Y-71168000D01*
X30040000Y-72813000D02*
X30040000Y-74860000D01*
X30040000Y-74860000D02*
X33425000Y-74860000D01*
X36696000Y-74860000D02*
X98625000Y-74860000D01*
X37660000Y-68740000D02*
X37660000Y-71740000D01*
X37660000Y-70240000D02*
X38410000Y-70990000D01*
X37660000Y-70240000D02*
X97660000Y-70240000D01*
X37896000Y-65620000D02*
X97425000Y-65620000D01*
X38410000Y-69490000D02*
X37660000Y-70240000D01*
X96910000Y-69490000D02*
X97660000Y-70240000D01*
X97660000Y-68740000D02*
X97660000Y-71740000D01*
X97660000Y-70240000D02*
X96910000Y-70990000D01*
X100696000Y-65620000D02*
X105280000Y-65620000D01*
X101896000Y-74860000D02*
X105280000Y-74860000D01*
X105280000Y-65620000D02*
X105280000Y-67667000D01*
X105280000Y-69313000D02*
X105280000Y-74860000D01*
%TO.C,RV3*%
X117435000Y-47670000D02*
X117435000Y-48670000D01*
X117435000Y-48670000D02*
X117935000Y-48170000D01*
X117935000Y-48170000D02*
X117435000Y-47670000D01*
X118240000Y-45300000D02*
X118240000Y-46995000D01*
X118240000Y-45300000D02*
X122825000Y-45300000D01*
X118240000Y-49345000D02*
X118240000Y-50848000D01*
X118240000Y-52493000D02*
X118240000Y-54540000D01*
X118240000Y-54540000D02*
X121625000Y-54540000D01*
X124896000Y-54540000D02*
X186825000Y-54540000D01*
X125860000Y-48420000D02*
X125860000Y-51420000D01*
X125860000Y-49920000D02*
X126610000Y-50670000D01*
X125860000Y-49920000D02*
X185860000Y-49920000D01*
X126096000Y-45300000D02*
X185625000Y-45300000D01*
X126610000Y-49170000D02*
X125860000Y-49920000D01*
X185110000Y-49170000D02*
X185860000Y-49920000D01*
X185860000Y-48420000D02*
X185860000Y-51420000D01*
X185860000Y-49920000D02*
X185110000Y-50670000D01*
X188896000Y-45300000D02*
X193480000Y-45300000D01*
X190096000Y-54540000D02*
X193480000Y-54540000D01*
X193480000Y-45300000D02*
X193480000Y-47347000D01*
X193480000Y-48993000D02*
X193480000Y-54540000D01*
%TO.C,U3*%
X274255000Y-55255000D02*
X270805000Y-55255000D01*
X274255000Y-55255000D02*
X276205000Y-55255000D01*
X274255000Y-64125000D02*
X272305000Y-64125000D01*
X274255000Y-64125000D02*
X276205000Y-64125000D01*
%TO.C,RV4*%
X116745000Y-66330000D02*
X116745000Y-67330000D01*
X116745000Y-67330000D02*
X117245000Y-66830000D01*
X117245000Y-66830000D02*
X116745000Y-66330000D01*
X117550000Y-63960000D02*
X117550000Y-65655000D01*
X117550000Y-63960000D02*
X122135000Y-63960000D01*
X117550000Y-68005000D02*
X117550000Y-69508000D01*
X117550000Y-71153000D02*
X117550000Y-73200000D01*
X117550000Y-73200000D02*
X120935000Y-73200000D01*
X124206000Y-73200000D02*
X186135000Y-73200000D01*
X125170000Y-67080000D02*
X125170000Y-70080000D01*
X125170000Y-68580000D02*
X125920000Y-69330000D01*
X125170000Y-68580000D02*
X185170000Y-68580000D01*
X125406000Y-63960000D02*
X184935000Y-63960000D01*
X125920000Y-67830000D02*
X125170000Y-68580000D01*
X184420000Y-67830000D02*
X185170000Y-68580000D01*
X185170000Y-67080000D02*
X185170000Y-70080000D01*
X185170000Y-68580000D02*
X184420000Y-69330000D01*
X188206000Y-63960000D02*
X192790000Y-63960000D01*
X189406000Y-73200000D02*
X192790000Y-73200000D01*
X192790000Y-63960000D02*
X192790000Y-66007000D01*
X192790000Y-67653000D02*
X192790000Y-73200000D01*
%TO.C,RV9*%
X115595000Y-85770000D02*
X115595000Y-86770000D01*
X115595000Y-86770000D02*
X116095000Y-86270000D01*
X116095000Y-86270000D02*
X115595000Y-85770000D01*
X116400000Y-83400000D02*
X116400000Y-85095000D01*
X116400000Y-83400000D02*
X120985000Y-83400000D01*
X116400000Y-87445000D02*
X116400000Y-88948000D01*
X116400000Y-90593000D02*
X116400000Y-92640000D01*
X116400000Y-92640000D02*
X119785000Y-92640000D01*
X123056000Y-92640000D02*
X184985000Y-92640000D01*
X124020000Y-86520000D02*
X124020000Y-89520000D01*
X124020000Y-88020000D02*
X124770000Y-88770000D01*
X124020000Y-88020000D02*
X184020000Y-88020000D01*
X124256000Y-83400000D02*
X183785000Y-83400000D01*
X124770000Y-87270000D02*
X124020000Y-88020000D01*
X183270000Y-87270000D02*
X184020000Y-88020000D01*
X184020000Y-86520000D02*
X184020000Y-89520000D01*
X184020000Y-88020000D02*
X183270000Y-88770000D01*
X187056000Y-83400000D02*
X191640000Y-83400000D01*
X188256000Y-92640000D02*
X191640000Y-92640000D01*
X191640000Y-83400000D02*
X191640000Y-85447000D01*
X191640000Y-87093000D02*
X191640000Y-92640000D01*
%TO.C,RV5*%
X117435000Y-29890000D02*
X117435000Y-30890000D01*
X117435000Y-30890000D02*
X117935000Y-30390000D01*
X117935000Y-30390000D02*
X117435000Y-29890000D01*
X118240000Y-27520000D02*
X118240000Y-29215000D01*
X118240000Y-27520000D02*
X122825000Y-27520000D01*
X118240000Y-31565000D02*
X118240000Y-33068000D01*
X118240000Y-34713000D02*
X118240000Y-36760000D01*
X118240000Y-36760000D02*
X121625000Y-36760000D01*
X124896000Y-36760000D02*
X186825000Y-36760000D01*
X125860000Y-30640000D02*
X125860000Y-33640000D01*
X125860000Y-32140000D02*
X126610000Y-32890000D01*
X125860000Y-32140000D02*
X185860000Y-32140000D01*
X126096000Y-27520000D02*
X185625000Y-27520000D01*
X126610000Y-31390000D02*
X125860000Y-32140000D01*
X185110000Y-31390000D02*
X185860000Y-32140000D01*
X185860000Y-30640000D02*
X185860000Y-33640000D01*
X185860000Y-32140000D02*
X185110000Y-32890000D01*
X188896000Y-27520000D02*
X193480000Y-27520000D01*
X190096000Y-36760000D02*
X193480000Y-36760000D01*
X193480000Y-27520000D02*
X193480000Y-29567000D01*
X193480000Y-31213000D02*
X193480000Y-36760000D01*
%TO.C,RV7*%
X29235000Y-85770000D02*
X29235000Y-86770000D01*
X29235000Y-86770000D02*
X29735000Y-86270000D01*
X29735000Y-86270000D02*
X29235000Y-85770000D01*
X30040000Y-83400000D02*
X30040000Y-85095000D01*
X30040000Y-83400000D02*
X34625000Y-83400000D01*
X30040000Y-87445000D02*
X30040000Y-88948000D01*
X30040000Y-90593000D02*
X30040000Y-92640000D01*
X30040000Y-92640000D02*
X33425000Y-92640000D01*
X36696000Y-92640000D02*
X98625000Y-92640000D01*
X37660000Y-86520000D02*
X37660000Y-89520000D01*
X37660000Y-88020000D02*
X38410000Y-88770000D01*
X37660000Y-88020000D02*
X97660000Y-88020000D01*
X37896000Y-83400000D02*
X97425000Y-83400000D01*
X38410000Y-87270000D02*
X37660000Y-88020000D01*
X96910000Y-87270000D02*
X97660000Y-88020000D01*
X97660000Y-86520000D02*
X97660000Y-89520000D01*
X97660000Y-88020000D02*
X96910000Y-88770000D01*
X100696000Y-83400000D02*
X105280000Y-83400000D01*
X101896000Y-92640000D02*
X105280000Y-92640000D01*
X105280000Y-83400000D02*
X105280000Y-85447000D01*
X105280000Y-87093000D02*
X105280000Y-92640000D01*
%TO.C,RV2*%
X28535000Y-47670000D02*
X28535000Y-48670000D01*
X28535000Y-48670000D02*
X29035000Y-48170000D01*
X29035000Y-48170000D02*
X28535000Y-47670000D01*
X29340000Y-45300000D02*
X29340000Y-46995000D01*
X29340000Y-45300000D02*
X33925000Y-45300000D01*
X29340000Y-49345000D02*
X29340000Y-50848000D01*
X29340000Y-52493000D02*
X29340000Y-54540000D01*
X29340000Y-54540000D02*
X32725000Y-54540000D01*
X35996000Y-54540000D02*
X97925000Y-54540000D01*
X36960000Y-48420000D02*
X36960000Y-51420000D01*
X36960000Y-49920000D02*
X37710000Y-50670000D01*
X36960000Y-49920000D02*
X96960000Y-49920000D01*
X37196000Y-45300000D02*
X96725000Y-45300000D01*
X37710000Y-49170000D02*
X36960000Y-49920000D01*
X96210000Y-49170000D02*
X96960000Y-49920000D01*
X96960000Y-48420000D02*
X96960000Y-51420000D01*
X96960000Y-49920000D02*
X96210000Y-50670000D01*
X99996000Y-45300000D02*
X104580000Y-45300000D01*
X101196000Y-54540000D02*
X104580000Y-54540000D01*
X104580000Y-45300000D02*
X104580000Y-47347000D01*
X104580000Y-48993000D02*
X104580000Y-54540000D01*
%TO.C,U1*%
X261555000Y-22235000D02*
X258105000Y-22235000D01*
X261555000Y-22235000D02*
X263505000Y-22235000D01*
X261555000Y-31105000D02*
X259605000Y-31105000D01*
X261555000Y-31105000D02*
X263505000Y-31105000D01*
%TO.C,J1*%
X242510000Y-24070000D02*
X242510000Y-24190000D01*
X242510000Y-24190000D02*
X245170000Y-24190000D01*
X243840000Y-21530000D02*
X245170000Y-21530000D01*
X245170000Y-21530000D02*
X245170000Y-22860000D01*
X245170000Y-24070000D02*
X245170000Y-24190000D01*
%TO.C,RV8*%
X29235000Y-106090000D02*
X29235000Y-107090000D01*
X29235000Y-107090000D02*
X29735000Y-106590000D01*
X29735000Y-106590000D02*
X29235000Y-106090000D01*
X30040000Y-103720000D02*
X30040000Y-105415000D01*
X30040000Y-103720000D02*
X34625000Y-103720000D01*
X30040000Y-107765000D02*
X30040000Y-109268000D01*
X30040000Y-110913000D02*
X30040000Y-112960000D01*
X30040000Y-112960000D02*
X33425000Y-112960000D01*
X36696000Y-112960000D02*
X98625000Y-112960000D01*
X37660000Y-106840000D02*
X37660000Y-109840000D01*
X37660000Y-108340000D02*
X38410000Y-109090000D01*
X37660000Y-108340000D02*
X97660000Y-108340000D01*
X37896000Y-103720000D02*
X97425000Y-103720000D01*
X38410000Y-107590000D02*
X37660000Y-108340000D01*
X96910000Y-107590000D02*
X97660000Y-108340000D01*
X97660000Y-106840000D02*
X97660000Y-109840000D01*
X97660000Y-108340000D02*
X96910000Y-109090000D01*
X100696000Y-103720000D02*
X105280000Y-103720000D01*
X101896000Y-112960000D02*
X105280000Y-112960000D01*
X105280000Y-103720000D02*
X105280000Y-105767000D01*
X105280000Y-107413000D02*
X105280000Y-112960000D01*
%TO.C,J5*%
X196790000Y-148590000D02*
X196790000Y-151190000D01*
X196790000Y-148590000D02*
X199450000Y-148590000D01*
X196790000Y-151190000D02*
X199450000Y-151190000D01*
X198120000Y-145990000D02*
X199450000Y-145990000D01*
X199450000Y-145990000D02*
X199450000Y-147320000D01*
X199450000Y-148590000D02*
X199450000Y-151190000D01*
%TO.C,RV11*%
X73565000Y-129830000D02*
X73565000Y-130830000D01*
X73565000Y-130830000D02*
X74065000Y-130330000D01*
X74065000Y-130330000D02*
X73565000Y-129830000D01*
X74370000Y-127460000D02*
X74370000Y-129155000D01*
X74370000Y-127460000D02*
X78955000Y-127460000D01*
X74370000Y-131505000D02*
X74370000Y-133008000D01*
X74370000Y-134653000D02*
X74370000Y-136700000D01*
X74370000Y-136700000D02*
X77755000Y-136700000D01*
X81026000Y-136700000D02*
X142955000Y-136700000D01*
X81990000Y-130580000D02*
X81990000Y-133580000D01*
X81990000Y-132080000D02*
X82740000Y-132830000D01*
X81990000Y-132080000D02*
X141990000Y-132080000D01*
X82226000Y-127460000D02*
X141755000Y-127460000D01*
X82740000Y-131330000D02*
X81990000Y-132080000D01*
X141240000Y-131330000D02*
X141990000Y-132080000D01*
X141990000Y-130580000D02*
X141990000Y-133580000D01*
X141990000Y-132080000D02*
X141240000Y-132830000D01*
X145026000Y-127460000D02*
X149610000Y-127460000D01*
X146226000Y-136700000D02*
X149610000Y-136700000D01*
X149610000Y-127460000D02*
X149610000Y-129507000D01*
X149610000Y-131153000D02*
X149610000Y-136700000D01*
%TO.C,J2*%
X261060000Y-118320000D02*
X261560000Y-118320000D01*
X261060000Y-119520000D02*
X259060000Y-119520000D01*
X261060000Y-119520000D02*
X261060000Y-118320000D01*
X261060000Y-122120000D02*
X259060000Y-122120000D01*
X261060000Y-128620000D02*
X261060000Y-122120000D01*
X261060000Y-133020000D02*
X261060000Y-131820000D01*
X261560000Y-115820000D02*
X266760000Y-115820000D01*
X261560000Y-118320000D02*
X261560000Y-115820000D01*
X266760000Y-115820000D02*
X266760000Y-118320000D01*
X266760000Y-118320000D02*
X267260000Y-118320000D01*
X267260000Y-118320000D02*
X267260000Y-121520000D01*
X267260000Y-124120000D02*
X267260000Y-133020000D01*
X267260000Y-133020000D02*
X261060000Y-133020000D01*
%TO.C,RV1*%
X27845000Y-30770000D02*
X27845000Y-31770000D01*
X27845000Y-31770000D02*
X28345000Y-31270000D01*
X28345000Y-31270000D02*
X27845000Y-30770000D01*
X28650000Y-28400000D02*
X28650000Y-30095000D01*
X28650000Y-28400000D02*
X33235000Y-28400000D01*
X28650000Y-32445000D02*
X28650000Y-33948000D01*
X28650000Y-35593000D02*
X28650000Y-37640000D01*
X28650000Y-37640000D02*
X32035000Y-37640000D01*
X35306000Y-37640000D02*
X97235000Y-37640000D01*
X36270000Y-31520000D02*
X36270000Y-34520000D01*
X36270000Y-33020000D02*
X37020000Y-33770000D01*
X36270000Y-33020000D02*
X96270000Y-33020000D01*
X36506000Y-28400000D02*
X96035000Y-28400000D01*
X37020000Y-32270000D02*
X36270000Y-33020000D01*
X95520000Y-32270000D02*
X96270000Y-33020000D01*
X96270000Y-31520000D02*
X96270000Y-34520000D01*
X96270000Y-33020000D02*
X95520000Y-33770000D01*
X99306000Y-28400000D02*
X103890000Y-28400000D01*
X100506000Y-37640000D02*
X103890000Y-37640000D01*
X103890000Y-28400000D02*
X103890000Y-30447000D01*
X103890000Y-32093000D02*
X103890000Y-37640000D01*
%TO.C,U2*%
X269240000Y-39675000D02*
X265790000Y-39675000D01*
X269240000Y-39675000D02*
X271190000Y-39675000D01*
X269240000Y-48545000D02*
X267290000Y-48545000D01*
X269240000Y-48545000D02*
X271190000Y-48545000D01*
%TO.C,C4*%
X210988800Y-82043748D02*
X210988800Y-83466252D01*
X212808800Y-82043748D02*
X212808800Y-83466252D01*
%TO.C,R26*%
X214174736Y-73530000D02*
X215628864Y-73530000D01*
X214174736Y-71710000D02*
X215628864Y-71710000D01*
%TO.C,C20*%
X228742548Y-86460000D02*
X230165052Y-86460000D01*
X228742548Y-84640000D02*
X230165052Y-84640000D01*
%TO.C,C9*%
X234727548Y-44090000D02*
X236150052Y-44090000D01*
X234727548Y-42270000D02*
X236150052Y-42270000D01*
%TO.C,C25*%
X234392548Y-79760000D02*
X235815052Y-79760000D01*
X234392548Y-77940000D02*
X235815052Y-77940000D01*
%TO.C,R17*%
X240484636Y-57540000D02*
X241938764Y-57540000D01*
X240484636Y-55720000D02*
X241938764Y-55720000D01*
%TO.C,R5*%
X250840000Y-84170436D02*
X250840000Y-85624564D01*
X252660000Y-84170436D02*
X252660000Y-85624564D01*
%TO.C,C6*%
X204288800Y-82043748D02*
X204288800Y-83466252D01*
X206108800Y-82043748D02*
X206108800Y-83466252D01*
%TO.C,R22*%
X196387936Y-136310000D02*
X197842064Y-136310000D01*
X196387936Y-134490000D02*
X197842064Y-134490000D01*
%TO.C,C2*%
X229077548Y-44090000D02*
X230500052Y-44090000D01*
X229077548Y-42270000D02*
X230500052Y-42270000D01*
%TO.C,R4*%
X254130000Y-84170436D02*
X254130000Y-85624564D01*
X255950000Y-84170436D02*
X255950000Y-85624564D01*
%TO.C,C14*%
X185243748Y-132990000D02*
X186666252Y-132990000D01*
X185243748Y-131170000D02*
X186666252Y-131170000D01*
%TO.C,C1*%
X229077548Y-40740000D02*
X230500052Y-40740000D01*
X229077548Y-38920000D02*
X230500052Y-38920000D01*
%TO.C,R7*%
X220694336Y-140610000D02*
X222148464Y-140610000D01*
X220694336Y-138790000D02*
X222148464Y-138790000D01*
%TO.C,R1*%
X209144236Y-105050000D02*
X210598364Y-105050000D01*
X209144236Y-103230000D02*
X210598364Y-103230000D01*
%TO.C,R18*%
X247959636Y-70240000D02*
X249413764Y-70240000D01*
X247959636Y-68420000D02*
X249413764Y-68420000D01*
%TO.C,R25*%
X214174736Y-70240000D02*
X215628864Y-70240000D01*
X214174736Y-68420000D02*
X215628864Y-68420000D01*
%TO.C,C19*%
X228742548Y-83110000D02*
X230165052Y-83110000D01*
X228742548Y-81290000D02*
X230165052Y-81290000D01*
%TO.C,R13*%
X226304336Y-137320000D02*
X227758464Y-137320000D01*
X226304336Y-135500000D02*
X227758464Y-135500000D01*
%TO.C,R8*%
X185167936Y-136310000D02*
X186622064Y-136310000D01*
X185167936Y-134490000D02*
X186622064Y-134490000D01*
%TO.C,C7*%
X209180048Y-101730000D02*
X210602552Y-101730000D01*
X209180048Y-99910000D02*
X210602552Y-99910000D01*
%TO.C,C11*%
X221405052Y-112470000D02*
X219982548Y-112470000D01*
X221405052Y-114290000D02*
X219982548Y-114290000D01*
%TO.C,R27*%
X239919336Y-150020000D02*
X241373464Y-150020000D01*
X239919336Y-148200000D02*
X241373464Y-148200000D01*
%TO.C,C13*%
X221405052Y-105770000D02*
X219982548Y-105770000D01*
X221405052Y-107590000D02*
X219982548Y-107590000D01*
%TO.C,C8*%
X234727548Y-40740000D02*
X236150052Y-40740000D01*
X234727548Y-38920000D02*
X236150052Y-38920000D01*
%TO.C,R10*%
X257130000Y-100872936D02*
X257130000Y-102327064D01*
X258950000Y-100872936D02*
X258950000Y-102327064D01*
%TO.C,C23*%
X234392548Y-31390000D02*
X235815052Y-31390000D01*
X234392548Y-29570000D02*
X235815052Y-29570000D01*
%TO.C,R6*%
X220694336Y-137320000D02*
X222148464Y-137320000D01*
X220694336Y-135500000D02*
X222148464Y-135500000D01*
%TO.C,R12*%
X250550000Y-100872936D02*
X250550000Y-102327064D01*
X252370000Y-100872936D02*
X252370000Y-102327064D01*
%TO.C,R20*%
X234309336Y-150020000D02*
X235763464Y-150020000D01*
X234309336Y-148200000D02*
X235763464Y-148200000D01*
%TO.C,C21*%
X190893748Y-132990000D02*
X192316252Y-132990000D01*
X190893748Y-131170000D02*
X192316252Y-131170000D01*
%TO.C,R23*%
X246094636Y-54250000D02*
X247548764Y-54250000D01*
X246094636Y-52430000D02*
X247548764Y-52430000D01*
%TO.C,R9*%
X260420000Y-100872936D02*
X260420000Y-102327064D01*
X262240000Y-100872936D02*
X262240000Y-102327064D01*
%TO.C,R14*%
X226304336Y-140610000D02*
X227758464Y-140610000D01*
X226304336Y-138790000D02*
X227758464Y-138790000D01*
%TO.C,C17*%
X228742548Y-57600000D02*
X230165052Y-57600000D01*
X228742548Y-55780000D02*
X230165052Y-55780000D01*
%TO.C,R15*%
X190777936Y-136310000D02*
X192232064Y-136310000D01*
X190777936Y-134490000D02*
X192232064Y-134490000D01*
%TO.C,R16*%
X240484636Y-54250000D02*
X241938764Y-54250000D01*
X240484636Y-52430000D02*
X241938764Y-52430000D01*
%TO.C,C15*%
X228742548Y-28040000D02*
X230165052Y-28040000D01*
X228742548Y-26220000D02*
X230165052Y-26220000D01*
%TO.C,R11*%
X253840000Y-100872936D02*
X253840000Y-102327064D01*
X255660000Y-100872936D02*
X255660000Y-102327064D01*
%TO.C,C5*%
X207638800Y-82043748D02*
X207638800Y-83466252D01*
X209458800Y-82043748D02*
X209458800Y-83466252D01*
%TO.C,R21*%
X234309336Y-153310000D02*
X235763464Y-153310000D01*
X234309336Y-151490000D02*
X235763464Y-151490000D01*
%TO.C,R2*%
X260710000Y-84170436D02*
X260710000Y-85624564D01*
X262530000Y-84170436D02*
X262530000Y-85624564D01*
%TO.C,R24*%
X246094636Y-57540000D02*
X247548764Y-57540000D01*
X246094636Y-55720000D02*
X247548764Y-55720000D01*
%TO.C,C22*%
X234392548Y-28040000D02*
X235815052Y-28040000D01*
X234392548Y-26220000D02*
X235815052Y-26220000D01*
%TO.C,C16*%
X228742548Y-31390000D02*
X230165052Y-31390000D01*
X228742548Y-29570000D02*
X230165052Y-29570000D01*
%TO.C,C12*%
X221405052Y-109120000D02*
X219982548Y-109120000D01*
X221405052Y-110940000D02*
X219982548Y-110940000D01*
%TO.C,R19*%
X247959636Y-73530000D02*
X249413764Y-73530000D01*
X247959636Y-71710000D02*
X249413764Y-71710000D01*
%TO.C,C18*%
X228742548Y-79760000D02*
X230165052Y-79760000D01*
X228742548Y-77940000D02*
X230165052Y-77940000D01*
%TO.C,C10*%
X223092548Y-57600000D02*
X224515052Y-57600000D01*
X223092548Y-55780000D02*
X224515052Y-55780000D01*
%TO.C,C24*%
X234392548Y-57600000D02*
X235815052Y-57600000D01*
X234392548Y-55780000D02*
X235815052Y-55780000D01*
%TO.C,C3*%
X217442548Y-57600000D02*
X218865052Y-57600000D01*
X217442548Y-55780000D02*
X218865052Y-55780000D01*
%TO.C,R3*%
X257420000Y-84170436D02*
X257420000Y-85624564D01*
X259240000Y-84170436D02*
X259240000Y-85624564D01*
%TD*%
M02*
