%TF.GenerationSoftware,KiCad,Pcbnew,7.0.6*%
%TF.CreationDate,2023-07-25T22:23:12+05:30*%
%TF.ProjectId,class2_assignment,636c6173-7332-45f6-9173-7369676e6d65,rev?*%
%TF.SameCoordinates,Original*%
%TF.FileFunction,Legend,Bot*%
%TF.FilePolarity,Positive*%
%FSLAX46Y46*%
G04 Gerber Fmt 4.6, Leading zero omitted, Abs format (unit mm)*
G04 Created by KiCad (PCBNEW 7.0.6) date 2023-07-25 22:23:12*
%MOMM*%
%LPD*%
G01*
G04 APERTURE LIST*
%ADD10C,0.150000*%
G04 APERTURE END LIST*
D10*
X206316548Y-100604819D02*
X206649881Y-100128628D01*
X206887976Y-100604819D02*
X206887976Y-99604819D01*
X206887976Y-99604819D02*
X206507024Y-99604819D01*
X206507024Y-99604819D02*
X206411786Y-99652438D01*
X206411786Y-99652438D02*
X206364167Y-99700057D01*
X206364167Y-99700057D02*
X206316548Y-99795295D01*
X206316548Y-99795295D02*
X206316548Y-99938152D01*
X206316548Y-99938152D02*
X206364167Y-100033390D01*
X206364167Y-100033390D02*
X206411786Y-100081009D01*
X206411786Y-100081009D02*
X206507024Y-100128628D01*
X206507024Y-100128628D02*
X206887976Y-100128628D01*
X206030833Y-99604819D02*
X205697500Y-100604819D01*
X205697500Y-100604819D02*
X205364167Y-99604819D01*
X204602262Y-99938152D02*
X204602262Y-100604819D01*
X204840357Y-99557200D02*
X205078452Y-100271485D01*
X205078452Y-100271485D02*
X204459405Y-100271485D01*
X221411666Y-148564819D02*
X221744999Y-148088628D01*
X221983094Y-148564819D02*
X221983094Y-147564819D01*
X221983094Y-147564819D02*
X221602142Y-147564819D01*
X221602142Y-147564819D02*
X221506904Y-147612438D01*
X221506904Y-147612438D02*
X221459285Y-147660057D01*
X221459285Y-147660057D02*
X221411666Y-147755295D01*
X221411666Y-147755295D02*
X221411666Y-147898152D01*
X221411666Y-147898152D02*
X221459285Y-147993390D01*
X221459285Y-147993390D02*
X221506904Y-148041009D01*
X221506904Y-148041009D02*
X221602142Y-148088628D01*
X221602142Y-148088628D02*
X221983094Y-148088628D01*
X221125951Y-147564819D02*
X220792618Y-148564819D01*
X220792618Y-148564819D02*
X220459285Y-147564819D01*
X220078332Y-148564819D02*
X219887856Y-148564819D01*
X219887856Y-148564819D02*
X219792618Y-148517200D01*
X219792618Y-148517200D02*
X219744999Y-148469580D01*
X219744999Y-148469580D02*
X219649761Y-148326723D01*
X219649761Y-148326723D02*
X219602142Y-148136247D01*
X219602142Y-148136247D02*
X219602142Y-147755295D01*
X219602142Y-147755295D02*
X219649761Y-147660057D01*
X219649761Y-147660057D02*
X219697380Y-147612438D01*
X219697380Y-147612438D02*
X219792618Y-147564819D01*
X219792618Y-147564819D02*
X219983094Y-147564819D01*
X219983094Y-147564819D02*
X220078332Y-147612438D01*
X220078332Y-147612438D02*
X220125951Y-147660057D01*
X220125951Y-147660057D02*
X220173570Y-147755295D01*
X220173570Y-147755295D02*
X220173570Y-147993390D01*
X220173570Y-147993390D02*
X220125951Y-148088628D01*
X220125951Y-148088628D02*
X220078332Y-148136247D01*
X220078332Y-148136247D02*
X219983094Y-148183866D01*
X219983094Y-148183866D02*
X219792618Y-148183866D01*
X219792618Y-148183866D02*
X219697380Y-148136247D01*
X219697380Y-148136247D02*
X219649761Y-148088628D01*
X219649761Y-148088628D02*
X219602142Y-147993390D01*
X208560491Y-58554819D02*
X208893824Y-58078628D01*
X209131919Y-58554819D02*
X209131919Y-57554819D01*
X209131919Y-57554819D02*
X208750967Y-57554819D01*
X208750967Y-57554819D02*
X208655729Y-57602438D01*
X208655729Y-57602438D02*
X208608110Y-57650057D01*
X208608110Y-57650057D02*
X208560491Y-57745295D01*
X208560491Y-57745295D02*
X208560491Y-57888152D01*
X208560491Y-57888152D02*
X208608110Y-57983390D01*
X208608110Y-57983390D02*
X208655729Y-58031009D01*
X208655729Y-58031009D02*
X208750967Y-58078628D01*
X208750967Y-58078628D02*
X209131919Y-58078628D01*
X208179538Y-57650057D02*
X208131919Y-57602438D01*
X208131919Y-57602438D02*
X208036681Y-57554819D01*
X208036681Y-57554819D02*
X207798586Y-57554819D01*
X207798586Y-57554819D02*
X207703348Y-57602438D01*
X207703348Y-57602438D02*
X207655729Y-57650057D01*
X207655729Y-57650057D02*
X207608110Y-57745295D01*
X207608110Y-57745295D02*
X207608110Y-57840533D01*
X207608110Y-57840533D02*
X207655729Y-57983390D01*
X207655729Y-57983390D02*
X208227157Y-58554819D01*
X208227157Y-58554819D02*
X207608110Y-58554819D01*
X206703348Y-57554819D02*
X207179538Y-57554819D01*
X207179538Y-57554819D02*
X207227157Y-58031009D01*
X207227157Y-58031009D02*
X207179538Y-57983390D01*
X207179538Y-57983390D02*
X207084300Y-57935771D01*
X207084300Y-57935771D02*
X206846205Y-57935771D01*
X206846205Y-57935771D02*
X206750967Y-57983390D01*
X206750967Y-57983390D02*
X206703348Y-58031009D01*
X206703348Y-58031009D02*
X206655729Y-58126247D01*
X206655729Y-58126247D02*
X206655729Y-58364342D01*
X206655729Y-58364342D02*
X206703348Y-58459580D01*
X206703348Y-58459580D02*
X206750967Y-58507200D01*
X206750967Y-58507200D02*
X206846205Y-58554819D01*
X206846205Y-58554819D02*
X207084300Y-58554819D01*
X207084300Y-58554819D02*
X207179538Y-58507200D01*
X207179538Y-58507200D02*
X207227157Y-58459580D01*
X244132965Y-134399580D02*
X244180584Y-134447200D01*
X244180584Y-134447200D02*
X244323441Y-134494819D01*
X244323441Y-134494819D02*
X244418679Y-134494819D01*
X244418679Y-134494819D02*
X244561536Y-134447200D01*
X244561536Y-134447200D02*
X244656774Y-134351961D01*
X244656774Y-134351961D02*
X244704393Y-134256723D01*
X244704393Y-134256723D02*
X244752012Y-134066247D01*
X244752012Y-134066247D02*
X244752012Y-133923390D01*
X244752012Y-133923390D02*
X244704393Y-133732914D01*
X244704393Y-133732914D02*
X244656774Y-133637676D01*
X244656774Y-133637676D02*
X244561536Y-133542438D01*
X244561536Y-133542438D02*
X244418679Y-133494819D01*
X244418679Y-133494819D02*
X244323441Y-133494819D01*
X244323441Y-133494819D02*
X244180584Y-133542438D01*
X244180584Y-133542438D02*
X244132965Y-133590057D01*
X243180584Y-134494819D02*
X243752012Y-134494819D01*
X243466298Y-134494819D02*
X243466298Y-133494819D01*
X243466298Y-133494819D02*
X243561536Y-133637676D01*
X243561536Y-133637676D02*
X243656774Y-133732914D01*
X243656774Y-133732914D02*
X243752012Y-133780533D01*
X242228203Y-134494819D02*
X242799631Y-134494819D01*
X242513917Y-134494819D02*
X242513917Y-133494819D01*
X242513917Y-133494819D02*
X242609155Y-133637676D01*
X242609155Y-133637676D02*
X242704393Y-133732914D01*
X242704393Y-133732914D02*
X242799631Y-133780533D01*
M02*
