%TF.GenerationSoftware,KiCad,Pcbnew,7.0.6*%
%TF.CreationDate,2023-07-25T19:52:03+05:30*%
%TF.ProjectId,class1_assignment,636c6173-7331-45f6-9173-7369676e6d65,rev?*%
%TF.SameCoordinates,Original*%
%TF.FileFunction,Copper,L2,Bot*%
%TF.FilePolarity,Positive*%
%FSLAX46Y46*%
G04 Gerber Fmt 4.6, Leading zero omitted, Abs format (unit mm)*
G04 Created by KiCad (PCBNEW 7.0.6) date 2023-07-25 19:52:03*
%MOMM*%
%LPD*%
G01*
G04 APERTURE LIST*
%TA.AperFunction,ComponentPad*%
%ADD10R,1.700000X1.700000*%
%TD*%
%TA.AperFunction,ComponentPad*%
%ADD11O,1.700000X1.700000*%
%TD*%
%TA.AperFunction,ComponentPad*%
%ADD12C,1.600000*%
%TD*%
%TA.AperFunction,ComponentPad*%
%ADD13O,1.600000X1.600000*%
%TD*%
%TA.AperFunction,ComponentPad*%
%ADD14R,2.000000X2.000000*%
%TD*%
%TA.AperFunction,ComponentPad*%
%ADD15O,2.000000X2.000000*%
%TD*%
%TA.AperFunction,ViaPad*%
%ADD16C,0.800000*%
%TD*%
%TA.AperFunction,Conductor*%
%ADD17C,0.250000*%
%TD*%
G04 APERTURE END LIST*
D10*
%TO.P,J2,1,Pin_1*%
%TO.N,Net-(J2-Pin_1)*%
X147320000Y-99060000D03*
D11*
%TO.P,J2,2,Pin_2*%
%TO.N,Net-(J2-Pin_2)*%
X147320000Y-101600000D03*
%TD*%
D12*
%TO.P,R9,1*%
%TO.N,Net-(U1D-+)*%
X119380000Y-127000000D03*
D13*
%TO.P,R9,2*%
%TO.N,Net-(J1-Pin_3)*%
X134620000Y-127000000D03*
%TD*%
D12*
%TO.P,R8,1*%
%TO.N,Net-(C1-Pad2)*%
X119380000Y-119380000D03*
D13*
%TO.P,R8,2*%
%TO.N,Net-(U1D-+)*%
X134620000Y-119380000D03*
%TD*%
D12*
%TO.P,R6,1*%
%TO.N,Net-(C3-Pad2)*%
X119380000Y-109220000D03*
D13*
%TO.P,R6,2*%
%TO.N,Net-(U1C-+)*%
X134620000Y-109220000D03*
%TD*%
D12*
%TO.P,R4,1*%
%TO.N,Net-(U1A-+)*%
X119380000Y-99060000D03*
D13*
%TO.P,R4,2*%
%TO.N,Net-(R4-Pad2)*%
X134620000Y-99060000D03*
%TD*%
D12*
%TO.P,R3,1*%
%TO.N,Net-(J1-Pin_3)*%
X119380000Y-93980000D03*
D13*
%TO.P,R3,2*%
%TO.N,Net-(U1B-+)*%
X134620000Y-93980000D03*
%TD*%
D12*
%TO.P,R5,1*%
%TO.N,Net-(U1C-+)*%
X119380000Y-104140000D03*
D13*
%TO.P,R5,2*%
%TO.N,Net-(R4-Pad2)*%
X134620000Y-104140000D03*
%TD*%
D12*
%TO.P,R7,1*%
%TO.N,Net-(U1D-+)*%
X119380000Y-114300000D03*
D13*
%TO.P,R7,2*%
%TO.N,Net-(C4-Pad1)*%
X134620000Y-114300000D03*
%TD*%
D12*
%TO.P,R2,1*%
%TO.N,Net-(U1A-+)*%
X119380000Y-88900000D03*
D13*
%TO.P,R2,2*%
%TO.N,Net-(J1-Pin_3)*%
X134620000Y-88900000D03*
%TD*%
D14*
%TO.P,C4,1*%
%TO.N,Net-(C4-Pad1)*%
X152400000Y-106680000D03*
D15*
%TO.P,C4,2*%
%TO.N,Net-(J1-Pin_4)*%
X167400000Y-106680000D03*
%TD*%
D14*
%TO.P,C1,1*%
%TO.N,Net-(J1-Pin_1)*%
X147560000Y-73660000D03*
D15*
%TO.P,C1,2*%
%TO.N,Net-(C1-Pad2)*%
X162560000Y-73660000D03*
%TD*%
D14*
%TO.P,C3,1*%
%TO.N,Net-(U1B-+)*%
X152640000Y-93980000D03*
D15*
%TO.P,C3,2*%
%TO.N,Net-(C3-Pad2)*%
X167640000Y-93980000D03*
%TD*%
D14*
%TO.P,C2,1*%
%TO.N,Net-(U1A-+)*%
X160260000Y-81280000D03*
D15*
%TO.P,C2,2*%
%TO.N,Net-(J1-Pin_3)*%
X175260000Y-81280000D03*
%TD*%
D10*
%TO.P,J1,1,Pin_1*%
%TO.N,Net-(J1-Pin_1)*%
X154940000Y-129540000D03*
D11*
%TO.P,J1,2,Pin_2*%
%TO.N,GND*%
X157480000Y-129540000D03*
%TO.P,J1,3,Pin_3*%
%TO.N,Net-(J1-Pin_3)*%
X160020000Y-129540000D03*
%TO.P,J1,4,Pin_4*%
%TO.N,Net-(J1-Pin_4)*%
X162560000Y-129540000D03*
%TD*%
D12*
%TO.P,R1,1*%
%TO.N,Net-(C1-Pad2)*%
X119380000Y-83820000D03*
D13*
%TO.P,R1,2*%
%TO.N,Net-(U1A-+)*%
X134620000Y-83820000D03*
%TD*%
D16*
%TO.N,Net-(U1D-+)*%
X157660900Y-107818200D03*
%TO.N,Net-(C4-Pad1)*%
X157212500Y-105292700D03*
%TO.N,Net-(C3-Pad2)*%
X169506500Y-116275400D03*
%TO.N,Net-(U1A-+)*%
X171477200Y-111819800D03*
%TD*%
D17*
%TO.N,Net-(U1D-+)*%
X146099100Y-119380000D02*
X157660900Y-107818200D01*
X134620000Y-119380000D02*
X146099100Y-119380000D01*
%TO.N,Net-(R4-Pad2)*%
X134620000Y-104140000D02*
X134620000Y-99060000D01*
%TO.N,Net-(J1-Pin_4)*%
X167400000Y-106680000D02*
X167400000Y-108006900D01*
X167400000Y-123523100D02*
X167400000Y-108006900D01*
X162560000Y-128363100D02*
X167400000Y-123523100D01*
X162560000Y-129540000D02*
X162560000Y-128363100D01*
%TO.N,Net-(C4-Pad1)*%
X134620000Y-114300000D02*
X135746900Y-114300000D01*
X143366900Y-106680000D02*
X152400000Y-106680000D01*
X135746900Y-114300000D02*
X143366900Y-106680000D01*
X155114200Y-105292700D02*
X157212500Y-105292700D01*
X153726900Y-106680000D02*
X155114200Y-105292700D01*
X152400000Y-106680000D02*
X153726900Y-106680000D01*
%TO.N,Net-(C3-Pad2)*%
X169506500Y-97173400D02*
X169506500Y-116275400D01*
X167640000Y-95306900D02*
X169506500Y-97173400D01*
X167640000Y-93980000D02*
X167640000Y-95306900D01*
%TO.N,Net-(J1-Pin_3)*%
X133493100Y-91153800D02*
X134620000Y-90026900D01*
X133493100Y-124746200D02*
X133493100Y-91153800D01*
X134620000Y-125873100D02*
X133493100Y-124746200D01*
X134620000Y-127000000D02*
X134620000Y-125873100D01*
X134620000Y-88900000D02*
X134620000Y-90026900D01*
%TO.N,Net-(U1A-+)*%
X160260000Y-81280000D02*
X160260000Y-82606900D01*
X118242900Y-97922900D02*
X119380000Y-99060000D01*
X118242900Y-90037100D02*
X118242900Y-97922900D01*
X119380000Y-88900000D02*
X118242900Y-90037100D01*
X171477200Y-93824100D02*
X171477200Y-111819800D01*
X160260000Y-82606900D02*
X171477200Y-93824100D01*
%TO.N,Net-(C1-Pad2)*%
X120526300Y-118233700D02*
X119380000Y-119380000D01*
X120526300Y-84966300D02*
X120526300Y-118233700D01*
X119380000Y-83820000D02*
X120526300Y-84966300D01*
%TO.N,Net-(J1-Pin_1)*%
X154940000Y-129540000D02*
X154940000Y-128363100D01*
X147560000Y-73660000D02*
X147560000Y-74986900D01*
X157939400Y-85366300D02*
X147560000Y-74986900D01*
X157939400Y-107068800D02*
X157939400Y-85366300D01*
X157939500Y-107068800D02*
X157939400Y-107068800D01*
X158387800Y-107517100D02*
X157939500Y-107068800D01*
X158387800Y-124915300D02*
X158387800Y-107517100D01*
X154940000Y-128363100D02*
X158387800Y-124915300D01*
%TD*%
M02*
