%TF.GenerationSoftware,KiCad,Pcbnew,7.0.6*%
%TF.CreationDate,2023-07-25T19:52:03+05:30*%
%TF.ProjectId,class1_assignment,636c6173-7331-45f6-9173-7369676e6d65,rev?*%
%TF.SameCoordinates,Original*%
%TF.FileFunction,Soldermask,Top*%
%TF.FilePolarity,Negative*%
%FSLAX46Y46*%
G04 Gerber Fmt 4.6, Leading zero omitted, Abs format (unit mm)*
G04 Created by KiCad (PCBNEW 7.0.6) date 2023-07-25 19:52:03*
%MOMM*%
%LPD*%
G01*
G04 APERTURE LIST*
G04 Aperture macros list*
%AMRoundRect*
0 Rectangle with rounded corners*
0 $1 Rounding radius*
0 $2 $3 $4 $5 $6 $7 $8 $9 X,Y pos of 4 corners*
0 Add a 4 corners polygon primitive as box body*
4,1,4,$2,$3,$4,$5,$6,$7,$8,$9,$2,$3,0*
0 Add four circle primitives for the rounded corners*
1,1,$1+$1,$2,$3*
1,1,$1+$1,$4,$5*
1,1,$1+$1,$6,$7*
1,1,$1+$1,$8,$9*
0 Add four rect primitives between the rounded corners*
20,1,$1+$1,$2,$3,$4,$5,0*
20,1,$1+$1,$4,$5,$6,$7,0*
20,1,$1+$1,$6,$7,$8,$9,0*
20,1,$1+$1,$8,$9,$2,$3,0*%
G04 Aperture macros list end*
%ADD10RoundRect,0.150000X-0.825000X-0.150000X0.825000X-0.150000X0.825000X0.150000X-0.825000X0.150000X0*%
%ADD11R,1.700000X1.700000*%
%ADD12O,1.700000X1.700000*%
%ADD13C,1.600000*%
%ADD14O,1.600000X1.600000*%
%ADD15C,3.500000*%
%ADD16R,2.000000X2.000000*%
%ADD17O,2.000000X2.000000*%
G04 APERTURE END LIST*
D10*
%TO.C,U1*%
X174615000Y-109220000D03*
X174615000Y-110490000D03*
X174615000Y-111760000D03*
X174615000Y-113030000D03*
X174615000Y-114300000D03*
X174615000Y-115570000D03*
X174615000Y-116840000D03*
X179565000Y-116840000D03*
X179565000Y-115570000D03*
X179565000Y-114300000D03*
X179565000Y-113030000D03*
X179565000Y-111760000D03*
X179565000Y-110490000D03*
X179565000Y-109220000D03*
%TD*%
D11*
%TO.C,J2*%
X147320000Y-99060000D03*
D12*
X147320000Y-101600000D03*
%TD*%
D13*
%TO.C,R9*%
X119380000Y-127000000D03*
D14*
X134620000Y-127000000D03*
%TD*%
D13*
%TO.C,R8*%
X119380000Y-119380000D03*
D14*
X134620000Y-119380000D03*
%TD*%
D13*
%TO.C,R6*%
X119380000Y-109220000D03*
D14*
X134620000Y-109220000D03*
%TD*%
D13*
%TO.C,R4*%
X119380000Y-99060000D03*
D14*
X134620000Y-99060000D03*
%TD*%
D15*
%TO.C,H3*%
X109220000Y-132080000D03*
%TD*%
D13*
%TO.C,R3*%
X119380000Y-93980000D03*
D14*
X134620000Y-93980000D03*
%TD*%
D13*
%TO.C,R5*%
X119380000Y-104140000D03*
D14*
X134620000Y-104140000D03*
%TD*%
D13*
%TO.C,R7*%
X119380000Y-114300000D03*
D14*
X134620000Y-114300000D03*
%TD*%
D15*
%TO.C,H1*%
X109220000Y-73660000D03*
%TD*%
D13*
%TO.C,R2*%
X119380000Y-88900000D03*
D14*
X134620000Y-88900000D03*
%TD*%
D16*
%TO.C,C4*%
X152400000Y-106680000D03*
D17*
X167400000Y-106680000D03*
%TD*%
D16*
%TO.C,C1*%
X147560000Y-73660000D03*
D17*
X162560000Y-73660000D03*
%TD*%
D16*
%TO.C,C3*%
X152640000Y-93980000D03*
D17*
X167640000Y-93980000D03*
%TD*%
D16*
%TO.C,C2*%
X160260000Y-81280000D03*
D17*
X175260000Y-81280000D03*
%TD*%
D11*
%TO.C,J1*%
X154940000Y-129540000D03*
D12*
X157480000Y-129540000D03*
X160020000Y-129540000D03*
X162560000Y-129540000D03*
%TD*%
D13*
%TO.C,R1*%
X119380000Y-83820000D03*
D14*
X134620000Y-83820000D03*
%TD*%
D15*
%TO.C,H4*%
X182880000Y-132080000D03*
%TD*%
%TO.C,H2*%
X182880000Y-73660000D03*
%TD*%
M02*
