%TF.GenerationSoftware,KiCad,Pcbnew,7.0.6*%
%TF.CreationDate,2023-07-26T18:59:44+05:30*%
%TF.ProjectId,class3_assignment,636c6173-7333-45f6-9173-7369676e6d65,rev?*%
%TF.SameCoordinates,Original*%
%TF.FileFunction,Legend,Top*%
%TF.FilePolarity,Positive*%
%FSLAX46Y46*%
G04 Gerber Fmt 4.6, Leading zero omitted, Abs format (unit mm)*
G04 Created by KiCad (PCBNEW 7.0.6) date 2023-07-26 18:59:44*
%MOMM*%
%LPD*%
G01*
G04 APERTURE LIST*
%ADD10C,0.150000*%
%ADD11C,0.120000*%
G04 APERTURE END LIST*
D10*
X158999458Y-140560505D02*
X159668589Y-139817360D01*
X159668589Y-139817360D02*
X159845528Y-139976677D01*
X159845528Y-139976677D02*
X159919828Y-140107655D01*
X159919828Y-140107655D02*
X159926877Y-140242157D01*
X159926877Y-140242157D02*
X159898538Y-140344797D01*
X159898538Y-140344797D02*
X159806473Y-140518211D01*
X159806473Y-140518211D02*
X159710882Y-140624375D01*
X159710882Y-140624375D02*
X159548041Y-140734063D01*
X159548041Y-140734063D02*
X159448927Y-140772975D01*
X159448927Y-140772975D02*
X159314424Y-140780024D01*
X159314424Y-140780024D02*
X159176397Y-140719822D01*
X159176397Y-140719822D02*
X158999458Y-140560505D01*
X160312619Y-140525403D02*
X160379870Y-140521879D01*
X160379870Y-140521879D02*
X160482509Y-140550218D01*
X160482509Y-140550218D02*
X160659448Y-140709534D01*
X160659448Y-140709534D02*
X160698361Y-140808649D01*
X160698361Y-140808649D02*
X160701885Y-140875900D01*
X160701885Y-140875900D02*
X160673546Y-140978539D01*
X160673546Y-140978539D02*
X160609820Y-141049315D01*
X160609820Y-141049315D02*
X160478842Y-141123615D01*
X160478842Y-141123615D02*
X159671827Y-141165909D01*
X159671827Y-141165909D02*
X160131869Y-141580133D01*
X160839626Y-142217400D02*
X160414972Y-141835040D01*
X160627299Y-142026220D02*
X161296430Y-141283075D01*
X161296430Y-141283075D02*
X161130064Y-141325512D01*
X161130064Y-141325512D02*
X160995561Y-141332561D01*
X160995561Y-141332561D02*
X160892922Y-141304222D01*
X152710733Y-103819764D02*
X153617041Y-103397145D01*
X153617041Y-103397145D02*
X153717664Y-103612933D01*
X153717664Y-103612933D02*
X153734881Y-103762530D01*
X153734881Y-103762530D02*
X153688815Y-103889095D01*
X153688815Y-103889095D02*
X153622625Y-103972501D01*
X153622625Y-103972501D02*
X153470119Y-104096158D01*
X153470119Y-104096158D02*
X153340647Y-104156532D01*
X153340647Y-104156532D02*
X153147892Y-104193873D01*
X153147892Y-104193873D02*
X153041452Y-104190965D01*
X153041452Y-104190965D02*
X152914888Y-104144899D01*
X152914888Y-104144899D02*
X152811357Y-104035551D01*
X152811357Y-104035551D02*
X152710733Y-103819764D01*
X153933219Y-104300545D02*
X153996502Y-104323578D01*
X153996502Y-104323578D02*
X154079909Y-104389768D01*
X154079909Y-104389768D02*
X154180532Y-104605556D01*
X154180532Y-104605556D02*
X154177624Y-104711996D01*
X154177624Y-104711996D02*
X154154591Y-104775278D01*
X154154591Y-104775278D02*
X154088401Y-104858685D01*
X154088401Y-104858685D02*
X154002086Y-104898934D01*
X154002086Y-104898934D02*
X153852488Y-104916150D01*
X153852488Y-104916150D02*
X153093102Y-104639756D01*
X153093102Y-104639756D02*
X153354723Y-105200804D01*
X154623275Y-105555021D02*
X154542776Y-105382391D01*
X154542776Y-105382391D02*
X154459369Y-105316201D01*
X154459369Y-105316201D02*
X154396087Y-105293168D01*
X154396087Y-105293168D02*
X154226365Y-105267227D01*
X154226365Y-105267227D02*
X154033610Y-105304568D01*
X154033610Y-105304568D02*
X153688350Y-105465566D01*
X153688350Y-105465566D02*
X153622160Y-105548972D01*
X153622160Y-105548972D02*
X153599127Y-105612255D01*
X153599127Y-105612255D02*
X153596219Y-105718694D01*
X153596219Y-105718694D02*
X153676718Y-105891324D01*
X153676718Y-105891324D02*
X153760125Y-105957515D01*
X153760125Y-105957515D02*
X153823407Y-105980548D01*
X153823407Y-105980548D02*
X153929847Y-105983456D01*
X153929847Y-105983456D02*
X154145634Y-105882832D01*
X154145634Y-105882832D02*
X154211824Y-105799425D01*
X154211824Y-105799425D02*
X154234857Y-105736143D01*
X154234857Y-105736143D02*
X154237765Y-105629704D01*
X154237765Y-105629704D02*
X154157267Y-105457074D01*
X154157267Y-105457074D02*
X154073860Y-105390883D01*
X154073860Y-105390883D02*
X154010578Y-105367850D01*
X154010578Y-105367850D02*
X153904138Y-105364942D01*
X240289123Y-134818342D02*
X240013486Y-133857080D01*
X240013486Y-133857080D02*
X240242358Y-133791452D01*
X240242358Y-133791452D02*
X240392807Y-133797850D01*
X240392807Y-133797850D02*
X240510606Y-133863148D01*
X240510606Y-133863148D02*
X240582632Y-133941571D01*
X240582632Y-133941571D02*
X240680909Y-134111543D01*
X240680909Y-134111543D02*
X240720285Y-134248866D01*
X240720285Y-134248866D02*
X240727013Y-134445089D01*
X240727013Y-134445089D02*
X240707490Y-134549763D01*
X240707490Y-134549763D02*
X240642193Y-134667563D01*
X240642193Y-134667563D02*
X240517995Y-134752714D01*
X240517995Y-134752714D02*
X240289123Y-134818342D01*
X241230201Y-133954036D02*
X241125527Y-133934512D01*
X241125527Y-133934512D02*
X241066627Y-133901864D01*
X241066627Y-133901864D02*
X240994601Y-133823440D01*
X240994601Y-133823440D02*
X240981476Y-133777666D01*
X240981476Y-133777666D02*
X241000999Y-133672992D01*
X241000999Y-133672992D02*
X241033648Y-133614092D01*
X241033648Y-133614092D02*
X241112071Y-133542066D01*
X241112071Y-133542066D02*
X241295168Y-133489564D01*
X241295168Y-133489564D02*
X241399843Y-133509087D01*
X241399843Y-133509087D02*
X241458743Y-133541736D01*
X241458743Y-133541736D02*
X241530768Y-133620159D01*
X241530768Y-133620159D02*
X241543894Y-133665933D01*
X241543894Y-133665933D02*
X241524371Y-133770608D01*
X241524371Y-133770608D02*
X241491722Y-133829508D01*
X241491722Y-133829508D02*
X241413299Y-133901533D01*
X241413299Y-133901533D02*
X241230201Y-133954036D01*
X241230201Y-133954036D02*
X241151778Y-134026061D01*
X241151778Y-134026061D02*
X241119129Y-134084961D01*
X241119129Y-134084961D02*
X241099606Y-134189635D01*
X241099606Y-134189635D02*
X241152108Y-134372733D01*
X241152108Y-134372733D02*
X241224134Y-134451156D01*
X241224134Y-134451156D02*
X241283034Y-134483805D01*
X241283034Y-134483805D02*
X241387708Y-134503328D01*
X241387708Y-134503328D02*
X241570806Y-134450826D01*
X241570806Y-134450826D02*
X241649229Y-134378800D01*
X241649229Y-134378800D02*
X241681878Y-134319900D01*
X241681878Y-134319900D02*
X241701401Y-134215226D01*
X241701401Y-134215226D02*
X241648898Y-134032128D01*
X241648898Y-134032128D02*
X241576873Y-133953705D01*
X241576873Y-133953705D02*
X241517973Y-133921056D01*
X241517973Y-133921056D02*
X241413299Y-133901533D01*
X231462396Y-147362047D02*
X231340527Y-146369500D01*
X231340527Y-146369500D02*
X231576848Y-146340484D01*
X231576848Y-146340484D02*
X231724443Y-146370338D01*
X231724443Y-146370338D02*
X231830578Y-146453260D01*
X231830578Y-146453260D02*
X231889449Y-146541985D01*
X231889449Y-146541985D02*
X231959926Y-146725238D01*
X231959926Y-146725238D02*
X231977336Y-146867030D01*
X231977336Y-146867030D02*
X231953285Y-147061890D01*
X231953285Y-147061890D02*
X231917627Y-147162221D01*
X231917627Y-147162221D02*
X231834706Y-147268356D01*
X231834706Y-147268356D02*
X231698717Y-147333030D01*
X231698717Y-147333030D02*
X231462396Y-147362047D01*
X232974848Y-147176341D02*
X232407678Y-147245981D01*
X232691263Y-147211161D02*
X232569394Y-146218615D01*
X232569394Y-146218615D02*
X232492275Y-146372014D01*
X232492275Y-146372014D02*
X232409354Y-146478148D01*
X232409354Y-146478148D02*
X232320629Y-146537019D01*
X233467412Y-146108352D02*
X233561940Y-146096745D01*
X233561940Y-146096745D02*
X233662271Y-146132403D01*
X233662271Y-146132403D02*
X233715339Y-146173864D01*
X233715339Y-146173864D02*
X233774209Y-146262588D01*
X233774209Y-146262588D02*
X233844687Y-146445842D01*
X233844687Y-146445842D02*
X233873703Y-146682162D01*
X233873703Y-146682162D02*
X233849652Y-146877022D01*
X233849652Y-146877022D02*
X233813995Y-146977353D01*
X233813995Y-146977353D02*
X233772534Y-147030421D01*
X233772534Y-147030421D02*
X233683809Y-147089291D01*
X233683809Y-147089291D02*
X233589281Y-147100898D01*
X233589281Y-147100898D02*
X233488949Y-147065241D01*
X233488949Y-147065241D02*
X233435882Y-147023780D01*
X233435882Y-147023780D02*
X233377011Y-146935055D01*
X233377011Y-146935055D02*
X233306534Y-146751802D01*
X233306534Y-146751802D02*
X233277518Y-146515481D01*
X233277518Y-146515481D02*
X233301568Y-146320621D01*
X233301568Y-146320621D02*
X233337226Y-146220290D01*
X233337226Y-146220290D02*
X233378687Y-146167223D01*
X233378687Y-146167223D02*
X233467412Y-146108352D01*
X213909599Y-74856908D02*
X213336023Y-74037756D01*
X213336023Y-74037756D02*
X213531059Y-73901190D01*
X213531059Y-73901190D02*
X213675394Y-73858258D01*
X213675394Y-73858258D02*
X213808035Y-73881646D01*
X213808035Y-73881646D02*
X213901668Y-73932348D01*
X213901668Y-73932348D02*
X214049928Y-74061063D01*
X214049928Y-74061063D02*
X214131868Y-74178085D01*
X214131868Y-74178085D02*
X214202113Y-74361427D01*
X214202113Y-74361427D02*
X214217732Y-74466755D01*
X214217732Y-74466755D02*
X214194344Y-74599396D01*
X214194344Y-74599396D02*
X214104636Y-74720342D01*
X214104636Y-74720342D02*
X213909599Y-74856908D01*
X214077160Y-73518806D02*
X214584255Y-73163735D01*
X214584255Y-73163735D02*
X214529709Y-73666985D01*
X214529709Y-73666985D02*
X214646731Y-73585045D01*
X214646731Y-73585045D02*
X214752059Y-73569426D01*
X214752059Y-73569426D02*
X214818379Y-73581120D01*
X214818379Y-73581120D02*
X214912013Y-73631822D01*
X214912013Y-73631822D02*
X215048578Y-73826858D01*
X215048578Y-73826858D02*
X215064197Y-73932186D01*
X215064197Y-73932186D02*
X215052503Y-73998506D01*
X215052503Y-73998506D02*
X215001802Y-74092140D01*
X215001802Y-74092140D02*
X214767759Y-74256019D01*
X214767759Y-74256019D02*
X214662431Y-74271638D01*
X214662431Y-74271638D02*
X214596111Y-74259944D01*
X215286385Y-72672098D02*
X215130356Y-72781351D01*
X215130356Y-72781351D02*
X215079655Y-72874984D01*
X215079655Y-72874984D02*
X215067961Y-72941305D01*
X215067961Y-72941305D02*
X215071886Y-73112953D01*
X215071886Y-73112953D02*
X215142131Y-73296295D01*
X215142131Y-73296295D02*
X215360636Y-73608353D01*
X215360636Y-73608353D02*
X215454270Y-73659054D01*
X215454270Y-73659054D02*
X215520590Y-73670748D01*
X215520590Y-73670748D02*
X215625918Y-73655129D01*
X215625918Y-73655129D02*
X215781947Y-73545876D01*
X215781947Y-73545876D02*
X215832648Y-73452243D01*
X215832648Y-73452243D02*
X215844342Y-73385922D01*
X215844342Y-73385922D02*
X215828723Y-73280595D01*
X215828723Y-73280595D02*
X215692157Y-73085558D01*
X215692157Y-73085558D02*
X215598524Y-73034857D01*
X215598524Y-73034857D02*
X215532203Y-73023163D01*
X215532203Y-73023163D02*
X215426876Y-73038782D01*
X215426876Y-73038782D02*
X215270847Y-73148035D01*
X215270847Y-73148035D02*
X215220145Y-73241668D01*
X215220145Y-73241668D02*
X215208451Y-73307989D01*
X215208451Y-73307989D02*
X215224070Y-73413316D01*
X163680611Y-146580293D02*
X164296272Y-145792282D01*
X164296272Y-145792282D02*
X164483894Y-145938868D01*
X164483894Y-145938868D02*
X164567150Y-146064344D01*
X164567150Y-146064344D02*
X164583564Y-146198027D01*
X164583564Y-146198027D02*
X164562454Y-146302393D01*
X164562454Y-146302393D02*
X164482709Y-146481808D01*
X164482709Y-146481808D02*
X164394757Y-146594380D01*
X164394757Y-146594380D02*
X164239964Y-146715161D01*
X164239964Y-146715161D02*
X164143806Y-146760892D01*
X164143806Y-146760892D02*
X164010122Y-146777306D01*
X164010122Y-146777306D02*
X163868232Y-146726879D01*
X163868232Y-146726879D02*
X163680611Y-146580293D01*
X164988124Y-146453675D02*
X165054966Y-146445468D01*
X165054966Y-146445468D02*
X165159332Y-146466578D01*
X165159332Y-146466578D02*
X165346953Y-146613164D01*
X165346953Y-146613164D02*
X165392685Y-146709323D01*
X165392685Y-146709323D02*
X165400892Y-146776164D01*
X165400892Y-146776164D02*
X165379782Y-146880530D01*
X165379782Y-146880530D02*
X165321147Y-146955579D01*
X165321147Y-146955579D02*
X165195671Y-147038835D01*
X165195671Y-147038835D02*
X164393573Y-147137320D01*
X164393573Y-147137320D02*
X164881389Y-147518444D01*
X165984867Y-147111557D02*
X166059915Y-147170191D01*
X166059915Y-147170191D02*
X166105647Y-147266350D01*
X166105647Y-147266350D02*
X166113854Y-147333191D01*
X166113854Y-147333191D02*
X166092744Y-147437557D01*
X166092744Y-147437557D02*
X166012999Y-147616972D01*
X166012999Y-147616972D02*
X165866413Y-147804593D01*
X165866413Y-147804593D02*
X165711620Y-147925373D01*
X165711620Y-147925373D02*
X165615461Y-147971105D01*
X165615461Y-147971105D02*
X165548620Y-147979312D01*
X165548620Y-147979312D02*
X165444254Y-147958202D01*
X165444254Y-147958202D02*
X165369205Y-147899567D01*
X165369205Y-147899567D02*
X165323474Y-147803409D01*
X165323474Y-147803409D02*
X165315267Y-147736567D01*
X165315267Y-147736567D02*
X165336377Y-147632201D01*
X165336377Y-147632201D02*
X165416121Y-147452787D01*
X165416121Y-147452787D02*
X165562707Y-147265165D01*
X165562707Y-147265165D02*
X165717501Y-147144385D01*
X165717501Y-147144385D02*
X165813659Y-147098654D01*
X165813659Y-147098654D02*
X165880501Y-147090447D01*
X165880501Y-147090447D02*
X165984867Y-147111557D01*
X220142993Y-90662126D02*
X220952010Y-90074340D01*
X220952010Y-90074340D02*
X221091959Y-90266963D01*
X221091959Y-90266963D02*
X221137403Y-90410527D01*
X221137403Y-90410527D02*
X221116334Y-90543556D01*
X221116334Y-90543556D02*
X221067274Y-90638060D01*
X221067274Y-90638060D02*
X220941166Y-90788544D01*
X220941166Y-90788544D02*
X220825592Y-90872513D01*
X220825592Y-90872513D02*
X220643504Y-90945948D01*
X220643504Y-90945948D02*
X220538464Y-90963402D01*
X220538464Y-90963402D02*
X220405436Y-90942333D01*
X220405436Y-90942333D02*
X220282942Y-90854749D01*
X220282942Y-90854749D02*
X220142993Y-90662126D01*
X221819693Y-91268604D02*
X221539795Y-90883357D01*
X221539795Y-90883357D02*
X221126559Y-91124730D01*
X221126559Y-91124730D02*
X221193074Y-91135265D01*
X221193074Y-91135265D02*
X221287578Y-91184325D01*
X221287578Y-91184325D02*
X221427527Y-91376948D01*
X221427527Y-91376948D02*
X221444982Y-91481987D01*
X221444982Y-91481987D02*
X221434447Y-91548501D01*
X221434447Y-91548501D02*
X221385387Y-91643005D01*
X221385387Y-91643005D02*
X221192764Y-91782954D01*
X221192764Y-91782954D02*
X221087725Y-91800409D01*
X221087725Y-91800409D02*
X221021211Y-91789874D01*
X221021211Y-91789874D02*
X220926707Y-91740815D01*
X220926707Y-91740815D02*
X220786758Y-91548192D01*
X220786758Y-91548192D02*
X220769303Y-91443153D01*
X220769303Y-91443153D02*
X220779838Y-91376638D01*
X222043611Y-91576801D02*
X222435468Y-92116145D01*
X222435468Y-92116145D02*
X221374543Y-92357209D01*
X220956050Y-140358935D02*
X220042504Y-139952199D01*
X220042504Y-139952199D02*
X220139346Y-139734688D01*
X220139346Y-139734688D02*
X220240954Y-139623550D01*
X220240954Y-139623550D02*
X220366695Y-139575282D01*
X220366695Y-139575282D02*
X220473068Y-139570517D01*
X220473068Y-139570517D02*
X220666445Y-139604488D01*
X220666445Y-139604488D02*
X220796951Y-139662594D01*
X220796951Y-139662594D02*
X220951592Y-139783569D01*
X220951592Y-139783569D02*
X221019227Y-139865808D01*
X221019227Y-139865808D02*
X221067495Y-139991550D01*
X221067495Y-139991550D02*
X221052892Y-140141424D01*
X221052892Y-140141424D02*
X220956050Y-140358935D01*
X220623557Y-138647134D02*
X220546083Y-138821142D01*
X220546083Y-138821142D02*
X220550848Y-138927515D01*
X220550848Y-138927515D02*
X220574982Y-138990386D01*
X220574982Y-138990386D02*
X220666752Y-139135495D01*
X220666752Y-139135495D02*
X220821392Y-139256471D01*
X220821392Y-139256471D02*
X221169409Y-139411418D01*
X221169409Y-139411418D02*
X221275782Y-139406653D01*
X221275782Y-139406653D02*
X221338653Y-139382519D01*
X221338653Y-139382519D02*
X221420892Y-139314883D01*
X221420892Y-139314883D02*
X221498365Y-139140875D01*
X221498365Y-139140875D02*
X221493600Y-139034502D01*
X221493600Y-139034502D02*
X221469466Y-138971631D01*
X221469466Y-138971631D02*
X221401830Y-138889392D01*
X221401830Y-138889392D02*
X221184320Y-138792550D01*
X221184320Y-138792550D02*
X221077947Y-138797316D01*
X221077947Y-138797316D02*
X221015076Y-138821449D01*
X221015076Y-138821449D02*
X220932837Y-138889085D01*
X220932837Y-138889085D02*
X220855364Y-139063094D01*
X220855364Y-139063094D02*
X220860129Y-139169467D01*
X220860129Y-139169467D02*
X220884263Y-139232337D01*
X220884263Y-139232337D02*
X220951899Y-139314576D01*
X220797872Y-138255614D02*
X221049662Y-137690086D01*
X221049662Y-137690086D02*
X221262100Y-138149549D01*
X221262100Y-138149549D02*
X221320205Y-138019042D01*
X221320205Y-138019042D02*
X221402444Y-137951406D01*
X221402444Y-137951406D02*
X221465315Y-137927272D01*
X221465315Y-137927272D02*
X221571688Y-137922507D01*
X221571688Y-137922507D02*
X221789199Y-138019349D01*
X221789199Y-138019349D02*
X221856835Y-138101588D01*
X221856835Y-138101588D02*
X221880968Y-138164459D01*
X221880968Y-138164459D02*
X221885734Y-138270831D01*
X221885734Y-138270831D02*
X221769523Y-138531844D01*
X221769523Y-138531844D02*
X221687284Y-138599480D01*
X221687284Y-138599480D02*
X221624414Y-138623614D01*
X168838251Y-78456896D02*
X169830798Y-78335027D01*
X169830798Y-78335027D02*
X169859814Y-78571348D01*
X169859814Y-78571348D02*
X169829960Y-78718943D01*
X169829960Y-78718943D02*
X169747038Y-78825078D01*
X169747038Y-78825078D02*
X169658313Y-78883949D01*
X169658313Y-78883949D02*
X169475060Y-78954426D01*
X169475060Y-78954426D02*
X169333268Y-78971836D01*
X169333268Y-78971836D02*
X169138408Y-78947785D01*
X169138408Y-78947785D02*
X169038077Y-78912127D01*
X169038077Y-78912127D02*
X168931942Y-78829206D01*
X168931942Y-78829206D02*
X168867268Y-78693217D01*
X168867268Y-78693217D02*
X168838251Y-78456896D01*
X169941060Y-79233045D02*
X170016503Y-79847478D01*
X170016503Y-79847478D02*
X169597767Y-79563056D01*
X169597767Y-79563056D02*
X169615177Y-79704848D01*
X169615177Y-79704848D02*
X169579520Y-79805180D01*
X169579520Y-79805180D02*
X169538059Y-79858247D01*
X169538059Y-79858247D02*
X169449334Y-79917118D01*
X169449334Y-79917118D02*
X169213013Y-79946134D01*
X169213013Y-79946134D02*
X169112682Y-79910477D01*
X169112682Y-79910477D02*
X169059615Y-79869016D01*
X169059615Y-79869016D02*
X169000744Y-79780291D01*
X169000744Y-79780291D02*
X168965924Y-79496707D01*
X168965924Y-79496707D02*
X169001582Y-79396375D01*
X169001582Y-79396375D02*
X169043042Y-79343308D01*
X170091946Y-80461912D02*
X170103553Y-80556440D01*
X170103553Y-80556440D02*
X170067895Y-80656771D01*
X170067895Y-80656771D02*
X170026434Y-80709839D01*
X170026434Y-80709839D02*
X169937710Y-80768709D01*
X169937710Y-80768709D02*
X169754456Y-80839187D01*
X169754456Y-80839187D02*
X169518136Y-80868203D01*
X169518136Y-80868203D02*
X169323276Y-80844152D01*
X169323276Y-80844152D02*
X169222945Y-80808495D01*
X169222945Y-80808495D02*
X169169877Y-80767034D01*
X169169877Y-80767034D02*
X169111007Y-80678309D01*
X169111007Y-80678309D02*
X169099400Y-80583781D01*
X169099400Y-80583781D02*
X169135057Y-80483449D01*
X169135057Y-80483449D02*
X169176518Y-80430382D01*
X169176518Y-80430382D02*
X169265243Y-80371511D01*
X169265243Y-80371511D02*
X169448496Y-80301034D01*
X169448496Y-80301034D02*
X169684817Y-80272018D01*
X169684817Y-80272018D02*
X169879677Y-80296068D01*
X169879677Y-80296068D02*
X169980008Y-80331726D01*
X169980008Y-80331726D02*
X170033075Y-80373187D01*
X170033075Y-80373187D02*
X170091946Y-80461912D01*
X190037169Y-71527434D02*
X189042647Y-71422905D01*
X189042647Y-71422905D02*
X189067534Y-71186114D01*
X189067534Y-71186114D02*
X189129825Y-71049017D01*
X189129825Y-71049017D02*
X189234497Y-70964256D01*
X189234497Y-70964256D02*
X189334191Y-70926853D01*
X189334191Y-70926853D02*
X189528601Y-70899405D01*
X189528601Y-70899405D02*
X189670675Y-70914338D01*
X189670675Y-70914338D02*
X189855131Y-70981606D01*
X189855131Y-70981606D02*
X189944869Y-71038919D01*
X189944869Y-71038919D02*
X190029631Y-71143591D01*
X190029631Y-71143591D02*
X190062056Y-71290643D01*
X190062056Y-71290643D02*
X190037169Y-71527434D01*
X189137220Y-70523100D02*
X189201928Y-69907443D01*
X189201928Y-69907443D02*
X189545951Y-70278771D01*
X189545951Y-70278771D02*
X189560883Y-70136697D01*
X189560883Y-70136697D02*
X189618197Y-70046958D01*
X189618197Y-70046958D02*
X189670532Y-70004577D01*
X189670532Y-70004577D02*
X189770226Y-69967174D01*
X189770226Y-69967174D02*
X190007017Y-69992062D01*
X190007017Y-69992062D02*
X190096756Y-70049375D01*
X190096756Y-70049375D02*
X190139137Y-70101711D01*
X190139137Y-70101711D02*
X190176540Y-70201405D01*
X190176540Y-70201405D02*
X190146675Y-70485554D01*
X190146675Y-70485554D02*
X190089361Y-70575293D01*
X190089361Y-70575293D02*
X190037026Y-70617673D01*
X189236771Y-69575936D02*
X189301479Y-68960280D01*
X189301479Y-68960280D02*
X189645502Y-69331607D01*
X189645502Y-69331607D02*
X189660434Y-69189533D01*
X189660434Y-69189533D02*
X189717748Y-69099794D01*
X189717748Y-69099794D02*
X189770083Y-69057413D01*
X189770083Y-69057413D02*
X189869777Y-69020010D01*
X189869777Y-69020010D02*
X190106568Y-69044898D01*
X190106568Y-69044898D02*
X190196307Y-69102211D01*
X190196307Y-69102211D02*
X190238688Y-69154547D01*
X190238688Y-69154547D02*
X190276091Y-69254241D01*
X190276091Y-69254241D02*
X190246226Y-69538390D01*
X190246226Y-69538390D02*
X190188912Y-69628129D01*
X190188912Y-69628129D02*
X190136576Y-69670509D01*
X242831652Y-127738635D02*
X242473284Y-126805055D01*
X242473284Y-126805055D02*
X242695565Y-126719729D01*
X242695565Y-126719729D02*
X242845999Y-126712990D01*
X242845999Y-126712990D02*
X242969042Y-126767772D01*
X242969042Y-126767772D02*
X243047628Y-126839619D01*
X243047628Y-126839619D02*
X243160345Y-127000379D01*
X243160345Y-127000379D02*
X243211541Y-127133748D01*
X243211541Y-127133748D02*
X243235345Y-127328638D01*
X243235345Y-127328638D02*
X243225019Y-127434615D01*
X243225019Y-127434615D02*
X243170237Y-127557658D01*
X243170237Y-127557658D02*
X243053933Y-127653309D01*
X243053933Y-127653309D02*
X242831652Y-127738635D01*
X243317952Y-126480817D02*
X243940339Y-126241905D01*
X243940339Y-126241905D02*
X243898601Y-127329072D01*
X210486666Y-88124819D02*
X210486666Y-88839104D01*
X210486666Y-88839104D02*
X210439047Y-88981961D01*
X210439047Y-88981961D02*
X210343809Y-89077200D01*
X210343809Y-89077200D02*
X210200952Y-89124819D01*
X210200952Y-89124819D02*
X210105714Y-89124819D01*
X211486666Y-89124819D02*
X210915238Y-89124819D01*
X211200952Y-89124819D02*
X211200952Y-88124819D01*
X211200952Y-88124819D02*
X211105714Y-88267676D01*
X211105714Y-88267676D02*
X211010476Y-88362914D01*
X211010476Y-88362914D02*
X210915238Y-88410533D01*
X206908029Y-72985641D02*
X206265241Y-72219597D01*
X206265241Y-72219597D02*
X206447633Y-72066552D01*
X206447633Y-72066552D02*
X206587676Y-72011203D01*
X206587676Y-72011203D02*
X206721851Y-72022942D01*
X206721851Y-72022942D02*
X206819547Y-72065290D01*
X206819547Y-72065290D02*
X206978461Y-72180594D01*
X206978461Y-72180594D02*
X207070288Y-72290029D01*
X207070288Y-72290029D02*
X207156245Y-72466551D01*
X207156245Y-72466551D02*
X207180985Y-72570117D01*
X207180985Y-72570117D02*
X207169246Y-72704291D01*
X207169246Y-72704291D02*
X207090420Y-72832596D01*
X207090420Y-72832596D02*
X206908029Y-72985641D01*
X206958329Y-71638027D02*
X207432547Y-71240111D01*
X207432547Y-71240111D02*
X207422070Y-71746200D01*
X207422070Y-71746200D02*
X207531505Y-71654373D01*
X207531505Y-71654373D02*
X207635071Y-71629633D01*
X207635071Y-71629633D02*
X207702158Y-71635503D01*
X207702158Y-71635503D02*
X207799854Y-71677850D01*
X207799854Y-71677850D02*
X207952899Y-71860242D01*
X207952899Y-71860242D02*
X207977638Y-71963807D01*
X207977638Y-71963807D02*
X207971769Y-72030895D01*
X207971769Y-72030895D02*
X207929421Y-72128591D01*
X207929421Y-72128591D02*
X207710551Y-72312244D01*
X207710551Y-72312244D02*
X207606986Y-72336984D01*
X207606986Y-72336984D02*
X207539899Y-72331115D01*
X208125635Y-70658541D02*
X207760852Y-70964630D01*
X207760852Y-70964630D02*
X208030463Y-71360022D01*
X208030463Y-71360022D02*
X208036332Y-71292935D01*
X208036332Y-71292935D02*
X208078680Y-71195239D01*
X208078680Y-71195239D02*
X208261071Y-71042194D01*
X208261071Y-71042194D02*
X208364637Y-71017455D01*
X208364637Y-71017455D02*
X208431724Y-71023324D01*
X208431724Y-71023324D02*
X208529420Y-71065672D01*
X208529420Y-71065672D02*
X208682465Y-71248063D01*
X208682465Y-71248063D02*
X208707205Y-71351629D01*
X208707205Y-71351629D02*
X208701335Y-71418716D01*
X208701335Y-71418716D02*
X208658987Y-71516412D01*
X208658987Y-71516412D02*
X208476596Y-71669457D01*
X208476596Y-71669457D02*
X208373030Y-71694196D01*
X208373030Y-71694196D02*
X208305943Y-71688327D01*
X244131739Y-120358018D02*
X243709121Y-119451710D01*
X243709121Y-119451710D02*
X243924909Y-119351087D01*
X243924909Y-119351087D02*
X244074506Y-119333870D01*
X244074506Y-119333870D02*
X244201070Y-119379936D01*
X244201070Y-119379936D02*
X244284477Y-119446126D01*
X244284477Y-119446126D02*
X244408133Y-119598632D01*
X244408133Y-119598632D02*
X244468507Y-119728104D01*
X244468507Y-119728104D02*
X244505849Y-119920859D01*
X244505849Y-119920859D02*
X244502940Y-120027299D01*
X244502940Y-120027299D02*
X244456875Y-120153863D01*
X244456875Y-120153863D02*
X244347527Y-120257394D01*
X244347527Y-120257394D02*
X244131739Y-120358018D01*
X245003846Y-118847970D02*
X244831216Y-118928468D01*
X244831216Y-118928468D02*
X244765026Y-119011875D01*
X244765026Y-119011875D02*
X244741993Y-119075157D01*
X244741993Y-119075157D02*
X244716052Y-119244879D01*
X244716052Y-119244879D02*
X244753393Y-119437634D01*
X244753393Y-119437634D02*
X244914391Y-119782894D01*
X244914391Y-119782894D02*
X244997798Y-119849085D01*
X244997798Y-119849085D02*
X245061080Y-119872117D01*
X245061080Y-119872117D02*
X245167520Y-119875026D01*
X245167520Y-119875026D02*
X245340150Y-119794527D01*
X245340150Y-119794527D02*
X245406340Y-119711120D01*
X245406340Y-119711120D02*
X245429373Y-119647838D01*
X245429373Y-119647838D02*
X245432281Y-119541398D01*
X245432281Y-119541398D02*
X245331658Y-119325611D01*
X245331658Y-119325611D02*
X245248251Y-119259420D01*
X245248251Y-119259420D02*
X245184969Y-119236387D01*
X245184969Y-119236387D02*
X245078529Y-119233479D01*
X245078529Y-119233479D02*
X244905899Y-119313978D01*
X244905899Y-119313978D02*
X244839708Y-119397385D01*
X244839708Y-119397385D02*
X244816676Y-119460667D01*
X244816676Y-119460667D02*
X244813767Y-119567107D01*
X175921905Y-128174819D02*
X175921905Y-127174819D01*
X175921905Y-127174819D02*
X176160000Y-127174819D01*
X176160000Y-127174819D02*
X176302857Y-127222438D01*
X176302857Y-127222438D02*
X176398095Y-127317676D01*
X176398095Y-127317676D02*
X176445714Y-127412914D01*
X176445714Y-127412914D02*
X176493333Y-127603390D01*
X176493333Y-127603390D02*
X176493333Y-127746247D01*
X176493333Y-127746247D02*
X176445714Y-127936723D01*
X176445714Y-127936723D02*
X176398095Y-128031961D01*
X176398095Y-128031961D02*
X176302857Y-128127200D01*
X176302857Y-128127200D02*
X176160000Y-128174819D01*
X176160000Y-128174819D02*
X175921905Y-128174819D01*
X176826667Y-127174819D02*
X177445714Y-127174819D01*
X177445714Y-127174819D02*
X177112381Y-127555771D01*
X177112381Y-127555771D02*
X177255238Y-127555771D01*
X177255238Y-127555771D02*
X177350476Y-127603390D01*
X177350476Y-127603390D02*
X177398095Y-127651009D01*
X177398095Y-127651009D02*
X177445714Y-127746247D01*
X177445714Y-127746247D02*
X177445714Y-127984342D01*
X177445714Y-127984342D02*
X177398095Y-128079580D01*
X177398095Y-128079580D02*
X177350476Y-128127200D01*
X177350476Y-128127200D02*
X177255238Y-128174819D01*
X177255238Y-128174819D02*
X176969524Y-128174819D01*
X176969524Y-128174819D02*
X176874286Y-128127200D01*
X176874286Y-128127200D02*
X176826667Y-128079580D01*
X236652495Y-141402367D02*
X236444583Y-140424220D01*
X236444583Y-140424220D02*
X236677476Y-140374717D01*
X236677476Y-140374717D02*
X236827112Y-140391594D01*
X236827112Y-140391594D02*
X236940070Y-140464949D01*
X236940070Y-140464949D02*
X237006449Y-140548206D01*
X237006449Y-140548206D02*
X237092630Y-140724619D01*
X237092630Y-140724619D02*
X237122332Y-140864354D01*
X237122332Y-140864354D02*
X237115355Y-141060569D01*
X237115355Y-141060569D02*
X237088578Y-141163626D01*
X237088578Y-141163626D02*
X237015222Y-141276584D01*
X237015222Y-141276584D02*
X236885387Y-141352864D01*
X236885387Y-141352864D02*
X236652495Y-141402367D01*
X237677221Y-141184555D02*
X237863535Y-141144953D01*
X237863535Y-141144953D02*
X237946791Y-141078573D01*
X237946791Y-141078573D02*
X237983469Y-141022094D01*
X237983469Y-141022094D02*
X238046924Y-140862558D01*
X238046924Y-140862558D02*
X238053901Y-140666343D01*
X238053901Y-140666343D02*
X237974696Y-140293716D01*
X237974696Y-140293716D02*
X237908317Y-140210459D01*
X237908317Y-140210459D02*
X237851838Y-140173781D01*
X237851838Y-140173781D02*
X237748780Y-140147004D01*
X237748780Y-140147004D02*
X237562466Y-140186606D01*
X237562466Y-140186606D02*
X237479210Y-140252986D01*
X237479210Y-140252986D02*
X237442532Y-140309465D01*
X237442532Y-140309465D02*
X237415755Y-140412522D01*
X237415755Y-140412522D02*
X237465258Y-140645415D01*
X237465258Y-140645415D02*
X237531637Y-140728671D01*
X237531637Y-140728671D02*
X237588116Y-140765349D01*
X237588116Y-140765349D02*
X237691174Y-140792126D01*
X237691174Y-140792126D02*
X237877487Y-140752524D01*
X237877487Y-140752524D02*
X237960744Y-140686144D01*
X237960744Y-140686144D02*
X237997422Y-140629665D01*
X237997422Y-140629665D02*
X238024199Y-140526608D01*
X160913843Y-116640355D02*
X161320579Y-115726809D01*
X161320579Y-115726809D02*
X161538090Y-115823651D01*
X161538090Y-115823651D02*
X161649228Y-115925259D01*
X161649228Y-115925259D02*
X161697496Y-116051000D01*
X161697496Y-116051000D02*
X161702261Y-116157373D01*
X161702261Y-116157373D02*
X161668290Y-116350750D01*
X161668290Y-116350750D02*
X161610184Y-116481256D01*
X161610184Y-116481256D02*
X161489209Y-116635897D01*
X161489209Y-116635897D02*
X161406970Y-116703532D01*
X161406970Y-116703532D02*
X161281228Y-116751800D01*
X161281228Y-116751800D02*
X161131354Y-116737197D01*
X161131354Y-116737197D02*
X160913843Y-116640355D01*
X162490065Y-116612377D02*
X162218908Y-117221407D01*
X162427502Y-116167518D02*
X161919465Y-116723208D01*
X161919465Y-116723208D02*
X162484993Y-116974997D01*
X163060359Y-116970539D02*
X162992723Y-116888300D01*
X162992723Y-116888300D02*
X162968589Y-116825429D01*
X162968589Y-116825429D02*
X162963824Y-116719057D01*
X162963824Y-116719057D02*
X162983192Y-116675555D01*
X162983192Y-116675555D02*
X163065431Y-116607919D01*
X163065431Y-116607919D02*
X163128302Y-116583785D01*
X163128302Y-116583785D02*
X163234675Y-116579020D01*
X163234675Y-116579020D02*
X163408683Y-116656493D01*
X163408683Y-116656493D02*
X163476319Y-116738732D01*
X163476319Y-116738732D02*
X163500453Y-116801603D01*
X163500453Y-116801603D02*
X163505218Y-116907975D01*
X163505218Y-116907975D02*
X163485850Y-116951478D01*
X163485850Y-116951478D02*
X163403611Y-117019114D01*
X163403611Y-117019114D02*
X163340740Y-117043247D01*
X163340740Y-117043247D02*
X163234368Y-117048013D01*
X163234368Y-117048013D02*
X163060359Y-116970539D01*
X163060359Y-116970539D02*
X162953986Y-116975304D01*
X162953986Y-116975304D02*
X162891116Y-116999438D01*
X162891116Y-116999438D02*
X162808877Y-117067074D01*
X162808877Y-117067074D02*
X162731403Y-117241083D01*
X162731403Y-117241083D02*
X162736168Y-117347455D01*
X162736168Y-117347455D02*
X162760302Y-117410326D01*
X162760302Y-117410326D02*
X162827938Y-117492565D01*
X162827938Y-117492565D02*
X163001947Y-117570039D01*
X163001947Y-117570039D02*
X163108319Y-117565273D01*
X163108319Y-117565273D02*
X163171190Y-117541140D01*
X163171190Y-117541140D02*
X163253429Y-117473504D01*
X163253429Y-117473504D02*
X163330903Y-117299495D01*
X163330903Y-117299495D02*
X163326137Y-117193122D01*
X163326137Y-117193122D02*
X163302003Y-117130252D01*
X163302003Y-117130252D02*
X163234368Y-117048013D01*
X225868533Y-152397952D02*
X225816197Y-151399323D01*
X225816197Y-151399323D02*
X226053966Y-151386862D01*
X226053966Y-151386862D02*
X226199120Y-151426939D01*
X226199120Y-151426939D02*
X226299212Y-151517062D01*
X226299212Y-151517062D02*
X226351750Y-151609677D01*
X226351750Y-151609677D02*
X226409272Y-151797400D01*
X226409272Y-151797400D02*
X226416749Y-151940062D01*
X226416749Y-151940062D02*
X226379164Y-152132769D01*
X226379164Y-152132769D02*
X226336595Y-152230369D01*
X226336595Y-152230369D02*
X226246471Y-152330461D01*
X226246471Y-152330461D02*
X226106302Y-152385491D01*
X226106302Y-152385491D02*
X225868533Y-152397952D01*
X227390254Y-152318202D02*
X226819609Y-152348108D01*
X227104932Y-152333155D02*
X227052596Y-151334526D01*
X227052596Y-151334526D02*
X226964965Y-151482171D01*
X226964965Y-151482171D02*
X226874842Y-151582263D01*
X226874842Y-151582263D02*
X226782226Y-151634801D01*
X228341330Y-152268358D02*
X227770685Y-152298265D01*
X228056008Y-152283311D02*
X228003672Y-151284682D01*
X228003672Y-151284682D02*
X227916041Y-151432328D01*
X227916041Y-151432328D02*
X227825917Y-151532420D01*
X227825917Y-151532420D02*
X227733302Y-151584958D01*
X226640908Y-133404048D02*
X225670612Y-133162127D01*
X225670612Y-133162127D02*
X225728213Y-132931104D01*
X225728213Y-132931104D02*
X225808978Y-132804010D01*
X225808978Y-132804010D02*
X225924427Y-132734641D01*
X225924427Y-132734641D02*
X226028356Y-132711477D01*
X226028356Y-132711477D02*
X226224695Y-132711353D01*
X226224695Y-132711353D02*
X226363308Y-132745913D01*
X226363308Y-132745913D02*
X226536606Y-132838198D01*
X226536606Y-132838198D02*
X226617495Y-132907443D01*
X226617495Y-132907443D02*
X226686864Y-133022892D01*
X226686864Y-133022892D02*
X226698509Y-133173026D01*
X226698509Y-133173026D02*
X226640908Y-133404048D01*
X226016215Y-131775990D02*
X225970135Y-131960808D01*
X225970135Y-131960808D02*
X225993299Y-132064737D01*
X225993299Y-132064737D02*
X226027984Y-132122462D01*
X226027984Y-132122462D02*
X226143557Y-132249431D01*
X226143557Y-132249431D02*
X226316855Y-132341716D01*
X226316855Y-132341716D02*
X226686492Y-132433877D01*
X226686492Y-132433877D02*
X226790421Y-132410713D01*
X226790421Y-132410713D02*
X226848146Y-132376028D01*
X226848146Y-132376028D02*
X226917390Y-132295139D01*
X226917390Y-132295139D02*
X226963471Y-132110321D01*
X226963471Y-132110321D02*
X226940306Y-132006392D01*
X226940306Y-132006392D02*
X226905622Y-131948667D01*
X226905622Y-131948667D02*
X226824733Y-131879422D01*
X226824733Y-131879422D02*
X226593710Y-131821822D01*
X226593710Y-131821822D02*
X226489781Y-131844986D01*
X226489781Y-131844986D02*
X226432056Y-131879671D01*
X226432056Y-131879671D02*
X226362811Y-131960560D01*
X226362811Y-131960560D02*
X226316731Y-132145378D01*
X226316731Y-132145378D02*
X226339895Y-132249307D01*
X226339895Y-132249307D02*
X226374580Y-132307032D01*
X226374580Y-132307032D02*
X226455469Y-132376276D01*
X226223825Y-131336984D02*
X226189141Y-131279260D01*
X226189141Y-131279260D02*
X226165976Y-131175331D01*
X226165976Y-131175331D02*
X226223577Y-130944308D01*
X226223577Y-130944308D02*
X226292822Y-130863419D01*
X226292822Y-130863419D02*
X226350546Y-130828734D01*
X226350546Y-130828734D02*
X226454475Y-130805570D01*
X226454475Y-130805570D02*
X226546884Y-130828610D01*
X226546884Y-130828610D02*
X226673978Y-130909375D01*
X226673978Y-130909375D02*
X227090192Y-131602071D01*
X227090192Y-131602071D02*
X227239953Y-131001411D01*
X163293825Y-83729010D02*
X164271973Y-83521098D01*
X164271973Y-83521098D02*
X164321476Y-83753991D01*
X164321476Y-83753991D02*
X164304599Y-83903627D01*
X164304599Y-83903627D02*
X164231243Y-84016585D01*
X164231243Y-84016585D02*
X164147987Y-84082964D01*
X164147987Y-84082964D02*
X163971573Y-84169145D01*
X163971573Y-84169145D02*
X163831838Y-84198846D01*
X163831838Y-84198846D02*
X163635624Y-84191870D01*
X163635624Y-84191870D02*
X163532566Y-84165093D01*
X163532566Y-84165093D02*
X163419608Y-84091737D01*
X163419608Y-84091737D02*
X163343328Y-83961902D01*
X163343328Y-83961902D02*
X163293825Y-83729010D01*
X164376827Y-84472469D02*
X164433306Y-84509146D01*
X164433306Y-84509146D02*
X164499686Y-84592403D01*
X164499686Y-84592403D02*
X164549188Y-84825295D01*
X164549188Y-84825295D02*
X164522411Y-84928353D01*
X164522411Y-84928353D02*
X164485733Y-84984832D01*
X164485733Y-84984832D02*
X164402477Y-85051211D01*
X164402477Y-85051211D02*
X164309320Y-85071012D01*
X164309320Y-85071012D02*
X164159684Y-85054135D01*
X164159684Y-85054135D02*
X163481936Y-84614001D01*
X163481936Y-84614001D02*
X163610643Y-85219521D01*
X163709649Y-85685305D02*
X163749251Y-85871619D01*
X163749251Y-85871619D02*
X163815630Y-85954875D01*
X163815630Y-85954875D02*
X163872109Y-85991553D01*
X163872109Y-85991553D02*
X164031646Y-86055009D01*
X164031646Y-86055009D02*
X164227860Y-86061985D01*
X164227860Y-86061985D02*
X164600488Y-85982780D01*
X164600488Y-85982780D02*
X164683744Y-85916401D01*
X164683744Y-85916401D02*
X164720422Y-85859922D01*
X164720422Y-85859922D02*
X164747199Y-85756864D01*
X164747199Y-85756864D02*
X164707597Y-85570550D01*
X164707597Y-85570550D02*
X164641218Y-85487294D01*
X164641218Y-85487294D02*
X164584739Y-85450616D01*
X164584739Y-85450616D02*
X164481681Y-85423839D01*
X164481681Y-85423839D02*
X164248789Y-85473342D01*
X164248789Y-85473342D02*
X164165533Y-85539721D01*
X164165533Y-85539721D02*
X164128855Y-85596200D01*
X164128855Y-85596200D02*
X164102077Y-85699258D01*
X164102077Y-85699258D02*
X164141680Y-85885572D01*
X164141680Y-85885572D02*
X164208059Y-85968828D01*
X164208059Y-85968828D02*
X164264538Y-86005506D01*
X164264538Y-86005506D02*
X164367596Y-86032283D01*
X197579923Y-161726627D02*
X197838742Y-160760701D01*
X197838742Y-160760701D02*
X198068724Y-160822324D01*
X198068724Y-160822324D02*
X198194389Y-160905295D01*
X198194389Y-160905295D02*
X198261732Y-161021937D01*
X198261732Y-161021937D02*
X198283079Y-161126255D01*
X198283079Y-161126255D02*
X198279777Y-161322566D01*
X198279777Y-161322566D02*
X198242803Y-161460555D01*
X198242803Y-161460555D02*
X198147507Y-161632216D01*
X198147507Y-161632216D02*
X198076862Y-161711884D01*
X198076862Y-161711884D02*
X197960219Y-161779228D01*
X197960219Y-161779228D02*
X197809905Y-161788250D01*
X197809905Y-161788250D02*
X197579923Y-161726627D01*
X199051810Y-162121018D02*
X198499852Y-161973121D01*
X198775831Y-162047069D02*
X199034650Y-161081143D01*
X199034650Y-161081143D02*
X198905683Y-161194483D01*
X198905683Y-161194483D02*
X198789040Y-161261827D01*
X198789040Y-161261827D02*
X198684723Y-161283174D01*
X200184562Y-161389261D02*
X199724597Y-161266014D01*
X199724597Y-161266014D02*
X199555353Y-161713654D01*
X199555353Y-161713654D02*
X199613675Y-161679982D01*
X199613675Y-161679982D02*
X199717992Y-161658635D01*
X199717992Y-161658635D02*
X199947975Y-161720259D01*
X199947975Y-161720259D02*
X200027643Y-161790905D01*
X200027643Y-161790905D02*
X200061314Y-161849226D01*
X200061314Y-161849226D02*
X200082662Y-161953544D01*
X200082662Y-161953544D02*
X200021038Y-162183526D01*
X200021038Y-162183526D02*
X199950392Y-162263194D01*
X199950392Y-162263194D02*
X199892071Y-162296866D01*
X199892071Y-162296866D02*
X199787753Y-162318213D01*
X199787753Y-162318213D02*
X199557771Y-162256590D01*
X199557771Y-162256590D02*
X199478103Y-162185944D01*
X199478103Y-162185944D02*
X199444431Y-162127622D01*
X155122311Y-96583189D02*
X156055892Y-96224821D01*
X156055892Y-96224821D02*
X156141217Y-96447102D01*
X156141217Y-96447102D02*
X156147957Y-96597536D01*
X156147957Y-96597536D02*
X156093174Y-96720578D01*
X156093174Y-96720578D02*
X156021327Y-96799165D01*
X156021327Y-96799165D02*
X155860567Y-96911881D01*
X155860567Y-96911881D02*
X155727199Y-96963077D01*
X155727199Y-96963077D02*
X155532309Y-96986881D01*
X155532309Y-96986881D02*
X155426331Y-96976555D01*
X155426331Y-96976555D02*
X155303289Y-96921773D01*
X155303289Y-96921773D02*
X155207637Y-96805470D01*
X155207637Y-96805470D02*
X155122311Y-96583189D01*
X156308282Y-97148075D02*
X156369803Y-97175466D01*
X156369803Y-97175466D02*
X156448390Y-97247314D01*
X156448390Y-97247314D02*
X156533716Y-97469595D01*
X156533716Y-97469595D02*
X156523390Y-97575572D01*
X156523390Y-97575572D02*
X156495999Y-97637094D01*
X156495999Y-97637094D02*
X156424151Y-97715680D01*
X156424151Y-97715680D02*
X156335239Y-97749810D01*
X156335239Y-97749810D02*
X156184805Y-97756549D01*
X156184805Y-97756549D02*
X155446549Y-97427857D01*
X155446549Y-97427857D02*
X155668396Y-98005787D01*
X156721432Y-97958613D02*
X156960344Y-98581000D01*
X156960344Y-98581000D02*
X155873177Y-98539262D01*
X169297260Y-151792676D02*
X169841899Y-150954006D01*
X169841899Y-150954006D02*
X170041582Y-151083682D01*
X170041582Y-151083682D02*
X170135457Y-151201424D01*
X170135457Y-151201424D02*
X170163460Y-151333168D01*
X170163460Y-151333168D02*
X170151526Y-151438976D01*
X170151526Y-151438976D02*
X170087722Y-151624658D01*
X170087722Y-151624658D02*
X170009917Y-151744468D01*
X170009917Y-151744468D02*
X169866239Y-151878280D01*
X169866239Y-151878280D02*
X169774432Y-151932218D01*
X169774432Y-151932218D02*
X169642688Y-151960221D01*
X169642688Y-151960221D02*
X169496943Y-151922352D01*
X169496943Y-151922352D02*
X169297260Y-151792676D01*
X170575234Y-152622603D02*
X170095993Y-152311380D01*
X170335614Y-152466991D02*
X170880253Y-151628321D01*
X170880253Y-151628321D02*
X170722574Y-151696261D01*
X170722574Y-151696261D02*
X170590830Y-151724264D01*
X170590830Y-151724264D02*
X170485021Y-151712330D01*
X170974601Y-152881955D02*
X171134348Y-152985695D01*
X171134348Y-152985695D02*
X171240156Y-152997629D01*
X171240156Y-152997629D02*
X171306028Y-152983627D01*
X171306028Y-152983627D02*
X171463707Y-152915688D01*
X171463707Y-152915688D02*
X171607384Y-152781876D01*
X171607384Y-152781876D02*
X171814866Y-152462383D01*
X171814866Y-152462383D02*
X171826800Y-152356574D01*
X171826800Y-152356574D02*
X171812798Y-152290702D01*
X171812798Y-152290702D02*
X171758860Y-152198895D01*
X171758860Y-152198895D02*
X171599113Y-152095154D01*
X171599113Y-152095154D02*
X171493305Y-152083221D01*
X171493305Y-152083221D02*
X171427433Y-152097222D01*
X171427433Y-152097222D02*
X171335626Y-152151160D01*
X171335626Y-152151160D02*
X171205950Y-152350844D01*
X171205950Y-152350844D02*
X171194016Y-152456652D01*
X171194016Y-152456652D02*
X171208017Y-152522524D01*
X171208017Y-152522524D02*
X171261956Y-152614331D01*
X171261956Y-152614331D02*
X171421702Y-152718072D01*
X171421702Y-152718072D02*
X171527511Y-152730006D01*
X171527511Y-152730006D02*
X171593383Y-152716004D01*
X171593383Y-152716004D02*
X171685190Y-152662066D01*
X239545160Y-99391269D02*
X239320209Y-98416899D01*
X239320209Y-98416899D02*
X239552202Y-98363340D01*
X239552202Y-98363340D02*
X239702109Y-98377602D01*
X239702109Y-98377602D02*
X239816330Y-98448976D01*
X239816330Y-98448976D02*
X239884153Y-98531061D01*
X239884153Y-98531061D02*
X239973399Y-98705943D01*
X239973399Y-98705943D02*
X240005535Y-98845139D01*
X240005535Y-98845139D02*
X240001984Y-99041445D01*
X240001984Y-99041445D02*
X239977010Y-99144954D01*
X239977010Y-99144954D02*
X239905636Y-99259175D01*
X239905636Y-99259175D02*
X239777153Y-99337710D01*
X239777153Y-99337710D02*
X239545160Y-99391269D01*
X240787150Y-98420331D02*
X240937117Y-99069911D01*
X240469461Y-98102702D02*
X240398148Y-98852240D01*
X240398148Y-98852240D02*
X241001329Y-98712985D01*
X241957886Y-98834248D02*
X241401103Y-98962791D01*
X241679494Y-98898519D02*
X241454543Y-97924149D01*
X241454543Y-97924149D02*
X241393882Y-98084769D01*
X241393882Y-98084769D02*
X241322509Y-98198990D01*
X241322509Y-98198990D02*
X241240424Y-98266813D01*
X225682398Y-97461921D02*
X226581192Y-97023550D01*
X226581192Y-97023550D02*
X226685566Y-97237549D01*
X226685566Y-97237549D02*
X226705391Y-97386823D01*
X226705391Y-97386823D02*
X226661541Y-97514172D01*
X226661541Y-97514172D02*
X226596816Y-97598721D01*
X226596816Y-97598721D02*
X226446492Y-97725020D01*
X226446492Y-97725020D02*
X226318093Y-97787644D01*
X226318093Y-97787644D02*
X226126020Y-97828344D01*
X226126020Y-97828344D02*
X226019545Y-97827294D01*
X226019545Y-97827294D02*
X225892196Y-97783444D01*
X225892196Y-97783444D02*
X225786772Y-97675920D01*
X225786772Y-97675920D02*
X225682398Y-97461921D01*
X227228311Y-98350341D02*
X227019563Y-97922344D01*
X227019563Y-97922344D02*
X226570691Y-98088293D01*
X226570691Y-98088293D02*
X226634366Y-98110217D01*
X226634366Y-98110217D02*
X226718915Y-98174942D01*
X226718915Y-98174942D02*
X226823289Y-98388941D01*
X226823289Y-98388941D02*
X226822239Y-98495415D01*
X226822239Y-98495415D02*
X226800314Y-98559089D01*
X226800314Y-98559089D02*
X226735590Y-98643639D01*
X226735590Y-98643639D02*
X226521591Y-98748013D01*
X226521591Y-98748013D02*
X226415117Y-98746963D01*
X226415117Y-98746963D02*
X226351442Y-98725038D01*
X226351442Y-98725038D02*
X226266893Y-98660313D01*
X226266893Y-98660313D02*
X226162519Y-98446315D01*
X226162519Y-98446315D02*
X226163569Y-98339840D01*
X226163569Y-98339840D02*
X226185494Y-98276166D01*
X227114487Y-99094611D02*
X227115537Y-98988137D01*
X227115537Y-98988137D02*
X227137462Y-98924462D01*
X227137462Y-98924462D02*
X227202186Y-98839913D01*
X227202186Y-98839913D02*
X227244986Y-98819038D01*
X227244986Y-98819038D02*
X227351460Y-98820088D01*
X227351460Y-98820088D02*
X227415135Y-98842013D01*
X227415135Y-98842013D02*
X227499684Y-98906738D01*
X227499684Y-98906738D02*
X227583183Y-99077937D01*
X227583183Y-99077937D02*
X227582133Y-99184411D01*
X227582133Y-99184411D02*
X227560208Y-99248085D01*
X227560208Y-99248085D02*
X227495484Y-99332635D01*
X227495484Y-99332635D02*
X227452684Y-99353509D01*
X227452684Y-99353509D02*
X227346210Y-99352459D01*
X227346210Y-99352459D02*
X227282535Y-99330534D01*
X227282535Y-99330534D02*
X227197986Y-99265810D01*
X227197986Y-99265810D02*
X227114487Y-99094611D01*
X227114487Y-99094611D02*
X227029937Y-99029886D01*
X227029937Y-99029886D02*
X226966263Y-99007961D01*
X226966263Y-99007961D02*
X226859788Y-99006911D01*
X226859788Y-99006911D02*
X226688590Y-99090411D01*
X226688590Y-99090411D02*
X226623865Y-99174960D01*
X226623865Y-99174960D02*
X226601940Y-99238635D01*
X226601940Y-99238635D02*
X226600890Y-99345109D01*
X226600890Y-99345109D02*
X226684389Y-99516308D01*
X226684389Y-99516308D02*
X226768939Y-99581032D01*
X226768939Y-99581032D02*
X226832613Y-99602957D01*
X226832613Y-99602957D02*
X226939087Y-99604007D01*
X226939087Y-99604007D02*
X227110286Y-99520508D01*
X227110286Y-99520508D02*
X227175011Y-99435959D01*
X227175011Y-99435959D02*
X227196936Y-99372284D01*
X227196936Y-99372284D02*
X227197986Y-99265810D01*
X197377103Y-70776787D02*
X196395475Y-70585978D01*
X196395475Y-70585978D02*
X196440906Y-70352257D01*
X196440906Y-70352257D02*
X196514909Y-70221111D01*
X196514909Y-70221111D02*
X196626569Y-70145795D01*
X196626569Y-70145795D02*
X196729144Y-70117223D01*
X196729144Y-70117223D02*
X196925206Y-70106823D01*
X196925206Y-70106823D02*
X197065439Y-70134082D01*
X197065439Y-70134082D02*
X197243329Y-70217171D01*
X197243329Y-70217171D02*
X197327732Y-70282087D01*
X197327732Y-70282087D02*
X197403048Y-70393748D01*
X197403048Y-70393748D02*
X197422533Y-70543066D01*
X197422533Y-70543066D02*
X197377103Y-70776787D01*
X196568112Y-69697839D02*
X196686232Y-69090165D01*
X196686232Y-69090165D02*
X196996582Y-69490063D01*
X196996582Y-69490063D02*
X197023841Y-69349831D01*
X197023841Y-69349831D02*
X197088757Y-69265429D01*
X197088757Y-69265429D02*
X197144587Y-69227771D01*
X197144587Y-69227771D02*
X197247162Y-69199199D01*
X197247162Y-69199199D02*
X197480883Y-69244630D01*
X197480883Y-69244630D02*
X197565285Y-69309546D01*
X197565285Y-69309546D02*
X197602943Y-69365376D01*
X197602943Y-69365376D02*
X197631515Y-69467951D01*
X197631515Y-69467951D02*
X197576998Y-69748416D01*
X197576998Y-69748416D02*
X197512081Y-69832818D01*
X197512081Y-69832818D02*
X197456251Y-69870476D01*
X197176992Y-68312373D02*
X197831410Y-68439579D01*
X196757608Y-68473405D02*
X197413339Y-68843418D01*
X197413339Y-68843418D02*
X197531459Y-68235744D01*
X219472363Y-156434256D02*
X219507263Y-155434865D01*
X219507263Y-155434865D02*
X219745213Y-155443174D01*
X219745213Y-155443174D02*
X219886321Y-155495750D01*
X219886321Y-155495750D02*
X219978178Y-155594254D01*
X219978178Y-155594254D02*
X220022444Y-155691096D01*
X220022444Y-155691096D02*
X220063387Y-155883118D01*
X220063387Y-155883118D02*
X220058401Y-156025888D01*
X220058401Y-156025888D02*
X220004163Y-156214586D01*
X220004163Y-156214586D02*
X219953250Y-156308104D01*
X219953250Y-156308104D02*
X219854746Y-156399961D01*
X219854746Y-156399961D02*
X219710314Y-156442565D01*
X219710314Y-156442565D02*
X219472363Y-156434256D01*
X220995245Y-156487436D02*
X220424164Y-156467493D01*
X220709705Y-156477464D02*
X220744604Y-155478074D01*
X220744604Y-155478074D02*
X220644438Y-155617520D01*
X220644438Y-155617520D02*
X220545934Y-155709376D01*
X220545934Y-155709376D02*
X220449092Y-155753643D01*
X221407541Y-155596520D02*
X221456793Y-155550592D01*
X221456793Y-155550592D02*
X221553635Y-155506326D01*
X221553635Y-155506326D02*
X221791585Y-155514635D01*
X221791585Y-155514635D02*
X221885103Y-155565549D01*
X221885103Y-155565549D02*
X221931031Y-155614801D01*
X221931031Y-155614801D02*
X221975298Y-155711643D01*
X221975298Y-155711643D02*
X221971974Y-155806823D01*
X221971974Y-155806823D02*
X221919398Y-155947931D01*
X221919398Y-155947931D02*
X221328375Y-156499069D01*
X221328375Y-156499069D02*
X221947046Y-156520673D01*
X186368301Y-80708478D02*
X187329563Y-80432841D01*
X187329563Y-80432841D02*
X187395190Y-80661713D01*
X187395190Y-80661713D02*
X187388793Y-80812161D01*
X187388793Y-80812161D02*
X187323495Y-80929961D01*
X187323495Y-80929961D02*
X187245072Y-81001987D01*
X187245072Y-81001987D02*
X187075100Y-81100264D01*
X187075100Y-81100264D02*
X186937777Y-81139640D01*
X186937777Y-81139640D02*
X186741554Y-81146368D01*
X186741554Y-81146368D02*
X186636880Y-81126845D01*
X186636880Y-81126845D02*
X186519080Y-81061548D01*
X186519080Y-81061548D02*
X186433929Y-80937350D01*
X186433929Y-80937350D02*
X186368301Y-80708478D01*
X187736456Y-81851846D02*
X187605200Y-81394103D01*
X187605200Y-81394103D02*
X187134331Y-81479584D01*
X187134331Y-81479584D02*
X187193231Y-81512233D01*
X187193231Y-81512233D02*
X187265256Y-81590656D01*
X187265256Y-81590656D02*
X187330884Y-81819528D01*
X187330884Y-81819528D02*
X187311361Y-81924202D01*
X187311361Y-81924202D02*
X187278712Y-81983102D01*
X187278712Y-81983102D02*
X187200289Y-82055128D01*
X187200289Y-82055128D02*
X186971417Y-82120756D01*
X186971417Y-82120756D02*
X186866743Y-82101232D01*
X186866743Y-82101232D02*
X186807843Y-82068584D01*
X186807843Y-82068584D02*
X186735817Y-81990160D01*
X186735817Y-81990160D02*
X186670189Y-81761289D01*
X186670189Y-81761289D02*
X186689713Y-81656614D01*
X186689713Y-81656614D02*
X186722361Y-81597714D01*
X187841461Y-82218041D02*
X188012093Y-82813108D01*
X188012093Y-82813108D02*
X187554019Y-82597692D01*
X187554019Y-82597692D02*
X187593396Y-82735015D01*
X187593396Y-82735015D02*
X187573873Y-82839690D01*
X187573873Y-82839690D02*
X187541224Y-82898589D01*
X187541224Y-82898589D02*
X187462801Y-82970615D01*
X187462801Y-82970615D02*
X187233929Y-83036243D01*
X187233929Y-83036243D02*
X187129255Y-83016720D01*
X187129255Y-83016720D02*
X187070355Y-82984071D01*
X187070355Y-82984071D02*
X186998329Y-82905648D01*
X186998329Y-82905648D02*
X186919576Y-82631002D01*
X186919576Y-82631002D02*
X186939099Y-82526327D01*
X186939099Y-82526327D02*
X186971748Y-82467427D01*
X158687300Y-89796379D02*
X159648562Y-89520742D01*
X159648562Y-89520742D02*
X159714189Y-89749614D01*
X159714189Y-89749614D02*
X159707792Y-89900062D01*
X159707792Y-89900062D02*
X159642494Y-90017862D01*
X159642494Y-90017862D02*
X159564071Y-90089888D01*
X159564071Y-90089888D02*
X159394099Y-90188165D01*
X159394099Y-90188165D02*
X159256776Y-90227541D01*
X159256776Y-90227541D02*
X159060553Y-90234269D01*
X159060553Y-90234269D02*
X158955879Y-90214746D01*
X158955879Y-90214746D02*
X158838079Y-90149449D01*
X158838079Y-90149449D02*
X158752928Y-90025251D01*
X158752928Y-90025251D02*
X158687300Y-89796379D01*
X159819525Y-90462480D02*
X159878425Y-90495129D01*
X159878425Y-90495129D02*
X159950450Y-90573552D01*
X159950450Y-90573552D02*
X160016078Y-90802424D01*
X160016078Y-90802424D02*
X159996555Y-90907098D01*
X159996555Y-90907098D02*
X159963906Y-90965998D01*
X159963906Y-90965998D02*
X159885483Y-91038024D01*
X159885483Y-91038024D02*
X159793934Y-91064275D01*
X159793934Y-91064275D02*
X159643485Y-91057878D01*
X159643485Y-91057878D02*
X158936686Y-90666092D01*
X158936686Y-90666092D02*
X159107319Y-91261159D01*
X159814118Y-91652944D02*
X159833641Y-91548270D01*
X159833641Y-91548270D02*
X159866290Y-91489370D01*
X159866290Y-91489370D02*
X159944713Y-91417345D01*
X159944713Y-91417345D02*
X159990488Y-91404219D01*
X159990488Y-91404219D02*
X160095162Y-91423742D01*
X160095162Y-91423742D02*
X160154062Y-91456391D01*
X160154062Y-91456391D02*
X160226087Y-91534814D01*
X160226087Y-91534814D02*
X160278590Y-91717912D01*
X160278590Y-91717912D02*
X160259067Y-91822586D01*
X160259067Y-91822586D02*
X160226418Y-91881486D01*
X160226418Y-91881486D02*
X160147995Y-91953511D01*
X160147995Y-91953511D02*
X160102220Y-91966637D01*
X160102220Y-91966637D02*
X159997546Y-91947114D01*
X159997546Y-91947114D02*
X159938646Y-91914465D01*
X159938646Y-91914465D02*
X159866621Y-91836042D01*
X159866621Y-91836042D02*
X159814118Y-91652944D01*
X159814118Y-91652944D02*
X159742093Y-91574521D01*
X159742093Y-91574521D02*
X159683193Y-91541872D01*
X159683193Y-91541872D02*
X159578518Y-91522349D01*
X159578518Y-91522349D02*
X159395421Y-91574852D01*
X159395421Y-91574852D02*
X159316998Y-91646877D01*
X159316998Y-91646877D02*
X159284349Y-91705777D01*
X159284349Y-91705777D02*
X159264826Y-91810451D01*
X159264826Y-91810451D02*
X159317328Y-91993549D01*
X159317328Y-91993549D02*
X159389354Y-92071972D01*
X159389354Y-92071972D02*
X159448254Y-92104621D01*
X159448254Y-92104621D02*
X159552928Y-92124144D01*
X159552928Y-92124144D02*
X159736025Y-92071642D01*
X159736025Y-92071642D02*
X159814449Y-91999616D01*
X159814449Y-91999616D02*
X159847097Y-91940716D01*
X159847097Y-91940716D02*
X159866621Y-91836042D01*
X188795521Y-151440400D02*
X188357150Y-150541606D01*
X188357150Y-150541606D02*
X188571149Y-150437232D01*
X188571149Y-150437232D02*
X188720423Y-150417407D01*
X188720423Y-150417407D02*
X188847772Y-150461257D01*
X188847772Y-150461257D02*
X188932321Y-150525982D01*
X188932321Y-150525982D02*
X189058620Y-150676306D01*
X189058620Y-150676306D02*
X189121244Y-150804705D01*
X189121244Y-150804705D02*
X189161944Y-150996778D01*
X189161944Y-150996778D02*
X189160894Y-151103253D01*
X189160894Y-151103253D02*
X189117044Y-151230602D01*
X189117044Y-151230602D02*
X189009520Y-151336026D01*
X189009520Y-151336026D02*
X188795521Y-151440400D01*
X189787265Y-150214959D02*
X190079513Y-150814155D01*
X189406268Y-149976936D02*
X189505392Y-150723306D01*
X189505392Y-150723306D02*
X190061788Y-150451933D01*
X190026339Y-149727488D02*
X190582735Y-149456115D01*
X190582735Y-149456115D02*
X190450136Y-149944637D01*
X190450136Y-149944637D02*
X190578535Y-149882012D01*
X190578535Y-149882012D02*
X190685009Y-149883063D01*
X190685009Y-149883063D02*
X190748684Y-149904987D01*
X190748684Y-149904987D02*
X190833233Y-149969712D01*
X190833233Y-149969712D02*
X190937607Y-150183711D01*
X190937607Y-150183711D02*
X190936557Y-150290185D01*
X190936557Y-150290185D02*
X190914632Y-150353859D01*
X190914632Y-150353859D02*
X190849908Y-150438409D01*
X190849908Y-150438409D02*
X190593109Y-150563658D01*
X190593109Y-150563658D02*
X190486635Y-150562608D01*
X190486635Y-150562608D02*
X190422961Y-150540683D01*
X151555168Y-119032675D02*
X152384206Y-118473482D01*
X152384206Y-118473482D02*
X152517347Y-118670872D01*
X152517347Y-118670872D02*
X152557754Y-118815934D01*
X152557754Y-118815934D02*
X152532054Y-118948146D01*
X152532054Y-118948146D02*
X152479727Y-119040881D01*
X152479727Y-119040881D02*
X152348443Y-119186872D01*
X152348443Y-119186872D02*
X152230009Y-119266756D01*
X152230009Y-119266756D02*
X152045469Y-119333791D01*
X152045469Y-119333791D02*
X151939885Y-119347570D01*
X151939885Y-119347570D02*
X151807672Y-119321870D01*
X151807672Y-119321870D02*
X151688310Y-119230064D01*
X151688310Y-119230064D02*
X151555168Y-119032675D01*
X152837815Y-119316298D02*
X152903921Y-119329147D01*
X152903921Y-119329147D02*
X152996655Y-119381475D01*
X152996655Y-119381475D02*
X153129797Y-119578865D01*
X153129797Y-119578865D02*
X153143575Y-119684449D01*
X153143575Y-119684449D02*
X153130725Y-119750555D01*
X153130725Y-119750555D02*
X153078398Y-119843290D01*
X153078398Y-119843290D02*
X152999442Y-119896546D01*
X152999442Y-119896546D02*
X152854379Y-119936953D01*
X152854379Y-119936953D02*
X152061105Y-119782756D01*
X152061105Y-119782756D02*
X152407272Y-120295970D01*
X153439272Y-120633778D02*
X152886580Y-121006574D01*
X153621955Y-120223363D02*
X152896644Y-120425396D01*
X152896644Y-120425396D02*
X153242811Y-120938610D01*
X179908178Y-147888397D02*
X179632541Y-146927135D01*
X179632541Y-146927135D02*
X179861413Y-146861508D01*
X179861413Y-146861508D02*
X180011861Y-146867905D01*
X180011861Y-146867905D02*
X180129661Y-146933203D01*
X180129661Y-146933203D02*
X180201687Y-147011626D01*
X180201687Y-147011626D02*
X180299964Y-147181598D01*
X180299964Y-147181598D02*
X180339340Y-147318921D01*
X180339340Y-147318921D02*
X180346068Y-147515144D01*
X180346068Y-147515144D02*
X180326545Y-147619818D01*
X180326545Y-147619818D02*
X180261248Y-147737618D01*
X180261248Y-147737618D02*
X180137050Y-147822769D01*
X180137050Y-147822769D02*
X179908178Y-147888397D01*
X181097651Y-146853788D02*
X181281409Y-147494629D01*
X180763774Y-146553221D02*
X180731786Y-147305465D01*
X180731786Y-147305465D02*
X181326853Y-147134832D01*
X182013138Y-146591277D02*
X182196897Y-147232118D01*
X181679262Y-146290710D02*
X181647274Y-147042953D01*
X181647274Y-147042953D02*
X182242341Y-146872320D01*
X213637594Y-145610289D02*
X212808556Y-145051096D01*
X212808556Y-145051096D02*
X212941697Y-144853706D01*
X212941697Y-144853706D02*
X213061060Y-144761900D01*
X213061060Y-144761900D02*
X213193272Y-144736201D01*
X213193272Y-144736201D02*
X213298856Y-144749979D01*
X213298856Y-144749979D02*
X213483397Y-144817014D01*
X213483397Y-144817014D02*
X213601831Y-144896899D01*
X213601831Y-144896899D02*
X213733114Y-145042890D01*
X213733114Y-145042890D02*
X213785442Y-145135624D01*
X213785442Y-145135624D02*
X213811141Y-145267837D01*
X213811141Y-145267837D02*
X213770735Y-145412899D01*
X213770735Y-145412899D02*
X213637594Y-145610289D01*
X213607403Y-143866756D02*
X213500890Y-144024668D01*
X213500890Y-144024668D02*
X213487112Y-144130252D01*
X213487112Y-144130252D02*
X213499961Y-144196359D01*
X213499961Y-144196359D02*
X213565139Y-144355199D01*
X213565139Y-144355199D02*
X213696423Y-144501190D01*
X213696423Y-144501190D02*
X214012246Y-144714216D01*
X214012246Y-144714216D02*
X214117831Y-144727995D01*
X214117831Y-144727995D02*
X214183937Y-144715145D01*
X214183937Y-144715145D02*
X214276671Y-144662817D01*
X214276671Y-144662817D02*
X214383184Y-144504905D01*
X214383184Y-144504905D02*
X214396963Y-144399321D01*
X214396963Y-144399321D02*
X214384113Y-144333215D01*
X214384113Y-144333215D02*
X214331785Y-144240480D01*
X214331785Y-144240480D02*
X214134395Y-144107339D01*
X214134395Y-144107339D02*
X214028811Y-144093561D01*
X214028811Y-144093561D02*
X213962705Y-144106410D01*
X213962705Y-144106410D02*
X213869970Y-144158738D01*
X213869970Y-144158738D02*
X213763457Y-144316650D01*
X213763457Y-144316650D02*
X213749679Y-144422234D01*
X213749679Y-144422234D02*
X213762529Y-144488340D01*
X213762529Y-144488340D02*
X213814856Y-144581075D01*
X214416314Y-143263594D02*
X214969005Y-143636390D01*
X213967349Y-143247958D02*
X214426377Y-143844772D01*
X214426377Y-143844772D02*
X214772544Y-143331558D01*
X236192965Y-92867043D02*
X235900594Y-91910738D01*
X235900594Y-91910738D02*
X236128285Y-91841126D01*
X236128285Y-91841126D02*
X236278823Y-91844897D01*
X236278823Y-91844897D02*
X236397744Y-91908129D01*
X236397744Y-91908129D02*
X236471128Y-91985283D01*
X236471128Y-91985283D02*
X236572356Y-92153514D01*
X236572356Y-92153514D02*
X236614123Y-92290128D01*
X236614123Y-92290128D02*
X236624275Y-92486204D01*
X236624275Y-92486204D02*
X236606581Y-92591203D01*
X236606581Y-92591203D02*
X236543350Y-92710125D01*
X236543350Y-92710125D02*
X236420657Y-92797431D01*
X236420657Y-92797431D02*
X236192965Y-92867043D01*
X237364201Y-91811833D02*
X237559115Y-92449369D01*
X237025129Y-91517138D02*
X237006275Y-92269825D01*
X237006275Y-92269825D02*
X237598273Y-92088833D01*
X237949818Y-91284227D02*
X238040895Y-91256382D01*
X238040895Y-91256382D02*
X238145894Y-91274076D01*
X238145894Y-91274076D02*
X238205355Y-91305692D01*
X238205355Y-91305692D02*
X238278738Y-91382846D01*
X238278738Y-91382846D02*
X238379966Y-91551077D01*
X238379966Y-91551077D02*
X238449579Y-91778768D01*
X238449579Y-91778768D02*
X238459730Y-91974844D01*
X238459730Y-91974844D02*
X238442037Y-92079843D01*
X238442037Y-92079843D02*
X238410421Y-92139304D01*
X238410421Y-92139304D02*
X238333267Y-92212687D01*
X238333267Y-92212687D02*
X238242190Y-92240532D01*
X238242190Y-92240532D02*
X238137191Y-92222839D01*
X238137191Y-92222839D02*
X238077730Y-92191223D01*
X238077730Y-92191223D02*
X238004347Y-92114069D01*
X238004347Y-92114069D02*
X237903119Y-91945838D01*
X237903119Y-91945838D02*
X237833506Y-91718146D01*
X237833506Y-91718146D02*
X237823355Y-91522070D01*
X237823355Y-91522070D02*
X237841048Y-91417071D01*
X237841048Y-91417071D02*
X237872664Y-91357611D01*
X237872664Y-91357611D02*
X237949818Y-91284227D01*
X189990211Y-161013620D02*
X190332231Y-160073928D01*
X190332231Y-160073928D02*
X190555967Y-160155361D01*
X190555967Y-160155361D02*
X190673922Y-160248968D01*
X190673922Y-160248968D02*
X190730844Y-160371036D01*
X190730844Y-160371036D02*
X190743018Y-160476818D01*
X190743018Y-160476818D02*
X190722618Y-160672093D01*
X190722618Y-160672093D02*
X190673758Y-160806335D01*
X190673758Y-160806335D02*
X190563864Y-160969037D01*
X190563864Y-160969037D02*
X190486544Y-161042245D01*
X190486544Y-161042245D02*
X190364476Y-161099167D01*
X190364476Y-161099167D02*
X190213947Y-161095054D01*
X190213947Y-161095054D02*
X189990211Y-161013620D01*
X191422123Y-161534794D02*
X190885156Y-161339354D01*
X191153640Y-161437074D02*
X191495660Y-160497381D01*
X191495660Y-160497381D02*
X191357305Y-160599050D01*
X191357305Y-160599050D02*
X191235238Y-160655971D01*
X191235238Y-160655971D02*
X191129456Y-160668145D01*
X192569594Y-160888261D02*
X192390605Y-160823115D01*
X192390605Y-160823115D02*
X192284824Y-160835289D01*
X192284824Y-160835289D02*
X192223790Y-160863749D01*
X192223790Y-160863749D02*
X192085436Y-160965418D01*
X192085436Y-160965418D02*
X191975542Y-161128120D01*
X191975542Y-161128120D02*
X191845248Y-161486098D01*
X191845248Y-161486098D02*
X191857422Y-161591880D01*
X191857422Y-161591880D02*
X191885883Y-161652913D01*
X191885883Y-161652913D02*
X191959091Y-161730234D01*
X191959091Y-161730234D02*
X192138080Y-161795381D01*
X192138080Y-161795381D02*
X192243861Y-161783207D01*
X192243861Y-161783207D02*
X192304895Y-161754746D01*
X192304895Y-161754746D02*
X192382216Y-161681538D01*
X192382216Y-161681538D02*
X192463649Y-161457802D01*
X192463649Y-161457802D02*
X192451475Y-161352021D01*
X192451475Y-161352021D02*
X192423014Y-161290987D01*
X192423014Y-161290987D02*
X192349807Y-161213666D01*
X192349807Y-161213666D02*
X192170817Y-161148520D01*
X192170817Y-161148520D02*
X192065036Y-161160694D01*
X192065036Y-161160694D02*
X192004002Y-161189154D01*
X192004002Y-161189154D02*
X191926682Y-161262362D01*
X231852696Y-87007856D02*
X231478089Y-86080672D01*
X231478089Y-86080672D02*
X231698847Y-85991480D01*
X231698847Y-85991480D02*
X231849140Y-85982116D01*
X231849140Y-85982116D02*
X231973120Y-86034743D01*
X231973120Y-86034743D02*
X232052949Y-86105208D01*
X232052949Y-86105208D02*
X232168454Y-86263976D01*
X232168454Y-86263976D02*
X232221969Y-86396430D01*
X232221969Y-86396430D02*
X232249171Y-86590875D01*
X232249171Y-86590875D02*
X232240696Y-86697017D01*
X232240696Y-86697017D02*
X232188070Y-86820997D01*
X232188070Y-86820997D02*
X232073454Y-86918664D01*
X232073454Y-86918664D02*
X231852696Y-87007856D01*
X232316970Y-85741742D02*
X232890941Y-85509843D01*
X232890941Y-85509843D02*
X232724587Y-85987925D01*
X232724587Y-85987925D02*
X232857041Y-85934409D01*
X232857041Y-85934409D02*
X232963183Y-85942884D01*
X232963183Y-85942884D02*
X233025173Y-85969197D01*
X233025173Y-85969197D02*
X233105001Y-86039662D01*
X233105001Y-86039662D02*
X233194194Y-86260420D01*
X233194194Y-86260420D02*
X233185719Y-86366562D01*
X233185719Y-86366562D02*
X233159406Y-86428552D01*
X233159406Y-86428552D02*
X233088941Y-86508380D01*
X233088941Y-86508380D02*
X232824031Y-86615411D01*
X232824031Y-86615411D02*
X232717889Y-86606936D01*
X232717889Y-86606936D02*
X232655899Y-86580623D01*
X233707063Y-86258643D02*
X233883670Y-86187289D01*
X233883670Y-86187289D02*
X233954135Y-86107461D01*
X233954135Y-86107461D02*
X233980448Y-86045471D01*
X233980448Y-86045471D02*
X234015236Y-85877339D01*
X234015236Y-85877339D02*
X233988034Y-85682894D01*
X233988034Y-85682894D02*
X233845326Y-85329681D01*
X233845326Y-85329681D02*
X233765498Y-85259216D01*
X233765498Y-85259216D02*
X233703508Y-85232903D01*
X233703508Y-85232903D02*
X233597366Y-85224428D01*
X233597366Y-85224428D02*
X233420760Y-85295782D01*
X233420760Y-85295782D02*
X233350295Y-85375610D01*
X233350295Y-85375610D02*
X233323982Y-85437600D01*
X233323982Y-85437600D02*
X233315507Y-85543742D01*
X233315507Y-85543742D02*
X233404699Y-85764500D01*
X233404699Y-85764500D02*
X233484528Y-85834965D01*
X233484528Y-85834965D02*
X233546518Y-85861278D01*
X233546518Y-85861278D02*
X233652659Y-85869753D01*
X233652659Y-85869753D02*
X233829266Y-85798399D01*
X233829266Y-85798399D02*
X233899731Y-85718571D01*
X233899731Y-85718571D02*
X233926044Y-85656581D01*
X233926044Y-85656581D02*
X233934519Y-85550439D01*
X152850258Y-126600312D02*
X153627404Y-125970992D01*
X153627404Y-125970992D02*
X153777242Y-126156026D01*
X153777242Y-126156026D02*
X153830138Y-126297015D01*
X153830138Y-126297015D02*
X153816059Y-126430964D01*
X153816059Y-126430964D02*
X153772013Y-126527906D01*
X153772013Y-126527906D02*
X153653953Y-126684784D01*
X153653953Y-126684784D02*
X153542932Y-126774687D01*
X153542932Y-126774687D02*
X153364937Y-126857550D01*
X153364937Y-126857550D02*
X153260955Y-126880479D01*
X153260955Y-126880479D02*
X153127006Y-126866400D01*
X153127006Y-126866400D02*
X153000096Y-126785347D01*
X153000096Y-126785347D02*
X152850258Y-126600312D01*
X154152743Y-126771066D02*
X154219717Y-126778105D01*
X154219717Y-126778105D02*
X154316660Y-126822152D01*
X154316660Y-126822152D02*
X154466498Y-127007186D01*
X154466498Y-127007186D02*
X154489426Y-127111168D01*
X154489426Y-127111168D02*
X154482387Y-127178142D01*
X154482387Y-127178142D02*
X154438340Y-127275085D01*
X154438340Y-127275085D02*
X154364327Y-127335020D01*
X154364327Y-127335020D02*
X154223338Y-127387916D01*
X154223338Y-127387916D02*
X153419643Y-127303444D01*
X153419643Y-127303444D02*
X153809222Y-127784535D01*
X154796142Y-127414263D02*
X155185721Y-127895353D01*
X155185721Y-127895353D02*
X154679892Y-127876046D01*
X154679892Y-127876046D02*
X154769795Y-127987066D01*
X154769795Y-127987066D02*
X154792723Y-128091048D01*
X154792723Y-128091048D02*
X154785684Y-128158023D01*
X154785684Y-128158023D02*
X154741638Y-128254965D01*
X154741638Y-128254965D02*
X154556603Y-128404803D01*
X154556603Y-128404803D02*
X154452621Y-128427731D01*
X154452621Y-128427731D02*
X154385647Y-128420692D01*
X154385647Y-128420692D02*
X154288705Y-128376646D01*
X154288705Y-128376646D02*
X154108899Y-128154604D01*
X154108899Y-128154604D02*
X154085970Y-128050623D01*
X154085970Y-128050623D02*
X154093010Y-127983648D01*
X212994694Y-85538053D02*
X213689352Y-84818713D01*
X213689352Y-84818713D02*
X213860623Y-84984108D01*
X213860623Y-84984108D02*
X213930307Y-85117599D01*
X213930307Y-85117599D02*
X213932658Y-85252266D01*
X213932658Y-85252266D02*
X213900754Y-85353853D01*
X213900754Y-85353853D02*
X213802693Y-85523950D01*
X213802693Y-85523950D02*
X213703456Y-85626712D01*
X213703456Y-85626712D02*
X213536885Y-85730650D01*
X213536885Y-85730650D02*
X213436473Y-85766080D01*
X213436473Y-85766080D02*
X213301807Y-85768431D01*
X213301807Y-85768431D02*
X213165965Y-85703448D01*
X213165965Y-85703448D02*
X212994694Y-85538053D01*
X214751234Y-85844161D02*
X214408692Y-85513372D01*
X214408692Y-85513372D02*
X214043648Y-85822836D01*
X214043648Y-85822836D02*
X214110981Y-85821660D01*
X214110981Y-85821660D02*
X214212569Y-85853564D01*
X214212569Y-85853564D02*
X214383840Y-86018959D01*
X214383840Y-86018959D02*
X214419269Y-86119371D01*
X214419269Y-86119371D02*
X214420445Y-86186704D01*
X214420445Y-86186704D02*
X214388541Y-86288292D01*
X214388541Y-86288292D02*
X214223146Y-86459563D01*
X214223146Y-86459563D02*
X214122734Y-86494993D01*
X214122734Y-86494993D02*
X214055401Y-86496168D01*
X214055401Y-86496168D02*
X213953813Y-86464264D01*
X213953813Y-86464264D02*
X213782542Y-86298869D01*
X213782542Y-86298869D02*
X213747112Y-86198457D01*
X213747112Y-86198457D02*
X213745937Y-86131124D01*
X215402066Y-86472662D02*
X215265049Y-86340346D01*
X215265049Y-86340346D02*
X215163461Y-86308442D01*
X215163461Y-86308442D02*
X215096128Y-86309618D01*
X215096128Y-86309618D02*
X214928382Y-86346223D01*
X214928382Y-86346223D02*
X214761812Y-86450161D01*
X214761812Y-86450161D02*
X214497181Y-86724195D01*
X214497181Y-86724195D02*
X214465277Y-86825782D01*
X214465277Y-86825782D02*
X214466452Y-86893116D01*
X214466452Y-86893116D02*
X214501882Y-86993528D01*
X214501882Y-86993528D02*
X214638899Y-87125844D01*
X214638899Y-87125844D02*
X214740486Y-87157747D01*
X214740486Y-87157747D02*
X214807820Y-87156572D01*
X214807820Y-87156572D02*
X214908232Y-87121143D01*
X214908232Y-87121143D02*
X215073627Y-86949871D01*
X215073627Y-86949871D02*
X215105530Y-86848284D01*
X215105530Y-86848284D02*
X215104355Y-86780950D01*
X215104355Y-86780950D02*
X215068925Y-86680538D01*
X215068925Y-86680538D02*
X214931908Y-86548222D01*
X214931908Y-86548222D02*
X214830321Y-86516319D01*
X214830321Y-86516319D02*
X214762988Y-86517494D01*
X214762988Y-86517494D02*
X214662575Y-86552924D01*
X212524783Y-159399630D02*
X212629312Y-158405108D01*
X212629312Y-158405108D02*
X212866103Y-158429995D01*
X212866103Y-158429995D02*
X213003200Y-158492286D01*
X213003200Y-158492286D02*
X213087961Y-158596958D01*
X213087961Y-158596958D02*
X213125364Y-158696652D01*
X213125364Y-158696652D02*
X213152812Y-158891062D01*
X213152812Y-158891062D02*
X213137879Y-159033136D01*
X213137879Y-159033136D02*
X213070611Y-159217592D01*
X213070611Y-159217592D02*
X213013298Y-159307330D01*
X213013298Y-159307330D02*
X212908626Y-159392092D01*
X212908626Y-159392092D02*
X212761574Y-159424517D01*
X212761574Y-159424517D02*
X212524783Y-159399630D01*
X214040245Y-159558911D02*
X213471947Y-159499180D01*
X213756096Y-159529046D02*
X213860624Y-158534524D01*
X213860624Y-158534524D02*
X213750975Y-158666643D01*
X213750975Y-158666643D02*
X213646304Y-158751405D01*
X213646304Y-158751405D02*
X213546610Y-158788808D01*
X214476281Y-158599232D02*
X215091937Y-158663940D01*
X215091937Y-158663940D02*
X214720610Y-159007963D01*
X214720610Y-159007963D02*
X214862684Y-159022895D01*
X214862684Y-159022895D02*
X214952423Y-159080209D01*
X214952423Y-159080209D02*
X214994804Y-159132544D01*
X214994804Y-159132544D02*
X215032207Y-159232238D01*
X215032207Y-159232238D02*
X215007319Y-159469029D01*
X215007319Y-159469029D02*
X214950006Y-159558768D01*
X214950006Y-159558768D02*
X214897670Y-159601149D01*
X214897670Y-159601149D02*
X214797976Y-159638552D01*
X214797976Y-159638552D02*
X214513827Y-159608687D01*
X214513827Y-159608687D02*
X214424088Y-159551373D01*
X214424088Y-159551373D02*
X214381708Y-159499037D01*
X175921905Y-97694819D02*
X175921905Y-96694819D01*
X175921905Y-96694819D02*
X176160000Y-96694819D01*
X176160000Y-96694819D02*
X176302857Y-96742438D01*
X176302857Y-96742438D02*
X176398095Y-96837676D01*
X176398095Y-96837676D02*
X176445714Y-96932914D01*
X176445714Y-96932914D02*
X176493333Y-97123390D01*
X176493333Y-97123390D02*
X176493333Y-97266247D01*
X176493333Y-97266247D02*
X176445714Y-97456723D01*
X176445714Y-97456723D02*
X176398095Y-97551961D01*
X176398095Y-97551961D02*
X176302857Y-97647200D01*
X176302857Y-97647200D02*
X176160000Y-97694819D01*
X176160000Y-97694819D02*
X175921905Y-97694819D01*
X177445714Y-97694819D02*
X176874286Y-97694819D01*
X177160000Y-97694819D02*
X177160000Y-96694819D01*
X177160000Y-96694819D02*
X177064762Y-96837676D01*
X177064762Y-96837676D02*
X176969524Y-96932914D01*
X176969524Y-96932914D02*
X176874286Y-96980533D01*
X165183794Y-98348953D02*
X165878452Y-97629613D01*
X165878452Y-97629613D02*
X166049723Y-97795008D01*
X166049723Y-97795008D02*
X166119407Y-97928499D01*
X166119407Y-97928499D02*
X166121758Y-98063166D01*
X166121758Y-98063166D02*
X166089854Y-98164753D01*
X166089854Y-98164753D02*
X165991793Y-98334850D01*
X165991793Y-98334850D02*
X165892556Y-98437612D01*
X165892556Y-98437612D02*
X165725985Y-98541550D01*
X165725985Y-98541550D02*
X165625573Y-98576980D01*
X165625573Y-98576980D02*
X165490907Y-98579331D01*
X165490907Y-98579331D02*
X165355065Y-98514348D01*
X165355065Y-98514348D02*
X165183794Y-98348953D01*
X166940334Y-98655061D02*
X166597792Y-98324272D01*
X166597792Y-98324272D02*
X166232748Y-98633736D01*
X166232748Y-98633736D02*
X166300081Y-98632560D01*
X166300081Y-98632560D02*
X166401669Y-98664464D01*
X166401669Y-98664464D02*
X166572940Y-98829859D01*
X166572940Y-98829859D02*
X166608369Y-98930271D01*
X166608369Y-98930271D02*
X166609545Y-98997604D01*
X166609545Y-98997604D02*
X166577641Y-99099192D01*
X166577641Y-99099192D02*
X166412246Y-99270463D01*
X166412246Y-99270463D02*
X166311834Y-99305893D01*
X166311834Y-99305893D02*
X166244501Y-99307068D01*
X166244501Y-99307068D02*
X166142913Y-99275164D01*
X166142913Y-99275164D02*
X165971642Y-99109769D01*
X165971642Y-99109769D02*
X165936212Y-99009357D01*
X165936212Y-99009357D02*
X165935037Y-98942024D01*
X167419894Y-99118167D02*
X167488403Y-99184325D01*
X167488403Y-99184325D02*
X167523833Y-99284737D01*
X167523833Y-99284737D02*
X167525008Y-99352070D01*
X167525008Y-99352070D02*
X167493104Y-99453658D01*
X167493104Y-99453658D02*
X167395043Y-99623754D01*
X167395043Y-99623754D02*
X167229648Y-99795025D01*
X167229648Y-99795025D02*
X167063078Y-99898964D01*
X167063078Y-99898964D02*
X166962665Y-99934393D01*
X166962665Y-99934393D02*
X166895332Y-99935568D01*
X166895332Y-99935568D02*
X166793745Y-99903665D01*
X166793745Y-99903665D02*
X166725236Y-99837507D01*
X166725236Y-99837507D02*
X166689806Y-99737095D01*
X166689806Y-99737095D02*
X166688631Y-99669761D01*
X166688631Y-99669761D02*
X166720535Y-99568174D01*
X166720535Y-99568174D02*
X166818596Y-99398078D01*
X166818596Y-99398078D02*
X166983991Y-99226806D01*
X166983991Y-99226806D02*
X167150561Y-99122868D01*
X167150561Y-99122868D02*
X167250974Y-99087439D01*
X167250974Y-99087439D02*
X167318307Y-99086263D01*
X167318307Y-99086263D02*
X167419894Y-99118167D01*
X182891571Y-73462902D02*
X181892180Y-73428002D01*
X181892180Y-73428002D02*
X181900489Y-73190052D01*
X181900489Y-73190052D02*
X181953065Y-73048944D01*
X181953065Y-73048944D02*
X182051569Y-72957087D01*
X182051569Y-72957087D02*
X182148411Y-72912821D01*
X182148411Y-72912821D02*
X182340433Y-72871878D01*
X182340433Y-72871878D02*
X182483203Y-72876864D01*
X182483203Y-72876864D02*
X182671901Y-72931102D01*
X182671901Y-72931102D02*
X182765419Y-72982015D01*
X182765419Y-72982015D02*
X182857276Y-73080519D01*
X182857276Y-73080519D02*
X182899880Y-73224951D01*
X182899880Y-73224951D02*
X182891571Y-73462902D01*
X181923755Y-72523791D02*
X181945360Y-71905121D01*
X181945360Y-71905121D02*
X182314447Y-72251546D01*
X182314447Y-72251546D02*
X182319433Y-72108776D01*
X182319433Y-72108776D02*
X182370346Y-72015258D01*
X182370346Y-72015258D02*
X182419598Y-71969330D01*
X182419598Y-71969330D02*
X182516440Y-71925063D01*
X182516440Y-71925063D02*
X182754391Y-71933373D01*
X182754391Y-71933373D02*
X182847909Y-71984287D01*
X182847909Y-71984287D02*
X182893837Y-72033538D01*
X182893837Y-72033538D02*
X182938103Y-72130380D01*
X182938103Y-72130380D02*
X182928132Y-72415921D01*
X182928132Y-72415921D02*
X182877218Y-72509439D01*
X182877218Y-72509439D02*
X182827966Y-72555367D01*
X182053835Y-71527724D02*
X182007907Y-71478472D01*
X182007907Y-71478472D02*
X181963641Y-71381630D01*
X181963641Y-71381630D02*
X181971950Y-71143680D01*
X181971950Y-71143680D02*
X182022864Y-71050162D01*
X182022864Y-71050162D02*
X182072116Y-71004234D01*
X182072116Y-71004234D02*
X182168958Y-70959967D01*
X182168958Y-70959967D02*
X182264138Y-70963291D01*
X182264138Y-70963291D02*
X182405246Y-71015867D01*
X182405246Y-71015867D02*
X182956384Y-71606890D01*
X182956384Y-71606890D02*
X182977988Y-70988219D01*
X161862248Y-107204289D02*
X162421441Y-106375251D01*
X162421441Y-106375251D02*
X162618831Y-106508392D01*
X162618831Y-106508392D02*
X162710637Y-106627755D01*
X162710637Y-106627755D02*
X162736336Y-106759967D01*
X162736336Y-106759967D02*
X162722558Y-106865551D01*
X162722558Y-106865551D02*
X162655523Y-107050092D01*
X162655523Y-107050092D02*
X162575638Y-107168526D01*
X162575638Y-107168526D02*
X162429647Y-107299809D01*
X162429647Y-107299809D02*
X162336913Y-107352137D01*
X162336913Y-107352137D02*
X162204700Y-107377836D01*
X162204700Y-107377836D02*
X162059638Y-107337430D01*
X162059638Y-107337430D02*
X161862248Y-107204289D01*
X163419383Y-107450444D02*
X163046588Y-108003136D01*
X163435019Y-107001479D02*
X162838206Y-107460507D01*
X162838206Y-107460507D02*
X163351419Y-107806674D01*
X163520324Y-108322674D02*
X163678235Y-108429187D01*
X163678235Y-108429187D02*
X163783820Y-108442966D01*
X163783820Y-108442966D02*
X163849926Y-108430116D01*
X163849926Y-108430116D02*
X164008767Y-108364939D01*
X164008767Y-108364939D02*
X164154757Y-108233655D01*
X164154757Y-108233655D02*
X164367783Y-107917831D01*
X164367783Y-107917831D02*
X164381562Y-107812247D01*
X164381562Y-107812247D02*
X164368712Y-107746141D01*
X164368712Y-107746141D02*
X164316384Y-107653406D01*
X164316384Y-107653406D02*
X164158472Y-107546893D01*
X164158472Y-107546893D02*
X164052888Y-107533115D01*
X164052888Y-107533115D02*
X163986782Y-107545965D01*
X163986782Y-107545965D02*
X163894048Y-107598292D01*
X163894048Y-107598292D02*
X163760906Y-107795682D01*
X163760906Y-107795682D02*
X163747128Y-107901266D01*
X163747128Y-107901266D02*
X163759978Y-107967373D01*
X163759978Y-107967373D02*
X163812305Y-108060107D01*
X163812305Y-108060107D02*
X163970217Y-108166620D01*
X163970217Y-108166620D02*
X164075802Y-108180398D01*
X164075802Y-108180398D02*
X164141908Y-108167549D01*
X164141908Y-108167549D02*
X164234642Y-108115221D01*
X172229749Y-142194182D02*
X172125221Y-141199661D01*
X172125221Y-141199661D02*
X172362012Y-141174773D01*
X172362012Y-141174773D02*
X172509064Y-141207198D01*
X172509064Y-141207198D02*
X172613735Y-141291960D01*
X172613735Y-141291960D02*
X172671049Y-141381698D01*
X172671049Y-141381698D02*
X172738317Y-141566154D01*
X172738317Y-141566154D02*
X172753250Y-141708228D01*
X172753250Y-141708228D02*
X172725802Y-141902638D01*
X172725802Y-141902638D02*
X172688398Y-142002332D01*
X172688398Y-142002332D02*
X172603637Y-142107004D01*
X172603637Y-142107004D02*
X172466540Y-142169295D01*
X172466540Y-142169295D02*
X172229749Y-142194182D01*
X173580809Y-141381841D02*
X173650495Y-142044856D01*
X173304198Y-141027864D02*
X173142070Y-141763124D01*
X173142070Y-141763124D02*
X173757727Y-141698416D01*
X174540488Y-140945806D02*
X174066906Y-140995581D01*
X174066906Y-140995581D02*
X174069324Y-141474141D01*
X174069324Y-141474141D02*
X174111704Y-141421805D01*
X174111704Y-141421805D02*
X174201443Y-141364492D01*
X174201443Y-141364492D02*
X174438234Y-141339604D01*
X174438234Y-141339604D02*
X174537928Y-141377007D01*
X174537928Y-141377007D02*
X174590264Y-141419388D01*
X174590264Y-141419388D02*
X174647577Y-141509126D01*
X174647577Y-141509126D02*
X174672465Y-141745917D01*
X174672465Y-141745917D02*
X174635062Y-141845611D01*
X174635062Y-141845611D02*
X174592681Y-141897947D01*
X174592681Y-141897947D02*
X174502942Y-141955260D01*
X174502942Y-141955260D02*
X174266151Y-141980148D01*
X174266151Y-141980148D02*
X174166457Y-141942745D01*
X174166457Y-141942745D02*
X174114122Y-141900364D01*
X170645494Y-90662127D02*
X171454511Y-90074341D01*
X171454511Y-90074341D02*
X171594460Y-90266964D01*
X171594460Y-90266964D02*
X171639904Y-90410528D01*
X171639904Y-90410528D02*
X171618835Y-90543557D01*
X171618835Y-90543557D02*
X171569775Y-90638061D01*
X171569775Y-90638061D02*
X171443667Y-90788545D01*
X171443667Y-90788545D02*
X171328093Y-90872514D01*
X171328093Y-90872514D02*
X171146005Y-90945949D01*
X171146005Y-90945949D02*
X171040965Y-90963403D01*
X171040965Y-90963403D02*
X170907937Y-90942334D01*
X170907937Y-90942334D02*
X170785443Y-90854750D01*
X170785443Y-90854750D02*
X170645494Y-90662127D01*
X172322194Y-91268605D02*
X172042296Y-90883358D01*
X172042296Y-90883358D02*
X171629060Y-91124731D01*
X171629060Y-91124731D02*
X171695575Y-91135266D01*
X171695575Y-91135266D02*
X171790079Y-91184326D01*
X171790079Y-91184326D02*
X171930028Y-91376949D01*
X171930028Y-91376949D02*
X171947483Y-91481988D01*
X171947483Y-91481988D02*
X171936948Y-91548502D01*
X171936948Y-91548502D02*
X171887888Y-91643006D01*
X171887888Y-91643006D02*
X171695265Y-91782955D01*
X171695265Y-91782955D02*
X171590226Y-91800410D01*
X171590226Y-91800410D02*
X171523712Y-91789875D01*
X171523712Y-91789875D02*
X171429208Y-91740816D01*
X171429208Y-91740816D02*
X171289259Y-91548193D01*
X171289259Y-91548193D02*
X171271804Y-91443154D01*
X171271804Y-91443154D02*
X171282339Y-91376639D01*
X172100962Y-92665407D02*
X171765085Y-92203111D01*
X171933024Y-92434259D02*
X172742041Y-91846474D01*
X172742041Y-91846474D02*
X172570487Y-91853394D01*
X172570487Y-91853394D02*
X172437458Y-91832324D01*
X172437458Y-91832324D02*
X172342954Y-91783265D01*
X226559522Y-81961802D02*
X226121151Y-81063008D01*
X226121151Y-81063008D02*
X226335150Y-80958634D01*
X226335150Y-80958634D02*
X226484424Y-80938809D01*
X226484424Y-80938809D02*
X226611773Y-80982659D01*
X226611773Y-80982659D02*
X226696322Y-81047384D01*
X226696322Y-81047384D02*
X226822621Y-81197708D01*
X226822621Y-81197708D02*
X226885245Y-81326107D01*
X226885245Y-81326107D02*
X226925945Y-81518180D01*
X226925945Y-81518180D02*
X226924895Y-81624655D01*
X226924895Y-81624655D02*
X226881045Y-81752004D01*
X226881045Y-81752004D02*
X226773521Y-81857428D01*
X226773521Y-81857428D02*
X226559522Y-81961802D01*
X226934346Y-80666386D02*
X227490742Y-80395014D01*
X227490742Y-80395014D02*
X227358143Y-80883535D01*
X227358143Y-80883535D02*
X227486542Y-80820911D01*
X227486542Y-80820911D02*
X227593016Y-80821961D01*
X227593016Y-80821961D02*
X227656690Y-80843886D01*
X227656690Y-80843886D02*
X227741240Y-80908610D01*
X227741240Y-80908610D02*
X227845614Y-81122609D01*
X227845614Y-81122609D02*
X227844564Y-81229083D01*
X227844564Y-81229083D02*
X227822639Y-81292758D01*
X227822639Y-81292758D02*
X227757914Y-81377307D01*
X227757914Y-81377307D02*
X227501116Y-81502556D01*
X227501116Y-81502556D02*
X227394642Y-81501506D01*
X227394642Y-81501506D02*
X227330967Y-81479581D01*
X228192212Y-80529713D02*
X228085738Y-80528663D01*
X228085738Y-80528663D02*
X228022063Y-80506738D01*
X228022063Y-80506738D02*
X227937514Y-80442014D01*
X227937514Y-80442014D02*
X227916639Y-80399214D01*
X227916639Y-80399214D02*
X227917689Y-80292740D01*
X227917689Y-80292740D02*
X227939614Y-80229065D01*
X227939614Y-80229065D02*
X228004339Y-80144516D01*
X228004339Y-80144516D02*
X228175538Y-80061017D01*
X228175538Y-80061017D02*
X228282012Y-80062067D01*
X228282012Y-80062067D02*
X228345686Y-80083992D01*
X228345686Y-80083992D02*
X228430236Y-80148716D01*
X228430236Y-80148716D02*
X228451110Y-80191516D01*
X228451110Y-80191516D02*
X228450060Y-80297990D01*
X228450060Y-80297990D02*
X228428135Y-80361665D01*
X228428135Y-80361665D02*
X228363411Y-80446214D01*
X228363411Y-80446214D02*
X228192212Y-80529713D01*
X228192212Y-80529713D02*
X228127487Y-80614263D01*
X228127487Y-80614263D02*
X228105562Y-80677937D01*
X228105562Y-80677937D02*
X228104512Y-80784412D01*
X228104512Y-80784412D02*
X228188012Y-80955610D01*
X228188012Y-80955610D02*
X228272561Y-81020335D01*
X228272561Y-81020335D02*
X228336236Y-81042260D01*
X228336236Y-81042260D02*
X228442710Y-81043310D01*
X228442710Y-81043310D02*
X228613909Y-80959811D01*
X228613909Y-80959811D02*
X228678633Y-80875261D01*
X228678633Y-80875261D02*
X228700558Y-80811587D01*
X228700558Y-80811587D02*
X228701608Y-80705113D01*
X228701608Y-80705113D02*
X228618109Y-80533914D01*
X228618109Y-80533914D02*
X228533560Y-80469189D01*
X228533560Y-80469189D02*
X228469885Y-80447264D01*
X228469885Y-80447264D02*
X228363411Y-80446214D01*
X175657808Y-155978905D02*
X176142617Y-155104285D01*
X176142617Y-155104285D02*
X176350860Y-155219716D01*
X176350860Y-155219716D02*
X176452720Y-155330623D01*
X176452720Y-155330623D02*
X176489844Y-155460092D01*
X176489844Y-155460092D02*
X176485320Y-155566476D01*
X176485320Y-155566476D02*
X176434624Y-155756156D01*
X176434624Y-155756156D02*
X176365366Y-155881102D01*
X176365366Y-155881102D02*
X176231373Y-156024610D01*
X176231373Y-156024610D02*
X176143552Y-156084821D01*
X176143552Y-156084821D02*
X176014082Y-156121946D01*
X176014082Y-156121946D02*
X175866050Y-156094336D01*
X175866050Y-156094336D02*
X175657808Y-155978905D01*
X176990561Y-156717662D02*
X176490779Y-156440628D01*
X176740670Y-156579145D02*
X177225480Y-155704526D01*
X177225480Y-155704526D02*
X177072924Y-155783299D01*
X177072924Y-155783299D02*
X176943455Y-155820424D01*
X176943455Y-155820424D02*
X176837071Y-155815900D01*
X177767378Y-156494914D02*
X177707167Y-156407093D01*
X177707167Y-156407093D02*
X177688605Y-156342358D01*
X177688605Y-156342358D02*
X177693129Y-156235975D01*
X177693129Y-156235975D02*
X177716215Y-156194326D01*
X177716215Y-156194326D02*
X177804036Y-156134115D01*
X177804036Y-156134115D02*
X177868770Y-156115553D01*
X177868770Y-156115553D02*
X177975154Y-156120077D01*
X177975154Y-156120077D02*
X178141748Y-156212421D01*
X178141748Y-156212421D02*
X178201959Y-156300242D01*
X178201959Y-156300242D02*
X178220521Y-156364977D01*
X178220521Y-156364977D02*
X178215998Y-156471360D01*
X178215998Y-156471360D02*
X178192911Y-156513009D01*
X178192911Y-156513009D02*
X178105090Y-156573220D01*
X178105090Y-156573220D02*
X178040356Y-156591782D01*
X178040356Y-156591782D02*
X177933972Y-156587258D01*
X177933972Y-156587258D02*
X177767378Y-156494914D01*
X177767378Y-156494914D02*
X177660995Y-156490390D01*
X177660995Y-156490390D02*
X177596260Y-156508952D01*
X177596260Y-156508952D02*
X177508439Y-156569163D01*
X177508439Y-156569163D02*
X177416095Y-156735757D01*
X177416095Y-156735757D02*
X177411571Y-156842141D01*
X177411571Y-156842141D02*
X177430133Y-156906875D01*
X177430133Y-156906875D02*
X177490344Y-156994696D01*
X177490344Y-156994696D02*
X177656938Y-157087041D01*
X177656938Y-157087041D02*
X177763322Y-157091565D01*
X177763322Y-157091565D02*
X177828056Y-157073002D01*
X177828056Y-157073002D02*
X177915877Y-157012792D01*
X177915877Y-157012792D02*
X178008222Y-156846197D01*
X178008222Y-156846197D02*
X178012746Y-156739814D01*
X178012746Y-156739814D02*
X177994183Y-156675079D01*
X177994183Y-156675079D02*
X177933972Y-156587258D01*
X177871498Y-84651021D02*
X178770292Y-84212650D01*
X178770292Y-84212650D02*
X178874666Y-84426649D01*
X178874666Y-84426649D02*
X178894491Y-84575923D01*
X178894491Y-84575923D02*
X178850641Y-84703272D01*
X178850641Y-84703272D02*
X178785916Y-84787821D01*
X178785916Y-84787821D02*
X178635592Y-84914120D01*
X178635592Y-84914120D02*
X178507193Y-84976744D01*
X178507193Y-84976744D02*
X178315120Y-85017444D01*
X178315120Y-85017444D02*
X178208645Y-85016394D01*
X178208645Y-85016394D02*
X178081296Y-84972544D01*
X178081296Y-84972544D02*
X177975872Y-84865020D01*
X177975872Y-84865020D02*
X177871498Y-84651021D01*
X179417411Y-85539441D02*
X179208663Y-85111444D01*
X179208663Y-85111444D02*
X178759791Y-85277393D01*
X178759791Y-85277393D02*
X178823466Y-85299317D01*
X178823466Y-85299317D02*
X178908015Y-85364042D01*
X178908015Y-85364042D02*
X179012389Y-85578041D01*
X179012389Y-85578041D02*
X179011339Y-85684515D01*
X179011339Y-85684515D02*
X178989414Y-85748189D01*
X178989414Y-85748189D02*
X178924690Y-85832739D01*
X178924690Y-85832739D02*
X178710691Y-85937113D01*
X178710691Y-85937113D02*
X178604217Y-85936063D01*
X178604217Y-85936063D02*
X178540542Y-85914138D01*
X178540542Y-85914138D02*
X178455993Y-85849413D01*
X178455993Y-85849413D02*
X178351619Y-85635415D01*
X178351619Y-85635415D02*
X178352669Y-85528940D01*
X178352669Y-85528940D02*
X178374594Y-85465266D01*
X179519685Y-85966388D02*
X179583360Y-85988313D01*
X179583360Y-85988313D02*
X179667909Y-86053038D01*
X179667909Y-86053038D02*
X179772283Y-86267037D01*
X179772283Y-86267037D02*
X179771233Y-86373511D01*
X179771233Y-86373511D02*
X179749308Y-86437185D01*
X179749308Y-86437185D02*
X179684584Y-86521735D01*
X179684584Y-86521735D02*
X179598984Y-86563484D01*
X179598984Y-86563484D02*
X179449710Y-86583309D01*
X179449710Y-86583309D02*
X178685616Y-86320210D01*
X178685616Y-86320210D02*
X178956988Y-86876607D01*
X195559116Y-79086249D02*
X196553637Y-78981721D01*
X196553637Y-78981721D02*
X196578525Y-79218512D01*
X196578525Y-79218512D02*
X196546100Y-79365564D01*
X196546100Y-79365564D02*
X196461338Y-79470235D01*
X196461338Y-79470235D02*
X196371600Y-79527549D01*
X196371600Y-79527549D02*
X196187144Y-79594817D01*
X196187144Y-79594817D02*
X196045070Y-79609750D01*
X196045070Y-79609750D02*
X195850660Y-79582302D01*
X195850660Y-79582302D02*
X195750966Y-79544898D01*
X195750966Y-79544898D02*
X195646294Y-79460137D01*
X195646294Y-79460137D02*
X195584003Y-79323040D01*
X195584003Y-79323040D02*
X195559116Y-79086249D01*
X196707941Y-80449825D02*
X196658166Y-79976243D01*
X196658166Y-79976243D02*
X196179607Y-79978660D01*
X196179607Y-79978660D02*
X196231942Y-80021041D01*
X196231942Y-80021041D02*
X196289256Y-80110779D01*
X196289256Y-80110779D02*
X196314143Y-80347570D01*
X196314143Y-80347570D02*
X196276740Y-80447264D01*
X196276740Y-80447264D02*
X196234360Y-80499600D01*
X196234360Y-80499600D02*
X196144621Y-80556913D01*
X196144621Y-80556913D02*
X195907830Y-80581801D01*
X195907830Y-80581801D02*
X195808136Y-80544398D01*
X195808136Y-80544398D02*
X195755800Y-80502017D01*
X195755800Y-80502017D02*
X195698487Y-80412278D01*
X195698487Y-80412278D02*
X195673599Y-80175488D01*
X195673599Y-80175488D02*
X195711002Y-80075794D01*
X195711002Y-80075794D02*
X195753383Y-80023458D01*
X196471007Y-81384473D02*
X195807993Y-81454159D01*
X196824985Y-81107862D02*
X196089725Y-80945734D01*
X196089725Y-80945734D02*
X196154433Y-81561390D01*
X230559116Y-114086249D02*
X231553637Y-113981721D01*
X231553637Y-113981721D02*
X231578525Y-114218512D01*
X231578525Y-114218512D02*
X231546100Y-114365564D01*
X231546100Y-114365564D02*
X231461338Y-114470235D01*
X231461338Y-114470235D02*
X231371600Y-114527549D01*
X231371600Y-114527549D02*
X231187144Y-114594817D01*
X231187144Y-114594817D02*
X231045070Y-114609750D01*
X231045070Y-114609750D02*
X230850660Y-114582302D01*
X230850660Y-114582302D02*
X230750966Y-114544898D01*
X230750966Y-114544898D02*
X230646294Y-114460137D01*
X230646294Y-114460137D02*
X230584003Y-114323040D01*
X230584003Y-114323040D02*
X230559116Y-114086249D01*
X231702964Y-115402466D02*
X231683054Y-115213034D01*
X231683054Y-115213034D02*
X231625740Y-115123295D01*
X231625740Y-115123295D02*
X231573405Y-115080914D01*
X231573405Y-115080914D02*
X231421375Y-115001130D01*
X231421375Y-115001130D02*
X231226965Y-114973682D01*
X231226965Y-114973682D02*
X230848099Y-115013503D01*
X230848099Y-115013503D02*
X230758360Y-115070816D01*
X230758360Y-115070816D02*
X230715980Y-115123152D01*
X230715980Y-115123152D02*
X230678577Y-115222846D01*
X230678577Y-115222846D02*
X230698487Y-115412278D01*
X230698487Y-115412278D02*
X230755800Y-115502017D01*
X230755800Y-115502017D02*
X230808136Y-115544398D01*
X230808136Y-115544398D02*
X230907830Y-115581801D01*
X230907830Y-115581801D02*
X231144621Y-115556913D01*
X231144621Y-115556913D02*
X231234360Y-115499600D01*
X231234360Y-115499600D02*
X231276740Y-115447264D01*
X231276740Y-115447264D02*
X231314143Y-115347570D01*
X231314143Y-115347570D02*
X231294233Y-115158138D01*
X231294233Y-115158138D02*
X231236920Y-115068399D01*
X231236920Y-115068399D02*
X231184584Y-115026018D01*
X231184584Y-115026018D02*
X231084890Y-114988615D01*
X231777627Y-116112839D02*
X231787582Y-116207556D01*
X231787582Y-116207556D02*
X231750179Y-116307249D01*
X231750179Y-116307249D02*
X231707798Y-116359585D01*
X231707798Y-116359585D02*
X231618060Y-116416898D01*
X231618060Y-116416898D02*
X231433604Y-116484167D01*
X231433604Y-116484167D02*
X231196813Y-116509055D01*
X231196813Y-116509055D02*
X231002403Y-116481607D01*
X231002403Y-116481607D02*
X230902709Y-116444203D01*
X230902709Y-116444203D02*
X230850374Y-116401823D01*
X230850374Y-116401823D02*
X230793060Y-116312084D01*
X230793060Y-116312084D02*
X230783105Y-116217368D01*
X230783105Y-116217368D02*
X230820508Y-116117674D01*
X230820508Y-116117674D02*
X230862889Y-116065338D01*
X230862889Y-116065338D02*
X230952628Y-116008025D01*
X230952628Y-116008025D02*
X231137083Y-115940756D01*
X231137083Y-115940756D02*
X231373874Y-115915869D01*
X231373874Y-115915869D02*
X231568284Y-115943317D01*
X231568284Y-115943317D02*
X231667978Y-115980720D01*
X231667978Y-115980720D02*
X231720314Y-116023100D01*
X231720314Y-116023100D02*
X231777627Y-116112839D01*
X205137068Y-161163027D02*
X205327877Y-160181399D01*
X205327877Y-160181399D02*
X205561598Y-160226830D01*
X205561598Y-160226830D02*
X205692744Y-160300833D01*
X205692744Y-160300833D02*
X205768060Y-160412493D01*
X205768060Y-160412493D02*
X205796632Y-160515068D01*
X205796632Y-160515068D02*
X205807032Y-160711130D01*
X205807032Y-160711130D02*
X205779773Y-160851363D01*
X205779773Y-160851363D02*
X205696684Y-161029253D01*
X205696684Y-161029253D02*
X205631768Y-161113656D01*
X205631768Y-161113656D02*
X205520107Y-161188972D01*
X205520107Y-161188972D02*
X205370789Y-161208457D01*
X205370789Y-161208457D02*
X205137068Y-161163027D01*
X206632881Y-161453783D02*
X206071951Y-161344749D01*
X206352416Y-161399266D02*
X206543225Y-160417639D01*
X206543225Y-160417639D02*
X206422478Y-160539699D01*
X206422478Y-160539699D02*
X206310818Y-160615015D01*
X206310818Y-160615015D02*
X206208243Y-160643587D01*
X207601482Y-160962916D02*
X207474276Y-161617334D01*
X207440450Y-160543532D02*
X207070437Y-161199263D01*
X207070437Y-161199263D02*
X207678111Y-161317383D01*
X220551774Y-77873904D02*
X220036736Y-77016737D01*
X220036736Y-77016737D02*
X220240823Y-76894109D01*
X220240823Y-76894109D02*
X220387801Y-76861349D01*
X220387801Y-76861349D02*
X220518487Y-76893933D01*
X220518487Y-76893933D02*
X220608356Y-76951042D01*
X220608356Y-76951042D02*
X220747276Y-77089787D01*
X220747276Y-77089787D02*
X220820853Y-77212239D01*
X220820853Y-77212239D02*
X220878138Y-77400035D01*
X220878138Y-77400035D02*
X220886372Y-77506195D01*
X220886372Y-77506195D02*
X220853788Y-77636881D01*
X220853788Y-77636881D02*
X220755861Y-77751276D01*
X220755861Y-77751276D02*
X220551774Y-77873904D01*
X220812268Y-76550750D02*
X221342895Y-76231917D01*
X221342895Y-76231917D02*
X221253378Y-76730136D01*
X221253378Y-76730136D02*
X221375830Y-76656559D01*
X221375830Y-76656559D02*
X221481991Y-76648325D01*
X221481991Y-76648325D02*
X221547334Y-76664617D01*
X221547334Y-76664617D02*
X221637203Y-76721727D01*
X221637203Y-76721727D02*
X221759831Y-76925814D01*
X221759831Y-76925814D02*
X221768065Y-77031975D01*
X221768065Y-77031975D02*
X221751773Y-77097318D01*
X221751773Y-77097318D02*
X221694663Y-77187186D01*
X221694663Y-77187186D02*
X221449758Y-77334340D01*
X221449758Y-77334340D02*
X221343598Y-77342574D01*
X221343598Y-77342574D02*
X221278255Y-77326282D01*
X221628618Y-76060237D02*
X222200063Y-75716879D01*
X222200063Y-75716879D02*
X222347743Y-76794776D01*
X230309240Y-125230897D02*
X229311676Y-125161140D01*
X229311676Y-125161140D02*
X229328285Y-124923625D01*
X229328285Y-124923625D02*
X229385753Y-124784438D01*
X229385753Y-124784438D02*
X229487403Y-124696075D01*
X229487403Y-124696075D02*
X229585731Y-124655216D01*
X229585731Y-124655216D02*
X229779065Y-124620999D01*
X229779065Y-124620999D02*
X229921574Y-124630965D01*
X229921574Y-124630965D02*
X230108264Y-124691755D01*
X230108264Y-124691755D02*
X230199949Y-124745901D01*
X230199949Y-124745901D02*
X230288311Y-124847551D01*
X230288311Y-124847551D02*
X230325849Y-124993382D01*
X230325849Y-124993382D02*
X230309240Y-125230897D01*
X229411328Y-123736049D02*
X229398041Y-123926061D01*
X229398041Y-123926061D02*
X229438901Y-124024389D01*
X229438901Y-124024389D02*
X229483082Y-124075214D01*
X229483082Y-124075214D02*
X229618948Y-124180185D01*
X229618948Y-124180185D02*
X229805638Y-124240975D01*
X229805638Y-124240975D02*
X230185663Y-124267549D01*
X230185663Y-124267549D02*
X230283991Y-124226689D01*
X230283991Y-124226689D02*
X230334815Y-124182508D01*
X230334815Y-124182508D02*
X230388962Y-124090824D01*
X230388962Y-124090824D02*
X230402249Y-123900811D01*
X230402249Y-123900811D02*
X230361389Y-123802484D01*
X230361389Y-123802484D02*
X230317208Y-123751659D01*
X230317208Y-123751659D02*
X230225524Y-123697512D01*
X230225524Y-123697512D02*
X229988008Y-123680904D01*
X229988008Y-123680904D02*
X229889681Y-123721763D01*
X229889681Y-123721763D02*
X229838856Y-123765945D01*
X229838856Y-123765945D02*
X229784709Y-123857629D01*
X229784709Y-123857629D02*
X229771422Y-124047641D01*
X229771422Y-124047641D02*
X229812282Y-124145969D01*
X229812282Y-124145969D02*
X229856463Y-124196794D01*
X229856463Y-124196794D02*
X229948148Y-124250940D01*
X230481971Y-122760738D02*
X230442110Y-123330775D01*
X230462040Y-123045757D02*
X229464476Y-122976000D01*
X229464476Y-122976000D02*
X229600342Y-123080971D01*
X229600342Y-123080971D02*
X229688704Y-123182621D01*
X229688704Y-123182621D02*
X229729564Y-123280949D01*
X198303127Y-152610205D02*
X197715341Y-151801188D01*
X197715341Y-151801188D02*
X197907964Y-151661239D01*
X197907964Y-151661239D02*
X198051528Y-151615795D01*
X198051528Y-151615795D02*
X198184557Y-151636864D01*
X198184557Y-151636864D02*
X198279061Y-151685924D01*
X198279061Y-151685924D02*
X198429545Y-151812032D01*
X198429545Y-151812032D02*
X198513514Y-151927606D01*
X198513514Y-151927606D02*
X198586949Y-152109694D01*
X198586949Y-152109694D02*
X198604403Y-152214734D01*
X198604403Y-152214734D02*
X198583334Y-152347762D01*
X198583334Y-152347762D02*
X198495750Y-152470256D01*
X198495750Y-152470256D02*
X198303127Y-152610205D01*
X199067008Y-151231167D02*
X199458865Y-151770512D01*
X198650467Y-151062919D02*
X198877691Y-151780737D01*
X198877691Y-151780737D02*
X199378511Y-151416870D01*
X199312306Y-150758646D02*
X199322841Y-150692132D01*
X199322841Y-150692132D02*
X199371900Y-150597628D01*
X199371900Y-150597628D02*
X199564523Y-150457679D01*
X199564523Y-150457679D02*
X199669562Y-150440224D01*
X199669562Y-150440224D02*
X199736077Y-150450759D01*
X199736077Y-150450759D02*
X199830581Y-150499818D01*
X199830581Y-150499818D02*
X199886560Y-150576868D01*
X199886560Y-150576868D02*
X199932005Y-150720431D01*
X199932005Y-150720431D02*
X199805587Y-151518604D01*
X199805587Y-151518604D02*
X200306407Y-151154737D01*
X162412455Y-126028283D02*
X162654376Y-125057987D01*
X162654376Y-125057987D02*
X162885399Y-125115588D01*
X162885399Y-125115588D02*
X163012493Y-125196353D01*
X163012493Y-125196353D02*
X163081862Y-125311802D01*
X163081862Y-125311802D02*
X163105026Y-125415731D01*
X163105026Y-125415731D02*
X163105150Y-125612070D01*
X163105150Y-125612070D02*
X163070590Y-125750683D01*
X163070590Y-125750683D02*
X162978305Y-125923981D01*
X162978305Y-125923981D02*
X162909060Y-126004870D01*
X162909060Y-126004870D02*
X162793611Y-126074239D01*
X162793611Y-126074239D02*
X162643477Y-126085884D01*
X162643477Y-126085884D02*
X162412455Y-126028283D01*
X163959873Y-125727022D02*
X163798591Y-126373886D01*
X163821010Y-125299785D02*
X163417186Y-125935253D01*
X163417186Y-125935253D02*
X164017846Y-126085014D01*
X164456354Y-125507271D02*
X165103218Y-125668552D01*
X165103218Y-125668552D02*
X164445455Y-126535167D01*
X166267488Y-134740671D02*
X166337245Y-133743107D01*
X166337245Y-133743107D02*
X166574760Y-133759716D01*
X166574760Y-133759716D02*
X166713947Y-133817184D01*
X166713947Y-133817184D02*
X166802310Y-133918834D01*
X166802310Y-133918834D02*
X166843169Y-134017162D01*
X166843169Y-134017162D02*
X166877386Y-134210496D01*
X166877386Y-134210496D02*
X166867420Y-134353005D01*
X166867420Y-134353005D02*
X166806630Y-134539695D01*
X166806630Y-134539695D02*
X166752484Y-134631380D01*
X166752484Y-134631380D02*
X166650834Y-134719742D01*
X166650834Y-134719742D02*
X166505003Y-134757280D01*
X166505003Y-134757280D02*
X166267488Y-134740671D01*
X167739084Y-134175281D02*
X167692580Y-134840323D01*
X167528143Y-133778648D02*
X167240801Y-134474585D01*
X167240801Y-134474585D02*
X167858341Y-134517767D01*
X168712397Y-133909194D02*
X168522385Y-133895907D01*
X168522385Y-133895907D02*
X168424057Y-133936767D01*
X168424057Y-133936767D02*
X168373232Y-133980948D01*
X168373232Y-133980948D02*
X168268261Y-134116814D01*
X168268261Y-134116814D02*
X168207471Y-134303504D01*
X168207471Y-134303504D02*
X168180897Y-134683529D01*
X168180897Y-134683529D02*
X168221757Y-134781856D01*
X168221757Y-134781856D02*
X168265938Y-134832681D01*
X168265938Y-134832681D02*
X168357622Y-134886828D01*
X168357622Y-134886828D02*
X168547635Y-134900115D01*
X168547635Y-134900115D02*
X168645962Y-134859255D01*
X168645962Y-134859255D02*
X168696787Y-134815074D01*
X168696787Y-134815074D02*
X168750934Y-134723389D01*
X168750934Y-134723389D02*
X168767542Y-134485874D01*
X168767542Y-134485874D02*
X168726683Y-134387546D01*
X168726683Y-134387546D02*
X168682501Y-134336722D01*
X168682501Y-134336722D02*
X168590817Y-134282575D01*
X168590817Y-134282575D02*
X168400805Y-134269288D01*
X168400805Y-134269288D02*
X168302477Y-134310148D01*
X168302477Y-134310148D02*
X168251652Y-134354329D01*
X168251652Y-134354329D02*
X168197506Y-134446013D01*
X193701905Y-140874819D02*
X193701905Y-139874819D01*
X193701905Y-139874819D02*
X193940000Y-139874819D01*
X193940000Y-139874819D02*
X194082857Y-139922438D01*
X194082857Y-139922438D02*
X194178095Y-140017676D01*
X194178095Y-140017676D02*
X194225714Y-140112914D01*
X194225714Y-140112914D02*
X194273333Y-140303390D01*
X194273333Y-140303390D02*
X194273333Y-140446247D01*
X194273333Y-140446247D02*
X194225714Y-140636723D01*
X194225714Y-140636723D02*
X194178095Y-140731961D01*
X194178095Y-140731961D02*
X194082857Y-140827200D01*
X194082857Y-140827200D02*
X193940000Y-140874819D01*
X193940000Y-140874819D02*
X193701905Y-140874819D01*
X195130476Y-140208152D02*
X195130476Y-140874819D01*
X194892381Y-139827200D02*
X194654286Y-140541485D01*
X194654286Y-140541485D02*
X195273333Y-140541485D01*
X151510405Y-111400508D02*
X152376430Y-110900508D01*
X152376430Y-110900508D02*
X152495478Y-111106704D01*
X152495478Y-111106704D02*
X152525667Y-111254232D01*
X152525667Y-111254232D02*
X152490807Y-111384329D01*
X152490807Y-111384329D02*
X152432138Y-111473188D01*
X152432138Y-111473188D02*
X152290991Y-111609665D01*
X152290991Y-111609665D02*
X152167273Y-111681094D01*
X152167273Y-111681094D02*
X151978506Y-111735092D01*
X151978506Y-111735092D02*
X151872218Y-111741472D01*
X151872218Y-111741472D02*
X151742120Y-111706613D01*
X151742120Y-111706613D02*
X151629452Y-111606704D01*
X151629452Y-111606704D02*
X151510405Y-111400508D01*
X152770142Y-111772913D02*
X152835191Y-111790343D01*
X152835191Y-111790343D02*
X152924049Y-111849012D01*
X152924049Y-111849012D02*
X153043097Y-112055208D01*
X153043097Y-112055208D02*
X153049477Y-112161496D01*
X153049477Y-112161496D02*
X153032047Y-112226545D01*
X153032047Y-112226545D02*
X152973378Y-112315404D01*
X152973378Y-112315404D02*
X152890899Y-112363023D01*
X152890899Y-112363023D02*
X152743372Y-112393212D01*
X152743372Y-112393212D02*
X151962786Y-112184055D01*
X151962786Y-112184055D02*
X152272310Y-112720165D01*
X153590716Y-113003712D02*
X153352621Y-112591319D01*
X153352621Y-112591319D02*
X152916418Y-112788175D01*
X152916418Y-112788175D02*
X152981467Y-112805605D01*
X152981467Y-112805605D02*
X153070325Y-112864274D01*
X153070325Y-112864274D02*
X153189373Y-113070471D01*
X153189373Y-113070471D02*
X153195753Y-113176759D01*
X153195753Y-113176759D02*
X153178323Y-113241808D01*
X153178323Y-113241808D02*
X153119654Y-113330666D01*
X153119654Y-113330666D02*
X152913457Y-113449714D01*
X152913457Y-113449714D02*
X152807169Y-113456093D01*
X152807169Y-113456093D02*
X152742120Y-113438663D01*
X152742120Y-113438663D02*
X152653262Y-113379994D01*
X152653262Y-113379994D02*
X152534214Y-113173798D01*
X152534214Y-113173798D02*
X152527835Y-113067510D01*
X152527835Y-113067510D02*
X152545264Y-113002461D01*
X175141546Y-74205033D02*
X176140175Y-74152697D01*
X176140175Y-74152697D02*
X176152636Y-74390466D01*
X176152636Y-74390466D02*
X176112559Y-74535620D01*
X176112559Y-74535620D02*
X176022436Y-74635712D01*
X176022436Y-74635712D02*
X175929821Y-74688250D01*
X175929821Y-74688250D02*
X175742098Y-74745772D01*
X175742098Y-74745772D02*
X175599436Y-74753249D01*
X175599436Y-74753249D02*
X175406729Y-74715664D01*
X175406729Y-74715664D02*
X175309129Y-74673095D01*
X175309129Y-74673095D02*
X175209037Y-74582971D01*
X175209037Y-74582971D02*
X175154007Y-74442802D01*
X175154007Y-74442802D02*
X175141546Y-74205033D01*
X176187527Y-75056219D02*
X176219926Y-75674419D01*
X176219926Y-75674419D02*
X175822050Y-75361479D01*
X175822050Y-75361479D02*
X175829526Y-75504141D01*
X175829526Y-75504141D02*
X175786957Y-75601741D01*
X175786957Y-75601741D02*
X175741895Y-75651787D01*
X175741895Y-75651787D02*
X175649280Y-75704325D01*
X175649280Y-75704325D02*
X175411511Y-75716786D01*
X175411511Y-75716786D02*
X175313911Y-75674216D01*
X175313911Y-75674216D02*
X175263865Y-75629155D01*
X175263865Y-75629155D02*
X175211327Y-75536539D01*
X175211327Y-75536539D02*
X175196374Y-75251217D01*
X175196374Y-75251217D02*
X175238944Y-75153617D01*
X175238944Y-75153617D02*
X175284005Y-75103571D01*
X175271140Y-76677830D02*
X175241233Y-76107185D01*
X175256187Y-76392508D02*
X176254816Y-76340172D01*
X176254816Y-76340172D02*
X176107170Y-76252541D01*
X176107170Y-76252541D02*
X176007078Y-76162417D01*
X176007078Y-76162417D02*
X175954540Y-76069802D01*
X182635642Y-159104157D02*
X183042378Y-158190611D01*
X183042378Y-158190611D02*
X183259889Y-158287453D01*
X183259889Y-158287453D02*
X183371027Y-158389061D01*
X183371027Y-158389061D02*
X183419295Y-158514802D01*
X183419295Y-158514802D02*
X183424060Y-158621175D01*
X183424060Y-158621175D02*
X183390089Y-158814552D01*
X183390089Y-158814552D02*
X183331983Y-158945058D01*
X183331983Y-158945058D02*
X183211008Y-159099699D01*
X183211008Y-159099699D02*
X183128769Y-159167334D01*
X183128769Y-159167334D02*
X183003027Y-159215602D01*
X183003027Y-159215602D02*
X182853153Y-159200999D01*
X182853153Y-159200999D02*
X182635642Y-159104157D01*
X184027711Y-159723946D02*
X183505685Y-159491525D01*
X183766698Y-159607736D02*
X184173435Y-158694190D01*
X184173435Y-158694190D02*
X184028325Y-158785960D01*
X184028325Y-158785960D02*
X183902584Y-158834227D01*
X183902584Y-158834227D02*
X183796211Y-158838993D01*
X184738963Y-158945979D02*
X185347993Y-159217137D01*
X185347993Y-159217137D02*
X184549737Y-159956367D01*
X244239901Y-112871398D02*
X243739901Y-112005372D01*
X243739901Y-112005372D02*
X243946098Y-111886325D01*
X243946098Y-111886325D02*
X244093625Y-111856135D01*
X244093625Y-111856135D02*
X244223723Y-111890995D01*
X244223723Y-111890995D02*
X244312581Y-111949664D01*
X244312581Y-111949664D02*
X244449059Y-112090812D01*
X244449059Y-112090812D02*
X244520487Y-112214530D01*
X244520487Y-112214530D02*
X244574486Y-112403296D01*
X244574486Y-112403296D02*
X244580866Y-112509585D01*
X244580866Y-112509585D02*
X244546006Y-112639682D01*
X244546006Y-112639682D02*
X244446098Y-112752350D01*
X244446098Y-112752350D02*
X244239901Y-112871398D01*
X245018320Y-111267277D02*
X244605927Y-111505372D01*
X244605927Y-111505372D02*
X244802783Y-111941575D01*
X244802783Y-111941575D02*
X244820212Y-111876526D01*
X244820212Y-111876526D02*
X244878881Y-111787668D01*
X244878881Y-111787668D02*
X245085078Y-111668620D01*
X245085078Y-111668620D02*
X245191366Y-111662240D01*
X245191366Y-111662240D02*
X245256415Y-111679670D01*
X245256415Y-111679670D02*
X245345273Y-111738339D01*
X245345273Y-111738339D02*
X245464321Y-111944536D01*
X245464321Y-111944536D02*
X245470701Y-112050824D01*
X245470701Y-112050824D02*
X245453271Y-112115873D01*
X245453271Y-112115873D02*
X245394602Y-112204731D01*
X245394602Y-112204731D02*
X245188405Y-112323779D01*
X245188405Y-112323779D02*
X245082117Y-112330158D01*
X245082117Y-112330158D02*
X245017068Y-112312729D01*
X229234401Y-105457178D02*
X230195663Y-105181541D01*
X230195663Y-105181541D02*
X230261290Y-105410413D01*
X230261290Y-105410413D02*
X230254893Y-105560861D01*
X230254893Y-105560861D02*
X230189595Y-105678661D01*
X230189595Y-105678661D02*
X230111172Y-105750687D01*
X230111172Y-105750687D02*
X229941200Y-105848964D01*
X229941200Y-105848964D02*
X229803877Y-105888340D01*
X229803877Y-105888340D02*
X229607654Y-105895068D01*
X229607654Y-105895068D02*
X229502980Y-105875545D01*
X229502980Y-105875545D02*
X229385180Y-105810248D01*
X229385180Y-105810248D02*
X229300029Y-105686050D01*
X229300029Y-105686050D02*
X229234401Y-105457178D01*
X230602556Y-106600546D02*
X230471300Y-106142803D01*
X230471300Y-106142803D02*
X230000431Y-106228284D01*
X230000431Y-106228284D02*
X230059331Y-106260933D01*
X230059331Y-106260933D02*
X230131356Y-106339356D01*
X230131356Y-106339356D02*
X230196984Y-106568228D01*
X230196984Y-106568228D02*
X230177461Y-106672902D01*
X230177461Y-106672902D02*
X230144812Y-106731802D01*
X230144812Y-106731802D02*
X230066389Y-106803828D01*
X230066389Y-106803828D02*
X229837517Y-106869456D01*
X229837517Y-106869456D02*
X229732843Y-106849932D01*
X229732843Y-106849932D02*
X229673943Y-106817284D01*
X229673943Y-106817284D02*
X229601917Y-106738860D01*
X229601917Y-106738860D02*
X229536289Y-106509989D01*
X229536289Y-106509989D02*
X229555813Y-106405314D01*
X229555813Y-106405314D02*
X229588461Y-106346414D01*
X229785676Y-107379702D02*
X229838178Y-107562799D01*
X229838178Y-107562799D02*
X229910203Y-107641222D01*
X229910203Y-107641222D02*
X229969103Y-107673871D01*
X229969103Y-107673871D02*
X230132678Y-107726043D01*
X230132678Y-107726043D02*
X230328901Y-107719315D01*
X230328901Y-107719315D02*
X230695096Y-107614310D01*
X230695096Y-107614310D02*
X230773519Y-107542285D01*
X230773519Y-107542285D02*
X230806168Y-107483385D01*
X230806168Y-107483385D02*
X230825691Y-107378711D01*
X230825691Y-107378711D02*
X230773188Y-107195613D01*
X230773188Y-107195613D02*
X230701163Y-107117190D01*
X230701163Y-107117190D02*
X230642263Y-107084541D01*
X230642263Y-107084541D02*
X230537589Y-107065018D01*
X230537589Y-107065018D02*
X230308717Y-107130646D01*
X230308717Y-107130646D02*
X230230294Y-107202671D01*
X230230294Y-107202671D02*
X230197645Y-107261571D01*
X230197645Y-107261571D02*
X230178122Y-107366246D01*
X230178122Y-107366246D02*
X230230624Y-107549343D01*
X230230624Y-107549343D02*
X230302650Y-107627766D01*
X230302650Y-107627766D02*
X230361550Y-107660415D01*
X230361550Y-107660415D02*
X230466224Y-107679938D01*
X155347561Y-133811851D02*
X156078915Y-133129853D01*
X156078915Y-133129853D02*
X156241295Y-133303984D01*
X156241295Y-133303984D02*
X156303897Y-133440940D01*
X156303897Y-133440940D02*
X156299197Y-133575545D01*
X156299197Y-133575545D02*
X156262020Y-133675323D01*
X156262020Y-133675323D02*
X156155191Y-133840054D01*
X156155191Y-133840054D02*
X156050712Y-133937482D01*
X156050712Y-133937482D02*
X155878930Y-134032560D01*
X155878930Y-134032560D02*
X155776801Y-134062686D01*
X155776801Y-134062686D02*
X155642196Y-134057986D01*
X155642196Y-134057986D02*
X155509942Y-133985983D01*
X155509942Y-133985983D02*
X155347561Y-133811851D01*
X156658784Y-133891332D02*
X156726087Y-133893682D01*
X156726087Y-133893682D02*
X156825865Y-133930859D01*
X156825865Y-133930859D02*
X156988246Y-134104991D01*
X156988246Y-134104991D02*
X157018372Y-134207120D01*
X157018372Y-134207120D02*
X157016021Y-134274422D01*
X157016021Y-134274422D02*
X156978845Y-134374201D01*
X156978845Y-134374201D02*
X156909192Y-134439153D01*
X156909192Y-134439153D02*
X156772237Y-134501755D01*
X156772237Y-134501755D02*
X155964607Y-134473552D01*
X155964607Y-134473552D02*
X156386797Y-134926295D01*
X157308307Y-134587860D02*
X157375609Y-134590210D01*
X157375609Y-134590210D02*
X157475388Y-134627386D01*
X157475388Y-134627386D02*
X157637768Y-134801518D01*
X157637768Y-134801518D02*
X157667894Y-134903647D01*
X157667894Y-134903647D02*
X157665544Y-134970950D01*
X157665544Y-134970950D02*
X157628367Y-135070728D01*
X157628367Y-135070728D02*
X157558714Y-135135680D01*
X157558714Y-135135680D02*
X157421759Y-135198282D01*
X157421759Y-135198282D02*
X156614129Y-135170079D01*
X156614129Y-135170079D02*
X157036319Y-135622822D01*
X173381905Y-112934819D02*
X173381905Y-111934819D01*
X173381905Y-111934819D02*
X173620000Y-111934819D01*
X173620000Y-111934819D02*
X173762857Y-111982438D01*
X173762857Y-111982438D02*
X173858095Y-112077676D01*
X173858095Y-112077676D02*
X173905714Y-112172914D01*
X173905714Y-112172914D02*
X173953333Y-112363390D01*
X173953333Y-112363390D02*
X173953333Y-112506247D01*
X173953333Y-112506247D02*
X173905714Y-112696723D01*
X173905714Y-112696723D02*
X173858095Y-112791961D01*
X173858095Y-112791961D02*
X173762857Y-112887200D01*
X173762857Y-112887200D02*
X173620000Y-112934819D01*
X173620000Y-112934819D02*
X173381905Y-112934819D01*
X174334286Y-112030057D02*
X174381905Y-111982438D01*
X174381905Y-111982438D02*
X174477143Y-111934819D01*
X174477143Y-111934819D02*
X174715238Y-111934819D01*
X174715238Y-111934819D02*
X174810476Y-111982438D01*
X174810476Y-111982438D02*
X174858095Y-112030057D01*
X174858095Y-112030057D02*
X174905714Y-112125295D01*
X174905714Y-112125295D02*
X174905714Y-112220533D01*
X174905714Y-112220533D02*
X174858095Y-112363390D01*
X174858095Y-112363390D02*
X174286667Y-112934819D01*
X174286667Y-112934819D02*
X174905714Y-112934819D01*
X219350833Y-118014819D02*
X219017500Y-117538628D01*
X218779405Y-118014819D02*
X218779405Y-117014819D01*
X218779405Y-117014819D02*
X219160357Y-117014819D01*
X219160357Y-117014819D02*
X219255595Y-117062438D01*
X219255595Y-117062438D02*
X219303214Y-117110057D01*
X219303214Y-117110057D02*
X219350833Y-117205295D01*
X219350833Y-117205295D02*
X219350833Y-117348152D01*
X219350833Y-117348152D02*
X219303214Y-117443390D01*
X219303214Y-117443390D02*
X219255595Y-117491009D01*
X219255595Y-117491009D02*
X219160357Y-117538628D01*
X219160357Y-117538628D02*
X218779405Y-117538628D01*
X220303214Y-118014819D02*
X219731786Y-118014819D01*
X220017500Y-118014819D02*
X220017500Y-117014819D01*
X220017500Y-117014819D02*
X219922262Y-117157676D01*
X219922262Y-117157676D02*
X219827024Y-117252914D01*
X219827024Y-117252914D02*
X219731786Y-117300533D01*
X204728248Y-82455589D02*
X205287441Y-81626551D01*
X205287441Y-81626551D02*
X205484831Y-81759692D01*
X205484831Y-81759692D02*
X205576637Y-81879055D01*
X205576637Y-81879055D02*
X205602336Y-82011267D01*
X205602336Y-82011267D02*
X205588558Y-82116851D01*
X205588558Y-82116851D02*
X205521523Y-82301392D01*
X205521523Y-82301392D02*
X205441638Y-82419826D01*
X205441638Y-82419826D02*
X205295647Y-82551109D01*
X205295647Y-82551109D02*
X205202913Y-82603437D01*
X205202913Y-82603437D02*
X205070700Y-82629136D01*
X205070700Y-82629136D02*
X204925638Y-82588730D01*
X204925638Y-82588730D02*
X204728248Y-82455589D01*
X206511259Y-82452026D02*
X206116479Y-82185744D01*
X206116479Y-82185744D02*
X205810719Y-82553895D01*
X205810719Y-82553895D02*
X205876825Y-82541046D01*
X205876825Y-82541046D02*
X205982409Y-82554824D01*
X205982409Y-82554824D02*
X206179799Y-82687965D01*
X206179799Y-82687965D02*
X206232127Y-82780700D01*
X206232127Y-82780700D02*
X206244976Y-82846806D01*
X206244976Y-82846806D02*
X206231198Y-82952390D01*
X206231198Y-82952390D02*
X206098057Y-83149780D01*
X206098057Y-83149780D02*
X206005322Y-83202108D01*
X206005322Y-83202108D02*
X205939216Y-83214958D01*
X205939216Y-83214958D02*
X205833632Y-83201179D01*
X205833632Y-83201179D02*
X205636242Y-83068038D01*
X205636242Y-83068038D02*
X205583914Y-82975304D01*
X205583914Y-82975304D02*
X205571064Y-82909197D01*
X207300818Y-82984591D02*
X206906039Y-82718309D01*
X206906039Y-82718309D02*
X206600278Y-83086460D01*
X206600278Y-83086460D02*
X206666384Y-83073610D01*
X206666384Y-83073610D02*
X206771969Y-83087389D01*
X206771969Y-83087389D02*
X206969358Y-83220530D01*
X206969358Y-83220530D02*
X207021686Y-83313265D01*
X207021686Y-83313265D02*
X207034536Y-83379371D01*
X207034536Y-83379371D02*
X207020757Y-83484955D01*
X207020757Y-83484955D02*
X206887616Y-83682345D01*
X206887616Y-83682345D02*
X206794882Y-83734673D01*
X206794882Y-83734673D02*
X206728776Y-83747522D01*
X206728776Y-83747522D02*
X206623191Y-83733744D01*
X206623191Y-83733744D02*
X206425802Y-83600603D01*
X206425802Y-83600603D02*
X206373474Y-83507868D01*
X206373474Y-83507868D02*
X206360624Y-83441762D01*
D11*
%TO.C,D21*%
X162362623Y-142054933D02*
X163881549Y-140367994D01*
X163881549Y-140367994D02*
X160994432Y-137768422D01*
X159475505Y-139455360D02*
X162362623Y-142054933D01*
%TO.C,D26*%
X155222623Y-106509485D02*
X157279942Y-105550142D01*
X157279942Y-105550142D02*
X155638070Y-102029136D01*
X153580751Y-102988479D02*
X155222623Y-106509485D01*
%TO.C,D8*%
X242880931Y-132889401D02*
X242255235Y-130707337D01*
X242255235Y-130707337D02*
X238520733Y-131778188D01*
X239146430Y-133960252D02*
X242880931Y-132889401D01*
%TO.C,D10*%
X234796690Y-145804268D02*
X234520046Y-143551189D01*
X234520046Y-143551189D02*
X230664004Y-144024651D01*
X230940648Y-146277731D02*
X234796690Y-145804268D01*
%TO.C,D36*%
X216122272Y-71916115D02*
X214820253Y-70056640D01*
X214820253Y-70056640D02*
X211637847Y-72284985D01*
X212939866Y-74144460D02*
X216122272Y-71916115D01*
%TO.C,D20*%
X167139829Y-147836479D02*
X168537380Y-146047694D01*
X168537380Y-146047694D02*
X165475959Y-143655849D01*
X164078407Y-145444634D02*
X167139829Y-147836479D01*
%TO.C,D57*%
X223121955Y-92823140D02*
X224958424Y-91488868D01*
X224958424Y-91488868D02*
X222674878Y-88345837D01*
X220838409Y-89680109D02*
X223121955Y-92823140D01*
%TO.C,D63*%
X220730833Y-141430705D02*
X222804581Y-142353997D01*
X222804581Y-142353997D02*
X224384753Y-138804873D01*
X222311005Y-137881581D02*
X220730833Y-141430705D01*
%TO.C,D30*%
X170396032Y-81791190D02*
X172649111Y-81514546D01*
X172649111Y-81514546D02*
X172175649Y-77658504D01*
X169922569Y-77935148D02*
X170396032Y-81791190D01*
%TO.C,D33*%
X190154170Y-72616343D02*
X192411735Y-72853622D01*
X192411735Y-72853622D02*
X192817828Y-68989905D01*
X190560263Y-68752625D02*
X190154170Y-72616343D01*
%TO.C,D7*%
X245245479Y-125591143D02*
X244431984Y-123471915D01*
X244431984Y-123471915D02*
X240805024Y-124864175D01*
X241618519Y-126983403D02*
X245245479Y-125591143D01*
%TO.C,J1*%
X209490000Y-92710000D02*
X209490000Y-95310000D01*
X209490000Y-92710000D02*
X212150000Y-92710000D01*
X209490000Y-95310000D02*
X212150000Y-95310000D01*
X210820000Y-90110000D02*
X212150000Y-90110000D01*
X212150000Y-90110000D02*
X212150000Y-91440000D01*
X212150000Y-92710000D02*
X212150000Y-95310000D01*
%TO.C,D35*%
X208855975Y-69863191D02*
X207396848Y-68124270D01*
X207396848Y-68124270D02*
X204420765Y-70621500D01*
X205879893Y-72360421D02*
X208855975Y-69863191D01*
%TO.C,D6*%
X246389885Y-118047377D02*
X245430542Y-115990058D01*
X245430542Y-115990058D02*
X241909536Y-117631930D01*
X242868879Y-119689249D02*
X246389885Y-118047377D01*
%TO.C,D3*%
X174375000Y-128405000D02*
X174375000Y-130675000D01*
X174375000Y-130675000D02*
X178260000Y-130675000D01*
X178260000Y-128405000D02*
X174375000Y-128405000D01*
%TO.C,D9*%
X239372547Y-139658919D02*
X238900587Y-137438524D01*
X238900587Y-137438524D02*
X235100484Y-138246261D01*
X235572444Y-140466656D02*
X239372547Y-139658919D01*
%TO.C,D48*%
X164574205Y-117022367D02*
X165497497Y-114948619D01*
X165497497Y-114948619D02*
X161948373Y-113368447D01*
X161025081Y-115442195D02*
X164574205Y-117022367D01*
%TO.C,D11*%
X229303370Y-151076557D02*
X229184567Y-148809668D01*
X229184567Y-148809668D02*
X225304891Y-149012993D01*
X225423694Y-151279882D02*
X229303370Y-151076557D01*
%TO.C,D62*%
X226605223Y-134498644D02*
X228807794Y-135047807D01*
X228807794Y-135047807D02*
X229747661Y-131278208D01*
X227545089Y-130729045D02*
X226605223Y-134498644D01*
%TO.C,D29*%
X165136281Y-86914847D02*
X167356676Y-86442887D01*
X167356676Y-86442887D02*
X166548939Y-82642784D01*
X164328544Y-83114744D02*
X165136281Y-86914847D01*
%TO.C,D15*%
X201254981Y-161531327D02*
X201842500Y-159338676D01*
X201842500Y-159338676D02*
X198089878Y-158333164D01*
X197502359Y-160525815D02*
X201254981Y-161531327D01*
%TO.C,D27*%
X157440457Y-99441579D02*
X159559685Y-98628084D01*
X159559685Y-98628084D02*
X158167425Y-95001124D01*
X156048197Y-95814619D02*
X157440457Y-99441579D01*
%TO.C,D19*%
X172852797Y-152742591D02*
X174089128Y-150838809D01*
X174089128Y-150838809D02*
X170830892Y-148722886D01*
X169594562Y-150626669D02*
X172852797Y-152742591D01*
%TO.C,D41*%
X242698355Y-97493497D02*
X242187716Y-95281677D01*
X242187716Y-95281677D02*
X238402288Y-96155612D01*
X238912927Y-98367432D02*
X242698355Y-97493497D01*
%TO.C,D58*%
X228240847Y-100107396D02*
X230281109Y-99112293D01*
X230281109Y-99112293D02*
X228578037Y-95620478D01*
X226537775Y-96615581D02*
X228240847Y-100107396D01*
%TO.C,D34*%
X197398755Y-71871750D02*
X199627048Y-72304886D01*
X199627048Y-72304886D02*
X200368341Y-68491265D01*
X198140048Y-68058128D02*
X197398755Y-71871750D01*
%TO.C,D12*%
X223009297Y-155417254D02*
X223088519Y-153148637D01*
X223088519Y-153148637D02*
X219205886Y-153013052D01*
X219126664Y-155281669D02*
X223009297Y-155417254D01*
%TO.C,D53*%
X188428499Y-83758031D02*
X190610563Y-83132335D01*
X190610563Y-83132335D02*
X189539712Y-79397833D01*
X187357648Y-80023530D02*
X188428499Y-83758031D01*
%TO.C,D28*%
X160747499Y-92845931D02*
X162929563Y-92220235D01*
X162929563Y-92220235D02*
X161858712Y-88485733D01*
X159676648Y-89111430D02*
X160747499Y-92845931D01*
%TO.C,D43*%
X191440996Y-148881953D02*
X190445893Y-146841691D01*
X190445893Y-146841691D02*
X186954078Y-148544763D01*
X187949181Y-150585025D02*
X191440996Y-148881953D01*
%TO.C,D24*%
X154456898Y-121296335D02*
X156338813Y-120026967D01*
X156338813Y-120026967D02*
X154166349Y-116806156D01*
X152284434Y-118075524D02*
X154456898Y-121296335D01*
%TO.C,D44*%
X182957731Y-145828201D02*
X182332035Y-143646137D01*
X182332035Y-143646137D02*
X178597533Y-144716988D01*
X179223230Y-146899052D02*
X182957731Y-145828201D01*
%TO.C,D64*%
X213229687Y-146626667D02*
X215111602Y-147896035D01*
X215111602Y-147896035D02*
X217284066Y-144675224D01*
X215402151Y-143405856D02*
X213229687Y-146626667D01*
%TO.C,D40*%
X239206098Y-90753937D02*
X238542414Y-88583125D01*
X238542414Y-88583125D02*
X234827171Y-89718989D01*
X235490854Y-91889801D02*
X239206098Y-90753937D01*
%TO.C,D16*%
X193668305Y-161139367D02*
X194444691Y-159006265D01*
X194444691Y-159006265D02*
X190793985Y-157677517D01*
X190017599Y-159810619D02*
X193668305Y-161139367D01*
%TO.C,D39*%
X234670194Y-84640178D02*
X233819837Y-82535470D01*
X233819837Y-82535470D02*
X230217727Y-83990817D01*
X231068084Y-86095524D02*
X234670194Y-84640178D01*
%TO.C,D23*%
X155938236Y-128602457D02*
X157702358Y-127173900D01*
X157702358Y-127173900D02*
X155257448Y-124154688D01*
X153493327Y-125583245D02*
X155938236Y-128602457D01*
%TO.C,D56*%
X216303654Y-87148945D02*
X217880529Y-85516044D01*
X217880529Y-85516044D02*
X215085894Y-82817296D01*
X213509019Y-84450197D02*
X216303654Y-87148945D01*
%TO.C,D13*%
X216124043Y-158631830D02*
X216361322Y-156374265D01*
X216361322Y-156374265D02*
X212497605Y-155968172D01*
X212260325Y-158225737D02*
X216124043Y-158631830D01*
%TO.C,D1*%
X174375000Y-97925000D02*
X174375000Y-100195000D01*
X174375000Y-100195000D02*
X178260000Y-100195000D01*
X178260000Y-97925000D02*
X174375000Y-97925000D01*
%TO.C,D50*%
X168492754Y-99959845D02*
X170069629Y-98326944D01*
X170069629Y-98326944D02*
X167274994Y-95628196D01*
X165698119Y-97261097D02*
X168492754Y-99959845D01*
%TO.C,D32*%
X183084246Y-74540997D02*
X185352863Y-74620219D01*
X185352863Y-74620219D02*
X185488448Y-70737586D01*
X183219831Y-70658364D02*
X183084246Y-74540997D01*
%TO.C,D49*%
X165400667Y-108216113D02*
X166670035Y-106334198D01*
X166670035Y-106334198D02*
X163449224Y-104161734D01*
X162179856Y-106043649D02*
X165400667Y-108216113D01*
%TO.C,D45*%
X175590722Y-140694835D02*
X175353443Y-138437270D01*
X175353443Y-138437270D02*
X171489725Y-138843363D01*
X171727005Y-141100928D02*
X175590722Y-140694835D01*
%TO.C,D51*%
X173624455Y-92823140D02*
X175460924Y-91488868D01*
X175460924Y-91488868D02*
X173177378Y-88345837D01*
X171340909Y-89680109D02*
X173624455Y-92823140D01*
%TO.C,D38*%
X229204996Y-79403353D02*
X228209893Y-77363091D01*
X228209893Y-77363091D02*
X224718078Y-79066163D01*
X225713181Y-81106425D02*
X229204996Y-79403353D01*
%TO.C,D18*%
X179270947Y-156678483D02*
X180371465Y-154693097D01*
X180371465Y-154693097D02*
X176973567Y-152809611D01*
X175873050Y-154794998D02*
X179270947Y-156678483D01*
%TO.C,D52*%
X180429947Y-87296496D02*
X182470209Y-86301393D01*
X182470209Y-86301393D02*
X180767137Y-82809578D01*
X178726875Y-83804681D02*
X180429947Y-87296496D01*
%TO.C,D54*%
X197058465Y-82447222D02*
X199316030Y-82209943D01*
X199316030Y-82209943D02*
X198909937Y-78346225D01*
X196652372Y-78583505D02*
X197058465Y-82447222D01*
%TO.C,D60*%
X232058465Y-117447222D02*
X234316030Y-117209943D01*
X234316030Y-117209943D02*
X233909937Y-113346225D01*
X231652372Y-113583505D02*
X232058465Y-117447222D01*
%TO.C,D14*%
X208789550Y-160711845D02*
X209222686Y-158483552D01*
X209222686Y-158483552D02*
X205409065Y-157742259D01*
X204975928Y-159970552D02*
X208789550Y-160711845D01*
%TO.C,D37*%
X222964195Y-75094623D02*
X221795059Y-73148853D01*
X221795059Y-73148853D02*
X218464964Y-75149776D01*
X219634101Y-77095546D02*
X222964195Y-75094623D01*
%TO.C,D61*%
X230464171Y-126315060D02*
X232728642Y-126473407D01*
X232728642Y-126473407D02*
X232999646Y-122597871D01*
X230735175Y-122439524D02*
X230464171Y-126315060D01*
%TO.C,D42*%
X200464140Y-149631245D02*
X199129868Y-147794776D01*
X199129868Y-147794776D02*
X195986837Y-150078322D01*
X197321109Y-151914791D02*
X200464140Y-149631245D01*
%TO.C,D47*%
X166083544Y-125768877D02*
X166632707Y-123566306D01*
X166632707Y-123566306D02*
X162863108Y-122626439D01*
X162313945Y-124829011D02*
X166083544Y-125768877D01*
%TO.C,D46*%
X169837760Y-133847729D02*
X169996107Y-131583258D01*
X169996107Y-131583258D02*
X166120571Y-131312254D01*
X165962224Y-133576725D02*
X169837760Y-133847729D01*
%TO.C,D4*%
X192155000Y-141105000D02*
X192155000Y-143375000D01*
X192155000Y-143375000D02*
X196040000Y-143375000D01*
X196040000Y-141105000D02*
X192155000Y-141105000D01*
%TO.C,D25*%
X154247161Y-113861068D02*
X156213039Y-112726068D01*
X156213039Y-112726068D02*
X154270539Y-109361559D01*
X152304661Y-110496559D02*
X154247161Y-113861068D01*
%TO.C,D31*%
X176462943Y-77639870D02*
X178729832Y-77521067D01*
X178729832Y-77521067D02*
X178526507Y-73641391D01*
X176259618Y-73760194D02*
X176462943Y-77639870D01*
%TO.C,D17*%
X186296005Y-159486167D02*
X187219297Y-157412419D01*
X187219297Y-157412419D02*
X183670173Y-155832247D01*
X182746881Y-157905995D02*
X186296005Y-159486167D01*
%TO.C,D5*%
X246288068Y-110372739D02*
X245153068Y-108406861D01*
X245153068Y-108406861D02*
X241788559Y-110349361D01*
X242923559Y-112315239D02*
X246288068Y-110372739D01*
%TO.C,D59*%
X231294599Y-108506731D02*
X233476663Y-107881035D01*
X233476663Y-107881035D02*
X232405812Y-104146533D01*
X230223748Y-104772230D02*
X231294599Y-108506731D01*
%TO.C,D22*%
X158567680Y-135593711D02*
X160227853Y-134045575D01*
X160227853Y-134045575D02*
X157578289Y-131204266D01*
X155918116Y-132752402D02*
X158567680Y-135593711D01*
%TO.C,D2*%
X171835000Y-113165000D02*
X171835000Y-115435000D01*
X171835000Y-115435000D02*
X175720000Y-115435000D01*
X175720000Y-113165000D02*
X171835000Y-113165000D01*
%TO.C,R1*%
X218790436Y-118470000D02*
X220244564Y-118470000D01*
X218790436Y-120290000D02*
X220244564Y-120290000D01*
%TO.C,D55*%
X208266667Y-83467413D02*
X209536035Y-81585498D01*
X209536035Y-81585498D02*
X206315224Y-79413034D01*
X205045856Y-81294949D02*
X208266667Y-83467413D01*
%TD*%
M02*
