%TF.GenerationSoftware,KiCad,Pcbnew,7.0.6*%
%TF.CreationDate,2023-07-29T18:39:12+05:30*%
%TF.ProjectId,circular_pcb_lastassignment,63697263-756c-4617-925f-7063625f6c61,rev?*%
%TF.SameCoordinates,Original*%
%TF.FileFunction,Legend,Top*%
%TF.FilePolarity,Positive*%
%FSLAX46Y46*%
G04 Gerber Fmt 4.6, Leading zero omitted, Abs format (unit mm)*
G04 Created by KiCad (PCBNEW 7.0.6) date 2023-07-29 18:39:12*
%MOMM*%
%LPD*%
G01*
G04 APERTURE LIST*
%ADD10C,0.150000*%
%ADD11C,0.120000*%
G04 APERTURE END LIST*
D10*
X169607383Y-99463083D02*
X169080613Y-99217357D01*
X169112512Y-99748797D02*
X168612512Y-98882772D01*
X168612512Y-98882772D02*
X168942426Y-98692296D01*
X168942426Y-98692296D02*
X169048714Y-98685916D01*
X169048714Y-98685916D02*
X169113763Y-98703346D01*
X169113763Y-98703346D02*
X169202621Y-98762015D01*
X169202621Y-98762015D02*
X169274050Y-98885733D01*
X169274050Y-98885733D02*
X169280430Y-98992021D01*
X169280430Y-98992021D02*
X169263000Y-99057070D01*
X169263000Y-99057070D02*
X169204331Y-99145928D01*
X169204331Y-99145928D02*
X168874416Y-99336404D01*
X170432169Y-98986892D02*
X169937298Y-99272607D01*
X170184734Y-99129750D02*
X169684734Y-98263724D01*
X169684734Y-98263724D02*
X169673684Y-98435061D01*
X169673684Y-98435061D02*
X169638824Y-98565159D01*
X169638824Y-98565159D02*
X169580155Y-98654017D01*
X170309703Y-98012869D02*
X170327133Y-97947821D01*
X170327133Y-97947821D02*
X170385802Y-97858962D01*
X170385802Y-97858962D02*
X170591998Y-97739915D01*
X170591998Y-97739915D02*
X170698287Y-97733535D01*
X170698287Y-97733535D02*
X170763335Y-97750965D01*
X170763335Y-97750965D02*
X170852194Y-97809634D01*
X170852194Y-97809634D02*
X170899813Y-97892112D01*
X170899813Y-97892112D02*
X170930002Y-98039640D01*
X170930002Y-98039640D02*
X170720845Y-98820226D01*
X170720845Y-98820226D02*
X171256956Y-98510702D01*
X159445626Y-108236035D02*
X158866566Y-108286615D01*
X159159911Y-108730906D02*
X158293886Y-108230906D01*
X158293886Y-108230906D02*
X158484362Y-107900992D01*
X158484362Y-107900992D02*
X158573221Y-107842323D01*
X158573221Y-107842323D02*
X158638269Y-107824893D01*
X158638269Y-107824893D02*
X158744558Y-107831273D01*
X158744558Y-107831273D02*
X158868275Y-107902701D01*
X158868275Y-107902701D02*
X158926945Y-107991560D01*
X158926945Y-107991560D02*
X158944374Y-108056609D01*
X158944374Y-108056609D02*
X158937995Y-108162897D01*
X158937995Y-108162897D02*
X158747518Y-108492811D01*
X159921816Y-107411249D02*
X159636102Y-107906120D01*
X159778959Y-107658684D02*
X158912934Y-107158684D01*
X158912934Y-107158684D02*
X158989033Y-107312592D01*
X158989033Y-107312592D02*
X159023892Y-107442689D01*
X159023892Y-107442689D02*
X159017512Y-107548977D01*
X160398007Y-106586462D02*
X160112292Y-107081334D01*
X160255150Y-106833898D02*
X159389124Y-106333898D01*
X159389124Y-106333898D02*
X159465223Y-106487805D01*
X159465223Y-106487805D02*
X159500083Y-106617903D01*
X159500083Y-106617903D02*
X159493703Y-106724191D01*
X155031819Y-120914457D02*
X154555628Y-121247790D01*
X155031819Y-121485885D02*
X154031819Y-121485885D01*
X154031819Y-121485885D02*
X154031819Y-121104933D01*
X154031819Y-121104933D02*
X154079438Y-121009695D01*
X154079438Y-121009695D02*
X154127057Y-120962076D01*
X154127057Y-120962076D02*
X154222295Y-120914457D01*
X154222295Y-120914457D02*
X154365152Y-120914457D01*
X154365152Y-120914457D02*
X154460390Y-120962076D01*
X154460390Y-120962076D02*
X154508009Y-121009695D01*
X154508009Y-121009695D02*
X154555628Y-121104933D01*
X154555628Y-121104933D02*
X154555628Y-121485885D01*
X155031819Y-119962076D02*
X155031819Y-120533504D01*
X155031819Y-120247790D02*
X154031819Y-120247790D01*
X154031819Y-120247790D02*
X154174676Y-120343028D01*
X154174676Y-120343028D02*
X154269914Y-120438266D01*
X154269914Y-120438266D02*
X154317533Y-120533504D01*
X154031819Y-119343028D02*
X154031819Y-119247790D01*
X154031819Y-119247790D02*
X154079438Y-119152552D01*
X154079438Y-119152552D02*
X154127057Y-119104933D01*
X154127057Y-119104933D02*
X154222295Y-119057314D01*
X154222295Y-119057314D02*
X154412771Y-119009695D01*
X154412771Y-119009695D02*
X154650866Y-119009695D01*
X154650866Y-119009695D02*
X154841342Y-119057314D01*
X154841342Y-119057314D02*
X154936580Y-119104933D01*
X154936580Y-119104933D02*
X154984200Y-119152552D01*
X154984200Y-119152552D02*
X155031819Y-119247790D01*
X155031819Y-119247790D02*
X155031819Y-119343028D01*
X155031819Y-119343028D02*
X154984200Y-119438266D01*
X154984200Y-119438266D02*
X154936580Y-119485885D01*
X154936580Y-119485885D02*
X154841342Y-119533504D01*
X154841342Y-119533504D02*
X154650866Y-119581123D01*
X154650866Y-119581123D02*
X154412771Y-119581123D01*
X154412771Y-119581123D02*
X154222295Y-119533504D01*
X154222295Y-119533504D02*
X154127057Y-119485885D01*
X154127057Y-119485885D02*
X154079438Y-119438266D01*
X154079438Y-119438266D02*
X154031819Y-119343028D01*
X156355952Y-133854967D02*
X156601678Y-133328196D01*
X156070237Y-133360095D02*
X156936263Y-132860095D01*
X156936263Y-132860095D02*
X157126739Y-133190010D01*
X157126739Y-133190010D02*
X157133119Y-133296298D01*
X157133119Y-133296298D02*
X157115689Y-133361347D01*
X157115689Y-133361347D02*
X157057020Y-133450205D01*
X157057020Y-133450205D02*
X156933302Y-133521634D01*
X156933302Y-133521634D02*
X156827014Y-133528013D01*
X156827014Y-133528013D02*
X156761965Y-133510583D01*
X156761965Y-133510583D02*
X156673107Y-133451914D01*
X156673107Y-133451914D02*
X156482630Y-133122000D01*
X156594047Y-134267360D02*
X156689285Y-134432317D01*
X156689285Y-134432317D02*
X156778143Y-134490986D01*
X156778143Y-134490986D02*
X156843192Y-134508416D01*
X156843192Y-134508416D02*
X157014529Y-134519466D01*
X157014529Y-134519466D02*
X157203296Y-134465467D01*
X157203296Y-134465467D02*
X157533210Y-134274991D01*
X157533210Y-134274991D02*
X157591879Y-134186133D01*
X157591879Y-134186133D02*
X157609309Y-134121084D01*
X157609309Y-134121084D02*
X157602929Y-134014796D01*
X157602929Y-134014796D02*
X157507691Y-133849839D01*
X157507691Y-133849839D02*
X157418833Y-133791169D01*
X157418833Y-133791169D02*
X157353784Y-133773740D01*
X157353784Y-133773740D02*
X157247496Y-133780119D01*
X157247496Y-133780119D02*
X157041299Y-133899167D01*
X157041299Y-133899167D02*
X156982630Y-133988025D01*
X156982630Y-133988025D02*
X156965201Y-134053074D01*
X156965201Y-134053074D02*
X156971580Y-134159362D01*
X156971580Y-134159362D02*
X157066818Y-134324320D01*
X157066818Y-134324320D02*
X157155677Y-134382989D01*
X157155677Y-134382989D02*
X157220726Y-134400418D01*
X157220726Y-134400418D02*
X157327014Y-134394039D01*
X165165548Y-144645880D02*
X165114968Y-144066821D01*
X164670676Y-144360166D02*
X165170676Y-143494141D01*
X165170676Y-143494141D02*
X165500591Y-143684617D01*
X165500591Y-143684617D02*
X165559260Y-143773475D01*
X165559260Y-143773475D02*
X165576689Y-143838524D01*
X165576689Y-143838524D02*
X165570310Y-143944812D01*
X165570310Y-143944812D02*
X165498881Y-144068530D01*
X165498881Y-144068530D02*
X165410023Y-144127199D01*
X165410023Y-144127199D02*
X165344974Y-144144629D01*
X165344974Y-144144629D02*
X165238686Y-144138249D01*
X165238686Y-144138249D02*
X164908771Y-143947773D01*
X165946134Y-144436723D02*
X165887465Y-144347865D01*
X165887465Y-144347865D02*
X165870035Y-144282816D01*
X165870035Y-144282816D02*
X165876415Y-144176528D01*
X165876415Y-144176528D02*
X165900224Y-144135288D01*
X165900224Y-144135288D02*
X165989083Y-144076619D01*
X165989083Y-144076619D02*
X166054131Y-144059189D01*
X166054131Y-144059189D02*
X166160419Y-144065569D01*
X166160419Y-144065569D02*
X166325377Y-144160807D01*
X166325377Y-144160807D02*
X166384046Y-144249666D01*
X166384046Y-144249666D02*
X166401476Y-144314714D01*
X166401476Y-144314714D02*
X166395096Y-144421003D01*
X166395096Y-144421003D02*
X166371286Y-144462242D01*
X166371286Y-144462242D02*
X166282428Y-144520911D01*
X166282428Y-144520911D02*
X166217379Y-144538341D01*
X166217379Y-144538341D02*
X166111091Y-144531961D01*
X166111091Y-144531961D02*
X165946134Y-144436723D01*
X165946134Y-144436723D02*
X165839846Y-144430343D01*
X165839846Y-144430343D02*
X165774797Y-144447773D01*
X165774797Y-144447773D02*
X165685938Y-144506442D01*
X165685938Y-144506442D02*
X165590700Y-144671399D01*
X165590700Y-144671399D02*
X165584321Y-144777687D01*
X165584321Y-144777687D02*
X165601750Y-144842736D01*
X165601750Y-144842736D02*
X165660419Y-144931595D01*
X165660419Y-144931595D02*
X165825377Y-145026833D01*
X165825377Y-145026833D02*
X165931665Y-145033212D01*
X165931665Y-145033212D02*
X165996714Y-145015783D01*
X165996714Y-145015783D02*
X166085572Y-144957114D01*
X166085572Y-144957114D02*
X166180810Y-144792156D01*
X166180810Y-144792156D02*
X166187190Y-144685868D01*
X166187190Y-144685868D02*
X166169760Y-144620819D01*
X166169760Y-144620819D02*
X166111091Y-144531961D01*
X178190333Y-149586419D02*
X177857000Y-149110228D01*
X177618905Y-149586419D02*
X177618905Y-148586419D01*
X177618905Y-148586419D02*
X177999857Y-148586419D01*
X177999857Y-148586419D02*
X178095095Y-148634038D01*
X178095095Y-148634038D02*
X178142714Y-148681657D01*
X178142714Y-148681657D02*
X178190333Y-148776895D01*
X178190333Y-148776895D02*
X178190333Y-148919752D01*
X178190333Y-148919752D02*
X178142714Y-149014990D01*
X178142714Y-149014990D02*
X178095095Y-149062609D01*
X178095095Y-149062609D02*
X177999857Y-149110228D01*
X177999857Y-149110228D02*
X177618905Y-149110228D01*
X178523667Y-148586419D02*
X179190333Y-148586419D01*
X179190333Y-148586419D02*
X178761762Y-149586419D01*
X191940367Y-147352546D02*
X191413596Y-147106820D01*
X191445495Y-147638261D02*
X190945495Y-146772235D01*
X190945495Y-146772235D02*
X191275410Y-146581759D01*
X191275410Y-146581759D02*
X191381698Y-146575379D01*
X191381698Y-146575379D02*
X191446747Y-146592809D01*
X191446747Y-146592809D02*
X191535605Y-146651478D01*
X191535605Y-146651478D02*
X191607034Y-146775196D01*
X191607034Y-146775196D02*
X191613413Y-146881484D01*
X191613413Y-146881484D02*
X191595983Y-146946533D01*
X191595983Y-146946533D02*
X191537314Y-147035391D01*
X191537314Y-147035391D02*
X191207400Y-147225868D01*
X192182674Y-146057950D02*
X192017717Y-146153188D01*
X192017717Y-146153188D02*
X191959048Y-146242046D01*
X191959048Y-146242046D02*
X191941618Y-146307095D01*
X191941618Y-146307095D02*
X191930568Y-146478432D01*
X191930568Y-146478432D02*
X191984567Y-146667199D01*
X191984567Y-146667199D02*
X192175043Y-146997113D01*
X192175043Y-146997113D02*
X192263902Y-147055782D01*
X192263902Y-147055782D02*
X192328950Y-147073212D01*
X192328950Y-147073212D02*
X192435239Y-147066832D01*
X192435239Y-147066832D02*
X192600196Y-146971594D01*
X192600196Y-146971594D02*
X192658865Y-146882736D01*
X192658865Y-146882736D02*
X192676295Y-146817687D01*
X192676295Y-146817687D02*
X192669915Y-146711399D01*
X192669915Y-146711399D02*
X192550867Y-146505202D01*
X192550867Y-146505202D02*
X192462009Y-146446533D01*
X192462009Y-146446533D02*
X192396960Y-146429103D01*
X192396960Y-146429103D02*
X192290672Y-146435483D01*
X192290672Y-146435483D02*
X192125715Y-146530721D01*
X192125715Y-146530721D02*
X192067046Y-146619580D01*
X192067046Y-146619580D02*
X192049616Y-146684628D01*
X192049616Y-146684628D02*
X192055996Y-146790917D01*
X202731380Y-138543050D02*
X202152321Y-138593630D01*
X202445666Y-139037922D02*
X201579641Y-138537922D01*
X201579641Y-138537922D02*
X201770117Y-138208007D01*
X201770117Y-138208007D02*
X201858975Y-138149338D01*
X201858975Y-138149338D02*
X201924024Y-138131909D01*
X201924024Y-138131909D02*
X202030312Y-138138288D01*
X202030312Y-138138288D02*
X202154030Y-138209717D01*
X202154030Y-138209717D02*
X202212699Y-138298575D01*
X202212699Y-138298575D02*
X202230129Y-138363624D01*
X202230129Y-138363624D02*
X202223749Y-138469912D01*
X202223749Y-138469912D02*
X202033273Y-138799827D01*
X202317736Y-137259503D02*
X202079641Y-137671896D01*
X202079641Y-137671896D02*
X202468224Y-137951231D01*
X202468224Y-137951231D02*
X202450794Y-137886182D01*
X202450794Y-137886182D02*
X202457174Y-137779894D01*
X202457174Y-137779894D02*
X202576222Y-137573697D01*
X202576222Y-137573697D02*
X202665080Y-137515028D01*
X202665080Y-137515028D02*
X202730129Y-137497599D01*
X202730129Y-137497599D02*
X202836417Y-137503978D01*
X202836417Y-137503978D02*
X203042614Y-137623026D01*
X203042614Y-137623026D02*
X203101283Y-137711884D01*
X203101283Y-137711884D02*
X203118712Y-137776933D01*
X203118712Y-137776933D02*
X203112333Y-137883221D01*
X203112333Y-137883221D02*
X202993285Y-138089418D01*
X202993285Y-138089418D02*
X202904427Y-138148087D01*
X202904427Y-138148087D02*
X202839378Y-138165517D01*
X207671819Y-125518266D02*
X207195628Y-125851599D01*
X207671819Y-126089694D02*
X206671819Y-126089694D01*
X206671819Y-126089694D02*
X206671819Y-125708742D01*
X206671819Y-125708742D02*
X206719438Y-125613504D01*
X206719438Y-125613504D02*
X206767057Y-125565885D01*
X206767057Y-125565885D02*
X206862295Y-125518266D01*
X206862295Y-125518266D02*
X207005152Y-125518266D01*
X207005152Y-125518266D02*
X207100390Y-125565885D01*
X207100390Y-125565885D02*
X207148009Y-125613504D01*
X207148009Y-125613504D02*
X207195628Y-125708742D01*
X207195628Y-125708742D02*
X207195628Y-126089694D01*
X207005152Y-124661123D02*
X207671819Y-124661123D01*
X206624200Y-124899218D02*
X207338485Y-125137313D01*
X207338485Y-125137313D02*
X207338485Y-124518266D01*
X204483611Y-111934376D02*
X204729337Y-111407605D01*
X204197896Y-111439504D02*
X205063922Y-110939504D01*
X205063922Y-110939504D02*
X205254398Y-111269419D01*
X205254398Y-111269419D02*
X205260778Y-111375707D01*
X205260778Y-111375707D02*
X205243348Y-111440756D01*
X205243348Y-111440756D02*
X205184679Y-111529614D01*
X205184679Y-111529614D02*
X205060961Y-111601043D01*
X205060961Y-111601043D02*
X204954673Y-111607422D01*
X204954673Y-111607422D02*
X204889624Y-111589992D01*
X204889624Y-111589992D02*
X204800766Y-111531323D01*
X204800766Y-111531323D02*
X204610289Y-111201409D01*
X205516303Y-111723051D02*
X205825826Y-112259162D01*
X205825826Y-112259162D02*
X205329245Y-112160963D01*
X205329245Y-112160963D02*
X205400674Y-112284681D01*
X205400674Y-112284681D02*
X205407054Y-112390969D01*
X205407054Y-112390969D02*
X205389624Y-112456018D01*
X205389624Y-112456018D02*
X205330955Y-112544876D01*
X205330955Y-112544876D02*
X205124758Y-112663924D01*
X205124758Y-112663924D02*
X205018470Y-112670304D01*
X205018470Y-112670304D02*
X204953421Y-112652874D01*
X204953421Y-112652874D02*
X204864563Y-112594205D01*
X204864563Y-112594205D02*
X204721706Y-112346769D01*
X204721706Y-112346769D02*
X204715326Y-112240481D01*
X204715326Y-112240481D02*
X204732756Y-112175432D01*
X195884957Y-101598321D02*
X195834377Y-101019262D01*
X195390085Y-101312607D02*
X195890085Y-100446582D01*
X195890085Y-100446582D02*
X196220000Y-100637058D01*
X196220000Y-100637058D02*
X196278669Y-100725916D01*
X196278669Y-100725916D02*
X196296098Y-100790965D01*
X196296098Y-100790965D02*
X196289719Y-100897253D01*
X196289719Y-100897253D02*
X196218290Y-101020971D01*
X196218290Y-101020971D02*
X196129432Y-101079640D01*
X196129432Y-101079640D02*
X196064383Y-101097070D01*
X196064383Y-101097070D02*
X195958095Y-101090690D01*
X195958095Y-101090690D02*
X195628180Y-100900214D01*
X196667252Y-101005251D02*
X196732301Y-100987821D01*
X196732301Y-100987821D02*
X196838589Y-100994201D01*
X196838589Y-100994201D02*
X197044786Y-101113248D01*
X197044786Y-101113248D02*
X197103455Y-101202107D01*
X197103455Y-101202107D02*
X197120885Y-101267155D01*
X197120885Y-101267155D02*
X197114505Y-101373444D01*
X197114505Y-101373444D02*
X197066886Y-101455922D01*
X197066886Y-101455922D02*
X196954218Y-101555831D01*
X196954218Y-101555831D02*
X196173632Y-101764988D01*
X196173632Y-101764988D02*
X196709743Y-102074512D01*
X183270333Y-96946419D02*
X182937000Y-96470228D01*
X182698905Y-96946419D02*
X182698905Y-95946419D01*
X182698905Y-95946419D02*
X183079857Y-95946419D01*
X183079857Y-95946419D02*
X183175095Y-95994038D01*
X183175095Y-95994038D02*
X183222714Y-96041657D01*
X183222714Y-96041657D02*
X183270333Y-96136895D01*
X183270333Y-96136895D02*
X183270333Y-96279752D01*
X183270333Y-96279752D02*
X183222714Y-96374990D01*
X183222714Y-96374990D02*
X183175095Y-96422609D01*
X183175095Y-96422609D02*
X183079857Y-96470228D01*
X183079857Y-96470228D02*
X182698905Y-96470228D01*
X184222714Y-96946419D02*
X183651286Y-96946419D01*
X183937000Y-96946419D02*
X183937000Y-95946419D01*
X183937000Y-95946419D02*
X183841762Y-96089276D01*
X183841762Y-96089276D02*
X183746524Y-96184514D01*
X183746524Y-96184514D02*
X183651286Y-96232133D01*
X179905785Y-118168409D02*
X180048642Y-118216028D01*
X180048642Y-118216028D02*
X180096261Y-118263647D01*
X180096261Y-118263647D02*
X180143880Y-118358885D01*
X180143880Y-118358885D02*
X180143880Y-118501742D01*
X180143880Y-118501742D02*
X180096261Y-118596980D01*
X180096261Y-118596980D02*
X180048642Y-118644600D01*
X180048642Y-118644600D02*
X179953404Y-118692219D01*
X179953404Y-118692219D02*
X179572452Y-118692219D01*
X179572452Y-118692219D02*
X179572452Y-117692219D01*
X179572452Y-117692219D02*
X179905785Y-117692219D01*
X179905785Y-117692219D02*
X180001023Y-117739838D01*
X180001023Y-117739838D02*
X180048642Y-117787457D01*
X180048642Y-117787457D02*
X180096261Y-117882695D01*
X180096261Y-117882695D02*
X180096261Y-117977933D01*
X180096261Y-117977933D02*
X180048642Y-118073171D01*
X180048642Y-118073171D02*
X180001023Y-118120790D01*
X180001023Y-118120790D02*
X179905785Y-118168409D01*
X179905785Y-118168409D02*
X179572452Y-118168409D01*
X180429595Y-117692219D02*
X181001023Y-117692219D01*
X180715309Y-118692219D02*
X180715309Y-117692219D01*
X181858166Y-118692219D02*
X181286738Y-118692219D01*
X181572452Y-118692219D02*
X181572452Y-117692219D01*
X181572452Y-117692219D02*
X181477214Y-117835076D01*
X181477214Y-117835076D02*
X181381976Y-117930314D01*
X181381976Y-117930314D02*
X181286738Y-117977933D01*
D11*
%TO.C,R12*%
X174432204Y-104974204D02*
X171112204Y-99223796D01*
X172772204Y-102099000D02*
X172997371Y-101969000D01*
X165361796Y-102543796D02*
X168681796Y-108294204D01*
X171112204Y-99223796D02*
X165361796Y-102543796D01*
X168681796Y-108294204D02*
X174432204Y-104974204D01*
%TO.C,R11*%
X166379604Y-110596396D02*
X160629196Y-107276396D01*
X163504400Y-108936396D02*
X163634400Y-108711229D01*
X157309196Y-113026804D02*
X163059604Y-116346804D01*
X160629196Y-107276396D02*
X157309196Y-113026804D01*
X163059604Y-116346804D02*
X166379604Y-110596396D01*
%TO.C,R10*%
X162217000Y-119491600D02*
X155577000Y-119491600D01*
X158897000Y-119491600D02*
X158897000Y-119231600D01*
X155577000Y-126131600D02*
X162217000Y-126131600D01*
X155577000Y-119491600D02*
X155577000Y-126131600D01*
X162217000Y-126131600D02*
X162217000Y-119491600D01*
%TO.C,R9*%
X163059604Y-129276396D02*
X157309196Y-132596396D01*
X160184400Y-130936396D02*
X160054400Y-130711229D01*
X160629196Y-138346804D02*
X166379604Y-135026804D01*
X157309196Y-132596396D02*
X160629196Y-138346804D01*
X166379604Y-135026804D02*
X163059604Y-129276396D01*
%TO.C,R8*%
X168681796Y-137328896D02*
X165361796Y-143079304D01*
X167021796Y-140204100D02*
X166796629Y-140074100D01*
X171112204Y-146399304D02*
X174432204Y-140648896D01*
X165361796Y-143079304D02*
X171112204Y-146399304D01*
X174432204Y-140648896D02*
X168681796Y-137328896D01*
%TO.C,R7*%
X177577000Y-141491600D02*
X177577000Y-148131600D01*
X177577000Y-144811600D02*
X177317000Y-144811600D01*
X184217000Y-148131600D02*
X184217000Y-141491600D01*
X177577000Y-148131600D02*
X184217000Y-148131600D01*
X184217000Y-141491600D02*
X177577000Y-141491600D01*
%TO.C,R6*%
X187361796Y-140648896D02*
X190681796Y-146399304D01*
X189021796Y-143524100D02*
X188796629Y-143654100D01*
X196432204Y-143079304D02*
X193112204Y-137328896D01*
X190681796Y-146399304D02*
X196432204Y-143079304D01*
X193112204Y-137328896D02*
X187361796Y-140648896D01*
%TO.C,R5*%
X195414396Y-135026804D02*
X201164804Y-138346804D01*
X198289600Y-136686804D02*
X198159600Y-136911971D01*
X204484804Y-132596396D02*
X198734396Y-129276396D01*
X201164804Y-138346804D02*
X204484804Y-132596396D01*
X198734396Y-129276396D02*
X195414396Y-135026804D01*
%TO.C,R4*%
X199577000Y-126131600D02*
X206217000Y-126131600D01*
X202897000Y-126131600D02*
X202897000Y-126391600D01*
X206217000Y-119491600D02*
X199577000Y-119491600D01*
X206217000Y-126131600D02*
X206217000Y-119491600D01*
X199577000Y-119491600D02*
X199577000Y-126131600D01*
%TO.C,R3*%
X198734396Y-116346804D02*
X204484804Y-113026804D01*
X201609600Y-114686804D02*
X201739600Y-114911971D01*
X201164804Y-107276396D02*
X195414396Y-110596396D01*
X204484804Y-113026804D02*
X201164804Y-107276396D01*
X195414396Y-110596396D02*
X198734396Y-116346804D01*
%TO.C,R2*%
X193112204Y-108294204D02*
X196432204Y-102543796D01*
X194772204Y-105419000D02*
X194997371Y-105549000D01*
X190681796Y-99223796D02*
X187361796Y-104974204D01*
X196432204Y-102543796D02*
X190681796Y-99223796D01*
X187361796Y-104974204D02*
X193112204Y-108294204D01*
%TO.C,R1*%
X184217000Y-104131600D02*
X184217000Y-97491600D01*
X184217000Y-100811600D02*
X184477000Y-100811600D01*
X177577000Y-97491600D02*
X177577000Y-104131600D01*
X184217000Y-97491600D02*
X177577000Y-97491600D01*
X177577000Y-104131600D02*
X184217000Y-104131600D01*
%TO.C,BT1*%
X179361500Y-122277400D02*
X179361500Y-124877400D01*
X182021500Y-122277400D02*
X182021500Y-124877400D01*
X179361500Y-122277400D02*
X182021500Y-122277400D01*
X180691500Y-119677400D02*
X182021500Y-119677400D01*
X182021500Y-119677400D02*
X182021500Y-121007400D01*
X179361500Y-124877400D02*
X182021500Y-124877400D01*
%TD*%
M02*
