%TF.GenerationSoftware,KiCad,Pcbnew,7.0.6*%
%TF.CreationDate,2023-07-29T18:39:12+05:30*%
%TF.ProjectId,circular_pcb_lastassignment,63697263-756c-4617-925f-7063625f6c61,rev?*%
%TF.SameCoordinates,Original*%
%TF.FileFunction,Copper,L2,Bot*%
%TF.FilePolarity,Positive*%
%FSLAX46Y46*%
G04 Gerber Fmt 4.6, Leading zero omitted, Abs format (unit mm)*
G04 Created by KiCad (PCBNEW 7.0.6) date 2023-07-29 18:39:12*
%MOMM*%
%LPD*%
G01*
G04 APERTURE LIST*
G04 Aperture macros list*
%AMHorizOval*
0 Thick line with rounded ends*
0 $1 width*
0 $2 $3 position (X,Y) of the first rounded end (center of the circle)*
0 $4 $5 position (X,Y) of the second rounded end (center of the circle)*
0 Add line between two ends*
20,1,$1,$2,$3,$4,$5,0*
0 Add two circle primitives to create the rounded ends*
1,1,$1,$2,$3*
1,1,$1,$4,$5*%
G04 Aperture macros list end*
%TA.AperFunction,ComponentPad*%
%ADD10C,2.400000*%
%TD*%
%TA.AperFunction,ComponentPad*%
%ADD11HorizOval,2.400000X0.000000X0.000000X0.000000X0.000000X0*%
%TD*%
%TA.AperFunction,ComponentPad*%
%ADD12HorizOval,2.400000X0.000000X0.000000X0.000000X0.000000X0*%
%TD*%
%TA.AperFunction,ComponentPad*%
%ADD13O,2.400000X2.400000*%
%TD*%
%TA.AperFunction,ComponentPad*%
%ADD14HorizOval,2.400000X0.000000X0.000000X0.000000X0.000000X0*%
%TD*%
%TA.AperFunction,ComponentPad*%
%ADD15HorizOval,2.400000X0.000000X0.000000X0.000000X0.000000X0*%
%TD*%
%TA.AperFunction,ComponentPad*%
%ADD16HorizOval,2.400000X0.000000X0.000000X0.000000X0.000000X0*%
%TD*%
%TA.AperFunction,ComponentPad*%
%ADD17HorizOval,2.400000X0.000000X0.000000X0.000000X0.000000X0*%
%TD*%
%TA.AperFunction,ComponentPad*%
%ADD18HorizOval,2.400000X0.000000X0.000000X0.000000X0.000000X0*%
%TD*%
%TA.AperFunction,ComponentPad*%
%ADD19HorizOval,2.400000X0.000000X0.000000X0.000000X0.000000X0*%
%TD*%
%TA.AperFunction,ComponentPad*%
%ADD20R,1.700000X1.700000*%
%TD*%
%TA.AperFunction,ComponentPad*%
%ADD21O,1.700000X1.700000*%
%TD*%
%TA.AperFunction,Conductor*%
%ADD22C,0.250000*%
%TD*%
G04 APERTURE END LIST*
D10*
%TO.P,R12,1*%
%TO.N,Net-(R11-Pad2)*%
X169897000Y-103759000D03*
D11*
%TO.P,R12,2*%
%TO.N,Net-(BT1--)*%
X174296409Y-101219000D03*
%TD*%
D10*
%TO.P,R11,1*%
%TO.N,Net-(R10-Pad2)*%
X161844400Y-111811600D03*
D12*
%TO.P,R11,2*%
%TO.N,Net-(R11-Pad2)*%
X164384400Y-107412191D03*
%TD*%
D10*
%TO.P,R10,1*%
%TO.N,Net-(R10-Pad1)*%
X158897000Y-122811600D03*
D13*
%TO.P,R10,2*%
%TO.N,Net-(R10-Pad2)*%
X158897000Y-117731600D03*
%TD*%
D10*
%TO.P,R9,1*%
%TO.N,Net-(R8-Pad2)*%
X161844400Y-133811600D03*
D14*
%TO.P,R9,2*%
%TO.N,Net-(R10-Pad1)*%
X159304400Y-129412191D03*
%TD*%
D10*
%TO.P,R8,1*%
%TO.N,Net-(R7-Pad2)*%
X169897000Y-141864100D03*
D15*
%TO.P,R8,2*%
%TO.N,Net-(R8-Pad2)*%
X165497591Y-139324100D03*
%TD*%
D10*
%TO.P,R7,1*%
%TO.N,Net-(R6-Pad2)*%
X180897000Y-144811600D03*
D13*
%TO.P,R7,2*%
%TO.N,Net-(R7-Pad2)*%
X175817000Y-144811600D03*
%TD*%
D10*
%TO.P,R6,1*%
%TO.N,Net-(R5-Pad2)*%
X191897000Y-141864100D03*
D16*
%TO.P,R6,2*%
%TO.N,Net-(R6-Pad2)*%
X187497591Y-144404100D03*
%TD*%
D10*
%TO.P,R5,1*%
%TO.N,Net-(R4-Pad2)*%
X199949600Y-133811600D03*
D17*
%TO.P,R5,2*%
%TO.N,Net-(R5-Pad2)*%
X197409600Y-138211009D03*
%TD*%
D10*
%TO.P,R4,1*%
%TO.N,Net-(R3-Pad2)*%
X202897000Y-122811600D03*
D13*
%TO.P,R4,2*%
%TO.N,Net-(R4-Pad2)*%
X202897000Y-127891600D03*
%TD*%
D10*
%TO.P,R3,1*%
%TO.N,Net-(R2-Pad2)*%
X199949600Y-111811600D03*
D18*
%TO.P,R3,2*%
%TO.N,Net-(R3-Pad2)*%
X202489600Y-116211009D03*
%TD*%
D10*
%TO.P,R2,1*%
%TO.N,Net-(R1-Pad2)*%
X191897000Y-103759000D03*
D19*
%TO.P,R2,2*%
%TO.N,Net-(R2-Pad2)*%
X196296409Y-106299000D03*
%TD*%
D10*
%TO.P,R1,1*%
%TO.N,Net-(BT1-+)*%
X180897000Y-100811600D03*
D13*
%TO.P,R1,2*%
%TO.N,Net-(R1-Pad2)*%
X185977000Y-100811600D03*
%TD*%
D20*
%TO.P,BT1,1,+*%
%TO.N,Net-(BT1-+)*%
X180691500Y-121007400D03*
D21*
%TO.P,BT1,2,-*%
%TO.N,Net-(BT1--)*%
X180691500Y-123547400D03*
%TD*%
D22*
%TO.N,Net-(R10-Pad2)*%
X161844400Y-113257300D02*
X161844400Y-111811600D01*
X158897000Y-116204700D02*
X161844400Y-113257300D01*
X158897000Y-117731600D02*
X158897000Y-116204700D01*
%TO.N,Net-(R10-Pad1)*%
X158897000Y-127502200D02*
X158897000Y-122811600D01*
X158456200Y-127943000D02*
X158897000Y-127502200D01*
X159304400Y-129412200D02*
X158456200Y-127943000D01*
%TO.N,Net-(R4-Pad2)*%
X199949600Y-132365900D02*
X199949600Y-133811600D01*
X202897000Y-129418500D02*
X199949600Y-132365900D01*
X202897000Y-127891600D02*
X202897000Y-129418500D01*
%TO.N,Net-(R3-Pad2)*%
X202897000Y-118121000D02*
X202897000Y-122811600D01*
X203337800Y-117680200D02*
X202897000Y-118121000D01*
X202489600Y-116211000D02*
X203337800Y-117680200D01*
%TO.N,Net-(R2-Pad2)*%
X199949600Y-109952200D02*
X199949600Y-111811600D01*
X197765500Y-107768100D02*
X199949600Y-109952200D01*
X197765500Y-107147300D02*
X197765500Y-107768100D01*
X197765600Y-107147200D02*
X197765500Y-107147300D01*
X196296400Y-106299000D02*
X197765600Y-107147200D01*
%TO.N,Net-(BT1--)*%
X175144600Y-117632700D02*
X175144600Y-102688200D01*
X179882400Y-122370500D02*
X175144600Y-117632700D01*
X180691500Y-122370500D02*
X179882400Y-122370500D01*
X180691500Y-123547400D02*
X180691500Y-122370500D01*
X174296400Y-101219000D02*
X175144600Y-102688200D01*
%TO.N,Net-(BT1-+)*%
X180897000Y-119625000D02*
X180897000Y-100811600D01*
X180691500Y-119830500D02*
X180897000Y-119625000D01*
X180691500Y-121007400D02*
X180691500Y-119830500D01*
%TD*%
%TA.AperFunction,NonConductor*%
G36*
X181798810Y-95846716D02*
G01*
X181910600Y-95849949D01*
X182827566Y-95902703D01*
X182945456Y-95910668D01*
X183853873Y-95997943D01*
X183977192Y-96011064D01*
X184876091Y-96132328D01*
X185004322Y-96150994D01*
X185892633Y-96305678D01*
X186025290Y-96330242D01*
X186902061Y-96517776D01*
X187038659Y-96548559D01*
X187903011Y-96768370D01*
X188042804Y-96805587D01*
X188893795Y-97057071D01*
X189036355Y-97100973D01*
X189873047Y-97383502D01*
X190017829Y-97434275D01*
X190839334Y-97747217D01*
X190935409Y-97785128D01*
X190985764Y-97804997D01*
X191791166Y-98147680D01*
X191921196Y-98204874D01*
X191938740Y-98212591D01*
X192727110Y-98584307D01*
X192823412Y-98631176D01*
X192875373Y-98656464D01*
X193242245Y-98846949D01*
X193645770Y-99056465D01*
X193747837Y-99111100D01*
X193794243Y-99135940D01*
X194533516Y-99556489D01*
X194545901Y-99563534D01*
X194694031Y-99650330D01*
X195426143Y-100104778D01*
X195495239Y-100148927D01*
X195573365Y-100198846D01*
X195661559Y-100258388D01*
X196285137Y-100679383D01*
X196378615Y-100744316D01*
X196430985Y-100780694D01*
X197121623Y-101286526D01*
X197191827Y-101339418D01*
X197265641Y-101395029D01*
X197677494Y-101721630D01*
X197934341Y-101925311D01*
X198076079Y-102040921D01*
X198722094Y-102594813D01*
X198861112Y-102717421D01*
X199483716Y-103294057D01*
X199619611Y-103423557D01*
X200218107Y-104022053D01*
X200350406Y-104158233D01*
X200924184Y-104777752D01*
X200964145Y-104822190D01*
X201052454Y-104920394D01*
X201600817Y-105559960D01*
X201724738Y-105708935D01*
X201991116Y-106044843D01*
X202192665Y-106299002D01*
X202247062Y-106367597D01*
X202366248Y-106522666D01*
X202861955Y-107199480D01*
X202881068Y-107226436D01*
X202976037Y-107360380D01*
X203042535Y-107458877D01*
X203443781Y-108053203D01*
X203444600Y-108054415D01*
X203553216Y-108220850D01*
X203994080Y-108931079D01*
X204096952Y-109102828D01*
X204509615Y-109828240D01*
X204586545Y-109968686D01*
X204606418Y-110004968D01*
X204990439Y-110744586D01*
X205080884Y-110925966D01*
X205435808Y-111678721D01*
X205519662Y-111864485D01*
X205845078Y-112629307D01*
X205922092Y-112819103D01*
X206217632Y-113594927D01*
X206287599Y-113788450D01*
X206552935Y-114574222D01*
X206615625Y-114771028D01*
X206850471Y-115565718D01*
X206905709Y-115765438D01*
X207109780Y-116567893D01*
X207157435Y-116770255D01*
X207330499Y-117579376D01*
X207370413Y-117783897D01*
X207512290Y-118598659D01*
X207544348Y-118804921D01*
X207654863Y-119624143D01*
X207678994Y-119831882D01*
X207758020Y-120654444D01*
X207774142Y-120863150D01*
X207821597Y-121687997D01*
X207829668Y-121897280D01*
X207847500Y-122828000D01*
X207829668Y-123758719D01*
X207821597Y-123968002D01*
X207774142Y-124792849D01*
X207758020Y-125001555D01*
X207678994Y-125824117D01*
X207654863Y-126031856D01*
X207544348Y-126851078D01*
X207512290Y-127057340D01*
X207370413Y-127872102D01*
X207330499Y-128076623D01*
X207157435Y-128885744D01*
X207109780Y-129088106D01*
X206905709Y-129890561D01*
X206850471Y-130090281D01*
X206615625Y-130884971D01*
X206552935Y-131081777D01*
X206287599Y-131867549D01*
X206217632Y-132061072D01*
X205922092Y-132836896D01*
X205845078Y-133026692D01*
X205519662Y-133791514D01*
X205435808Y-133977278D01*
X205080884Y-134730033D01*
X204990439Y-134911413D01*
X204606418Y-135651031D01*
X204509620Y-135827753D01*
X204096952Y-136553171D01*
X203994080Y-136724920D01*
X203553216Y-137435149D01*
X203444600Y-137601584D01*
X202976037Y-138295619D01*
X202861966Y-138456505D01*
X202366248Y-139133333D01*
X202247062Y-139288402D01*
X201724738Y-139947064D01*
X201600817Y-140096039D01*
X201052454Y-140735605D01*
X200924177Y-140878256D01*
X200350406Y-141497766D01*
X200218107Y-141633946D01*
X199619611Y-142232442D01*
X199483716Y-142361942D01*
X198861112Y-142938578D01*
X198722095Y-143061186D01*
X198076081Y-143615078D01*
X197934321Y-143730704D01*
X197265641Y-144260970D01*
X197121600Y-144369491D01*
X196430989Y-144875302D01*
X196285132Y-144976620D01*
X195573365Y-145457153D01*
X195426133Y-145551228D01*
X194694035Y-146005666D01*
X194545901Y-146092465D01*
X193794246Y-146520057D01*
X193645786Y-146599526D01*
X192875373Y-146999535D01*
X192727070Y-147071711D01*
X191938740Y-147443408D01*
X191791139Y-147508331D01*
X190985762Y-147851002D01*
X190839324Y-147908786D01*
X190017849Y-148221716D01*
X189873024Y-148272505D01*
X189036379Y-148555018D01*
X188893771Y-148598935D01*
X188042821Y-148850407D01*
X187902963Y-148887641D01*
X187038660Y-149107440D01*
X186902041Y-149138227D01*
X186025311Y-149325752D01*
X185892612Y-149350325D01*
X185004321Y-149505005D01*
X184876061Y-149523675D01*
X183977225Y-149644931D01*
X183853810Y-149658062D01*
X182945482Y-149745329D01*
X182827532Y-149753298D01*
X181910612Y-149806049D01*
X181798725Y-149809285D01*
X180874174Y-149826998D01*
X180768837Y-149825983D01*
X179837666Y-149808143D01*
X179739492Y-149803409D01*
X178802627Y-149749510D01*
X178712153Y-149741643D01*
X177770615Y-149651186D01*
X177688271Y-149640816D01*
X176743101Y-149513310D01*
X176669516Y-149501146D01*
X175721636Y-149336089D01*
X175657266Y-149322881D01*
X174707727Y-149119783D01*
X174653043Y-149106348D01*
X173702823Y-148864699D01*
X173673534Y-148856294D01*
X173658460Y-148851968D01*
X172708470Y-148571228D01*
X172674821Y-148560151D01*
X171726107Y-148239794D01*
X171703634Y-148231424D01*
X170757148Y-147870871D01*
X170746504Y-147866433D01*
X169803351Y-147465141D01*
X168867786Y-147024022D01*
X167949804Y-146547392D01*
X167050751Y-146035950D01*
X166171948Y-145490447D01*
X165314684Y-144911684D01*
X165178040Y-144811604D01*
X174111732Y-144811604D01*
X174130777Y-145065754D01*
X174148633Y-145143988D01*
X174187492Y-145314237D01*
X174280607Y-145551488D01*
X174408041Y-145772212D01*
X174566950Y-145971477D01*
X174753783Y-146144832D01*
X174964366Y-146288405D01*
X174964371Y-146288407D01*
X174964372Y-146288408D01*
X174964373Y-146288409D01*
X175086328Y-146347138D01*
X175193992Y-146398987D01*
X175193993Y-146398987D01*
X175193996Y-146398989D01*
X175437542Y-146474113D01*
X175689565Y-146512100D01*
X175944435Y-146512100D01*
X176196458Y-146474113D01*
X176440004Y-146398989D01*
X176669634Y-146288405D01*
X176880217Y-146144832D01*
X177067050Y-145971477D01*
X177225959Y-145772212D01*
X177353393Y-145551488D01*
X177446508Y-145314237D01*
X177503222Y-145065757D01*
X177522268Y-144811604D01*
X179191732Y-144811604D01*
X179210777Y-145065754D01*
X179228633Y-145143988D01*
X179267492Y-145314237D01*
X179360607Y-145551488D01*
X179488041Y-145772212D01*
X179646950Y-145971477D01*
X179833783Y-146144832D01*
X180044366Y-146288405D01*
X180044371Y-146288407D01*
X180044372Y-146288408D01*
X180044373Y-146288409D01*
X180166328Y-146347138D01*
X180273992Y-146398987D01*
X180273993Y-146398987D01*
X180273996Y-146398989D01*
X180517542Y-146474113D01*
X180769565Y-146512100D01*
X181024435Y-146512100D01*
X181276458Y-146474113D01*
X181520004Y-146398989D01*
X181749634Y-146288405D01*
X181960217Y-146144832D01*
X182147050Y-145971477D01*
X182305959Y-145772212D01*
X182433393Y-145551488D01*
X182526508Y-145314237D01*
X182583222Y-145065757D01*
X182602268Y-144811600D01*
X182583222Y-144557443D01*
X182548223Y-144404104D01*
X185792323Y-144404104D01*
X185811368Y-144658254D01*
X185846368Y-144811600D01*
X185868083Y-144906737D01*
X185961198Y-145143988D01*
X186088632Y-145364712D01*
X186247541Y-145563977D01*
X186434374Y-145737332D01*
X186644957Y-145880905D01*
X186644962Y-145880907D01*
X186644963Y-145880908D01*
X186644964Y-145880909D01*
X186766919Y-145939638D01*
X186874583Y-145991487D01*
X186874584Y-145991487D01*
X186874587Y-145991489D01*
X187118133Y-146066613D01*
X187370156Y-146104600D01*
X187625026Y-146104600D01*
X187877049Y-146066613D01*
X188120595Y-145991489D01*
X188350225Y-145880905D01*
X188560808Y-145737332D01*
X188747641Y-145563977D01*
X188906550Y-145364712D01*
X189033984Y-145143988D01*
X189127099Y-144906737D01*
X189183813Y-144658257D01*
X189202859Y-144404100D01*
X189200265Y-144369491D01*
X189183813Y-144149945D01*
X189165956Y-144071709D01*
X189127099Y-143901463D01*
X189033984Y-143664212D01*
X188906550Y-143443488D01*
X188747641Y-143244223D01*
X188560808Y-143070868D01*
X188350225Y-142927295D01*
X188350221Y-142927293D01*
X188350218Y-142927291D01*
X188350217Y-142927290D01*
X188120597Y-142816712D01*
X188120599Y-142816712D01*
X187877057Y-142741589D01*
X187877053Y-142741588D01*
X187877049Y-142741587D01*
X187755822Y-142723314D01*
X187625031Y-142703600D01*
X187625026Y-142703600D01*
X187370156Y-142703600D01*
X187370150Y-142703600D01*
X187213200Y-142727257D01*
X187118133Y-142741587D01*
X187118129Y-142741588D01*
X187118130Y-142741588D01*
X187118124Y-142741589D01*
X186874583Y-142816712D01*
X186644964Y-142927290D01*
X186644963Y-142927291D01*
X186434373Y-143070868D01*
X186247543Y-143244221D01*
X186247541Y-143244223D01*
X186088632Y-143443488D01*
X185961199Y-143664209D01*
X185868083Y-143901462D01*
X185868081Y-143901469D01*
X185811368Y-144149945D01*
X185792323Y-144404095D01*
X185792323Y-144404104D01*
X182548223Y-144404104D01*
X182526508Y-144308963D01*
X182433393Y-144071712D01*
X182305959Y-143850988D01*
X182147050Y-143651723D01*
X181960217Y-143478368D01*
X181749634Y-143334795D01*
X181749630Y-143334793D01*
X181749627Y-143334791D01*
X181749626Y-143334790D01*
X181520006Y-143224212D01*
X181520008Y-143224212D01*
X181276466Y-143149089D01*
X181276462Y-143149088D01*
X181276458Y-143149087D01*
X181155231Y-143130814D01*
X181024440Y-143111100D01*
X181024435Y-143111100D01*
X180769565Y-143111100D01*
X180769559Y-143111100D01*
X180612609Y-143134757D01*
X180517542Y-143149087D01*
X180517538Y-143149088D01*
X180517539Y-143149088D01*
X180517533Y-143149089D01*
X180273992Y-143224212D01*
X180044373Y-143334790D01*
X180044372Y-143334791D01*
X179833782Y-143478368D01*
X179646952Y-143651721D01*
X179646950Y-143651723D01*
X179488041Y-143850988D01*
X179360608Y-144071709D01*
X179267492Y-144308962D01*
X179267490Y-144308969D01*
X179210777Y-144557445D01*
X179191732Y-144811595D01*
X179191732Y-144811604D01*
X177522268Y-144811604D01*
X177522268Y-144811600D01*
X177503222Y-144557443D01*
X177446508Y-144308963D01*
X177353393Y-144071712D01*
X177225959Y-143850988D01*
X177067050Y-143651723D01*
X176880217Y-143478368D01*
X176669634Y-143334795D01*
X176669630Y-143334793D01*
X176669627Y-143334791D01*
X176669626Y-143334790D01*
X176440006Y-143224212D01*
X176440008Y-143224212D01*
X176196466Y-143149089D01*
X176196462Y-143149088D01*
X176196458Y-143149087D01*
X176075231Y-143130814D01*
X175944440Y-143111100D01*
X175944435Y-143111100D01*
X175689565Y-143111100D01*
X175689559Y-143111100D01*
X175532609Y-143134757D01*
X175437542Y-143149087D01*
X175437538Y-143149088D01*
X175437539Y-143149088D01*
X175437533Y-143149089D01*
X175193992Y-143224212D01*
X174964373Y-143334790D01*
X174964372Y-143334791D01*
X174753782Y-143478368D01*
X174566952Y-143651721D01*
X174566950Y-143651723D01*
X174408041Y-143850988D01*
X174280608Y-144071709D01*
X174187492Y-144308962D01*
X174187490Y-144308969D01*
X174130777Y-144557445D01*
X174111732Y-144811595D01*
X174111732Y-144811604D01*
X165178040Y-144811604D01*
X164480217Y-144300510D01*
X163669772Y-143657822D01*
X162884540Y-142984564D01*
X162125669Y-142281723D01*
X161708050Y-141864104D01*
X168191732Y-141864104D01*
X168210777Y-142118254D01*
X168266397Y-142361942D01*
X168267492Y-142366737D01*
X168360607Y-142603988D01*
X168488041Y-142824712D01*
X168646950Y-143023977D01*
X168833783Y-143197332D01*
X169044366Y-143340905D01*
X169044371Y-143340907D01*
X169044372Y-143340908D01*
X169044373Y-143340909D01*
X169166328Y-143399638D01*
X169273992Y-143451487D01*
X169273993Y-143451487D01*
X169273996Y-143451489D01*
X169517542Y-143526613D01*
X169769565Y-143564600D01*
X170024435Y-143564600D01*
X170276458Y-143526613D01*
X170520004Y-143451489D01*
X170749634Y-143340905D01*
X170960217Y-143197332D01*
X171147050Y-143023977D01*
X171305959Y-142824712D01*
X171433393Y-142603988D01*
X171526508Y-142366737D01*
X171583222Y-142118257D01*
X171602268Y-141864104D01*
X190191732Y-141864104D01*
X190210777Y-142118254D01*
X190266397Y-142361942D01*
X190267492Y-142366737D01*
X190360607Y-142603988D01*
X190488041Y-142824712D01*
X190646950Y-143023977D01*
X190833783Y-143197332D01*
X191044366Y-143340905D01*
X191044371Y-143340907D01*
X191044372Y-143340908D01*
X191044373Y-143340909D01*
X191166328Y-143399638D01*
X191273992Y-143451487D01*
X191273993Y-143451487D01*
X191273996Y-143451489D01*
X191517542Y-143526613D01*
X191769565Y-143564600D01*
X192024435Y-143564600D01*
X192276458Y-143526613D01*
X192520004Y-143451489D01*
X192749634Y-143340905D01*
X192960217Y-143197332D01*
X193147050Y-143023977D01*
X193305959Y-142824712D01*
X193433393Y-142603988D01*
X193526508Y-142366737D01*
X193583222Y-142118257D01*
X193602268Y-141864100D01*
X193583222Y-141609943D01*
X193526508Y-141361463D01*
X193433393Y-141124212D01*
X193305959Y-140903488D01*
X193147050Y-140704223D01*
X192960217Y-140530868D01*
X192749634Y-140387295D01*
X192749630Y-140387293D01*
X192749627Y-140387291D01*
X192749626Y-140387290D01*
X192520006Y-140276712D01*
X192520008Y-140276712D01*
X192276466Y-140201589D01*
X192276462Y-140201588D01*
X192276458Y-140201587D01*
X192155231Y-140183314D01*
X192024440Y-140163600D01*
X192024435Y-140163600D01*
X191769565Y-140163600D01*
X191769559Y-140163600D01*
X191612609Y-140187257D01*
X191517542Y-140201587D01*
X191517538Y-140201588D01*
X191517539Y-140201588D01*
X191517533Y-140201589D01*
X191273992Y-140276712D01*
X191044373Y-140387290D01*
X191044372Y-140387291D01*
X190833782Y-140530868D01*
X190646952Y-140704221D01*
X190646950Y-140704223D01*
X190488041Y-140903488D01*
X190360608Y-141124209D01*
X190267492Y-141361462D01*
X190267490Y-141361469D01*
X190210777Y-141609945D01*
X190191732Y-141864095D01*
X190191732Y-141864104D01*
X171602268Y-141864104D01*
X171602268Y-141864100D01*
X171583222Y-141609943D01*
X171526508Y-141361463D01*
X171433393Y-141124212D01*
X171305959Y-140903488D01*
X171147050Y-140704223D01*
X170960217Y-140530868D01*
X170749634Y-140387295D01*
X170749630Y-140387293D01*
X170749627Y-140387291D01*
X170749626Y-140387290D01*
X170520006Y-140276712D01*
X170520008Y-140276712D01*
X170276466Y-140201589D01*
X170276462Y-140201588D01*
X170276458Y-140201587D01*
X170155231Y-140183314D01*
X170024440Y-140163600D01*
X170024435Y-140163600D01*
X169769565Y-140163600D01*
X169769559Y-140163600D01*
X169612609Y-140187257D01*
X169517542Y-140201587D01*
X169517538Y-140201588D01*
X169517539Y-140201588D01*
X169517533Y-140201589D01*
X169273992Y-140276712D01*
X169044373Y-140387290D01*
X169044372Y-140387291D01*
X168833782Y-140530868D01*
X168646952Y-140704221D01*
X168646950Y-140704223D01*
X168488041Y-140903488D01*
X168360608Y-141124209D01*
X168267492Y-141361462D01*
X168267490Y-141361469D01*
X168210777Y-141609945D01*
X168191732Y-141864095D01*
X168191732Y-141864104D01*
X161708050Y-141864104D01*
X161394277Y-141550331D01*
X160691436Y-140791460D01*
X160018178Y-140006228D01*
X159477249Y-139324104D01*
X163792323Y-139324104D01*
X163811368Y-139578254D01*
X163861614Y-139798398D01*
X163868083Y-139826737D01*
X163961198Y-140063988D01*
X164088632Y-140284712D01*
X164247541Y-140483977D01*
X164434374Y-140657332D01*
X164644957Y-140800905D01*
X164644962Y-140800907D01*
X164644963Y-140800908D01*
X164644964Y-140800909D01*
X164766919Y-140859638D01*
X164874583Y-140911487D01*
X164874584Y-140911487D01*
X164874587Y-140911489D01*
X165118133Y-140986613D01*
X165370156Y-141024600D01*
X165625026Y-141024600D01*
X165877049Y-140986613D01*
X166120595Y-140911489D01*
X166350225Y-140800905D01*
X166560808Y-140657332D01*
X166747641Y-140483977D01*
X166906550Y-140284712D01*
X167033984Y-140063988D01*
X167127099Y-139826737D01*
X167183813Y-139578257D01*
X167202859Y-139324100D01*
X167191432Y-139171620D01*
X167183813Y-139069945D01*
X167127100Y-138821469D01*
X167127099Y-138821463D01*
X167033984Y-138584212D01*
X166906550Y-138363488D01*
X166784955Y-138211013D01*
X195704332Y-138211013D01*
X195723377Y-138465163D01*
X195750549Y-138584212D01*
X195780092Y-138713646D01*
X195873207Y-138950897D01*
X196000641Y-139171621D01*
X196159550Y-139370886D01*
X196346383Y-139544241D01*
X196556966Y-139687814D01*
X196556971Y-139687816D01*
X196556972Y-139687817D01*
X196556973Y-139687818D01*
X196678928Y-139746547D01*
X196786592Y-139798396D01*
X196786593Y-139798396D01*
X196786596Y-139798398D01*
X197030142Y-139873522D01*
X197282165Y-139911509D01*
X197537035Y-139911509D01*
X197789058Y-139873522D01*
X198032604Y-139798398D01*
X198262234Y-139687814D01*
X198472817Y-139544241D01*
X198659650Y-139370886D01*
X198818559Y-139171621D01*
X198945993Y-138950897D01*
X199039108Y-138713646D01*
X199095822Y-138465166D01*
X199114868Y-138211009D01*
X199095822Y-137956852D01*
X199039108Y-137708372D01*
X198945993Y-137471121D01*
X198818559Y-137250397D01*
X198659650Y-137051132D01*
X198472817Y-136877777D01*
X198262234Y-136734204D01*
X198262230Y-136734202D01*
X198262227Y-136734200D01*
X198262226Y-136734199D01*
X198032606Y-136623621D01*
X198032608Y-136623621D01*
X197789066Y-136548498D01*
X197789062Y-136548497D01*
X197789058Y-136548496D01*
X197667831Y-136530223D01*
X197537040Y-136510509D01*
X197537035Y-136510509D01*
X197282165Y-136510509D01*
X197282159Y-136510509D01*
X197125209Y-136534166D01*
X197030142Y-136548496D01*
X197030138Y-136548497D01*
X197030139Y-136548497D01*
X197030133Y-136548498D01*
X196786592Y-136623621D01*
X196556973Y-136734199D01*
X196556972Y-136734200D01*
X196346382Y-136877777D01*
X196159552Y-137051130D01*
X196159550Y-137051132D01*
X196000641Y-137250397D01*
X195873208Y-137471118D01*
X195780092Y-137708371D01*
X195780090Y-137708378D01*
X195723377Y-137956854D01*
X195704332Y-138211004D01*
X195704332Y-138211013D01*
X166784955Y-138211013D01*
X166747641Y-138164223D01*
X166560808Y-137990868D01*
X166350225Y-137847295D01*
X166350221Y-137847293D01*
X166350218Y-137847291D01*
X166350217Y-137847290D01*
X166120597Y-137736712D01*
X166120599Y-137736712D01*
X165877057Y-137661589D01*
X165877053Y-137661588D01*
X165877049Y-137661587D01*
X165755822Y-137643314D01*
X165625031Y-137623600D01*
X165625026Y-137623600D01*
X165370156Y-137623600D01*
X165370150Y-137623600D01*
X165213200Y-137647257D01*
X165118133Y-137661587D01*
X165118129Y-137661588D01*
X165118130Y-137661588D01*
X165118124Y-137661589D01*
X164874583Y-137736712D01*
X164644964Y-137847290D01*
X164644963Y-137847291D01*
X164434373Y-137990868D01*
X164247543Y-138164221D01*
X164247541Y-138164223D01*
X164088632Y-138363488D01*
X163961199Y-138584209D01*
X163868083Y-138821462D01*
X163868081Y-138821469D01*
X163811368Y-139069945D01*
X163792323Y-139324095D01*
X163792323Y-139324104D01*
X159477249Y-139324104D01*
X159375490Y-139195783D01*
X158764316Y-138361316D01*
X158185553Y-137504052D01*
X157640050Y-136625249D01*
X157128608Y-135726196D01*
X156651978Y-134808214D01*
X156210859Y-133872649D01*
X156184886Y-133811604D01*
X160139132Y-133811604D01*
X160158177Y-134065754D01*
X160158178Y-134065757D01*
X160214892Y-134314237D01*
X160308007Y-134551488D01*
X160435441Y-134772212D01*
X160594350Y-134971477D01*
X160781183Y-135144832D01*
X160991766Y-135288405D01*
X160991771Y-135288407D01*
X160991772Y-135288408D01*
X160991773Y-135288409D01*
X161113728Y-135347138D01*
X161221392Y-135398987D01*
X161221393Y-135398987D01*
X161221396Y-135398989D01*
X161464942Y-135474113D01*
X161716965Y-135512100D01*
X161971835Y-135512100D01*
X162223858Y-135474113D01*
X162467404Y-135398989D01*
X162697034Y-135288405D01*
X162907617Y-135144832D01*
X163094450Y-134971477D01*
X163253359Y-134772212D01*
X163380793Y-134551488D01*
X163473908Y-134314237D01*
X163530622Y-134065757D01*
X163549668Y-133811604D01*
X198244332Y-133811604D01*
X198263377Y-134065754D01*
X198263378Y-134065757D01*
X198320092Y-134314237D01*
X198413207Y-134551488D01*
X198540641Y-134772212D01*
X198699550Y-134971477D01*
X198886383Y-135144832D01*
X199096966Y-135288405D01*
X199096971Y-135288407D01*
X199096972Y-135288408D01*
X199096973Y-135288409D01*
X199218928Y-135347138D01*
X199326592Y-135398987D01*
X199326593Y-135398987D01*
X199326596Y-135398989D01*
X199570142Y-135474113D01*
X199822165Y-135512100D01*
X200077035Y-135512100D01*
X200329058Y-135474113D01*
X200572604Y-135398989D01*
X200802234Y-135288405D01*
X201012817Y-135144832D01*
X201199650Y-134971477D01*
X201358559Y-134772212D01*
X201485993Y-134551488D01*
X201579108Y-134314237D01*
X201635822Y-134065757D01*
X201654868Y-133811600D01*
X201635822Y-133557443D01*
X201579108Y-133308963D01*
X201485993Y-133071712D01*
X201358559Y-132850988D01*
X201199650Y-132651723D01*
X201012817Y-132478368D01*
X200996714Y-132467389D01*
X200963385Y-132444665D01*
X200919084Y-132390635D01*
X200911026Y-132321232D01*
X200941769Y-132258489D01*
X200945533Y-132254555D01*
X203280788Y-129919301D01*
X203293042Y-129909486D01*
X203292859Y-129909264D01*
X203298866Y-129904292D01*
X203298877Y-129904286D01*
X203329775Y-129871382D01*
X203346227Y-129853864D01*
X203356671Y-129843418D01*
X203367120Y-129832971D01*
X203371379Y-129827478D01*
X203375152Y-129823061D01*
X203407062Y-129789082D01*
X203416715Y-129771520D01*
X203427389Y-129755270D01*
X203439673Y-129739436D01*
X203458180Y-129696667D01*
X203460749Y-129691424D01*
X203474535Y-129666348D01*
X203483197Y-129650592D01*
X203488177Y-129631191D01*
X203494478Y-129612788D01*
X203502438Y-129594396D01*
X203509728Y-129548365D01*
X203510912Y-129542648D01*
X203513940Y-129530856D01*
X203549681Y-129470819D01*
X203580242Y-129449979D01*
X203749626Y-129368409D01*
X203749626Y-129368408D01*
X203749634Y-129368405D01*
X203960217Y-129224832D01*
X204147050Y-129051477D01*
X204305959Y-128852212D01*
X204433393Y-128631488D01*
X204526508Y-128394237D01*
X204583222Y-128145757D01*
X204599900Y-127923196D01*
X204602268Y-127891604D01*
X204602268Y-127891595D01*
X204583222Y-127637445D01*
X204581337Y-127629188D01*
X204526508Y-127388963D01*
X204433393Y-127151712D01*
X204305959Y-126930988D01*
X204147050Y-126731723D01*
X203960217Y-126558368D01*
X203749634Y-126414795D01*
X203749630Y-126414793D01*
X203749627Y-126414791D01*
X203749626Y-126414790D01*
X203520006Y-126304212D01*
X203520008Y-126304212D01*
X203276466Y-126229089D01*
X203276462Y-126229088D01*
X203276458Y-126229087D01*
X203155231Y-126210814D01*
X203024440Y-126191100D01*
X203024435Y-126191100D01*
X202769565Y-126191100D01*
X202769559Y-126191100D01*
X202612609Y-126214757D01*
X202517542Y-126229087D01*
X202517538Y-126229088D01*
X202517539Y-126229088D01*
X202517533Y-126229089D01*
X202273992Y-126304212D01*
X202044373Y-126414790D01*
X202044372Y-126414791D01*
X201833782Y-126558368D01*
X201646952Y-126731721D01*
X201646950Y-126731723D01*
X201488041Y-126930988D01*
X201360608Y-127151709D01*
X201267492Y-127388962D01*
X201267490Y-127388969D01*
X201210777Y-127637445D01*
X201191732Y-127891595D01*
X201191732Y-127891604D01*
X201210777Y-128145754D01*
X201241935Y-128282267D01*
X201267492Y-128394237D01*
X201360607Y-128631488D01*
X201488041Y-128852212D01*
X201646950Y-129051477D01*
X201833783Y-129224832D01*
X201931493Y-129291450D01*
X201975795Y-129345478D01*
X201983855Y-129414881D01*
X201953112Y-129477624D01*
X201949323Y-129481584D01*
X199565808Y-131865099D01*
X199553551Y-131874920D01*
X199553734Y-131875141D01*
X199547723Y-131880113D01*
X199500372Y-131930536D01*
X199479489Y-131951418D01*
X199479477Y-131951432D01*
X199475221Y-131956917D01*
X199471437Y-131961347D01*
X199439537Y-131995318D01*
X199439536Y-131995320D01*
X199429884Y-132012876D01*
X199419210Y-132029126D01*
X199406929Y-132044961D01*
X199406924Y-132044968D01*
X199388415Y-132087738D01*
X199385845Y-132092984D01*
X199363403Y-132133806D01*
X199358422Y-132153207D01*
X199352119Y-132171614D01*
X199348442Y-132180111D01*
X199303752Y-132233819D01*
X199288443Y-132242584D01*
X199096970Y-132334792D01*
X198886382Y-132478368D01*
X198699552Y-132651721D01*
X198699550Y-132651723D01*
X198540641Y-132850988D01*
X198413208Y-133071709D01*
X198320092Y-133308962D01*
X198320090Y-133308969D01*
X198263377Y-133557445D01*
X198244332Y-133811595D01*
X198244332Y-133811604D01*
X163549668Y-133811604D01*
X163549668Y-133811600D01*
X163530622Y-133557443D01*
X163473908Y-133308963D01*
X163380793Y-133071712D01*
X163253359Y-132850988D01*
X163094450Y-132651723D01*
X162907617Y-132478368D01*
X162697034Y-132334795D01*
X162697028Y-132334792D01*
X162697027Y-132334791D01*
X162697026Y-132334790D01*
X162467406Y-132224212D01*
X162467408Y-132224212D01*
X162223866Y-132149089D01*
X162223862Y-132149088D01*
X162223858Y-132149087D01*
X162102631Y-132130814D01*
X161971840Y-132111100D01*
X161971835Y-132111100D01*
X161716965Y-132111100D01*
X161716959Y-132111100D01*
X161566323Y-132133806D01*
X161464942Y-132149087D01*
X161464938Y-132149088D01*
X161464939Y-132149088D01*
X161464933Y-132149089D01*
X161221392Y-132224212D01*
X160991773Y-132334790D01*
X160991772Y-132334791D01*
X160781182Y-132478368D01*
X160594352Y-132651721D01*
X160594350Y-132651723D01*
X160435441Y-132850988D01*
X160308008Y-133071709D01*
X160214892Y-133308962D01*
X160214890Y-133308969D01*
X160158177Y-133557445D01*
X160139132Y-133811595D01*
X160139132Y-133811604D01*
X156184886Y-133811604D01*
X155805898Y-132920874D01*
X155437689Y-131954287D01*
X155106774Y-130974305D01*
X154813638Y-129982368D01*
X154558710Y-128979931D01*
X154342366Y-127968465D01*
X154164923Y-126949454D01*
X154026640Y-125924395D01*
X153927722Y-124894792D01*
X153868313Y-123862155D01*
X153848500Y-122828000D01*
X153848814Y-122811604D01*
X157191732Y-122811604D01*
X157210777Y-123065754D01*
X157266980Y-123311996D01*
X157267492Y-123314237D01*
X157360607Y-123551488D01*
X157488041Y-123772212D01*
X157646950Y-123971477D01*
X157833783Y-124144832D01*
X158044366Y-124288405D01*
X158201303Y-124363981D01*
X158253161Y-124410802D01*
X158271500Y-124475700D01*
X158271500Y-127191746D01*
X158251815Y-127258785D01*
X158235181Y-127279428D01*
X158066806Y-127447802D01*
X158047750Y-127463399D01*
X158044252Y-127465722D01*
X158044250Y-127465724D01*
X158003421Y-127511065D01*
X158001193Y-127513414D01*
X157986080Y-127528528D01*
X157986077Y-127528532D01*
X157977406Y-127539710D01*
X157974493Y-127543193D01*
X157938498Y-127583169D01*
X157932874Y-127593926D01*
X157920970Y-127612467D01*
X157913526Y-127622064D01*
X157892150Y-127671459D01*
X157890194Y-127675561D01*
X157865277Y-127723220D01*
X157865275Y-127723225D01*
X157862503Y-127735041D01*
X157855585Y-127755957D01*
X157850761Y-127767103D01*
X157842345Y-127820242D01*
X157841470Y-127824701D01*
X157829183Y-127877084D01*
X157829437Y-127889224D01*
X157827939Y-127911201D01*
X157826040Y-127923195D01*
X157826040Y-127923196D01*
X157831102Y-127976754D01*
X157831363Y-127981291D01*
X157832489Y-128035083D01*
X157832490Y-128035086D01*
X157835756Y-128046787D01*
X157839770Y-128068450D01*
X157840912Y-128080528D01*
X157840914Y-128080537D01*
X157859132Y-128131142D01*
X157860513Y-128135470D01*
X157874984Y-128187301D01*
X157874986Y-128187306D01*
X157881055Y-128197818D01*
X157890333Y-128217805D01*
X157894446Y-128229229D01*
X157924684Y-128273722D01*
X157927094Y-128277564D01*
X157928823Y-128280558D01*
X157929809Y-128282267D01*
X157946279Y-128350167D01*
X157923425Y-128416194D01*
X157919368Y-128421574D01*
X157895442Y-128451575D01*
X157768008Y-128672300D01*
X157674892Y-128909553D01*
X157674890Y-128909560D01*
X157618177Y-129158036D01*
X157599132Y-129412186D01*
X157599132Y-129412195D01*
X157618177Y-129666345D01*
X157673703Y-129909621D01*
X157674892Y-129914828D01*
X157768007Y-130152079D01*
X157895441Y-130372803D01*
X158054350Y-130572068D01*
X158241183Y-130745423D01*
X158451766Y-130888996D01*
X158451771Y-130888998D01*
X158451772Y-130888999D01*
X158451773Y-130889000D01*
X158573728Y-130947729D01*
X158681392Y-130999578D01*
X158681393Y-130999578D01*
X158681396Y-130999580D01*
X158924942Y-131074704D01*
X159176965Y-131112691D01*
X159431835Y-131112691D01*
X159683858Y-131074704D01*
X159927404Y-130999580D01*
X160157034Y-130888996D01*
X160367617Y-130745423D01*
X160554450Y-130572068D01*
X160713359Y-130372803D01*
X160840793Y-130152079D01*
X160933908Y-129914828D01*
X160990622Y-129666348D01*
X160999892Y-129542648D01*
X161009668Y-129412195D01*
X161009668Y-129412186D01*
X160990622Y-129158036D01*
X160966300Y-129051476D01*
X160933908Y-128909554D01*
X160840793Y-128672303D01*
X160713359Y-128451579D01*
X160554450Y-128252314D01*
X160367617Y-128078959D01*
X160157034Y-127935386D01*
X160157030Y-127935384D01*
X160157027Y-127935382D01*
X160157026Y-127935381D01*
X159927406Y-127824803D01*
X159927408Y-127824803D01*
X159683863Y-127749679D01*
X159683859Y-127749678D01*
X159683858Y-127749678D01*
X159646658Y-127744070D01*
X159622637Y-127740450D01*
X159559280Y-127710992D01*
X159521908Y-127651958D01*
X159521017Y-127586994D01*
X159522499Y-127581221D01*
X159522500Y-127581219D01*
X159522500Y-127561183D01*
X159524027Y-127541782D01*
X159524071Y-127541504D01*
X159527160Y-127522004D01*
X159522775Y-127475615D01*
X159522500Y-127469777D01*
X159522500Y-124475700D01*
X159542185Y-124408661D01*
X159592695Y-124363981D01*
X159749634Y-124288405D01*
X159960217Y-124144832D01*
X160147050Y-123971477D01*
X160305959Y-123772212D01*
X160433393Y-123551488D01*
X160526508Y-123314237D01*
X160583222Y-123065757D01*
X160597924Y-122869569D01*
X160602268Y-122811604D01*
X160602268Y-122811595D01*
X160583222Y-122557445D01*
X160572143Y-122508905D01*
X160526508Y-122308963D01*
X160433393Y-122071712D01*
X160305959Y-121850988D01*
X160147050Y-121651723D01*
X159960217Y-121478368D01*
X159749634Y-121334795D01*
X159749628Y-121334792D01*
X159749627Y-121334791D01*
X159749626Y-121334790D01*
X159520006Y-121224212D01*
X159520008Y-121224212D01*
X159276466Y-121149089D01*
X159276462Y-121149088D01*
X159276458Y-121149087D01*
X159155231Y-121130814D01*
X159024440Y-121111100D01*
X159024435Y-121111100D01*
X158769565Y-121111100D01*
X158769559Y-121111100D01*
X158612609Y-121134757D01*
X158517542Y-121149087D01*
X158517538Y-121149088D01*
X158517539Y-121149088D01*
X158517533Y-121149089D01*
X158273992Y-121224212D01*
X158044373Y-121334790D01*
X158044372Y-121334791D01*
X157833782Y-121478368D01*
X157646952Y-121651721D01*
X157646950Y-121651723D01*
X157488041Y-121850988D01*
X157360608Y-122071709D01*
X157267492Y-122308962D01*
X157267490Y-122308969D01*
X157210777Y-122557445D01*
X157191732Y-122811595D01*
X157191732Y-122811604D01*
X153848814Y-122811604D01*
X153868313Y-121793845D01*
X153927722Y-120761208D01*
X154026640Y-119731605D01*
X154164923Y-118706546D01*
X154334692Y-117731604D01*
X157191732Y-117731604D01*
X157210777Y-117985754D01*
X157254062Y-118175400D01*
X157267492Y-118234237D01*
X157360607Y-118471488D01*
X157488041Y-118692212D01*
X157646950Y-118891477D01*
X157833783Y-119064832D01*
X158044366Y-119208405D01*
X158044371Y-119208407D01*
X158044372Y-119208408D01*
X158044373Y-119208409D01*
X158166328Y-119267138D01*
X158273992Y-119318987D01*
X158273993Y-119318987D01*
X158273996Y-119318989D01*
X158517542Y-119394113D01*
X158769565Y-119432100D01*
X159024435Y-119432100D01*
X159276458Y-119394113D01*
X159520004Y-119318989D01*
X159749634Y-119208405D01*
X159960217Y-119064832D01*
X160147050Y-118891477D01*
X160305959Y-118692212D01*
X160433393Y-118471488D01*
X160526508Y-118234237D01*
X160583222Y-117985757D01*
X160597262Y-117798398D01*
X160602268Y-117731604D01*
X160602268Y-117731595D01*
X160583222Y-117477445D01*
X160573738Y-117435895D01*
X160526508Y-117228963D01*
X160433393Y-116991712D01*
X160305959Y-116770988D01*
X160147050Y-116571723D01*
X159960217Y-116398368D01*
X159862502Y-116331747D01*
X159818202Y-116277720D01*
X159810143Y-116208316D01*
X159840886Y-116145574D01*
X159844652Y-116141637D01*
X162228188Y-113758101D01*
X162240442Y-113748286D01*
X162240259Y-113748064D01*
X162246266Y-113743092D01*
X162246277Y-113743086D01*
X162277175Y-113710182D01*
X162293627Y-113692664D01*
X162304071Y-113682218D01*
X162314520Y-113671771D01*
X162318779Y-113666278D01*
X162322552Y-113661861D01*
X162354462Y-113627882D01*
X162364115Y-113610320D01*
X162374789Y-113594070D01*
X162387073Y-113578236D01*
X162405580Y-113535467D01*
X162408149Y-113530224D01*
X162430596Y-113489393D01*
X162430597Y-113489392D01*
X162435577Y-113469991D01*
X162441878Y-113451588D01*
X162445560Y-113443080D01*
X162490253Y-113389377D01*
X162505551Y-113380618D01*
X162697034Y-113288405D01*
X162907617Y-113144832D01*
X163094450Y-112971477D01*
X163253359Y-112772212D01*
X163380793Y-112551488D01*
X163473908Y-112314237D01*
X163530622Y-112065757D01*
X163549668Y-111811600D01*
X163530622Y-111557443D01*
X163473908Y-111308963D01*
X163380793Y-111071712D01*
X163253359Y-110850988D01*
X163094450Y-110651723D01*
X162907617Y-110478368D01*
X162697034Y-110334795D01*
X162697028Y-110334792D01*
X162697027Y-110334791D01*
X162697026Y-110334790D01*
X162467406Y-110224212D01*
X162467408Y-110224212D01*
X162223866Y-110149089D01*
X162223862Y-110149088D01*
X162223858Y-110149087D01*
X162102631Y-110130814D01*
X161971840Y-110111100D01*
X161971835Y-110111100D01*
X161716965Y-110111100D01*
X161716959Y-110111100D01*
X161560009Y-110134757D01*
X161464942Y-110149087D01*
X161464938Y-110149088D01*
X161464939Y-110149088D01*
X161464933Y-110149089D01*
X161221392Y-110224212D01*
X160991773Y-110334790D01*
X160991772Y-110334791D01*
X160781182Y-110478368D01*
X160594352Y-110651721D01*
X160594350Y-110651723D01*
X160435441Y-110850988D01*
X160308008Y-111071709D01*
X160214892Y-111308962D01*
X160214890Y-111308969D01*
X160158177Y-111557445D01*
X160139132Y-111811595D01*
X160139132Y-111811604D01*
X160158177Y-112065754D01*
X160158178Y-112065757D01*
X160214892Y-112314237D01*
X160308007Y-112551488D01*
X160435441Y-112772212D01*
X160594350Y-112971477D01*
X160781183Y-113144832D01*
X160781185Y-113144833D01*
X160781187Y-113144835D01*
X160830612Y-113178533D01*
X160874914Y-113232562D01*
X160882972Y-113301965D01*
X160852229Y-113364708D01*
X160848441Y-113368667D01*
X158513208Y-115703899D01*
X158500951Y-115713720D01*
X158501134Y-115713941D01*
X158495123Y-115718913D01*
X158447772Y-115769336D01*
X158426889Y-115790219D01*
X158426877Y-115790232D01*
X158422621Y-115795717D01*
X158418837Y-115800147D01*
X158386937Y-115834118D01*
X158386936Y-115834120D01*
X158377284Y-115851676D01*
X158366610Y-115867926D01*
X158354329Y-115883761D01*
X158354324Y-115883768D01*
X158335815Y-115926538D01*
X158333245Y-115931784D01*
X158310803Y-115972606D01*
X158305822Y-115992007D01*
X158299521Y-116010410D01*
X158291562Y-116028802D01*
X158291561Y-116028805D01*
X158284271Y-116074827D01*
X158283086Y-116080546D01*
X158280060Y-116092334D01*
X158244324Y-116152373D01*
X158213757Y-116173220D01*
X158044370Y-116254792D01*
X157833782Y-116398368D01*
X157646952Y-116571721D01*
X157646950Y-116571723D01*
X157488041Y-116770988D01*
X157360608Y-116991709D01*
X157267492Y-117228962D01*
X157267490Y-117228969D01*
X157210777Y-117477445D01*
X157191732Y-117731595D01*
X157191732Y-117731604D01*
X154334692Y-117731604D01*
X154342366Y-117687535D01*
X154558710Y-116676069D01*
X154813638Y-115673632D01*
X155106774Y-114681695D01*
X155437689Y-113701713D01*
X155805898Y-112735126D01*
X156210859Y-111783351D01*
X156651978Y-110847786D01*
X157128608Y-109929804D01*
X157640050Y-109030751D01*
X158185553Y-108151948D01*
X158684981Y-107412195D01*
X162679132Y-107412195D01*
X162698177Y-107666345D01*
X162754890Y-107914821D01*
X162754892Y-107914828D01*
X162848008Y-108152081D01*
X162866134Y-108183476D01*
X162975441Y-108372803D01*
X163134350Y-108572068D01*
X163321183Y-108745423D01*
X163531766Y-108888996D01*
X163531771Y-108888998D01*
X163531772Y-108888999D01*
X163531773Y-108889000D01*
X163619152Y-108931079D01*
X163761392Y-108999578D01*
X163761393Y-108999578D01*
X163761396Y-108999580D01*
X164004942Y-109074704D01*
X164256965Y-109112691D01*
X164511835Y-109112691D01*
X164763858Y-109074704D01*
X165007404Y-108999580D01*
X165237034Y-108888996D01*
X165447617Y-108745423D01*
X165634450Y-108572068D01*
X165793359Y-108372803D01*
X165920793Y-108152079D01*
X166013908Y-107914828D01*
X166070622Y-107666348D01*
X166082413Y-107509009D01*
X166089668Y-107412195D01*
X166089668Y-107412186D01*
X166073728Y-107199480D01*
X166070622Y-107158034D01*
X166013908Y-106909554D01*
X165920793Y-106672303D01*
X165793359Y-106451579D01*
X165634450Y-106252314D01*
X165447617Y-106078959D01*
X165237034Y-105935386D01*
X165237030Y-105935384D01*
X165237027Y-105935382D01*
X165237026Y-105935381D01*
X165007406Y-105824803D01*
X165007408Y-105824803D01*
X164763866Y-105749680D01*
X164763862Y-105749679D01*
X164763858Y-105749678D01*
X164642631Y-105731405D01*
X164511840Y-105711691D01*
X164511835Y-105711691D01*
X164256965Y-105711691D01*
X164256959Y-105711691D01*
X164100009Y-105735348D01*
X164004942Y-105749678D01*
X164004938Y-105749679D01*
X164004939Y-105749679D01*
X164004933Y-105749680D01*
X163761392Y-105824803D01*
X163531773Y-105935381D01*
X163531772Y-105935382D01*
X163321182Y-106078959D01*
X163134352Y-106252312D01*
X163134350Y-106252314D01*
X162975441Y-106451579D01*
X162848008Y-106672300D01*
X162754892Y-106909553D01*
X162754890Y-106909560D01*
X162698177Y-107158036D01*
X162679132Y-107412186D01*
X162679132Y-107412195D01*
X158684981Y-107412195D01*
X158764316Y-107294684D01*
X159375490Y-106460217D01*
X160018178Y-105649772D01*
X160691436Y-104864540D01*
X161394277Y-104105669D01*
X161740942Y-103759004D01*
X168191732Y-103759004D01*
X168210777Y-104013154D01*
X168243890Y-104158233D01*
X168267492Y-104261637D01*
X168360607Y-104498888D01*
X168488041Y-104719612D01*
X168646950Y-104918877D01*
X168833783Y-105092232D01*
X169044366Y-105235805D01*
X169044371Y-105235807D01*
X169044372Y-105235808D01*
X169044373Y-105235809D01*
X169166328Y-105294538D01*
X169273992Y-105346387D01*
X169273993Y-105346387D01*
X169273996Y-105346389D01*
X169517542Y-105421513D01*
X169769565Y-105459500D01*
X170024435Y-105459500D01*
X170276458Y-105421513D01*
X170520004Y-105346389D01*
X170749634Y-105235805D01*
X170960217Y-105092232D01*
X171147050Y-104918877D01*
X171305959Y-104719612D01*
X171433393Y-104498888D01*
X171526508Y-104261637D01*
X171583222Y-104013157D01*
X171602268Y-103759000D01*
X171583222Y-103504843D01*
X171526508Y-103256363D01*
X171433393Y-103019112D01*
X171305959Y-102798388D01*
X171147050Y-102599123D01*
X170960217Y-102425768D01*
X170749634Y-102282195D01*
X170749630Y-102282193D01*
X170749627Y-102282191D01*
X170749626Y-102282190D01*
X170520006Y-102171612D01*
X170520008Y-102171612D01*
X170276466Y-102096489D01*
X170276462Y-102096488D01*
X170276458Y-102096487D01*
X170155231Y-102078214D01*
X170024440Y-102058500D01*
X170024435Y-102058500D01*
X169769565Y-102058500D01*
X169769559Y-102058500D01*
X169612609Y-102082157D01*
X169517542Y-102096487D01*
X169517538Y-102096488D01*
X169517539Y-102096488D01*
X169517533Y-102096489D01*
X169273992Y-102171612D01*
X169044373Y-102282190D01*
X169044372Y-102282191D01*
X168833782Y-102425768D01*
X168646952Y-102599121D01*
X168646950Y-102599123D01*
X168488041Y-102798388D01*
X168360608Y-103019109D01*
X168267492Y-103256362D01*
X168267490Y-103256369D01*
X168210777Y-103504845D01*
X168191732Y-103758995D01*
X168191732Y-103759004D01*
X161740942Y-103759004D01*
X162125669Y-103374277D01*
X162884540Y-102671436D01*
X163669772Y-101998178D01*
X164480217Y-101355490D01*
X164666568Y-101219004D01*
X172591141Y-101219004D01*
X172610186Y-101473154D01*
X172628065Y-101551488D01*
X172666901Y-101721637D01*
X172760016Y-101958888D01*
X172887450Y-102179612D01*
X173046359Y-102378877D01*
X173233192Y-102552232D01*
X173443775Y-102695805D01*
X173443780Y-102695807D01*
X173443781Y-102695808D01*
X173443782Y-102695809D01*
X173564859Y-102754116D01*
X173673401Y-102806387D01*
X173673402Y-102806387D01*
X173673405Y-102806389D01*
X173916951Y-102881513D01*
X174168974Y-102919500D01*
X174395100Y-102919500D01*
X174462139Y-102939185D01*
X174507894Y-102991989D01*
X174519100Y-103043500D01*
X174519100Y-117549955D01*
X174517375Y-117565572D01*
X174517661Y-117565599D01*
X174516926Y-117573365D01*
X174519100Y-117642514D01*
X174519100Y-117672043D01*
X174519101Y-117672060D01*
X174519968Y-117678931D01*
X174520426Y-117684750D01*
X174521890Y-117731324D01*
X174521891Y-117731327D01*
X174527480Y-117750567D01*
X174531424Y-117769611D01*
X174533936Y-117789492D01*
X174539268Y-117802959D01*
X174551090Y-117832819D01*
X174552982Y-117838347D01*
X174563201Y-117873521D01*
X174565982Y-117883090D01*
X174568987Y-117888172D01*
X174576180Y-117900334D01*
X174584738Y-117917803D01*
X174592114Y-117936432D01*
X174619498Y-117974123D01*
X174622706Y-117979007D01*
X174646427Y-118019116D01*
X174646433Y-118019124D01*
X174660590Y-118033280D01*
X174673227Y-118048075D01*
X174685006Y-118064287D01*
X174705710Y-118081415D01*
X174720909Y-118093988D01*
X174725220Y-118097910D01*
X178279030Y-121651721D01*
X179381597Y-122754288D01*
X179391422Y-122766551D01*
X179391643Y-122766369D01*
X179396614Y-122772378D01*
X179421824Y-122796051D01*
X179447035Y-122819726D01*
X179449523Y-122822214D01*
X179483008Y-122883537D01*
X179478024Y-122953229D01*
X179474224Y-122962300D01*
X179417598Y-123083735D01*
X179417594Y-123083744D01*
X179356438Y-123311986D01*
X179356436Y-123311996D01*
X179335841Y-123547399D01*
X179335841Y-123547400D01*
X179356436Y-123782803D01*
X179356438Y-123782813D01*
X179417594Y-124011055D01*
X179417596Y-124011059D01*
X179417597Y-124011063D01*
X179479974Y-124144831D01*
X179517465Y-124225230D01*
X179517467Y-124225234D01*
X179561703Y-124288409D01*
X179653005Y-124418801D01*
X179820099Y-124585895D01*
X179916884Y-124653665D01*
X180013665Y-124721432D01*
X180013667Y-124721433D01*
X180013670Y-124721435D01*
X180227837Y-124821303D01*
X180456092Y-124882463D01*
X180644418Y-124898939D01*
X180691499Y-124903059D01*
X180691500Y-124903059D01*
X180691501Y-124903059D01*
X180730734Y-124899626D01*
X180926908Y-124882463D01*
X181155163Y-124821303D01*
X181369330Y-124721435D01*
X181562901Y-124585895D01*
X181729995Y-124418801D01*
X181865535Y-124225230D01*
X181965403Y-124011063D01*
X182026563Y-123782808D01*
X182047159Y-123547400D01*
X182026563Y-123311992D01*
X181965403Y-123083737D01*
X181865535Y-122869571D01*
X181845263Y-122840620D01*
X181729996Y-122676000D01*
X181729995Y-122675999D01*
X181608067Y-122554071D01*
X181574584Y-122492751D01*
X181579568Y-122423059D01*
X181621439Y-122367125D01*
X181652415Y-122350210D01*
X181783831Y-122301196D01*
X181899046Y-122214946D01*
X181985296Y-122099731D01*
X182035591Y-121964883D01*
X182042000Y-121905273D01*
X182041999Y-120109528D01*
X182035591Y-120049917D01*
X181985296Y-119915069D01*
X181985295Y-119915068D01*
X181985293Y-119915064D01*
X181899047Y-119799855D01*
X181899044Y-119799852D01*
X181783835Y-119713606D01*
X181783828Y-119713602D01*
X181648983Y-119663309D01*
X181633241Y-119661616D01*
X181568691Y-119634876D01*
X181528844Y-119577482D01*
X181522500Y-119538327D01*
X181522500Y-116211013D01*
X200784332Y-116211013D01*
X200803377Y-116465163D01*
X200851205Y-116674712D01*
X200860092Y-116713646D01*
X200953207Y-116950897D01*
X201080641Y-117171621D01*
X201239550Y-117370886D01*
X201426383Y-117544241D01*
X201636966Y-117687814D01*
X201636971Y-117687816D01*
X201636972Y-117687817D01*
X201636973Y-117687818D01*
X201727897Y-117731604D01*
X201866592Y-117798396D01*
X201866593Y-117798396D01*
X201866596Y-117798398D01*
X202110142Y-117873522D01*
X202110147Y-117873522D01*
X202110148Y-117873523D01*
X202171359Y-117882749D01*
X202234716Y-117912205D01*
X202272091Y-117971238D01*
X202272984Y-118036199D01*
X202271500Y-118041976D01*
X202271500Y-118062016D01*
X202269973Y-118081415D01*
X202267359Y-118097921D01*
X202266840Y-118101196D01*
X202270831Y-118143415D01*
X202271225Y-118147583D01*
X202271500Y-118153421D01*
X202271500Y-121147498D01*
X202251815Y-121214537D01*
X202201302Y-121259218D01*
X202044370Y-121334792D01*
X201833782Y-121478368D01*
X201646952Y-121651721D01*
X201646950Y-121651723D01*
X201488041Y-121850988D01*
X201360608Y-122071709D01*
X201267492Y-122308962D01*
X201267490Y-122308969D01*
X201210777Y-122557445D01*
X201191732Y-122811595D01*
X201191732Y-122811604D01*
X201210777Y-123065754D01*
X201266980Y-123311996D01*
X201267492Y-123314237D01*
X201360607Y-123551488D01*
X201488041Y-123772212D01*
X201646950Y-123971477D01*
X201833783Y-124144832D01*
X202044366Y-124288405D01*
X202044371Y-124288407D01*
X202044372Y-124288408D01*
X202044373Y-124288409D01*
X202166328Y-124347138D01*
X202273992Y-124398987D01*
X202273993Y-124398987D01*
X202273996Y-124398989D01*
X202517542Y-124474113D01*
X202769565Y-124512100D01*
X203024435Y-124512100D01*
X203276458Y-124474113D01*
X203520004Y-124398989D01*
X203749634Y-124288405D01*
X203960217Y-124144832D01*
X204147050Y-123971477D01*
X204305959Y-123772212D01*
X204433393Y-123551488D01*
X204526508Y-123314237D01*
X204583222Y-123065757D01*
X204597924Y-122869569D01*
X204602268Y-122811604D01*
X204602268Y-122811595D01*
X204583222Y-122557445D01*
X204572143Y-122508905D01*
X204526508Y-122308963D01*
X204433393Y-122071712D01*
X204305959Y-121850988D01*
X204147050Y-121651723D01*
X203960217Y-121478368D01*
X203749634Y-121334795D01*
X203749631Y-121334794D01*
X203749629Y-121334792D01*
X203592698Y-121259218D01*
X203540839Y-121212395D01*
X203522500Y-121147498D01*
X203522500Y-118431451D01*
X203542185Y-118364412D01*
X203558814Y-118343775D01*
X203727194Y-118175395D01*
X203746249Y-118159799D01*
X203749752Y-118157473D01*
X203790606Y-118112100D01*
X203792807Y-118109783D01*
X203807920Y-118094671D01*
X203816594Y-118083486D01*
X203819472Y-118080043D01*
X203855503Y-118040030D01*
X203861123Y-118029277D01*
X203873037Y-118010721D01*
X203880473Y-118001136D01*
X203901844Y-117951748D01*
X203903780Y-117947688D01*
X203928724Y-117899978D01*
X203931494Y-117888163D01*
X203938418Y-117867229D01*
X203943237Y-117856096D01*
X203951655Y-117802943D01*
X203952523Y-117798515D01*
X203964816Y-117746117D01*
X203964561Y-117733977D01*
X203966061Y-117711987D01*
X203967960Y-117700004D01*
X203962894Y-117646420D01*
X203962635Y-117641901D01*
X203961510Y-117588115D01*
X203961510Y-117588113D01*
X203958244Y-117576415D01*
X203954228Y-117554740D01*
X203953236Y-117544241D01*
X203953087Y-117542667D01*
X203934854Y-117492025D01*
X203933489Y-117487746D01*
X203919014Y-117435896D01*
X203912945Y-117425383D01*
X203903664Y-117405389D01*
X203899553Y-117393970D01*
X203899551Y-117393967D01*
X203883864Y-117370886D01*
X203869304Y-117349461D01*
X203866896Y-117345621D01*
X203864182Y-117340919D01*
X203847720Y-117273016D01*
X203870583Y-117206993D01*
X203874613Y-117201646D01*
X203898559Y-117171621D01*
X204025993Y-116950897D01*
X204119108Y-116713646D01*
X204175822Y-116465166D01*
X204194868Y-116211009D01*
X204194666Y-116208316D01*
X204181214Y-116028802D01*
X204175822Y-115956852D01*
X204119108Y-115708372D01*
X204025993Y-115471121D01*
X203898559Y-115250397D01*
X203739650Y-115051132D01*
X203552817Y-114877777D01*
X203342234Y-114734204D01*
X203342230Y-114734202D01*
X203342227Y-114734200D01*
X203342226Y-114734199D01*
X203112606Y-114623621D01*
X203112608Y-114623621D01*
X202869066Y-114548498D01*
X202869062Y-114548497D01*
X202869058Y-114548496D01*
X202747831Y-114530223D01*
X202617040Y-114510509D01*
X202617035Y-114510509D01*
X202362165Y-114510509D01*
X202362159Y-114510509D01*
X202205209Y-114534166D01*
X202110142Y-114548496D01*
X202110138Y-114548497D01*
X202110139Y-114548497D01*
X202110133Y-114548498D01*
X201866592Y-114623621D01*
X201636973Y-114734199D01*
X201636972Y-114734200D01*
X201426382Y-114877777D01*
X201239552Y-115051130D01*
X201239550Y-115051132D01*
X201080641Y-115250397D01*
X200953208Y-115471118D01*
X200860092Y-115708371D01*
X200860090Y-115708378D01*
X200803377Y-115956854D01*
X200784332Y-116211004D01*
X200784332Y-116211013D01*
X181522500Y-116211013D01*
X181522500Y-106299004D01*
X194591141Y-106299004D01*
X194610186Y-106553154D01*
X194651401Y-106733730D01*
X194666901Y-106801637D01*
X194750186Y-107013843D01*
X194760017Y-107038890D01*
X194761838Y-107042044D01*
X194887450Y-107259612D01*
X195046359Y-107458877D01*
X195233192Y-107632232D01*
X195443775Y-107775805D01*
X195443780Y-107775807D01*
X195443781Y-107775808D01*
X195443782Y-107775809D01*
X195565737Y-107834538D01*
X195673401Y-107886387D01*
X195673402Y-107886387D01*
X195673405Y-107886389D01*
X195916951Y-107961513D01*
X196168974Y-107999500D01*
X196423844Y-107999500D01*
X196675867Y-107961513D01*
X196919413Y-107886389D01*
X196984287Y-107855146D01*
X197053227Y-107843793D01*
X197117362Y-107871515D01*
X197153382Y-107921220D01*
X197171989Y-107968218D01*
X197173882Y-107973746D01*
X197186881Y-108018488D01*
X197197080Y-108035734D01*
X197205638Y-108053203D01*
X197213014Y-108071832D01*
X197240398Y-108109523D01*
X197243606Y-108114407D01*
X197267327Y-108154516D01*
X197267333Y-108154524D01*
X197281490Y-108168680D01*
X197294128Y-108183476D01*
X197305905Y-108199686D01*
X197305906Y-108199687D01*
X197341809Y-108229388D01*
X197346120Y-108233310D01*
X198599786Y-109486976D01*
X199210057Y-110097247D01*
X199243542Y-110158570D01*
X199238558Y-110228262D01*
X199196686Y-110284195D01*
X199176178Y-110296648D01*
X199096970Y-110334792D01*
X198886382Y-110478368D01*
X198699552Y-110651721D01*
X198699550Y-110651723D01*
X198540641Y-110850988D01*
X198413208Y-111071709D01*
X198320092Y-111308962D01*
X198320090Y-111308969D01*
X198263377Y-111557445D01*
X198244332Y-111811595D01*
X198244332Y-111811604D01*
X198263377Y-112065754D01*
X198263378Y-112065757D01*
X198320092Y-112314237D01*
X198413207Y-112551488D01*
X198540641Y-112772212D01*
X198699550Y-112971477D01*
X198886383Y-113144832D01*
X199096966Y-113288405D01*
X199096971Y-113288407D01*
X199096972Y-113288408D01*
X199096973Y-113288409D01*
X199218928Y-113347138D01*
X199326592Y-113398987D01*
X199326593Y-113398987D01*
X199326596Y-113398989D01*
X199570142Y-113474113D01*
X199822165Y-113512100D01*
X200077035Y-113512100D01*
X200329058Y-113474113D01*
X200572604Y-113398989D01*
X200754058Y-113311605D01*
X200802226Y-113288409D01*
X200802226Y-113288408D01*
X200802234Y-113288405D01*
X201012817Y-113144832D01*
X201199650Y-112971477D01*
X201358559Y-112772212D01*
X201485993Y-112551488D01*
X201579108Y-112314237D01*
X201635822Y-112065757D01*
X201654868Y-111811600D01*
X201635822Y-111557443D01*
X201579108Y-111308963D01*
X201485993Y-111071712D01*
X201358559Y-110850988D01*
X201199650Y-110651723D01*
X201012817Y-110478368D01*
X200802234Y-110334795D01*
X200802231Y-110334794D01*
X200802229Y-110334792D01*
X200645298Y-110259218D01*
X200593439Y-110212395D01*
X200575100Y-110147499D01*
X200575100Y-110097247D01*
X200575100Y-110034933D01*
X200576825Y-110019323D01*
X200576539Y-110019296D01*
X200577271Y-110011540D01*
X200577273Y-110011533D01*
X200575100Y-109942385D01*
X200575100Y-109912850D01*
X200574231Y-109905972D01*
X200573772Y-109900143D01*
X200572309Y-109853572D01*
X200566722Y-109834344D01*
X200562774Y-109815284D01*
X200560263Y-109795404D01*
X200543112Y-109752087D01*
X200541219Y-109746558D01*
X200528218Y-109701809D01*
X200528216Y-109701806D01*
X200518023Y-109684571D01*
X200509461Y-109667094D01*
X200502087Y-109648470D01*
X200502086Y-109648468D01*
X200474679Y-109610745D01*
X200471488Y-109605886D01*
X200447772Y-109565783D01*
X200447765Y-109565774D01*
X200433606Y-109551615D01*
X200420968Y-109536819D01*
X200409194Y-109520613D01*
X200373288Y-109490909D01*
X200368976Y-109486986D01*
X198427319Y-107545328D01*
X198393834Y-107484005D01*
X198391000Y-107457647D01*
X198391000Y-107226436D01*
X198393710Y-107200655D01*
X198393860Y-107199948D01*
X198393860Y-107199947D01*
X198393861Y-107199943D01*
X198393685Y-107195750D01*
X198395104Y-107171148D01*
X198395760Y-107167007D01*
X198395760Y-107167006D01*
X198391275Y-107119557D01*
X198391000Y-107113719D01*
X198391000Y-107107954D01*
X198390999Y-107107943D01*
X198389833Y-107098714D01*
X198389399Y-107093539D01*
X198389099Y-107086394D01*
X198387240Y-107042044D01*
X198386026Y-107038023D01*
X198381282Y-107013850D01*
X198380887Y-107009667D01*
X198380885Y-107009662D01*
X198379184Y-107002050D01*
X198379411Y-107001999D01*
X198378444Y-106997972D01*
X198378103Y-106998060D01*
X198376165Y-106990511D01*
X198358229Y-106945210D01*
X198356521Y-106940305D01*
X198341559Y-106890753D01*
X198341558Y-106890751D01*
X198339382Y-106887158D01*
X198328774Y-106864917D01*
X198327354Y-106860973D01*
X198327354Y-106860972D01*
X198327351Y-106860969D01*
X198323812Y-106854021D01*
X198324008Y-106853920D01*
X198322057Y-106850235D01*
X198321746Y-106850407D01*
X198317986Y-106843568D01*
X198289443Y-106804282D01*
X198286569Y-106799956D01*
X198259687Y-106755572D01*
X198256686Y-106752634D01*
X198240879Y-106733730D01*
X198238523Y-106730263D01*
X198233363Y-106724410D01*
X198233524Y-106724267D01*
X198230695Y-106721158D01*
X198230436Y-106721402D01*
X198225093Y-106715712D01*
X198187715Y-106684791D01*
X198183855Y-106681315D01*
X198146774Y-106645003D01*
X198143124Y-106642896D01*
X198123124Y-106628523D01*
X198119982Y-106625753D01*
X198113532Y-106621370D01*
X198113652Y-106621193D01*
X198110097Y-106618858D01*
X198109909Y-106619155D01*
X198103327Y-106614978D01*
X198059380Y-106594298D01*
X198054779Y-106591892D01*
X198050319Y-106589317D01*
X198002101Y-106538752D01*
X197988662Y-106472663D01*
X198001677Y-106299000D01*
X197998178Y-106252314D01*
X197982631Y-106044845D01*
X197925918Y-105796369D01*
X197925917Y-105796363D01*
X197832802Y-105559112D01*
X197705368Y-105338388D01*
X197546459Y-105139123D01*
X197359626Y-104965768D01*
X197149043Y-104822195D01*
X197149039Y-104822193D01*
X197149036Y-104822191D01*
X197149035Y-104822190D01*
X196919415Y-104711612D01*
X196919417Y-104711612D01*
X196675875Y-104636489D01*
X196675871Y-104636488D01*
X196675867Y-104636487D01*
X196554640Y-104618214D01*
X196423849Y-104598500D01*
X196423844Y-104598500D01*
X196168974Y-104598500D01*
X196168968Y-104598500D01*
X196012018Y-104622157D01*
X195916951Y-104636487D01*
X195916947Y-104636488D01*
X195916948Y-104636488D01*
X195916942Y-104636489D01*
X195673401Y-104711612D01*
X195443782Y-104822190D01*
X195443781Y-104822191D01*
X195233191Y-104965768D01*
X195046361Y-105139121D01*
X195046359Y-105139123D01*
X194887450Y-105338388D01*
X194760017Y-105559109D01*
X194666901Y-105796362D01*
X194666899Y-105796369D01*
X194610186Y-106044845D01*
X194591141Y-106298995D01*
X194591141Y-106299004D01*
X181522500Y-106299004D01*
X181522500Y-103759004D01*
X190191732Y-103759004D01*
X190210777Y-104013154D01*
X190243890Y-104158233D01*
X190267492Y-104261637D01*
X190360607Y-104498888D01*
X190488041Y-104719612D01*
X190646950Y-104918877D01*
X190833783Y-105092232D01*
X191044366Y-105235805D01*
X191044371Y-105235807D01*
X191044372Y-105235808D01*
X191044373Y-105235809D01*
X191166328Y-105294538D01*
X191273992Y-105346387D01*
X191273993Y-105346387D01*
X191273996Y-105346389D01*
X191517542Y-105421513D01*
X191769565Y-105459500D01*
X192024435Y-105459500D01*
X192276458Y-105421513D01*
X192520004Y-105346389D01*
X192749634Y-105235805D01*
X192960217Y-105092232D01*
X193147050Y-104918877D01*
X193305959Y-104719612D01*
X193433393Y-104498888D01*
X193526508Y-104261637D01*
X193583222Y-104013157D01*
X193602268Y-103759000D01*
X193583222Y-103504843D01*
X193526508Y-103256363D01*
X193433393Y-103019112D01*
X193305959Y-102798388D01*
X193147050Y-102599123D01*
X192960217Y-102425768D01*
X192749634Y-102282195D01*
X192749630Y-102282193D01*
X192749627Y-102282191D01*
X192749626Y-102282190D01*
X192520006Y-102171612D01*
X192520008Y-102171612D01*
X192276466Y-102096489D01*
X192276462Y-102096488D01*
X192276458Y-102096487D01*
X192155231Y-102078214D01*
X192024440Y-102058500D01*
X192024435Y-102058500D01*
X191769565Y-102058500D01*
X191769559Y-102058500D01*
X191612609Y-102082157D01*
X191517542Y-102096487D01*
X191517538Y-102096488D01*
X191517539Y-102096488D01*
X191517533Y-102096489D01*
X191273992Y-102171612D01*
X191044373Y-102282190D01*
X191044372Y-102282191D01*
X190833782Y-102425768D01*
X190646952Y-102599121D01*
X190646950Y-102599123D01*
X190488041Y-102798388D01*
X190360608Y-103019109D01*
X190267492Y-103256362D01*
X190267490Y-103256369D01*
X190210777Y-103504845D01*
X190191732Y-103758995D01*
X190191732Y-103759004D01*
X181522500Y-103759004D01*
X181522500Y-102475700D01*
X181542185Y-102408661D01*
X181592695Y-102363981D01*
X181749634Y-102288405D01*
X181960217Y-102144832D01*
X182147050Y-101971477D01*
X182305959Y-101772212D01*
X182433393Y-101551488D01*
X182526508Y-101314237D01*
X182583222Y-101065757D01*
X182602268Y-100811604D01*
X184271732Y-100811604D01*
X184290777Y-101065754D01*
X184325755Y-101219004D01*
X184347492Y-101314237D01*
X184440607Y-101551488D01*
X184568041Y-101772212D01*
X184726950Y-101971477D01*
X184913783Y-102144832D01*
X185124366Y-102288405D01*
X185124371Y-102288407D01*
X185124372Y-102288408D01*
X185124373Y-102288409D01*
X185246179Y-102347067D01*
X185353992Y-102398987D01*
X185353993Y-102398987D01*
X185353996Y-102398989D01*
X185597542Y-102474113D01*
X185849565Y-102512100D01*
X186104435Y-102512100D01*
X186356458Y-102474113D01*
X186600004Y-102398989D01*
X186829634Y-102288405D01*
X187040217Y-102144832D01*
X187227050Y-101971477D01*
X187385959Y-101772212D01*
X187513393Y-101551488D01*
X187606508Y-101314237D01*
X187663222Y-101065757D01*
X187682268Y-100811600D01*
X187679952Y-100780697D01*
X187663222Y-100557445D01*
X187645342Y-100479109D01*
X187606508Y-100308963D01*
X187513393Y-100071712D01*
X187385959Y-99850988D01*
X187227050Y-99651723D01*
X187040217Y-99478368D01*
X186829634Y-99334795D01*
X186829630Y-99334793D01*
X186829627Y-99334791D01*
X186829626Y-99334790D01*
X186600006Y-99224212D01*
X186600008Y-99224212D01*
X186356466Y-99149089D01*
X186356462Y-99149088D01*
X186356458Y-99149087D01*
X186235231Y-99130814D01*
X186104440Y-99111100D01*
X186104435Y-99111100D01*
X185849565Y-99111100D01*
X185849559Y-99111100D01*
X185692609Y-99134757D01*
X185597542Y-99149087D01*
X185597538Y-99149088D01*
X185597539Y-99149088D01*
X185597533Y-99149089D01*
X185353992Y-99224212D01*
X185124373Y-99334790D01*
X185124372Y-99334791D01*
X184913782Y-99478368D01*
X184726952Y-99651721D01*
X184726950Y-99651723D01*
X184568041Y-99850988D01*
X184440608Y-100071709D01*
X184347492Y-100308962D01*
X184347490Y-100308969D01*
X184290777Y-100557445D01*
X184271732Y-100811595D01*
X184271732Y-100811604D01*
X182602268Y-100811604D01*
X182602268Y-100811600D01*
X182599952Y-100780697D01*
X182583222Y-100557445D01*
X182565342Y-100479109D01*
X182526508Y-100308963D01*
X182433393Y-100071712D01*
X182305959Y-99850988D01*
X182147050Y-99651723D01*
X181960217Y-99478368D01*
X181749634Y-99334795D01*
X181749630Y-99334793D01*
X181749627Y-99334791D01*
X181749626Y-99334790D01*
X181520006Y-99224212D01*
X181520008Y-99224212D01*
X181276466Y-99149089D01*
X181276462Y-99149088D01*
X181276458Y-99149087D01*
X181155231Y-99130814D01*
X181024440Y-99111100D01*
X181024435Y-99111100D01*
X180769565Y-99111100D01*
X180769559Y-99111100D01*
X180612609Y-99134757D01*
X180517542Y-99149087D01*
X180517538Y-99149088D01*
X180517539Y-99149088D01*
X180517533Y-99149089D01*
X180273992Y-99224212D01*
X180044373Y-99334790D01*
X180044372Y-99334791D01*
X179833782Y-99478368D01*
X179646952Y-99651721D01*
X179646950Y-99651723D01*
X179488041Y-99850988D01*
X179360608Y-100071709D01*
X179267492Y-100308962D01*
X179267490Y-100308969D01*
X179210777Y-100557445D01*
X179191732Y-100811595D01*
X179191732Y-100811604D01*
X179210777Y-101065754D01*
X179245755Y-101219004D01*
X179267492Y-101314237D01*
X179360607Y-101551488D01*
X179488041Y-101772212D01*
X179646950Y-101971477D01*
X179833783Y-102144832D01*
X180044366Y-102288405D01*
X180201303Y-102363981D01*
X180253161Y-102410802D01*
X180271500Y-102475700D01*
X180271500Y-119314546D01*
X180251815Y-119381585D01*
X180235181Y-119402227D01*
X180221389Y-119416019D01*
X180221377Y-119416032D01*
X180217121Y-119421517D01*
X180213337Y-119425947D01*
X180181437Y-119459918D01*
X180181436Y-119459920D01*
X180171784Y-119477476D01*
X180161110Y-119493726D01*
X180148829Y-119509561D01*
X180148824Y-119509568D01*
X180130315Y-119552339D01*
X180127744Y-119557586D01*
X180108474Y-119592638D01*
X180058927Y-119641902D01*
X179999813Y-119656900D01*
X179793630Y-119656900D01*
X179793623Y-119656901D01*
X179734016Y-119663308D01*
X179599171Y-119713602D01*
X179599164Y-119713606D01*
X179483955Y-119799852D01*
X179483952Y-119799855D01*
X179397706Y-119915064D01*
X179397702Y-119915071D01*
X179347408Y-120049917D01*
X179341001Y-120109516D01*
X179341001Y-120109523D01*
X179341000Y-120109535D01*
X179341000Y-120645147D01*
X179321315Y-120712186D01*
X179268511Y-120757941D01*
X179199353Y-120767885D01*
X179135797Y-120738860D01*
X179129319Y-120732828D01*
X175806419Y-117409928D01*
X175772934Y-117348605D01*
X175770100Y-117322247D01*
X175770100Y-102774928D01*
X175771605Y-102761958D01*
X175770800Y-102761874D01*
X175771613Y-102754125D01*
X175771616Y-102754117D01*
X175770100Y-102681662D01*
X175770100Y-102648850D01*
X175769685Y-102645563D01*
X175769209Y-102639083D01*
X175768310Y-102596114D01*
X175761858Y-102573004D01*
X175758269Y-102555203D01*
X175755264Y-102531408D01*
X175739438Y-102491437D01*
X175737373Y-102485302D01*
X175725814Y-102443896D01*
X175725811Y-102443890D01*
X175725809Y-102443886D01*
X175713820Y-102423120D01*
X175705914Y-102406766D01*
X175697087Y-102384471D01*
X175697086Y-102384468D01*
X175678645Y-102359087D01*
X175655166Y-102293285D01*
X175670990Y-102225231D01*
X175682008Y-102208904D01*
X175705368Y-102179612D01*
X175832802Y-101958888D01*
X175925917Y-101721637D01*
X175982631Y-101473157D01*
X176001677Y-101219000D01*
X175982631Y-100964843D01*
X175925917Y-100716363D01*
X175832802Y-100479112D01*
X175705368Y-100258388D01*
X175546459Y-100059123D01*
X175359626Y-99885768D01*
X175149043Y-99742195D01*
X175149039Y-99742193D01*
X175149036Y-99742191D01*
X175149035Y-99742190D01*
X174919415Y-99631612D01*
X174919417Y-99631612D01*
X174675875Y-99556489D01*
X174675871Y-99556488D01*
X174675867Y-99556487D01*
X174554640Y-99538214D01*
X174423849Y-99518500D01*
X174423844Y-99518500D01*
X174168974Y-99518500D01*
X174168968Y-99518500D01*
X174012018Y-99542157D01*
X173916951Y-99556487D01*
X173916947Y-99556488D01*
X173916948Y-99556488D01*
X173916942Y-99556489D01*
X173673401Y-99631612D01*
X173443782Y-99742190D01*
X173443781Y-99742191D01*
X173233191Y-99885768D01*
X173046361Y-100059121D01*
X173046359Y-100059123D01*
X172887450Y-100258388D01*
X172760017Y-100479109D01*
X172666901Y-100716362D01*
X172666899Y-100716369D01*
X172610186Y-100964845D01*
X172591141Y-101218995D01*
X172591141Y-101219004D01*
X164666568Y-101219004D01*
X165314684Y-100744316D01*
X166171948Y-100165553D01*
X167050751Y-99620050D01*
X167949804Y-99108608D01*
X168867786Y-98631978D01*
X169803351Y-98190859D01*
X169904902Y-98147651D01*
X170746544Y-97789549D01*
X170752307Y-97787146D01*
X170757148Y-97785128D01*
X170928569Y-97719826D01*
X171703654Y-97424568D01*
X171726095Y-97416209D01*
X172674900Y-97095821D01*
X172708451Y-97084777D01*
X173658525Y-96804012D01*
X173702808Y-96791304D01*
X174653122Y-96549631D01*
X174707695Y-96536223D01*
X175657355Y-96333098D01*
X175721608Y-96319915D01*
X176669534Y-96154850D01*
X176743071Y-96142693D01*
X177688355Y-96015172D01*
X177770581Y-96004816D01*
X178712266Y-95914345D01*
X178802607Y-95906490D01*
X179739584Y-95852585D01*
X179837645Y-95847857D01*
X180768869Y-95830016D01*
X180874163Y-95829001D01*
X181798810Y-95846716D01*
G37*
%TD.AperFunction*%
M02*
