M48
; DRILL file {KiCad 7.0.6} date Sat Jul 29 18:39:05 2023
; FORMAT={-:-/ absolute / inch / decimal}
; #@! TF.CreationDate,2023-07-29T18:39:05+05:30
; #@! TF.GenerationSoftware,Kicad,Pcbnew,7.0.6
; #@! TF.FileFunction,Plated,1,2,PTH
FMAT,2
INCH
; #@! TA.AperFunction,Plated,PTH,ComponentDrill
T1C0.0394
; #@! TA.AperFunction,Plated,PTH,ComponentDrill
T2C0.0472
%
G90
G05
T1
X7.1138Y-4.7641
X7.1138Y-4.8641
T2
X6.2558Y-4.6351
X6.2558Y-4.8351
X6.2718Y-5.095
X6.3718Y-4.402
X6.3718Y-5.2682
X6.4718Y-4.2288
X6.5157Y-5.4852
X6.6889Y-4.085
X6.6889Y-5.5852
X6.8621Y-3.985
X6.9219Y-5.7012
X7.1219Y-3.969
X7.1219Y-5.7012
X7.3219Y-3.969
X7.3818Y-5.6852
X7.555Y-4.085
X7.555Y-5.5852
X7.7282Y-4.185
X7.772Y-5.4414
X7.872Y-4.402
X7.872Y-5.2682
X7.972Y-4.5752
X7.9881Y-4.8351
X7.9881Y-5.0351
T0
M30
